;TYPE=PLATED
;Layer: PTH_Through_Via
;EasyEDA Pro v2.2.40.8, 2025-09-09 13:59:54
;Gerber Generator version 0.3
M48
METRIC,LZ,0000.00000
;Hole size 1 = 0.30000 METRIC
T01C0.30000
;Hole size 2 = 0.30500 METRIC
T02C0.30500
;Hole size 3 = 0.40000 METRIC
T03C0.40000
;Hole size 4 = 0.50000 METRIC
T04C0.50000
;Hole size 5 = 0.80000 METRIC
T05C0.80000
%
G05
G90
T01
X117.602Y54.864
X108.966Y54.864
X126.111Y54.85001
X134.874Y54.78974
T02
X51.308Y64.77
X207.01Y105.791
X207.645Y104.521
X208.28Y103.251
X208.915Y101.981
X209.55Y100.711
X210.312Y99.441
X210.947Y98.171
X211.63675Y96.91675
X204.87401Y105.78008
X204.87401Y104.54764
X204.87401Y103.24686
X204.87401Y101.96931
X204.851Y100.711
X204.851Y99.46067
X204.851Y98.20635
X204.851Y96.90557
X197.41275Y73.54875
X197.53975Y76.76606
X193.548Y108.077
X41.656Y98.933
X68.834Y64.262
X68.199Y60.071
X69.85Y56.388
X64.643Y60.071
X168.43417Y53.60189
X173.89517Y49.91889
X163.80482Y49.91889
X163.7606Y53.69298
X189.35921Y55.53395
X43.434Y66.167
X201.14631Y78.75975
X190.5Y52.705
X188.214Y50.8
X186.055Y54.229
X70.866Y58.674
X106.06828Y31.83818
X116.52055Y32.85407
X125.20119Y33.19586
X133.5636Y33.01959
X100.838Y69.723
X105.03119Y69.72272
X108.96911Y55.71468
X107.569Y44.33809
X107.569Y35.941
X107.696Y40.386
X116.11841Y44.32987
X116.24541Y35.91191
X117.602Y55.626
X106.172Y54.991
X114.77858Y54.95
X123.3599Y54.95
X126.111Y55.626
X124.62979Y44.32212
X124.841Y35.941
X124.74768Y40.33428
X116.078Y40.40346
X133.477Y35.941
X133.33258Y44.36321
X133.35Y40.35498
X134.874Y55.626
X131.953Y54.991
X127.762Y73.406
X130.36519Y73.406
X129.11808Y73.406
X126.492Y67.056
X125.27526Y67.056
X131.61229Y73.406
X115.189Y73.533
X117.65667Y73.533
X120.142Y73.279
X122.76111Y73.279
X118.999Y56.896
X127.381Y56.896
X136.13607Y56.896
X164.846Y54.864
X200.07975Y79.51094
X197.485Y75.565
X198.21932Y79.43474
X160.42875Y33.528
X158.59285Y33.528
X159.004Y39.624
X160.48122Y39.624
X169.418Y38.608
X170.77577Y38.608
X169.037Y32.639
X170.99445Y32.639
X182.18891Y32.258
X184.07602Y32.258
X182.499Y38.227
X183.84601Y38.227
X194.50304Y32.639
X196.39187Y32.639
X194.691Y38.481
X196.0634Y38.481
X185.245Y49.657
X193.548Y40.005
X181.31052Y39.73601
X168.26744Y40.11701
X157.69562Y41.00603
X54.61Y36.195
X58.56981Y36.195
X62.27496Y36.195
X65.91301Y36.15492
X69.80331Y36.15492
X73.93117Y36.15492
X77.68625Y36.15492
X81.4868Y36.15492
X53.213Y45.085
X57.03766Y45.08356
X61.087Y45.085
X64.73656Y45.085
X68.5371Y45.085
X76.50071Y45.08356
X80.26605Y45.08356
X55.05347Y47.24472
X59.00513Y47.24328
X62.80047Y47.24472
X66.57703Y47.24472
X70.37758Y47.24472
X74.50549Y47.24328
X78.46818Y47.24328
X82.23353Y47.24328
X72.644Y45.085
X185.928Y49.149
X186.89752Y49.13385
X187.579Y49.64174
X115.316Y70.866
X115.824Y71.501
X116.40038Y72.07014
X116.713Y67.31
X117.475Y67.691
X118.11Y68.326
X111.252Y74.041
X111.252Y63.5
X111.506Y35.052
X120.142Y35.306
X128.778Y35.56
X137.287Y35.687
X112.21197Y46.69222
X120.777Y46.228
X128.651Y46.609
X137.16Y46.609
X99.568Y66.421
X100.838Y65.278
X105.156Y65.278
X103.505Y66.294
T03
X109.474Y58.801
X118.20231Y58.801
X126.492Y59.055
X134.9848Y58.69195
X142.74519Y86.32747
T04
X190.76392Y92.32941
X179.67881Y92.2022
T05
X110.43787Y56.87135
X23.114Y52.12292
M30