;TYPE=PLATED
;Layer: PTH_Through
;EasyEDA Pro v2.2.40.8, 2025-09-09 13:59:54
;Gerber Generator version 0.3
M48
METRIC,LZ,0000.00000
;Hole size 1 = 0.30000 METRIC
T01C0.30000
;Hole size 2 = 0.30500 METRIC
T02C0.30500
;Hole size 3 = 0.40000 METRIC
T03C0.40000
;Hole size 4 = 0.50000 METRIC
T04C0.50000
;Hole size 5 = 0.80000 METRIC
T05C0.80000
;Hole size 6 = 0.80000 METRIC
T06C0.80000
;Hole size 7 = 0.91440 METRIC
T07C0.91440
;Hole size 8 = 1.00000 METRIC
T08C1.00000
;Hole size 9 = 1.01600 METRIC
T09C1.01600
;Hole size 10 = 1.10002 METRIC
T10C1.10002
;Hole size 11 = 1.20000 METRIC
T11C1.20000
;Hole size 12 = 1.50000 METRIC
T12C1.50000
;Hole size 13 = 1.50002 METRIC
T13C1.50002
;Hole size 14 = 1.52400 METRIC
T14C1.52400
;Hole size 15 = 1.70000 METRIC
T15C1.70000
;Hole size 16 = 1.70000 METRIC
T16C1.70000
;Hole size 17 = 1.80000 METRIC
T17C1.80000
%
G05
G90
T01
X117.602Y54.864
X108.966Y54.864
X126.111Y54.85001
X134.874Y54.78974
T02
X51.308Y64.77
X207.01Y105.791
X207.645Y104.521
X208.28Y103.251
X208.915Y101.981
X209.55Y100.711
X210.312Y99.441
X210.947Y98.171
X211.63675Y96.91675
X204.87401Y105.78008
X204.87401Y104.54764
X204.87401Y103.24686
X204.87401Y101.96931
X204.851Y100.711
X204.851Y99.46067
X204.851Y98.20635
X204.851Y96.90557
X197.41275Y73.54875
X197.53975Y76.76606
X193.548Y108.077
X41.656Y98.933
X68.834Y64.262
X68.199Y60.071
X69.85Y56.388
X64.643Y60.071
X168.43417Y53.60189
X173.89517Y49.91889
X163.80482Y49.91889
X163.7606Y53.69298
X189.35921Y55.53395
X43.434Y66.167
X201.14631Y78.75975
X190.5Y52.705
X188.214Y50.8
X186.055Y54.229
X70.866Y58.674
X106.06828Y31.83818
X116.52055Y32.85407
X125.20119Y33.19586
X133.5636Y33.01959
X100.838Y69.723
X105.03119Y69.72272
X108.96911Y55.71468
X107.569Y44.33809
X107.569Y35.941
X107.696Y40.386
X116.11841Y44.32987
X116.24541Y35.91191
X117.602Y55.626
X106.172Y54.991
X114.77858Y54.95
X123.3599Y54.95
X126.111Y55.626
X124.62979Y44.32212
X124.841Y35.941
X124.74768Y40.33428
X116.078Y40.40346
X133.477Y35.941
X133.33258Y44.36321
X133.35Y40.35498
X134.874Y55.626
X131.953Y54.991
X127.762Y73.406
X130.36519Y73.406
X129.11808Y73.406
X126.492Y67.056
X125.27526Y67.056
X131.61229Y73.406
X115.189Y73.533
X117.65667Y73.533
X120.142Y73.279
X122.76111Y73.279
X118.999Y56.896
X127.381Y56.896
X136.13607Y56.896
X164.846Y54.864
X200.07975Y79.51094
X197.485Y75.565
X198.21932Y79.43474
X160.42875Y33.528
X158.59285Y33.528
X159.004Y39.624
X160.48122Y39.624
X169.418Y38.608
X170.77577Y38.608
X169.037Y32.639
X170.99445Y32.639
X182.18891Y32.258
X184.07602Y32.258
X182.499Y38.227
X183.84601Y38.227
X194.50304Y32.639
X196.39187Y32.639
X194.691Y38.481
X196.0634Y38.481
X185.245Y49.657
X193.548Y40.005
X181.31052Y39.73601
X168.26744Y40.11701
X157.69562Y41.00603
X54.61Y36.195
X58.56981Y36.195
X62.27496Y36.195
X65.91301Y36.15492
X69.80331Y36.15492
X73.93117Y36.15492
X77.68625Y36.15492
X81.4868Y36.15492
X53.213Y45.085
X57.03766Y45.08356
X61.087Y45.085
X64.73656Y45.085
X68.5371Y45.085
X76.50071Y45.08356
X80.26605Y45.08356
X55.05347Y47.24472
X59.00513Y47.24328
X62.80047Y47.24472
X66.57703Y47.24472
X70.37758Y47.24472
X74.50549Y47.24328
X78.46818Y47.24328
X82.23353Y47.24328
X72.644Y45.085
X185.928Y49.149
X186.89752Y49.13385
X187.579Y49.64174
X115.316Y70.866
X115.824Y71.501
X116.40038Y72.07014
X116.713Y67.31
X117.475Y67.691
X118.11Y68.326
X111.252Y74.041
X111.252Y63.5
X111.506Y35.052
X120.142Y35.306
X128.778Y35.56
X137.287Y35.687
X112.21197Y46.69222
X120.777Y46.228
X128.651Y46.609
X137.16Y46.609
X99.568Y66.421
X100.838Y65.278
X105.156Y65.278
X103.505Y66.294
T03
X109.474Y58.801
X118.20231Y58.801
X126.492Y59.055
X134.9848Y58.69195
X142.74519Y86.32747
T04
X190.76392Y92.32941
X179.67881Y92.2022
T05
X110.43787Y56.87135
X23.114Y52.12292
T06
X35.179Y80.772
X35.179Y85.852
X40.259Y85.979
X40.259Y80.772
X47.244Y84.5185
X52.324Y84.6455
X52.324Y79.4385
X47.244Y79.4385
X34.1425Y91.10668
T07
X203.073Y108.458
X54.3045Y127.9405
X54.3045Y122.8605
X74.40825Y127.88006
X74.40825Y122.80006
X94.60125Y127.88006
X94.60125Y122.80006
X115.04825Y128.00706
X115.04825Y122.92706
X135.49525Y127.88006
X135.49525Y122.80006
X176.13525Y127.88006
X176.13525Y122.80006
X155.81525Y127.88006
X155.81525Y122.80006
X196.20125Y127.88006
X196.20125Y122.80006
X61.722Y26.543
X66.802Y26.543
X71.882Y26.543
X76.94634Y26.543
X82.01918Y26.543
X87.122Y26.543
X92.25437Y26.543
X97.26753Y26.543
X61.722Y21.463
X66.802Y21.463
X71.90075Y21.463
X76.962Y21.463
X82.02633Y21.463
X87.1058Y21.463
X92.29136Y21.463
X97.282Y21.463
X107.442Y26.543
X107.442Y21.463
X112.522Y21.463
X112.522Y26.543
X117.602Y21.463
X117.602Y26.543
X122.682Y21.463
X122.682Y26.543
X132.842Y21.463
X132.842Y26.543
X137.922Y26.543
X137.922Y21.463
X143.002Y21.463
X143.002Y26.543
X148.082Y21.463
X148.082Y26.543
T08
X131.19355Y98.82655
X131.19355Y80.53855
X171.57955Y80.53855
X171.57955Y98.82655
T09
X36.68249Y91.10668
X39.22249Y91.10668
X41.76248Y91.10668
X44.30248Y91.10668
X46.84247Y91.10668
X49.38247Y91.10668
X51.92246Y91.10668
X54.46246Y91.10668
X57.00245Y91.10668
X59.54245Y91.10668
X62.08244Y91.10668
X64.62244Y91.10668
X64.62244Y93.64667
X62.08244Y93.64667
X59.54245Y93.64667
X57.00245Y93.64667
X54.46246Y93.64667
X51.92246Y93.64667
X49.38247Y93.64667
X46.84247Y93.64667
X44.30248Y93.64667
X41.76248Y93.64667
X39.22249Y93.64667
X36.68249Y93.64667
X34.1425Y93.64667
X67.16243Y91.10668
X67.16243Y93.64667
X69.70243Y91.10668
X69.70243Y93.64667
X72.24242Y91.10668
X72.24242Y93.64667
X74.78242Y91.10668
X74.78242Y93.64667
X77.32241Y91.10668
X77.32241Y93.64667
X79.86241Y91.10668
X79.86241Y93.64667
X82.4024Y91.10668
X82.4024Y93.64667
T10
X165.608Y23.622
X165.608Y26.162
X163.068Y23.622
X163.068Y26.162
X178.308Y23.495
X178.308Y26.035
X175.768Y23.495
X175.768Y26.035
X190.5Y23.622
X190.5Y26.162
X187.96Y23.622
X187.96Y26.162
X202.819Y23.622
X202.819Y26.162
X200.279Y23.622
X200.279Y26.162
T11
X36.83Y98.933
X39.37Y98.933
T12
X203.962Y58.166
X23.749Y70.485
T13
X49.022Y139.954
X43.942Y139.954
X38.862Y139.954
X69.342Y139.954
X64.262Y139.954
X59.182Y139.954
X89.662Y139.954
X84.582Y139.954
X79.502Y139.954
X109.982Y139.954
X104.902Y139.954
X99.822Y139.954
X130.302Y139.954
X125.222Y139.954
X120.142Y139.954
X150.622Y139.954
X145.542Y139.954
X140.462Y139.954
X170.942Y139.954
X165.862Y139.954
X160.782Y139.954
X191.262Y140.081
X186.182Y140.081
X181.102Y140.081
T14
X37.96107Y130.49113
X43.96055Y116.29118
X49.96054Y118.2912
X37.96057Y118.2912
X49.96003Y130.4912
X58.28107Y130.49113
X64.28055Y116.29118
X70.28054Y118.2912
X58.28057Y118.2912
X70.28003Y130.4912
X78.60107Y130.49113
X84.60055Y116.29118
X90.60054Y118.2912
X78.60057Y118.2912
X90.60003Y130.4912
X98.92107Y130.49113
X104.92055Y116.29118
X110.92054Y118.2912
X98.92057Y118.2912
X110.92003Y130.4912
X119.24107Y130.49113
X125.24055Y116.29118
X131.24054Y118.2912
X119.24057Y118.2912
X131.24003Y130.4912
X139.56107Y130.49113
X145.56055Y116.29118
X151.56054Y118.2912
X139.56057Y118.2912
X151.56003Y130.4912
X159.88107Y130.49113
X165.88055Y116.29118
X171.88054Y118.2912
X159.88057Y118.2912
X171.88003Y130.4912
X180.20107Y130.49113
X186.20055Y116.29118
X192.20054Y118.2912
X180.20057Y118.2912
X192.20003Y130.4912
T15
X97.282Y10.033
X92.28328Y10.033
X87.122Y10.033
X82.042Y10.033
X76.962Y10.033
X71.882Y10.033
X66.802Y10.033
X61.722Y10.033
X219.964Y92.71
X219.964Y87.71128
X219.964Y82.55
X219.964Y77.47
X219.964Y72.39
X219.964Y67.31
X219.964Y62.23
X219.964Y57.15
X10.033Y57.15
X10.033Y62.14872
X10.033Y67.31
X10.033Y72.39
X10.033Y77.47
X10.033Y82.55
X10.033Y87.63
X10.033Y92.71
T16
X40.005Y21.717
X40.005Y31.877
X34.925Y21.717
X34.925Y31.877
T17
X148.082Y10.0329
X143.002Y10.0329
X137.92197Y10.0329
X132.84197Y10.0329
X122.682Y10.0329
X117.602Y10.0329
X112.52197Y10.0329
X107.44197Y10.0329
M30