G04 Layer: InnerLayer1*
G04 EasyEDA Pro v2.2.40.8, 2025-09-09 13:59:53*
G04 Gerber Generator version 0.3*
G04 Scale: 100 percent, Rotated: No, Reflected: No*
G04 Dimensions in millimeters*
G04 Leading zeros omitted, absolute positions, 4 integers and 5 decimals*
G04 Generated by one-click*
%FSLAX45Y45*%
%MOMM*%
%ADD10C,0.2032*%
%ADD11C,0.254*%
%ADD12C,1.524*%
%ADD13C,3.0*%
%ADD14C,1.5*%
%ADD15C,1.8802*%
%ADD16C,1.8796*%
%ADD17R,2.0X2.0*%
%ADD18C,2.0*%
%ADD19C,2.794*%
%ADD20C,2.4*%
%ADD21C,2.79999*%
%ADD22R,1.7X1.7*%
%ADD23C,1.7*%
%ADD24C,2.5*%
%ADD25C,1.152*%
%ADD26C,0.61*%
%ADD27C,1.2*%
%ADD28C,0.5*%
%ADD29C,0.8*%
G75*


G04 Copper Start*
G36*
G01X35814Y11064240D02*
G01X22963886Y11064240D01*
G01X22963886Y1724660D01*
G01X35814Y1724660D01*
G01X35814Y2171700D01*
G01X3306686Y2171700D01*
G01X3308577Y2145256D01*
G01X3314213Y2119350D01*
G01X3323478Y2094510D01*
G01X3336183Y2071241D01*
G01X3352071Y2050018D01*
G01X3370818Y2031271D01*
G01X3392041Y2015383D01*
G01X3415310Y2002678D01*
G01X3440150Y1993413D01*
G01X3466056Y1987777D01*
G01X3492500Y1985886D01*
G01X3518944Y1987777D01*
G01X3544850Y1993413D01*
G01X3569690Y2002678D01*
G01X3592959Y2015383D01*
G01X3614182Y2031271D01*
G01X3632929Y2050018D01*
G01X3648817Y2071241D01*
G01X3661522Y2094510D01*
G01X3670787Y2119350D01*
G01X3676423Y2145256D01*
G01X3678314Y2171700D01*
G01X3814686Y2171700D01*
G01X3816577Y2145256D01*
G01X3822213Y2119350D01*
G01X3831478Y2094510D01*
G01X3844183Y2071241D01*
G01X3860071Y2050018D01*
G01X3878818Y2031271D01*
G01X3900041Y2015383D01*
G01X3923310Y2002678D01*
G01X3948150Y1993413D01*
G01X3974056Y1987777D01*
G01X4000500Y1985886D01*
G01X4026944Y1987777D01*
G01X4052850Y1993413D01*
G01X4077690Y2002678D01*
G01X4100959Y2015383D01*
G01X4122182Y2031271D01*
G01X4140929Y2050018D01*
G01X4156817Y2071241D01*
G01X4169522Y2094510D01*
G01X4178787Y2119350D01*
G01X4184423Y2145256D01*
G01X4184497Y2146300D01*
G01X6060186Y2146300D01*
G01X6062093Y2125717D01*
G01X6067750Y2105836D01*
G01X6076964Y2087332D01*
G01X6089421Y2070837D01*
G01X6104696Y2056911D01*
G01X6122271Y2046029D01*
G01X6141546Y2038562D01*
G01X6161865Y2034764D01*
G01X6182535Y2034764D01*
G01X6202854Y2038562D01*
G01X6222129Y2046029D01*
G01X6239704Y2056911D01*
G01X6254979Y2070837D01*
G01X6267436Y2087332D01*
G01X6276650Y2105836D01*
G01X6282307Y2125717D01*
G01X6284214Y2146300D01*
G01X6284214Y2146300D01*
G01X6568186Y2146300D01*
G01X6570093Y2125717D01*
G01X6575750Y2105836D01*
G01X6584964Y2087332D01*
G01X6597421Y2070837D01*
G01X6612696Y2056911D01*
G01X6630271Y2046029D01*
G01X6649546Y2038562D01*
G01X6669865Y2034764D01*
G01X6690535Y2034764D01*
G01X6710854Y2038562D01*
G01X6730129Y2046029D01*
G01X6747704Y2056911D01*
G01X6762979Y2070837D01*
G01X6775436Y2087332D01*
G01X6784650Y2105836D01*
G01X6790307Y2125717D01*
G01X6792214Y2146300D01*
G01X6792214Y2146300D01*
G01X7078061Y2146300D01*
G01X7079968Y2125717D01*
G01X7085625Y2105836D01*
G01X7094839Y2087332D01*
G01X7107296Y2070837D01*
G01X7122572Y2056911D01*
G01X7140146Y2046029D01*
G01X7159421Y2038562D01*
G01X7179740Y2034764D01*
G01X7200410Y2034764D01*
G01X7220729Y2038562D01*
G01X7240004Y2046029D01*
G01X7257579Y2056911D01*
G01X7272854Y2070837D01*
G01X7285311Y2087332D01*
G01X7294525Y2105836D01*
G01X7300182Y2125717D01*
G01X7302089Y2146300D01*
G01X7302089Y2146300D01*
G01X7584186Y2146300D01*
G01X7586093Y2125717D01*
G01X7591750Y2105836D01*
G01X7600964Y2087332D01*
G01X7613421Y2070837D01*
G01X7628696Y2056911D01*
G01X7646271Y2046029D01*
G01X7665546Y2038562D01*
G01X7685865Y2034764D01*
G01X7706535Y2034764D01*
G01X7726854Y2038562D01*
G01X7746129Y2046029D01*
G01X7763704Y2056911D01*
G01X7778979Y2070837D01*
G01X7791436Y2087332D01*
G01X7800650Y2105836D01*
G01X7806307Y2125717D01*
G01X7808214Y2146300D01*
G01X7808214Y2146300D01*
G01X8090619Y2146300D01*
G01X8092526Y2125717D01*
G01X8098183Y2105836D01*
G01X8107396Y2087332D01*
G01X8119853Y2070837D01*
G01X8135129Y2056911D01*
G01X8152704Y2046029D01*
G01X8171979Y2038562D01*
G01X8192297Y2034764D01*
G01X8212968Y2034764D01*
G01X8233287Y2038562D01*
G01X8252562Y2046029D01*
G01X8270136Y2056911D01*
G01X8285412Y2070837D01*
G01X8297869Y2087332D01*
G01X8307083Y2105836D01*
G01X8312739Y2125717D01*
G01X8314647Y2146300D01*
G01X8314647Y2146300D01*
G01X8598566Y2146300D01*
G01X8600473Y2125717D01*
G01X8606130Y2105836D01*
G01X8615343Y2087332D01*
G01X8627800Y2070837D01*
G01X8643076Y2056911D01*
G01X8660651Y2046029D01*
G01X8679926Y2038562D01*
G01X8700244Y2034764D01*
G01X8720915Y2034764D01*
G01X8741234Y2038562D01*
G01X8760509Y2046029D01*
G01X8778083Y2056911D01*
G01X8793359Y2070837D01*
G01X8805816Y2087332D01*
G01X8815030Y2105836D01*
G01X8820686Y2125717D01*
G01X8822594Y2146300D01*
G01X8822594Y2146300D01*
G01X9117122Y2146300D01*
G01X9119030Y2125717D01*
G01X9124686Y2105836D01*
G01X9133900Y2087332D01*
G01X9146357Y2070837D01*
G01X9161633Y2056911D01*
G01X9179207Y2046029D01*
G01X9198482Y2038562D01*
G01X9218801Y2034764D01*
G01X9239472Y2034764D01*
G01X9259791Y2038562D01*
G01X9279065Y2046029D01*
G01X9296640Y2056911D01*
G01X9311916Y2070837D01*
G01X9324373Y2087332D01*
G01X9333586Y2105836D01*
G01X9339243Y2125717D01*
G01X9341150Y2146300D01*
G01X9341150Y2146300D01*
G01X9616186Y2146300D01*
G01X9618093Y2125717D01*
G01X9623750Y2105836D01*
G01X9632964Y2087332D01*
G01X9645421Y2070837D01*
G01X9660696Y2056911D01*
G01X9678271Y2046029D01*
G01X9697546Y2038562D01*
G01X9717865Y2034764D01*
G01X9738535Y2034764D01*
G01X9758854Y2038562D01*
G01X9778129Y2046029D01*
G01X9795704Y2056911D01*
G01X9810979Y2070837D01*
G01X9823436Y2087332D01*
G01X9832650Y2105836D01*
G01X9838307Y2125717D01*
G01X9840214Y2146300D01*
G01X9840214Y2146300D01*
G01X10632186Y2146300D01*
G01X10634093Y2125717D01*
G01X10639750Y2105836D01*
G01X10648964Y2087332D01*
G01X10661421Y2070837D01*
G01X10676696Y2056911D01*
G01X10694271Y2046029D01*
G01X10713546Y2038562D01*
G01X10733865Y2034764D01*
G01X10754535Y2034764D01*
G01X10774854Y2038562D01*
G01X10794129Y2046029D01*
G01X10811704Y2056911D01*
G01X10826979Y2070837D01*
G01X10839436Y2087332D01*
G01X10848650Y2105836D01*
G01X10854307Y2125717D01*
G01X10856214Y2146300D01*
G01X10856214Y2146300D01*
G01X11140186Y2146300D01*
G01X11142093Y2125717D01*
G01X11147750Y2105836D01*
G01X11156964Y2087332D01*
G01X11169421Y2070837D01*
G01X11184696Y2056911D01*
G01X11202271Y2046029D01*
G01X11221546Y2038562D01*
G01X11241865Y2034764D01*
G01X11262535Y2034764D01*
G01X11282854Y2038562D01*
G01X11302129Y2046029D01*
G01X11319704Y2056911D01*
G01X11334979Y2070837D01*
G01X11347436Y2087332D01*
G01X11356650Y2105836D01*
G01X11362307Y2125717D01*
G01X11364214Y2146300D01*
G01X11364214Y2146300D01*
G01X11648186Y2146300D01*
G01X11650093Y2125717D01*
G01X11655750Y2105836D01*
G01X11664964Y2087332D01*
G01X11677421Y2070837D01*
G01X11692696Y2056911D01*
G01X11710271Y2046029D01*
G01X11729546Y2038562D01*
G01X11749865Y2034764D01*
G01X11770535Y2034764D01*
G01X11790854Y2038562D01*
G01X11810129Y2046029D01*
G01X11827704Y2056911D01*
G01X11842979Y2070837D01*
G01X11855436Y2087332D01*
G01X11864650Y2105836D01*
G01X11870307Y2125717D01*
G01X11872214Y2146300D01*
G01X11872214Y2146300D01*
G01X12156186Y2146300D01*
G01X12158093Y2125717D01*
G01X12163750Y2105836D01*
G01X12172964Y2087332D01*
G01X12185421Y2070837D01*
G01X12200696Y2056911D01*
G01X12218271Y2046029D01*
G01X12237546Y2038562D01*
G01X12257865Y2034764D01*
G01X12278535Y2034764D01*
G01X12298854Y2038562D01*
G01X12318129Y2046029D01*
G01X12335704Y2056911D01*
G01X12350979Y2070837D01*
G01X12363436Y2087332D01*
G01X12372650Y2105836D01*
G01X12378307Y2125717D01*
G01X12380214Y2146300D01*
G01X12380214Y2146300D01*
G01X13172186Y2146300D01*
G01X13174093Y2125717D01*
G01X13179750Y2105836D01*
G01X13188964Y2087332D01*
G01X13201421Y2070837D01*
G01X13216696Y2056911D01*
G01X13234271Y2046029D01*
G01X13253546Y2038562D01*
G01X13273865Y2034764D01*
G01X13294535Y2034764D01*
G01X13314854Y2038562D01*
G01X13334129Y2046029D01*
G01X13351704Y2056911D01*
G01X13366979Y2070837D01*
G01X13379436Y2087332D01*
G01X13388650Y2105836D01*
G01X13394307Y2125717D01*
G01X13396214Y2146300D01*
G01X13396214Y2146300D01*
G01X13680186Y2146300D01*
G01X13682093Y2125717D01*
G01X13687750Y2105836D01*
G01X13696964Y2087332D01*
G01X13709421Y2070837D01*
G01X13724696Y2056911D01*
G01X13742271Y2046029D01*
G01X13761546Y2038562D01*
G01X13781865Y2034764D01*
G01X13802535Y2034764D01*
G01X13822854Y2038562D01*
G01X13842129Y2046029D01*
G01X13859704Y2056911D01*
G01X13874979Y2070837D01*
G01X13887436Y2087332D01*
G01X13896650Y2105836D01*
G01X13902307Y2125717D01*
G01X13904214Y2146300D01*
G01X13904214Y2146300D01*
G01X14188186Y2146300D01*
G01X14190093Y2125717D01*
G01X14195750Y2105836D01*
G01X14204964Y2087332D01*
G01X14217421Y2070837D01*
G01X14232696Y2056911D01*
G01X14250271Y2046029D01*
G01X14269546Y2038562D01*
G01X14289865Y2034764D01*
G01X14310535Y2034764D01*
G01X14330854Y2038562D01*
G01X14350129Y2046029D01*
G01X14367704Y2056911D01*
G01X14382979Y2070837D01*
G01X14395436Y2087332D01*
G01X14404650Y2105836D01*
G01X14410307Y2125717D01*
G01X14412214Y2146300D01*
G01X14412214Y2146300D01*
G01X14696186Y2146300D01*
G01X14698093Y2125717D01*
G01X14703750Y2105836D01*
G01X14712964Y2087332D01*
G01X14725421Y2070837D01*
G01X14740696Y2056911D01*
G01X14758271Y2046029D01*
G01X14777546Y2038562D01*
G01X14797865Y2034764D01*
G01X14818535Y2034764D01*
G01X14838854Y2038562D01*
G01X14858129Y2046029D01*
G01X14875704Y2056911D01*
G01X14890979Y2070837D01*
G01X14903436Y2087332D01*
G01X14912650Y2105836D01*
G01X14918307Y2125717D01*
G01X14920214Y2146300D01*
G01X14918307Y2166883D01*
G01X14912650Y2186764D01*
G01X14903436Y2205268D01*
G01X14890979Y2221763D01*
G01X14875704Y2235689D01*
G01X14858129Y2246571D01*
G01X14838854Y2254038D01*
G01X14818535Y2257836D01*
G01X14797865Y2257836D01*
G01X14777546Y2254038D01*
G01X14758271Y2246571D01*
G01X14740696Y2235689D01*
G01X14725421Y2221763D01*
G01X14712964Y2205268D01*
G01X14703750Y2186764D01*
G01X14698093Y2166883D01*
G01X14696186Y2146300D01*
G01X14696186Y2146300D01*
G01X14412214Y2146300D01*
G01X14410307Y2166883D01*
G01X14404650Y2186764D01*
G01X14395436Y2205268D01*
G01X14382979Y2221763D01*
G01X14367704Y2235689D01*
G01X14350129Y2246571D01*
G01X14330854Y2254038D01*
G01X14310535Y2257836D01*
G01X14289865Y2257836D01*
G01X14269546Y2254038D01*
G01X14250271Y2246571D01*
G01X14232696Y2235689D01*
G01X14217421Y2221763D01*
G01X14204964Y2205268D01*
G01X14195750Y2186764D01*
G01X14190093Y2166883D01*
G01X14188186Y2146300D01*
G01X14188186Y2146300D01*
G01X13904214Y2146300D01*
G01X13902307Y2166883D01*
G01X13896650Y2186764D01*
G01X13887436Y2205268D01*
G01X13874979Y2221763D01*
G01X13859704Y2235689D01*
G01X13842129Y2246571D01*
G01X13822854Y2254038D01*
G01X13802535Y2257836D01*
G01X13781865Y2257836D01*
G01X13761546Y2254038D01*
G01X13742271Y2246571D01*
G01X13724696Y2235689D01*
G01X13709421Y2221763D01*
G01X13696964Y2205268D01*
G01X13687750Y2186764D01*
G01X13682093Y2166883D01*
G01X13680186Y2146300D01*
G01X13680186Y2146300D01*
G01X13396214Y2146300D01*
G01X13394307Y2166883D01*
G01X13388650Y2186764D01*
G01X13379436Y2205268D01*
G01X13366979Y2221763D01*
G01X13351704Y2235689D01*
G01X13334129Y2246571D01*
G01X13314854Y2254038D01*
G01X13294535Y2257836D01*
G01X13273865Y2257836D01*
G01X13253546Y2254038D01*
G01X13234271Y2246571D01*
G01X13216696Y2235689D01*
G01X13201421Y2221763D01*
G01X13188964Y2205268D01*
G01X13179750Y2186764D01*
G01X13174093Y2166883D01*
G01X13172186Y2146300D01*
G01X13172186Y2146300D01*
G01X12380214Y2146300D01*
G01X12378307Y2166883D01*
G01X12372650Y2186764D01*
G01X12363436Y2205268D01*
G01X12350979Y2221763D01*
G01X12335704Y2235689D01*
G01X12318129Y2246571D01*
G01X12298854Y2254038D01*
G01X12278535Y2257836D01*
G01X12257865Y2257836D01*
G01X12237546Y2254038D01*
G01X12218271Y2246571D01*
G01X12200696Y2235689D01*
G01X12185421Y2221763D01*
G01X12172964Y2205268D01*
G01X12163750Y2186764D01*
G01X12158093Y2166883D01*
G01X12156186Y2146300D01*
G01X12156186Y2146300D01*
G01X11872214Y2146300D01*
G01X11870307Y2166883D01*
G01X11864650Y2186764D01*
G01X11855436Y2205268D01*
G01X11842979Y2221763D01*
G01X11827704Y2235689D01*
G01X11810129Y2246571D01*
G01X11790854Y2254038D01*
G01X11770535Y2257836D01*
G01X11749865Y2257836D01*
G01X11729546Y2254038D01*
G01X11710271Y2246571D01*
G01X11692696Y2235689D01*
G01X11677421Y2221763D01*
G01X11664964Y2205268D01*
G01X11655750Y2186764D01*
G01X11650093Y2166883D01*
G01X11648186Y2146300D01*
G01X11648186Y2146300D01*
G01X11364214Y2146300D01*
G01X11362307Y2166883D01*
G01X11356650Y2186764D01*
G01X11347436Y2205268D01*
G01X11334979Y2221763D01*
G01X11319704Y2235689D01*
G01X11302129Y2246571D01*
G01X11282854Y2254038D01*
G01X11262535Y2257836D01*
G01X11241865Y2257836D01*
G01X11221546Y2254038D01*
G01X11202271Y2246571D01*
G01X11184696Y2235689D01*
G01X11169421Y2221763D01*
G01X11156964Y2205268D01*
G01X11147750Y2186764D01*
G01X11142093Y2166883D01*
G01X11140186Y2146300D01*
G01X11140186Y2146300D01*
G01X10856214Y2146300D01*
G01X10854307Y2166883D01*
G01X10848650Y2186764D01*
G01X10839436Y2205268D01*
G01X10826979Y2221763D01*
G01X10811704Y2235689D01*
G01X10794129Y2246571D01*
G01X10774854Y2254038D01*
G01X10754535Y2257836D01*
G01X10733865Y2257836D01*
G01X10713546Y2254038D01*
G01X10694271Y2246571D01*
G01X10676696Y2235689D01*
G01X10661421Y2221763D01*
G01X10648964Y2205268D01*
G01X10639750Y2186764D01*
G01X10634093Y2166883D01*
G01X10632186Y2146300D01*
G01X10632186Y2146300D01*
G01X9840214Y2146300D01*
G01X9838307Y2166883D01*
G01X9832650Y2186764D01*
G01X9823436Y2205268D01*
G01X9810979Y2221763D01*
G01X9795704Y2235689D01*
G01X9778129Y2246571D01*
G01X9758854Y2254038D01*
G01X9738535Y2257836D01*
G01X9717865Y2257836D01*
G01X9697546Y2254038D01*
G01X9678271Y2246571D01*
G01X9660696Y2235689D01*
G01X9645421Y2221763D01*
G01X9632964Y2205268D01*
G01X9623750Y2186764D01*
G01X9618093Y2166883D01*
G01X9616186Y2146300D01*
G01X9616186Y2146300D01*
G01X9341150Y2146300D01*
G01X9339243Y2166883D01*
G01X9333586Y2186764D01*
G01X9324373Y2205268D01*
G01X9311916Y2221763D01*
G01X9296640Y2235689D01*
G01X9279065Y2246571D01*
G01X9259791Y2254038D01*
G01X9239472Y2257836D01*
G01X9218801Y2257836D01*
G01X9198482Y2254038D01*
G01X9179207Y2246571D01*
G01X9161633Y2235689D01*
G01X9146357Y2221763D01*
G01X9133900Y2205268D01*
G01X9124686Y2186764D01*
G01X9119030Y2166883D01*
G01X9117122Y2146300D01*
G01X9117122Y2146300D01*
G01X8822594Y2146300D01*
G01X8820686Y2166883D01*
G01X8815030Y2186764D01*
G01X8805816Y2205268D01*
G01X8793359Y2221763D01*
G01X8778083Y2235689D01*
G01X8760509Y2246571D01*
G01X8741234Y2254038D01*
G01X8720915Y2257836D01*
G01X8700244Y2257836D01*
G01X8679926Y2254038D01*
G01X8660651Y2246571D01*
G01X8643076Y2235689D01*
G01X8627800Y2221763D01*
G01X8615343Y2205268D01*
G01X8606130Y2186764D01*
G01X8600473Y2166883D01*
G01X8598566Y2146300D01*
G01X8598566Y2146300D01*
G01X8314647Y2146300D01*
G01X8312739Y2166883D01*
G01X8307083Y2186764D01*
G01X8297869Y2205268D01*
G01X8285412Y2221763D01*
G01X8270136Y2235689D01*
G01X8252562Y2246571D01*
G01X8233287Y2254038D01*
G01X8212968Y2257836D01*
G01X8192297Y2257836D01*
G01X8171979Y2254038D01*
G01X8152704Y2246571D01*
G01X8135129Y2235689D01*
G01X8119853Y2221763D01*
G01X8107396Y2205268D01*
G01X8098183Y2186764D01*
G01X8092526Y2166883D01*
G01X8090619Y2146300D01*
G01X8090619Y2146300D01*
G01X7808214Y2146300D01*
G01X7806307Y2166883D01*
G01X7800650Y2186764D01*
G01X7791436Y2205268D01*
G01X7778979Y2221763D01*
G01X7763704Y2235689D01*
G01X7746129Y2246571D01*
G01X7726854Y2254038D01*
G01X7706535Y2257836D01*
G01X7685865Y2257836D01*
G01X7665546Y2254038D01*
G01X7646271Y2246571D01*
G01X7628696Y2235689D01*
G01X7613421Y2221763D01*
G01X7600964Y2205268D01*
G01X7591750Y2186764D01*
G01X7586093Y2166883D01*
G01X7584186Y2146300D01*
G01X7584186Y2146300D01*
G01X7302089Y2146300D01*
G01X7300182Y2166883D01*
G01X7294525Y2186764D01*
G01X7285311Y2205268D01*
G01X7272854Y2221763D01*
G01X7257579Y2235689D01*
G01X7240004Y2246571D01*
G01X7220729Y2254038D01*
G01X7200410Y2257836D01*
G01X7179740Y2257836D01*
G01X7159421Y2254038D01*
G01X7140146Y2246571D01*
G01X7122572Y2235689D01*
G01X7107296Y2221763D01*
G01X7094839Y2205268D01*
G01X7085625Y2186764D01*
G01X7079968Y2166883D01*
G01X7078061Y2146300D01*
G01X7078061Y2146300D01*
G01X6792214Y2146300D01*
G01X6790307Y2166883D01*
G01X6784650Y2186764D01*
G01X6775436Y2205268D01*
G01X6762979Y2221763D01*
G01X6747704Y2235689D01*
G01X6730129Y2246571D01*
G01X6710854Y2254038D01*
G01X6690535Y2257836D01*
G01X6669865Y2257836D01*
G01X6649546Y2254038D01*
G01X6630271Y2246571D01*
G01X6612696Y2235689D01*
G01X6597421Y2221763D01*
G01X6584964Y2205268D01*
G01X6575750Y2186764D01*
G01X6570093Y2166883D01*
G01X6568186Y2146300D01*
G01X6568186Y2146300D01*
G01X6284214Y2146300D01*
G01X6282307Y2166883D01*
G01X6276650Y2186764D01*
G01X6267436Y2205268D01*
G01X6254979Y2221763D01*
G01X6239704Y2235689D01*
G01X6222129Y2246571D01*
G01X6202854Y2254038D01*
G01X6182535Y2257836D01*
G01X6161865Y2257836D01*
G01X6141546Y2254038D01*
G01X6122271Y2246571D01*
G01X6104696Y2235689D01*
G01X6089421Y2221763D01*
G01X6076964Y2205268D01*
G01X6067750Y2186764D01*
G01X6062093Y2166883D01*
G01X6060186Y2146300D01*
G01X6060186Y2146300D01*
G01X4184497Y2146300D01*
G01X4186314Y2171700D01*
G01X4184423Y2198144D01*
G01X4178787Y2224050D01*
G01X4169522Y2248890D01*
G01X4156817Y2272159D01*
G01X4140929Y2293382D01*
G01X4122182Y2312129D01*
G01X4100959Y2328017D01*
G01X4077690Y2340722D01*
G01X4052850Y2349987D01*
G01X4026944Y2355623D01*
G01X4000500Y2357514D01*
G01X3974056Y2355623D01*
G01X3948150Y2349987D01*
G01X3923310Y2340722D01*
G01X3900041Y2328017D01*
G01X3878818Y2312129D01*
G01X3860071Y2293382D01*
G01X3844183Y2272159D01*
G01X3831478Y2248890D01*
G01X3822213Y2224050D01*
G01X3816577Y2198144D01*
G01X3814686Y2171700D01*
G01X3814686Y2171700D01*
G01X3678314Y2171700D01*
G01X3678314Y2171700D01*
G01X3676423Y2198144D01*
G01X3670787Y2224050D01*
G01X3661522Y2248890D01*
G01X3648817Y2272159D01*
G01X3632929Y2293382D01*
G01X3614182Y2312129D01*
G01X3592959Y2328017D01*
G01X3569690Y2340722D01*
G01X3544850Y2349987D01*
G01X3518944Y2355623D01*
G01X3492500Y2357514D01*
G01X3466056Y2355623D01*
G01X3440150Y2349987D01*
G01X3415310Y2340722D01*
G01X3392041Y2328017D01*
G01X3370818Y2312129D01*
G01X3352071Y2293382D01*
G01X3336183Y2272159D01*
G01X3323478Y2248890D01*
G01X3314213Y2224050D01*
G01X3308577Y2198144D01*
G01X3306686Y2171700D01*
G01X3306686Y2171700D01*
G01X35814Y2171700D01*
G01X35814Y2362200D01*
G01X16185986Y2362200D01*
G01X16187822Y2341221D01*
G01X16193272Y2320879D01*
G01X16202172Y2301793D01*
G01X16214251Y2284542D01*
G01X16229142Y2269651D01*
G01X16246393Y2257572D01*
G01X16265479Y2248672D01*
G01X16285821Y2243222D01*
G01X16306800Y2241386D01*
G01X16327779Y2243222D01*
G01X16348121Y2248672D01*
G01X16367207Y2257572D01*
G01X16384458Y2269651D01*
G01X16399349Y2284542D01*
G01X16411428Y2301793D01*
G01X16420328Y2320879D01*
G01X16425778Y2341221D01*
G01X16427614Y2362200D01*
G01X16427614Y2362200D01*
G01X16425778Y2383179D01*
G01X16420328Y2403521D01*
G01X16411428Y2422607D01*
G01X16399349Y2439858D01*
G01X16392007Y2447200D01*
G01X16439986Y2447200D01*
G01X16439986Y2277200D01*
G01X16441739Y2266133D01*
G01X16446826Y2256149D01*
G01X16454749Y2248226D01*
G01X16464733Y2243139D01*
G01X16475800Y2241386D01*
G01X16645800Y2241386D01*
G01X16656867Y2243139D01*
G01X16666851Y2248226D01*
G01X16674774Y2256149D01*
G01X16679861Y2266133D01*
G01X16681614Y2277200D01*
G01X16681614Y2349500D01*
G01X17455986Y2349500D01*
G01X17457822Y2328521D01*
G01X17463272Y2308179D01*
G01X17472172Y2289093D01*
G01X17484251Y2271842D01*
G01X17499142Y2256951D01*
G01X17516393Y2244872D01*
G01X17535479Y2235972D01*
G01X17555821Y2230522D01*
G01X17576800Y2228686D01*
G01X17597779Y2230522D01*
G01X17618121Y2235972D01*
G01X17637207Y2244872D01*
G01X17654458Y2256951D01*
G01X17669349Y2271842D01*
G01X17681428Y2289093D01*
G01X17690328Y2308179D01*
G01X17695778Y2328521D01*
G01X17697614Y2349500D01*
G01X17697614Y2349500D01*
G01X17695778Y2370479D01*
G01X17690328Y2390821D01*
G01X17681428Y2409907D01*
G01X17669349Y2427158D01*
G01X17662007Y2434500D01*
G01X17709986Y2434500D01*
G01X17709986Y2264500D01*
G01X17711739Y2253433D01*
G01X17716826Y2243449D01*
G01X17724749Y2235526D01*
G01X17734733Y2230439D01*
G01X17745800Y2228686D01*
G01X17915800Y2228686D01*
G01X17926867Y2230439D01*
G01X17936851Y2235526D01*
G01X17944774Y2243449D01*
G01X17949861Y2253433D01*
G01X17951614Y2264500D01*
G01X17951614Y2362200D01*
G01X18675186Y2362200D01*
G01X18677022Y2341221D01*
G01X18682472Y2320879D01*
G01X18691372Y2301793D01*
G01X18703451Y2284542D01*
G01X18718342Y2269651D01*
G01X18735593Y2257572D01*
G01X18754679Y2248672D01*
G01X18775021Y2243222D01*
G01X18796000Y2241386D01*
G01X18816979Y2243222D01*
G01X18837321Y2248672D01*
G01X18856407Y2257572D01*
G01X18873658Y2269651D01*
G01X18888549Y2284542D01*
G01X18900628Y2301793D01*
G01X18909528Y2320879D01*
G01X18914978Y2341221D01*
G01X18916814Y2362200D01*
G01X18916814Y2362200D01*
G01X18914978Y2383179D01*
G01X18909528Y2403521D01*
G01X18900628Y2422607D01*
G01X18888549Y2439858D01*
G01X18881207Y2447200D01*
G01X18929186Y2447200D01*
G01X18929186Y2277200D01*
G01X18930939Y2266133D01*
G01X18936026Y2256149D01*
G01X18943949Y2248226D01*
G01X18953933Y2243139D01*
G01X18965000Y2241386D01*
G01X19135000Y2241386D01*
G01X19146067Y2243139D01*
G01X19156051Y2248226D01*
G01X19163974Y2256149D01*
G01X19169061Y2266133D01*
G01X19170814Y2277200D01*
G01X19170814Y2362200D01*
G01X19907086Y2362200D01*
G01X19908922Y2341221D01*
G01X19914372Y2320879D01*
G01X19923272Y2301793D01*
G01X19935351Y2284542D01*
G01X19950242Y2269651D01*
G01X19967493Y2257572D01*
G01X19986579Y2248672D01*
G01X20006921Y2243222D01*
G01X20027900Y2241386D01*
G01X20048879Y2243222D01*
G01X20069221Y2248672D01*
G01X20088307Y2257572D01*
G01X20105558Y2269651D01*
G01X20120449Y2284542D01*
G01X20132528Y2301793D01*
G01X20141428Y2320879D01*
G01X20146878Y2341221D01*
G01X20148714Y2362200D01*
G01X20148714Y2362200D01*
G01X20146878Y2383179D01*
G01X20141428Y2403521D01*
G01X20132528Y2422607D01*
G01X20120449Y2439858D01*
G01X20113107Y2447200D01*
G01X20161086Y2447200D01*
G01X20161086Y2277200D01*
G01X20162839Y2266133D01*
G01X20167926Y2256149D01*
G01X20175849Y2248226D01*
G01X20185833Y2243139D01*
G01X20196900Y2241386D01*
G01X20366900Y2241386D01*
G01X20377967Y2243139D01*
G01X20387951Y2248226D01*
G01X20395874Y2256149D01*
G01X20400961Y2266133D01*
G01X20402714Y2277200D01*
G01X20402714Y2447200D01*
G01X20400961Y2458267D01*
G01X20395874Y2468251D01*
G01X20387951Y2476174D01*
G01X20377967Y2481261D01*
G01X20366900Y2483014D01*
G01X20196900Y2483014D01*
G01X20196900Y2483014D01*
G01X20185833Y2481261D01*
G01X20175849Y2476174D01*
G01X20167926Y2468251D01*
G01X20162839Y2458267D01*
G01X20161086Y2447200D01*
G01X20113107Y2447200D01*
G01X20105558Y2454749D01*
G01X20088307Y2466828D01*
G01X20069221Y2475728D01*
G01X20048879Y2481178D01*
G01X20027900Y2483014D01*
G01X20006921Y2481178D01*
G01X19986579Y2475728D01*
G01X19967493Y2466828D01*
G01X19950242Y2454749D01*
G01X19935351Y2439858D01*
G01X19923272Y2422607D01*
G01X19914372Y2403521D01*
G01X19908922Y2383179D01*
G01X19907086Y2362200D01*
G01X19170814Y2362200D01*
G01X19170814Y2447200D01*
G01X19169061Y2458267D01*
G01X19163974Y2468251D01*
G01X19156051Y2476174D01*
G01X19146067Y2481261D01*
G01X19135000Y2483014D01*
G01X18965000Y2483014D01*
G01X18965000Y2483014D01*
G01X18953933Y2481261D01*
G01X18943949Y2476174D01*
G01X18936026Y2468251D01*
G01X18930939Y2458267D01*
G01X18929186Y2447200D01*
G01X18881207Y2447200D01*
G01X18873658Y2454749D01*
G01X18856407Y2466828D01*
G01X18837321Y2475728D01*
G01X18816979Y2481178D01*
G01X18796000Y2483014D01*
G01X18775021Y2481178D01*
G01X18754679Y2475728D01*
G01X18735593Y2466828D01*
G01X18718342Y2454749D01*
G01X18703451Y2439858D01*
G01X18691372Y2422607D01*
G01X18682472Y2403521D01*
G01X18677022Y2383179D01*
G01X18675186Y2362200D01*
G01X17951614Y2362200D01*
G01X17951614Y2434500D01*
G01X17949861Y2445567D01*
G01X17944774Y2455551D01*
G01X17936851Y2463474D01*
G01X17926867Y2468561D01*
G01X17915800Y2470314D01*
G01X17745800Y2470314D01*
G01X17745800Y2470314D01*
G01X17734733Y2468561D01*
G01X17724749Y2463474D01*
G01X17716826Y2455551D01*
G01X17711739Y2445567D01*
G01X17709986Y2434500D01*
G01X17662007Y2434500D01*
G01X17654458Y2442049D01*
G01X17637207Y2454128D01*
G01X17618121Y2463028D01*
G01X17597779Y2468478D01*
G01X17576800Y2470314D01*
G01X17555821Y2468478D01*
G01X17535479Y2463028D01*
G01X17516393Y2454128D01*
G01X17499142Y2442049D01*
G01X17484251Y2427158D01*
G01X17472172Y2409907D01*
G01X17463272Y2390821D01*
G01X17457822Y2370479D01*
G01X17455986Y2349500D01*
G01X16681614Y2349500D01*
G01X16681614Y2447200D01*
G01X16679861Y2458267D01*
G01X16674774Y2468251D01*
G01X16666851Y2476174D01*
G01X16656867Y2481261D01*
G01X16645800Y2483014D01*
G01X16475800Y2483014D01*
G01X16475800Y2483014D01*
G01X16464733Y2481261D01*
G01X16454749Y2476174D01*
G01X16446826Y2468251D01*
G01X16441739Y2458267D01*
G01X16439986Y2447200D01*
G01X16392007Y2447200D01*
G01X16384458Y2454749D01*
G01X16367207Y2466828D01*
G01X16348121Y2475728D01*
G01X16327779Y2481178D01*
G01X16306800Y2483014D01*
G01X16285821Y2481178D01*
G01X16265479Y2475728D01*
G01X16246393Y2466828D01*
G01X16229142Y2454749D01*
G01X16214251Y2439858D01*
G01X16202172Y2422607D01*
G01X16193272Y2403521D01*
G01X16187822Y2383179D01*
G01X16185986Y2362200D01*
G01X35814Y2362200D01*
G01X35814Y2654300D01*
G01X6060186Y2654300D01*
G01X6062093Y2633717D01*
G01X6067750Y2613836D01*
G01X6076964Y2595332D01*
G01X6089421Y2578837D01*
G01X6104696Y2564911D01*
G01X6122271Y2554029D01*
G01X6141546Y2546562D01*
G01X6161865Y2542764D01*
G01X6182535Y2542764D01*
G01X6202854Y2546562D01*
G01X6222129Y2554029D01*
G01X6239704Y2564911D01*
G01X6254979Y2578837D01*
G01X6267436Y2595332D01*
G01X6276650Y2613836D01*
G01X6282307Y2633717D01*
G01X6284214Y2654300D01*
G01X6284214Y2654300D01*
G01X6568186Y2654300D01*
G01X6570093Y2633717D01*
G01X6575750Y2613836D01*
G01X6584964Y2595332D01*
G01X6597421Y2578837D01*
G01X6612696Y2564911D01*
G01X6630271Y2554029D01*
G01X6649546Y2546562D01*
G01X6669865Y2542764D01*
G01X6690535Y2542764D01*
G01X6710854Y2546562D01*
G01X6730129Y2554029D01*
G01X6747704Y2564911D01*
G01X6762979Y2578837D01*
G01X6775436Y2595332D01*
G01X6784650Y2613836D01*
G01X6790307Y2633717D01*
G01X6792214Y2654300D01*
G01X6792214Y2654300D01*
G01X7076186Y2654300D01*
G01X7078093Y2633717D01*
G01X7083750Y2613836D01*
G01X7092964Y2595332D01*
G01X7105421Y2578837D01*
G01X7120696Y2564911D01*
G01X7138271Y2554029D01*
G01X7157546Y2546562D01*
G01X7177865Y2542764D01*
G01X7198535Y2542764D01*
G01X7218854Y2546562D01*
G01X7238129Y2554029D01*
G01X7255704Y2564911D01*
G01X7270979Y2578837D01*
G01X7283436Y2595332D01*
G01X7292650Y2613836D01*
G01X7298307Y2633717D01*
G01X7300214Y2654300D01*
G01X7300214Y2654300D01*
G01X7582620Y2654300D01*
G01X7584527Y2633717D01*
G01X7590184Y2613836D01*
G01X7599397Y2595332D01*
G01X7611854Y2578837D01*
G01X7627130Y2564911D01*
G01X7644705Y2554029D01*
G01X7663980Y2546562D01*
G01X7684298Y2542764D01*
G01X7704969Y2542764D01*
G01X7725288Y2546562D01*
G01X7744563Y2554029D01*
G01X7762137Y2564911D01*
G01X7777413Y2578837D01*
G01X7789870Y2595332D01*
G01X7799084Y2613836D01*
G01X7804740Y2633717D01*
G01X7806648Y2654300D01*
G01X7806648Y2654300D01*
G01X8089903Y2654300D01*
G01X8091811Y2633717D01*
G01X8097468Y2613836D01*
G01X8106681Y2595332D01*
G01X8119138Y2578837D01*
G01X8134414Y2564911D01*
G01X8151989Y2554029D01*
G01X8171263Y2546562D01*
G01X8191582Y2542764D01*
G01X8212253Y2542764D01*
G01X8232572Y2546562D01*
G01X8251846Y2554029D01*
G01X8269421Y2564911D01*
G01X8284697Y2578837D01*
G01X8297154Y2595332D01*
G01X8306367Y2613836D01*
G01X8312024Y2633717D01*
G01X8313931Y2654300D01*
G01X8313931Y2654300D01*
G01X8600186Y2654300D01*
G01X8602093Y2633717D01*
G01X8607750Y2613836D01*
G01X8616964Y2595332D01*
G01X8629421Y2578837D01*
G01X8644696Y2564911D01*
G01X8662271Y2554029D01*
G01X8681546Y2546562D01*
G01X8701865Y2542764D01*
G01X8722535Y2542764D01*
G01X8742854Y2546562D01*
G01X8762129Y2554029D01*
G01X8779704Y2564911D01*
G01X8794979Y2578837D01*
G01X8807436Y2595332D01*
G01X8816650Y2613836D01*
G01X8822307Y2633717D01*
G01X8824214Y2654300D01*
G01X8824214Y2654300D01*
G01X9113423Y2654300D01*
G01X9115330Y2633717D01*
G01X9120987Y2613836D01*
G01X9130201Y2595332D01*
G01X9142658Y2578837D01*
G01X9157934Y2564911D01*
G01X9175508Y2554029D01*
G01X9194783Y2546562D01*
G01X9215102Y2542764D01*
G01X9235773Y2542764D01*
G01X9256091Y2546562D01*
G01X9275366Y2554029D01*
G01X9292941Y2564911D01*
G01X9308217Y2578837D01*
G01X9320673Y2595332D01*
G01X9329887Y2613836D01*
G01X9335544Y2633717D01*
G01X9337451Y2654300D01*
G01X9337451Y2654300D01*
G01X9614739Y2654300D01*
G01X9616646Y2633717D01*
G01X9622303Y2613836D01*
G01X9631517Y2595332D01*
G01X9643974Y2578837D01*
G01X9659250Y2564911D01*
G01X9676824Y2554029D01*
G01X9696099Y2546562D01*
G01X9716418Y2542764D01*
G01X9737088Y2542764D01*
G01X9757407Y2546562D01*
G01X9776682Y2554029D01*
G01X9794257Y2564911D01*
G01X9809532Y2578837D01*
G01X9821989Y2595332D01*
G01X9831203Y2613836D01*
G01X9836860Y2633717D01*
G01X9838767Y2654300D01*
G01X9838767Y2654300D01*
G01X10632186Y2654300D01*
G01X10634093Y2633717D01*
G01X10639750Y2613836D01*
G01X10648964Y2595332D01*
G01X10661421Y2578837D01*
G01X10676696Y2564911D01*
G01X10694271Y2554029D01*
G01X10713546Y2546562D01*
G01X10733865Y2542764D01*
G01X10754535Y2542764D01*
G01X10774854Y2546562D01*
G01X10794129Y2554029D01*
G01X10811704Y2564911D01*
G01X10826979Y2578837D01*
G01X10839436Y2595332D01*
G01X10848650Y2613836D01*
G01X10854307Y2633717D01*
G01X10856214Y2654300D01*
G01X10856214Y2654300D01*
G01X11140186Y2654300D01*
G01X11142093Y2633717D01*
G01X11147750Y2613836D01*
G01X11156964Y2595332D01*
G01X11169421Y2578837D01*
G01X11184696Y2564911D01*
G01X11202271Y2554029D01*
G01X11221546Y2546562D01*
G01X11241865Y2542764D01*
G01X11262535Y2542764D01*
G01X11282854Y2546562D01*
G01X11302129Y2554029D01*
G01X11319704Y2564911D01*
G01X11334979Y2578837D01*
G01X11347436Y2595332D01*
G01X11356650Y2613836D01*
G01X11362307Y2633717D01*
G01X11364214Y2654300D01*
G01X11364214Y2654300D01*
G01X11648186Y2654300D01*
G01X11650093Y2633717D01*
G01X11655750Y2613836D01*
G01X11664964Y2595332D01*
G01X11677421Y2578837D01*
G01X11692696Y2564911D01*
G01X11710271Y2554029D01*
G01X11729546Y2546562D01*
G01X11749865Y2542764D01*
G01X11770535Y2542764D01*
G01X11790854Y2546562D01*
G01X11810129Y2554029D01*
G01X11827704Y2564911D01*
G01X11842979Y2578837D01*
G01X11855436Y2595332D01*
G01X11864650Y2613836D01*
G01X11870307Y2633717D01*
G01X11872214Y2654300D01*
G01X11872214Y2654300D01*
G01X12156186Y2654300D01*
G01X12158093Y2633717D01*
G01X12163750Y2613836D01*
G01X12172964Y2595332D01*
G01X12185421Y2578837D01*
G01X12200696Y2564911D01*
G01X12218271Y2554029D01*
G01X12237546Y2546562D01*
G01X12257865Y2542764D01*
G01X12278535Y2542764D01*
G01X12298854Y2546562D01*
G01X12318129Y2554029D01*
G01X12335704Y2564911D01*
G01X12350979Y2578837D01*
G01X12363436Y2595332D01*
G01X12372650Y2613836D01*
G01X12378307Y2633717D01*
G01X12380214Y2654300D01*
G01X12380214Y2654300D01*
G01X13172186Y2654300D01*
G01X13174093Y2633717D01*
G01X13179750Y2613836D01*
G01X13188964Y2595332D01*
G01X13201421Y2578837D01*
G01X13216696Y2564911D01*
G01X13234271Y2554029D01*
G01X13253546Y2546562D01*
G01X13273865Y2542764D01*
G01X13294535Y2542764D01*
G01X13314854Y2546562D01*
G01X13334129Y2554029D01*
G01X13351704Y2564911D01*
G01X13366979Y2578837D01*
G01X13379436Y2595332D01*
G01X13388650Y2613836D01*
G01X13394307Y2633717D01*
G01X13396214Y2654300D01*
G01X13396214Y2654300D01*
G01X13680186Y2654300D01*
G01X13682093Y2633717D01*
G01X13687750Y2613836D01*
G01X13696964Y2595332D01*
G01X13709421Y2578837D01*
G01X13724696Y2564911D01*
G01X13742271Y2554029D01*
G01X13761546Y2546562D01*
G01X13781865Y2542764D01*
G01X13802535Y2542764D01*
G01X13822854Y2546562D01*
G01X13842129Y2554029D01*
G01X13859704Y2564911D01*
G01X13874979Y2578837D01*
G01X13887436Y2595332D01*
G01X13896650Y2613836D01*
G01X13902307Y2633717D01*
G01X13904214Y2654300D01*
G01X13904214Y2654300D01*
G01X14188186Y2654300D01*
G01X14190093Y2633717D01*
G01X14195750Y2613836D01*
G01X14204964Y2595332D01*
G01X14217421Y2578837D01*
G01X14232696Y2564911D01*
G01X14250271Y2554029D01*
G01X14269546Y2546562D01*
G01X14289865Y2542764D01*
G01X14310535Y2542764D01*
G01X14330854Y2546562D01*
G01X14350129Y2554029D01*
G01X14367704Y2564911D01*
G01X14382979Y2578837D01*
G01X14395436Y2595332D01*
G01X14404650Y2613836D01*
G01X14410307Y2633717D01*
G01X14412214Y2654300D01*
G01X14412214Y2654300D01*
G01X14696186Y2654300D01*
G01X14698093Y2633717D01*
G01X14703750Y2613836D01*
G01X14712964Y2595332D01*
G01X14725421Y2578837D01*
G01X14740696Y2564911D01*
G01X14758271Y2554029D01*
G01X14777546Y2546562D01*
G01X14797865Y2542764D01*
G01X14818535Y2542764D01*
G01X14838854Y2546562D01*
G01X14858129Y2554029D01*
G01X14875704Y2564911D01*
G01X14890979Y2578837D01*
G01X14903436Y2595332D01*
G01X14912650Y2613836D01*
G01X14913323Y2616200D01*
G01X16185986Y2616200D01*
G01X16187822Y2595221D01*
G01X16193272Y2574879D01*
G01X16202172Y2555793D01*
G01X16214251Y2538542D01*
G01X16229142Y2523651D01*
G01X16246393Y2511572D01*
G01X16265479Y2502672D01*
G01X16285821Y2497222D01*
G01X16306800Y2495386D01*
G01X16327779Y2497222D01*
G01X16348121Y2502672D01*
G01X16367207Y2511572D01*
G01X16384458Y2523651D01*
G01X16399349Y2538542D01*
G01X16411428Y2555793D01*
G01X16420328Y2574879D01*
G01X16425778Y2595221D01*
G01X16427614Y2616200D01*
G01X16427614Y2616200D01*
G01X16439986Y2616200D01*
G01X16441822Y2595221D01*
G01X16447272Y2574879D01*
G01X16456172Y2555793D01*
G01X16468251Y2538542D01*
G01X16483142Y2523651D01*
G01X16500393Y2511572D01*
G01X16519479Y2502672D01*
G01X16539821Y2497222D01*
G01X16560800Y2495386D01*
G01X16581779Y2497222D01*
G01X16602121Y2502672D01*
G01X16621207Y2511572D01*
G01X16638458Y2523651D01*
G01X16653349Y2538542D01*
G01X16665428Y2555793D01*
G01X16674328Y2574879D01*
G01X16679778Y2595221D01*
G01X16680503Y2603500D01*
G01X17455986Y2603500D01*
G01X17457822Y2582521D01*
G01X17463272Y2562179D01*
G01X17472172Y2543093D01*
G01X17484251Y2525842D01*
G01X17499142Y2510951D01*
G01X17516393Y2498872D01*
G01X17535479Y2489972D01*
G01X17555821Y2484522D01*
G01X17576800Y2482686D01*
G01X17597779Y2484522D01*
G01X17618121Y2489972D01*
G01X17637207Y2498872D01*
G01X17654458Y2510951D01*
G01X17669349Y2525842D01*
G01X17681428Y2543093D01*
G01X17690328Y2562179D01*
G01X17695778Y2582521D01*
G01X17697614Y2603500D01*
G01X17697614Y2603500D01*
G01X17709986Y2603500D01*
G01X17711822Y2582521D01*
G01X17717272Y2562179D01*
G01X17726172Y2543093D01*
G01X17738251Y2525842D01*
G01X17753142Y2510951D01*
G01X17770393Y2498872D01*
G01X17789479Y2489972D01*
G01X17809821Y2484522D01*
G01X17830800Y2482686D01*
G01X17851779Y2484522D01*
G01X17872121Y2489972D01*
G01X17891207Y2498872D01*
G01X17908458Y2510951D01*
G01X17923349Y2525842D01*
G01X17935428Y2543093D01*
G01X17944328Y2562179D01*
G01X17949778Y2582521D01*
G01X17951614Y2603500D01*
G01X17951614Y2603500D01*
G01X17950503Y2616200D01*
G01X18675186Y2616200D01*
G01X18677022Y2595221D01*
G01X18682472Y2574879D01*
G01X18691372Y2555793D01*
G01X18703451Y2538542D01*
G01X18718342Y2523651D01*
G01X18735593Y2511572D01*
G01X18754679Y2502672D01*
G01X18775021Y2497222D01*
G01X18796000Y2495386D01*
G01X18816979Y2497222D01*
G01X18837321Y2502672D01*
G01X18856407Y2511572D01*
G01X18873658Y2523651D01*
G01X18888549Y2538542D01*
G01X18900628Y2555793D01*
G01X18909528Y2574879D01*
G01X18914978Y2595221D01*
G01X18916814Y2616200D01*
G01X18916814Y2616200D01*
G01X18929186Y2616200D01*
G01X18931022Y2595221D01*
G01X18936472Y2574879D01*
G01X18945372Y2555793D01*
G01X18957451Y2538542D01*
G01X18972342Y2523651D01*
G01X18989593Y2511572D01*
G01X19008679Y2502672D01*
G01X19029021Y2497222D01*
G01X19050000Y2495386D01*
G01X19070979Y2497222D01*
G01X19091321Y2502672D01*
G01X19110407Y2511572D01*
G01X19127658Y2523651D01*
G01X19142549Y2538542D01*
G01X19154628Y2555793D01*
G01X19163528Y2574879D01*
G01X19168978Y2595221D01*
G01X19170814Y2616200D01*
G01X19170814Y2616200D01*
G01X19907086Y2616200D01*
G01X19908922Y2595221D01*
G01X19914372Y2574879D01*
G01X19923272Y2555793D01*
G01X19935351Y2538542D01*
G01X19950242Y2523651D01*
G01X19967493Y2511572D01*
G01X19986579Y2502672D01*
G01X20006921Y2497222D01*
G01X20027900Y2495386D01*
G01X20048879Y2497222D01*
G01X20069221Y2502672D01*
G01X20088307Y2511572D01*
G01X20105558Y2523651D01*
G01X20120449Y2538542D01*
G01X20132528Y2555793D01*
G01X20141428Y2574879D01*
G01X20146878Y2595221D01*
G01X20148714Y2616200D01*
G01X20148714Y2616200D01*
G01X20161086Y2616200D01*
G01X20162922Y2595221D01*
G01X20168372Y2574879D01*
G01X20177272Y2555793D01*
G01X20189351Y2538542D01*
G01X20204242Y2523651D01*
G01X20221493Y2511572D01*
G01X20240579Y2502672D01*
G01X20260921Y2497222D01*
G01X20281900Y2495386D01*
G01X20302879Y2497222D01*
G01X20323221Y2502672D01*
G01X20342307Y2511572D01*
G01X20359558Y2523651D01*
G01X20374449Y2538542D01*
G01X20386528Y2555793D01*
G01X20395428Y2574879D01*
G01X20400878Y2595221D01*
G01X20402714Y2616200D01*
G01X20402714Y2616200D01*
G01X20400878Y2637179D01*
G01X20395428Y2657521D01*
G01X20386528Y2676607D01*
G01X20374449Y2693858D01*
G01X20359558Y2708749D01*
G01X20342307Y2720828D01*
G01X20323221Y2729728D01*
G01X20302879Y2735178D01*
G01X20281900Y2737014D01*
G01X20260921Y2735178D01*
G01X20240579Y2729728D01*
G01X20221493Y2720828D01*
G01X20204242Y2708749D01*
G01X20189351Y2693858D01*
G01X20177272Y2676607D01*
G01X20168372Y2657521D01*
G01X20162922Y2637179D01*
G01X20161086Y2616200D01*
G01X20148714Y2616200D01*
G01X20146878Y2637179D01*
G01X20141428Y2657521D01*
G01X20132528Y2676607D01*
G01X20120449Y2693858D01*
G01X20105558Y2708749D01*
G01X20088307Y2720828D01*
G01X20069221Y2729728D01*
G01X20048879Y2735178D01*
G01X20027900Y2737014D01*
G01X20006921Y2735178D01*
G01X19986579Y2729728D01*
G01X19967493Y2720828D01*
G01X19950242Y2708749D01*
G01X19935351Y2693858D01*
G01X19923272Y2676607D01*
G01X19914372Y2657521D01*
G01X19908922Y2637179D01*
G01X19907086Y2616200D01*
G01X19170814Y2616200D01*
G01X19168978Y2637179D01*
G01X19163528Y2657521D01*
G01X19154628Y2676607D01*
G01X19142549Y2693858D01*
G01X19127658Y2708749D01*
G01X19110407Y2720828D01*
G01X19091321Y2729728D01*
G01X19070979Y2735178D01*
G01X19050000Y2737014D01*
G01X19029021Y2735178D01*
G01X19008679Y2729728D01*
G01X18989593Y2720828D01*
G01X18972342Y2708749D01*
G01X18957451Y2693858D01*
G01X18945372Y2676607D01*
G01X18936472Y2657521D01*
G01X18931022Y2637179D01*
G01X18929186Y2616200D01*
G01X18916814Y2616200D01*
G01X18914978Y2637179D01*
G01X18909528Y2657521D01*
G01X18900628Y2676607D01*
G01X18888549Y2693858D01*
G01X18873658Y2708749D01*
G01X18856407Y2720828D01*
G01X18837321Y2729728D01*
G01X18816979Y2735178D01*
G01X18796000Y2737014D01*
G01X18775021Y2735178D01*
G01X18754679Y2729728D01*
G01X18735593Y2720828D01*
G01X18718342Y2708749D01*
G01X18703451Y2693858D01*
G01X18691372Y2676607D01*
G01X18682472Y2657521D01*
G01X18677022Y2637179D01*
G01X18675186Y2616200D01*
G01X17950503Y2616200D01*
G01X17949778Y2624479D01*
G01X17944328Y2644821D01*
G01X17935428Y2663907D01*
G01X17923349Y2681158D01*
G01X17908458Y2696049D01*
G01X17891207Y2708128D01*
G01X17872121Y2717028D01*
G01X17851779Y2722478D01*
G01X17830800Y2724314D01*
G01X17809821Y2722478D01*
G01X17789479Y2717028D01*
G01X17770393Y2708128D01*
G01X17753142Y2696049D01*
G01X17738251Y2681158D01*
G01X17726172Y2663907D01*
G01X17717272Y2644821D01*
G01X17711822Y2624479D01*
G01X17709986Y2603500D01*
G01X17697614Y2603500D01*
G01X17695778Y2624479D01*
G01X17690328Y2644821D01*
G01X17681428Y2663907D01*
G01X17669349Y2681158D01*
G01X17654458Y2696049D01*
G01X17637207Y2708128D01*
G01X17618121Y2717028D01*
G01X17597779Y2722478D01*
G01X17576800Y2724314D01*
G01X17555821Y2722478D01*
G01X17535479Y2717028D01*
G01X17516393Y2708128D01*
G01X17499142Y2696049D01*
G01X17484251Y2681158D01*
G01X17472172Y2663907D01*
G01X17463272Y2644821D01*
G01X17457822Y2624479D01*
G01X17455986Y2603500D01*
G01X16680503Y2603500D01*
G01X16681614Y2616200D01*
G01X16681614Y2616200D01*
G01X16679778Y2637179D01*
G01X16674328Y2657521D01*
G01X16665428Y2676607D01*
G01X16653349Y2693858D01*
G01X16638458Y2708749D01*
G01X16621207Y2720828D01*
G01X16602121Y2729728D01*
G01X16581779Y2735178D01*
G01X16560800Y2737014D01*
G01X16539821Y2735178D01*
G01X16519479Y2729728D01*
G01X16500393Y2720828D01*
G01X16483142Y2708749D01*
G01X16468251Y2693858D01*
G01X16456172Y2676607D01*
G01X16447272Y2657521D01*
G01X16441822Y2637179D01*
G01X16439986Y2616200D01*
G01X16427614Y2616200D01*
G01X16425778Y2637179D01*
G01X16420328Y2657521D01*
G01X16411428Y2676607D01*
G01X16399349Y2693858D01*
G01X16384458Y2708749D01*
G01X16367207Y2720828D01*
G01X16348121Y2729728D01*
G01X16327779Y2735178D01*
G01X16306800Y2737014D01*
G01X16285821Y2735178D01*
G01X16265479Y2729728D01*
G01X16246393Y2720828D01*
G01X16229142Y2708749D01*
G01X16214251Y2693858D01*
G01X16202172Y2676607D01*
G01X16193272Y2657521D01*
G01X16187822Y2637179D01*
G01X16185986Y2616200D01*
G01X14913323Y2616200D01*
G01X14918307Y2633717D01*
G01X14920214Y2654300D01*
G01X14918307Y2674883D01*
G01X14912650Y2694764D01*
G01X14903436Y2713268D01*
G01X14890979Y2729763D01*
G01X14875704Y2743689D01*
G01X14858129Y2754571D01*
G01X14838854Y2762038D01*
G01X14818535Y2765836D01*
G01X14797865Y2765836D01*
G01X14777546Y2762038D01*
G01X14758271Y2754571D01*
G01X14740696Y2743689D01*
G01X14725421Y2729763D01*
G01X14712964Y2713268D01*
G01X14703750Y2694764D01*
G01X14698093Y2674883D01*
G01X14696186Y2654300D01*
G01X14696186Y2654300D01*
G01X14412214Y2654300D01*
G01X14410307Y2674883D01*
G01X14404650Y2694764D01*
G01X14395436Y2713268D01*
G01X14382979Y2729763D01*
G01X14367704Y2743689D01*
G01X14350129Y2754571D01*
G01X14330854Y2762038D01*
G01X14310535Y2765836D01*
G01X14289865Y2765836D01*
G01X14269546Y2762038D01*
G01X14250271Y2754571D01*
G01X14232696Y2743689D01*
G01X14217421Y2729763D01*
G01X14204964Y2713268D01*
G01X14195750Y2694764D01*
G01X14190093Y2674883D01*
G01X14188186Y2654300D01*
G01X14188186Y2654300D01*
G01X13904214Y2654300D01*
G01X13902307Y2674883D01*
G01X13896650Y2694764D01*
G01X13887436Y2713268D01*
G01X13874979Y2729763D01*
G01X13859704Y2743689D01*
G01X13842129Y2754571D01*
G01X13822854Y2762038D01*
G01X13802535Y2765836D01*
G01X13781865Y2765836D01*
G01X13761546Y2762038D01*
G01X13742271Y2754571D01*
G01X13724696Y2743689D01*
G01X13709421Y2729763D01*
G01X13696964Y2713268D01*
G01X13687750Y2694764D01*
G01X13682093Y2674883D01*
G01X13680186Y2654300D01*
G01X13680186Y2654300D01*
G01X13396214Y2654300D01*
G01X13394307Y2674883D01*
G01X13388650Y2694764D01*
G01X13379436Y2713268D01*
G01X13366979Y2729763D01*
G01X13351704Y2743689D01*
G01X13334129Y2754571D01*
G01X13314854Y2762038D01*
G01X13294535Y2765836D01*
G01X13273865Y2765836D01*
G01X13253546Y2762038D01*
G01X13234271Y2754571D01*
G01X13216696Y2743689D01*
G01X13201421Y2729763D01*
G01X13188964Y2713268D01*
G01X13179750Y2694764D01*
G01X13174093Y2674883D01*
G01X13172186Y2654300D01*
G01X13172186Y2654300D01*
G01X12380214Y2654300D01*
G01X12378307Y2674883D01*
G01X12372650Y2694764D01*
G01X12363436Y2713268D01*
G01X12350979Y2729763D01*
G01X12335704Y2743689D01*
G01X12318129Y2754571D01*
G01X12298854Y2762038D01*
G01X12278535Y2765836D01*
G01X12257865Y2765836D01*
G01X12237546Y2762038D01*
G01X12218271Y2754571D01*
G01X12200696Y2743689D01*
G01X12185421Y2729763D01*
G01X12172964Y2713268D01*
G01X12163750Y2694764D01*
G01X12158093Y2674883D01*
G01X12156186Y2654300D01*
G01X12156186Y2654300D01*
G01X11872214Y2654300D01*
G01X11870307Y2674883D01*
G01X11864650Y2694764D01*
G01X11855436Y2713268D01*
G01X11842979Y2729763D01*
G01X11827704Y2743689D01*
G01X11810129Y2754571D01*
G01X11790854Y2762038D01*
G01X11770535Y2765836D01*
G01X11749865Y2765836D01*
G01X11729546Y2762038D01*
G01X11710271Y2754571D01*
G01X11692696Y2743689D01*
G01X11677421Y2729763D01*
G01X11664964Y2713268D01*
G01X11655750Y2694764D01*
G01X11650093Y2674883D01*
G01X11648186Y2654300D01*
G01X11648186Y2654300D01*
G01X11364214Y2654300D01*
G01X11362307Y2674883D01*
G01X11356650Y2694764D01*
G01X11347436Y2713268D01*
G01X11334979Y2729763D01*
G01X11319704Y2743689D01*
G01X11302129Y2754571D01*
G01X11282854Y2762038D01*
G01X11262535Y2765836D01*
G01X11241865Y2765836D01*
G01X11221546Y2762038D01*
G01X11202271Y2754571D01*
G01X11184696Y2743689D01*
G01X11169421Y2729763D01*
G01X11156964Y2713268D01*
G01X11147750Y2694764D01*
G01X11142093Y2674883D01*
G01X11140186Y2654300D01*
G01X11140186Y2654300D01*
G01X10856214Y2654300D01*
G01X10854307Y2674883D01*
G01X10848650Y2694764D01*
G01X10839436Y2713268D01*
G01X10826979Y2729763D01*
G01X10811704Y2743689D01*
G01X10794129Y2754571D01*
G01X10774854Y2762038D01*
G01X10754535Y2765836D01*
G01X10733865Y2765836D01*
G01X10713546Y2762038D01*
G01X10694271Y2754571D01*
G01X10676696Y2743689D01*
G01X10661421Y2729763D01*
G01X10648964Y2713268D01*
G01X10639750Y2694764D01*
G01X10634093Y2674883D01*
G01X10632186Y2654300D01*
G01X10632186Y2654300D01*
G01X9838767Y2654300D01*
G01X9836860Y2674883D01*
G01X9831203Y2694764D01*
G01X9821989Y2713268D01*
G01X9809532Y2729763D01*
G01X9794257Y2743689D01*
G01X9776682Y2754571D01*
G01X9757407Y2762038D01*
G01X9737088Y2765836D01*
G01X9716418Y2765836D01*
G01X9696099Y2762038D01*
G01X9676824Y2754571D01*
G01X9659250Y2743689D01*
G01X9643974Y2729763D01*
G01X9631517Y2713268D01*
G01X9622303Y2694764D01*
G01X9616646Y2674883D01*
G01X9614739Y2654300D01*
G01X9614739Y2654300D01*
G01X9337451Y2654300D01*
G01X9335544Y2674883D01*
G01X9329887Y2694764D01*
G01X9320673Y2713268D01*
G01X9308217Y2729763D01*
G01X9292941Y2743689D01*
G01X9275366Y2754571D01*
G01X9256091Y2762038D01*
G01X9235773Y2765836D01*
G01X9215102Y2765836D01*
G01X9194783Y2762038D01*
G01X9175508Y2754571D01*
G01X9157934Y2743689D01*
G01X9142658Y2729763D01*
G01X9130201Y2713268D01*
G01X9120987Y2694764D01*
G01X9115330Y2674883D01*
G01X9113423Y2654300D01*
G01X9113423Y2654300D01*
G01X8824214Y2654300D01*
G01X8822307Y2674883D01*
G01X8816650Y2694764D01*
G01X8807436Y2713268D01*
G01X8794979Y2729763D01*
G01X8779704Y2743689D01*
G01X8762129Y2754571D01*
G01X8742854Y2762038D01*
G01X8722535Y2765836D01*
G01X8701865Y2765836D01*
G01X8681546Y2762038D01*
G01X8662271Y2754571D01*
G01X8644696Y2743689D01*
G01X8629421Y2729763D01*
G01X8616964Y2713268D01*
G01X8607750Y2694764D01*
G01X8602093Y2674883D01*
G01X8600186Y2654300D01*
G01X8600186Y2654300D01*
G01X8313931Y2654300D01*
G01X8312024Y2674883D01*
G01X8306367Y2694764D01*
G01X8297154Y2713268D01*
G01X8284697Y2729763D01*
G01X8269421Y2743689D01*
G01X8251846Y2754571D01*
G01X8232572Y2762038D01*
G01X8212253Y2765836D01*
G01X8191582Y2765836D01*
G01X8171263Y2762038D01*
G01X8151989Y2754571D01*
G01X8134414Y2743689D01*
G01X8119138Y2729763D01*
G01X8106681Y2713268D01*
G01X8097468Y2694764D01*
G01X8091811Y2674883D01*
G01X8089903Y2654300D01*
G01X8089903Y2654300D01*
G01X7806648Y2654300D01*
G01X7804740Y2674883D01*
G01X7799084Y2694764D01*
G01X7789870Y2713268D01*
G01X7777413Y2729763D01*
G01X7762137Y2743689D01*
G01X7744563Y2754571D01*
G01X7725288Y2762038D01*
G01X7704969Y2765836D01*
G01X7684298Y2765836D01*
G01X7663980Y2762038D01*
G01X7644705Y2754571D01*
G01X7627130Y2743689D01*
G01X7611854Y2729763D01*
G01X7599397Y2713268D01*
G01X7590184Y2694764D01*
G01X7584527Y2674883D01*
G01X7582620Y2654300D01*
G01X7582620Y2654300D01*
G01X7300214Y2654300D01*
G01X7298307Y2674883D01*
G01X7292650Y2694764D01*
G01X7283436Y2713268D01*
G01X7270979Y2729763D01*
G01X7255704Y2743689D01*
G01X7238129Y2754571D01*
G01X7218854Y2762038D01*
G01X7198535Y2765836D01*
G01X7177865Y2765836D01*
G01X7157546Y2762038D01*
G01X7138271Y2754571D01*
G01X7120696Y2743689D01*
G01X7105421Y2729763D01*
G01X7092964Y2713268D01*
G01X7083750Y2694764D01*
G01X7078093Y2674883D01*
G01X7076186Y2654300D01*
G01X7076186Y2654300D01*
G01X6792214Y2654300D01*
G01X6790307Y2674883D01*
G01X6784650Y2694764D01*
G01X6775436Y2713268D01*
G01X6762979Y2729763D01*
G01X6747704Y2743689D01*
G01X6730129Y2754571D01*
G01X6710854Y2762038D01*
G01X6690535Y2765836D01*
G01X6669865Y2765836D01*
G01X6649546Y2762038D01*
G01X6630271Y2754571D01*
G01X6612696Y2743689D01*
G01X6597421Y2729763D01*
G01X6584964Y2713268D01*
G01X6575750Y2694764D01*
G01X6570093Y2674883D01*
G01X6568186Y2654300D01*
G01X6568186Y2654300D01*
G01X6284214Y2654300D01*
G01X6282307Y2674883D01*
G01X6276650Y2694764D01*
G01X6267436Y2713268D01*
G01X6254979Y2729763D01*
G01X6239704Y2743689D01*
G01X6222129Y2754571D01*
G01X6202854Y2762038D01*
G01X6182535Y2765836D01*
G01X6161865Y2765836D01*
G01X6141546Y2762038D01*
G01X6122271Y2754571D01*
G01X6104696Y2743689D01*
G01X6089421Y2729763D01*
G01X6076964Y2713268D01*
G01X6067750Y2694764D01*
G01X6062093Y2674883D01*
G01X6060186Y2654300D01*
G01X6060186Y2654300D01*
G01X35814Y2654300D01*
G01X35814Y3187700D01*
G01X3306686Y3187700D01*
G01X3308577Y3161256D01*
G01X3314213Y3135350D01*
G01X3323478Y3110510D01*
G01X3336183Y3087241D01*
G01X3352071Y3066018D01*
G01X3370818Y3047271D01*
G01X3392041Y3031383D01*
G01X3415310Y3018678D01*
G01X3440150Y3009413D01*
G01X3466056Y3003777D01*
G01X3492500Y3001886D01*
G01X3518944Y3003777D01*
G01X3544850Y3009413D01*
G01X3569690Y3018678D01*
G01X3592959Y3031383D01*
G01X3614182Y3047271D01*
G01X3632929Y3066018D01*
G01X3648817Y3087241D01*
G01X3661522Y3110510D01*
G01X3670787Y3135350D01*
G01X3676423Y3161256D01*
G01X3678314Y3187700D01*
G01X3814686Y3187700D01*
G01X3816577Y3161256D01*
G01X3822213Y3135350D01*
G01X3831478Y3110510D01*
G01X3844183Y3087241D01*
G01X3860071Y3066018D01*
G01X3878818Y3047271D01*
G01X3900041Y3031383D01*
G01X3923310Y3018678D01*
G01X3948150Y3009413D01*
G01X3974056Y3003777D01*
G01X4000500Y3001886D01*
G01X4026944Y3003777D01*
G01X4052850Y3009413D01*
G01X4077690Y3018678D01*
G01X4100959Y3031383D01*
G01X4122182Y3047271D01*
G01X4140929Y3066018D01*
G01X4156817Y3087241D01*
G01X4169522Y3110510D01*
G01X4178787Y3135350D01*
G01X4184423Y3161256D01*
G01X4186314Y3187700D01*
G01X4184423Y3214144D01*
G01X4178787Y3240050D01*
G01X4169892Y3263900D01*
G01X16837386Y3263900D01*
G01X16839313Y3248030D01*
G01X16844982Y3233082D01*
G01X16854063Y3219926D01*
G01X16866029Y3209325D01*
G01X16880185Y3201895D01*
G01X16895707Y3198069D01*
G01X16911693Y3198069D01*
G01X16927215Y3201895D01*
G01X16941371Y3209325D01*
G01X16953337Y3219926D01*
G01X16957392Y3225800D01*
G01X18152577Y3225800D01*
G01X18154504Y3209930D01*
G01X18160173Y3194982D01*
G01X18169254Y3181826D01*
G01X18181220Y3171225D01*
G01X18195376Y3163795D01*
G01X18210898Y3159969D01*
G01X18226884Y3159969D01*
G01X18242406Y3163795D01*
G01X18256562Y3171225D01*
G01X18268528Y3181826D01*
G01X18277609Y3194982D01*
G01X18283278Y3209930D01*
G01X18285205Y3225800D01*
G01X18283278Y3241670D01*
G01X18277609Y3256618D01*
G01X18272583Y3263900D01*
G01X19383990Y3263900D01*
G01X19385917Y3248030D01*
G01X19391586Y3233082D01*
G01X19400667Y3219926D01*
G01X19412633Y3209325D01*
G01X19426789Y3201895D01*
G01X19442311Y3198069D01*
G01X19458297Y3198069D01*
G01X19473819Y3201895D01*
G01X19487975Y3209325D01*
G01X19499941Y3219926D01*
G01X19509022Y3233082D01*
G01X19514691Y3248030D01*
G01X19516618Y3263900D01*
G01X19514691Y3279770D01*
G01X19509022Y3294718D01*
G01X19499941Y3307874D01*
G01X19487975Y3318475D01*
G01X19473819Y3325905D01*
G01X19458297Y3329731D01*
G01X19442311Y3329731D01*
G01X19426789Y3325905D01*
G01X19412633Y3318475D01*
G01X19400667Y3307874D01*
G01X19391586Y3294718D01*
G01X19385917Y3279770D01*
G01X19383990Y3263900D01*
G01X19383990Y3263900D01*
G01X18272583Y3263900D01*
G01X18268528Y3269774D01*
G01X18256562Y3280375D01*
G01X18242406Y3287805D01*
G01X18226884Y3291631D01*
G01X18210898Y3291631D01*
G01X18195376Y3287805D01*
G01X18181220Y3280375D01*
G01X18169254Y3269774D01*
G01X18160173Y3256618D01*
G01X18154504Y3241670D01*
G01X18152577Y3225800D01*
G01X18152577Y3225800D01*
G01X16957392Y3225800D01*
G01X16962418Y3233082D01*
G01X16968087Y3248030D01*
G01X16970014Y3263900D01*
G01X16968087Y3279770D01*
G01X16962418Y3294718D01*
G01X16953337Y3307874D01*
G01X16941371Y3318475D01*
G01X16927215Y3325905D01*
G01X16911693Y3329731D01*
G01X16895707Y3329731D01*
G01X16880185Y3325905D01*
G01X16866029Y3318475D01*
G01X16854063Y3307874D01*
G01X16844982Y3294718D01*
G01X16839313Y3279770D01*
G01X16837386Y3263900D01*
G01X16837386Y3263900D01*
G01X4169892Y3263900D01*
G01X4169522Y3264890D01*
G01X4156817Y3288159D01*
G01X4140929Y3309382D01*
G01X4122182Y3328129D01*
G01X4100959Y3344017D01*
G01X4084873Y3352800D01*
G01X15792971Y3352800D01*
G01X15794898Y3336930D01*
G01X15800567Y3321982D01*
G01X15809648Y3308826D01*
G01X15821614Y3298225D01*
G01X15835770Y3290795D01*
G01X15851292Y3286969D01*
G01X15867278Y3286969D01*
G01X15882800Y3290795D01*
G01X15896956Y3298225D01*
G01X15908922Y3308826D01*
G01X15918003Y3321982D01*
G01X15923672Y3336930D01*
G01X15925599Y3352800D01*
G01X15923672Y3368670D01*
G01X15918003Y3383618D01*
G01X15908922Y3396774D01*
G01X15896956Y3407375D01*
G01X15882800Y3414805D01*
G01X15867278Y3418631D01*
G01X15851292Y3418631D01*
G01X15835770Y3414805D01*
G01X15821614Y3407375D01*
G01X15809648Y3396774D01*
G01X15800567Y3383618D01*
G01X15794898Y3368670D01*
G01X15792971Y3352800D01*
G01X15792971Y3352800D01*
G01X4084873Y3352800D01*
G01X4077690Y3356722D01*
G01X4052850Y3365987D01*
G01X4026944Y3371623D01*
G01X4000500Y3373514D01*
G01X3974056Y3371623D01*
G01X3948150Y3365987D01*
G01X3923310Y3356722D01*
G01X3900041Y3344017D01*
G01X3878818Y3328129D01*
G01X3860071Y3309382D01*
G01X3844183Y3288159D01*
G01X3831478Y3264890D01*
G01X3822213Y3240050D01*
G01X3816577Y3214144D01*
G01X3814686Y3187700D01*
G01X3814686Y3187700D01*
G01X3678314Y3187700D01*
G01X3678314Y3187700D01*
G01X3676423Y3214144D01*
G01X3670787Y3240050D01*
G01X3661522Y3264890D01*
G01X3648817Y3288159D01*
G01X3632929Y3309382D01*
G01X3614182Y3328129D01*
G01X3592959Y3344017D01*
G01X3569690Y3356722D01*
G01X3544850Y3365987D01*
G01X3518944Y3371623D01*
G01X3492500Y3373514D01*
G01X3466056Y3371623D01*
G01X3440150Y3365987D01*
G01X3415310Y3356722D01*
G01X3392041Y3344017D01*
G01X3370818Y3328129D01*
G01X3352071Y3309382D01*
G01X3336183Y3288159D01*
G01X3323478Y3264890D01*
G01X3314213Y3240050D01*
G01X3308577Y3214144D01*
G01X3306686Y3187700D01*
G01X3306686Y3187700D01*
G01X35814Y3187700D01*
G01X35814Y3505200D01*
G01X11084286Y3505200D01*
G01X11086213Y3489330D01*
G01X11091882Y3474382D01*
G01X11100963Y3461226D01*
G01X11112929Y3450625D01*
G01X11127085Y3443195D01*
G01X11142607Y3439369D01*
G01X11158593Y3439369D01*
G01X11174115Y3443195D01*
G01X11188271Y3450625D01*
G01X11200237Y3461226D01*
G01X11209318Y3474382D01*
G01X11214987Y3489330D01*
G01X11216914Y3505200D01*
G01X11214987Y3521070D01*
G01X11211373Y3530600D01*
G01X11947886Y3530600D01*
G01X11949813Y3514730D01*
G01X11955482Y3499782D01*
G01X11964563Y3486626D01*
G01X11976529Y3476025D01*
G01X11990685Y3468595D01*
G01X12006207Y3464769D01*
G01X12022193Y3464769D01*
G01X12037715Y3468595D01*
G01X12051871Y3476025D01*
G01X12063837Y3486626D01*
G01X12072918Y3499782D01*
G01X12078587Y3514730D01*
G01X12080514Y3530600D01*
G01X12078587Y3546470D01*
G01X12074973Y3556000D01*
G01X12811486Y3556000D01*
G01X12813413Y3540130D01*
G01X12819082Y3525182D01*
G01X12828163Y3512026D01*
G01X12840129Y3501425D01*
G01X12854285Y3493995D01*
G01X12869807Y3490169D01*
G01X12885793Y3490169D01*
G01X12901315Y3493995D01*
G01X12915471Y3501425D01*
G01X12927437Y3512026D01*
G01X12936518Y3525182D01*
G01X12942187Y3540130D01*
G01X12944114Y3556000D01*
G01X12942572Y3568700D01*
G01X13662386Y3568700D01*
G01X13664313Y3552830D01*
G01X13669982Y3537882D01*
G01X13679063Y3524726D01*
G01X13691029Y3514125D01*
G01X13705185Y3506695D01*
G01X13720707Y3502869D01*
G01X13736693Y3502869D01*
G01X13752215Y3506695D01*
G01X13766371Y3514125D01*
G01X13778337Y3524726D01*
G01X13787418Y3537882D01*
G01X13793087Y3552830D01*
G01X13795014Y3568700D01*
G01X13793087Y3584570D01*
G01X13787418Y3599518D01*
G01X13778337Y3612674D01*
G01X13766371Y3623275D01*
G01X13752215Y3630705D01*
G01X13736693Y3634531D01*
G01X13720707Y3634531D01*
G01X13705185Y3630705D01*
G01X13691029Y3623275D01*
G01X13679063Y3612674D01*
G01X13669982Y3599518D01*
G01X13664313Y3584570D01*
G01X13662386Y3568700D01*
G01X13662386Y3568700D01*
G01X12942572Y3568700D01*
G01X12942187Y3571870D01*
G01X12936518Y3586818D01*
G01X12927437Y3599974D01*
G01X12915471Y3610575D01*
G01X12901315Y3618005D01*
G01X12885793Y3621831D01*
G01X12869807Y3621831D01*
G01X12854285Y3618005D01*
G01X12840129Y3610575D01*
G01X12828163Y3599974D01*
G01X12819082Y3586818D01*
G01X12813413Y3571870D01*
G01X12811486Y3556000D01*
G01X12811486Y3556000D01*
G01X12074973Y3556000D01*
G01X12072918Y3561418D01*
G01X12063837Y3574574D01*
G01X12051871Y3585175D01*
G01X12037715Y3592605D01*
G01X12022193Y3596431D01*
G01X12006207Y3596431D01*
G01X11990685Y3592605D01*
G01X11976529Y3585175D01*
G01X11964563Y3574574D01*
G01X11955482Y3561418D01*
G01X11949813Y3546470D01*
G01X11947886Y3530600D01*
G01X11947886Y3530600D01*
G01X11211373Y3530600D01*
G01X11209318Y3536018D01*
G01X11200237Y3549174D01*
G01X11188271Y3559775D01*
G01X11174115Y3567205D01*
G01X11158593Y3571031D01*
G01X11142607Y3571031D01*
G01X11127085Y3567205D01*
G01X11112929Y3559775D01*
G01X11100963Y3549174D01*
G01X11091882Y3536018D01*
G01X11086213Y3521070D01*
G01X11084286Y3505200D01*
G01X11084286Y3505200D01*
G01X35814Y3505200D01*
G01X35814Y3860800D01*
G01X17011263Y3860800D01*
G01X17013190Y3844930D01*
G01X17018859Y3829982D01*
G01X17027940Y3816826D01*
G01X17039906Y3806225D01*
G01X17054061Y3798795D01*
G01X17069583Y3794969D01*
G01X17085570Y3794969D01*
G01X17101092Y3798795D01*
G01X17115247Y3806225D01*
G01X17127214Y3816826D01*
G01X17131268Y3822700D01*
G01X18318286Y3822700D01*
G01X18320213Y3806830D01*
G01X18325882Y3791882D01*
G01X18334964Y3778726D01*
G01X18346930Y3768125D01*
G01X18361085Y3760695D01*
G01X18376607Y3756869D01*
G01X18392594Y3756869D01*
G01X18408116Y3760695D01*
G01X18422271Y3768125D01*
G01X18434237Y3778726D01*
G01X18443319Y3791882D01*
G01X18448988Y3806830D01*
G01X18450915Y3822700D01*
G01X18448988Y3838570D01*
G01X18445373Y3848100D01*
G01X19540025Y3848100D01*
G01X19541952Y3832230D01*
G01X19547621Y3817282D01*
G01X19556703Y3804126D01*
G01X19568669Y3793525D01*
G01X19582824Y3786095D01*
G01X19598346Y3782269D01*
G01X19614333Y3782269D01*
G01X19629855Y3786095D01*
G01X19644010Y3793525D01*
G01X19655976Y3804126D01*
G01X19665058Y3817282D01*
G01X19670727Y3832230D01*
G01X19672654Y3848100D01*
G01X19670727Y3863970D01*
G01X19665058Y3878918D01*
G01X19655976Y3892074D01*
G01X19644010Y3902675D01*
G01X19629855Y3910105D01*
G01X19614333Y3913931D01*
G01X19598346Y3913931D01*
G01X19582824Y3910105D01*
G01X19568669Y3902675D01*
G01X19556703Y3892074D01*
G01X19547621Y3878918D01*
G01X19541952Y3863970D01*
G01X19540025Y3848100D01*
G01X19540025Y3848100D01*
G01X18445373Y3848100D01*
G01X18443319Y3853518D01*
G01X18434237Y3866674D01*
G01X18422271Y3877275D01*
G01X18408116Y3884705D01*
G01X18392594Y3888531D01*
G01X18376607Y3888531D01*
G01X18361085Y3884705D01*
G01X18346930Y3877275D01*
G01X18334964Y3866674D01*
G01X18325882Y3853518D01*
G01X18320213Y3838570D01*
G01X18318286Y3822700D01*
G01X18318286Y3822700D01*
G01X17131268Y3822700D01*
G01X17136295Y3829982D01*
G01X17141964Y3844930D01*
G01X17143891Y3860800D01*
G01X17141964Y3876670D01*
G01X17136295Y3891618D01*
G01X17127214Y3904774D01*
G01X17115247Y3915375D01*
G01X17101092Y3922805D01*
G01X17085570Y3926631D01*
G01X17069583Y3926631D01*
G01X17054061Y3922805D01*
G01X17039906Y3915375D01*
G01X17027940Y3904774D01*
G01X17018859Y3891618D01*
G01X17013190Y3876670D01*
G01X17011263Y3860800D01*
G01X17011263Y3860800D01*
G01X35814Y3860800D01*
G01X35814Y3962400D01*
G01X15981808Y3962400D01*
G01X15983734Y3946530D01*
G01X15989403Y3931582D01*
G01X15998485Y3918426D01*
G01X16010451Y3907825D01*
G01X16024606Y3900395D01*
G01X16040128Y3896569D01*
G01X16056115Y3896569D01*
G01X16071637Y3900395D01*
G01X16085792Y3907825D01*
G01X16097758Y3918426D01*
G01X16106840Y3931582D01*
G01X16112509Y3946530D01*
G01X16114436Y3962400D01*
G01X16112509Y3978270D01*
G01X16106840Y3993218D01*
G01X16097758Y4006374D01*
G01X16091745Y4011701D01*
G01X16760430Y4011701D01*
G01X16762357Y3995831D01*
G01X16768026Y3980884D01*
G01X16777107Y3967727D01*
G01X16789073Y3957126D01*
G01X16803229Y3949697D01*
G01X16818751Y3945871D01*
G01X16834737Y3945871D01*
G01X16850259Y3949697D01*
G01X16864415Y3957126D01*
G01X16876381Y3967727D01*
G01X16880435Y3973601D01*
G01X18064738Y3973601D01*
G01X18066665Y3957731D01*
G01X18072334Y3942784D01*
G01X18081415Y3929627D01*
G01X18093381Y3919026D01*
G01X18107537Y3911597D01*
G01X18123059Y3907771D01*
G01X18139045Y3907771D01*
G01X18154567Y3911597D01*
G01X18168723Y3919026D01*
G01X18180689Y3929627D01*
G01X18189770Y3942784D01*
G01X18195439Y3957731D01*
G01X18197366Y3973601D01*
G01X18195439Y3989471D01*
G01X18191257Y4000500D01*
G01X19288486Y4000500D01*
G01X19290413Y3984630D01*
G01X19296082Y3969682D01*
G01X19305163Y3956526D01*
G01X19317129Y3945925D01*
G01X19331285Y3938495D01*
G01X19346807Y3934669D01*
G01X19362793Y3934669D01*
G01X19378315Y3938495D01*
G01X19392471Y3945925D01*
G01X19404437Y3956526D01*
G01X19413518Y3969682D01*
G01X19419187Y3984630D01*
G01X19421114Y4000500D01*
G01X19419187Y4016370D01*
G01X19413518Y4031318D01*
G01X19404437Y4044474D01*
G01X19392471Y4055075D01*
G01X19378315Y4062505D01*
G01X19362793Y4066331D01*
G01X19346807Y4066331D01*
G01X19331285Y4062505D01*
G01X19317129Y4055075D01*
G01X19305163Y4044474D01*
G01X19296082Y4031318D01*
G01X19290413Y4016370D01*
G01X19288486Y4000500D01*
G01X19288486Y4000500D01*
G01X18191257Y4000500D01*
G01X18189770Y4004419D01*
G01X18180689Y4017576D01*
G01X18168723Y4028177D01*
G01X18154567Y4035606D01*
G01X18139045Y4039432D01*
G01X18123059Y4039432D01*
G01X18107537Y4035606D01*
G01X18093381Y4028177D01*
G01X18081415Y4017576D01*
G01X18072334Y4004419D01*
G01X18066665Y3989471D01*
G01X18064738Y3973601D01*
G01X18064738Y3973601D01*
G01X16880435Y3973601D01*
G01X16885462Y3980884D01*
G01X16891131Y3995831D01*
G01X16893058Y4011701D01*
G01X16891131Y4027571D01*
G01X16885462Y4042519D01*
G01X16876381Y4055676D01*
G01X16864415Y4066277D01*
G01X16850259Y4073706D01*
G01X16834737Y4077532D01*
G01X16818751Y4077532D01*
G01X16803229Y4073706D01*
G01X16789073Y4066277D01*
G01X16777107Y4055676D01*
G01X16768026Y4042519D01*
G01X16762357Y4027571D01*
G01X16760430Y4011701D01*
G01X16760430Y4011701D01*
G01X16091745Y4011701D01*
G01X16085792Y4016975D01*
G01X16071637Y4024405D01*
G01X16056115Y4028231D01*
G01X16040128Y4028231D01*
G01X16024606Y4024405D01*
G01X16010451Y4016975D01*
G01X15998485Y4006374D01*
G01X15989403Y3993218D01*
G01X15983734Y3978270D01*
G01X15981808Y3962400D01*
G01X15981808Y3962400D01*
G01X35814Y3962400D01*
G01X35814Y4100603D01*
G01X15703248Y4100603D01*
G01X15705175Y4084733D01*
G01X15710844Y4069785D01*
G01X15719925Y4056628D01*
G01X15731891Y4046027D01*
G01X15746047Y4038598D01*
G01X15761569Y4034772D01*
G01X15777555Y4034772D01*
G01X15793077Y4038598D01*
G01X15807233Y4046027D01*
G01X15819199Y4056628D01*
G01X15828280Y4069785D01*
G01X15833949Y4084733D01*
G01X15835876Y4100603D01*
G01X15833949Y4116473D01*
G01X15828280Y4131420D01*
G01X15819199Y4144577D01*
G01X15807233Y4155178D01*
G01X15793077Y4162607D01*
G01X15777555Y4166433D01*
G01X15761569Y4166433D01*
G01X15746047Y4162607D01*
G01X15731891Y4155178D01*
G01X15719925Y4144577D01*
G01X15710844Y4131420D01*
G01X15705175Y4116473D01*
G01X15703248Y4100603D01*
G01X15703248Y4100603D01*
G01X35814Y4100603D01*
G01X35814Y4338017D01*
G01X2753937Y4338017D01*
G01X2755873Y4312186D01*
G01X2761637Y4286932D01*
G01X2771100Y4262819D01*
G01X2784052Y4240386D01*
G01X2800203Y4220134D01*
G01X2819191Y4202515D01*
G01X2840594Y4187923D01*
G01X2863932Y4176684D01*
G01X2888685Y4169049D01*
G01X2914299Y4165188D01*
G01X2940202Y4165188D01*
G01X2965817Y4169049D01*
G01X2990569Y4176684D01*
G01X3013908Y4187923D01*
G01X3035310Y4202515D01*
G01X3054299Y4220134D01*
G01X3070449Y4240386D01*
G01X3083401Y4262819D01*
G01X3092865Y4286932D01*
G01X3098629Y4312186D01*
G01X3100565Y4338017D01*
G01X8553925Y4338017D01*
G01X8555861Y4312186D01*
G01X8561625Y4286932D01*
G01X8571089Y4262819D01*
G01X8584040Y4240386D01*
G01X8600191Y4220134D01*
G01X8619180Y4202515D01*
G01X8640582Y4187923D01*
G01X8663920Y4176684D01*
G01X8688673Y4169049D01*
G01X8714287Y4165188D01*
G01X8740191Y4165188D01*
G01X8765805Y4169049D01*
G01X8790558Y4176684D01*
G01X8813896Y4187923D01*
G01X8835299Y4202515D01*
G01X8854287Y4220134D01*
G01X8870438Y4240386D01*
G01X8883389Y4262819D01*
G01X8892853Y4286932D01*
G01X8898617Y4312186D01*
G01X8900553Y4338017D01*
G01X8898617Y4363848D01*
G01X8892853Y4389102D01*
G01X8883389Y4413215D01*
G01X8870438Y4435648D01*
G01X8854287Y4455901D01*
G01X8835299Y4473519D01*
G01X8813896Y4488111D01*
G01X8790558Y4499351D01*
G01X8765805Y4506986D01*
G01X8740191Y4510846D01*
G01X8714287Y4510846D01*
G01X8688673Y4506986D01*
G01X8663920Y4499351D01*
G01X8640582Y4488111D01*
G01X8619180Y4473519D01*
G01X8600191Y4455901D01*
G01X8584040Y4435648D01*
G01X8571089Y4413215D01*
G01X8561625Y4389102D01*
G01X8555861Y4363848D01*
G01X8553925Y4338017D01*
G01X8553925Y4338017D01*
G01X3100565Y4338017D01*
G01X3098629Y4363848D01*
G01X3092865Y4389102D01*
G01X3083401Y4413215D01*
G01X3070449Y4435648D01*
G01X3054299Y4455901D01*
G01X3035310Y4473519D01*
G01X3013908Y4488111D01*
G01X2990569Y4499351D01*
G01X2965817Y4506986D01*
G01X2940202Y4510846D01*
G01X2914299Y4510846D01*
G01X2888685Y4506986D01*
G01X2863932Y4499351D01*
G01X2840594Y4488111D01*
G01X2819191Y4473519D01*
G01X2800203Y4455901D01*
G01X2784052Y4435648D01*
G01X2771100Y4413215D01*
G01X2761637Y4389102D01*
G01X2755873Y4363848D01*
G01X2753937Y4338017D01*
G01X2753937Y4338017D01*
G01X35814Y4338017D01*
G01X35814Y4669222D01*
G01X11154883Y4669222D01*
G01X11156810Y4653352D01*
G01X11162479Y4638405D01*
G01X11171560Y4625248D01*
G01X11183526Y4614647D01*
G01X11197681Y4607218D01*
G01X11213203Y4603392D01*
G01X11229190Y4603392D01*
G01X11244712Y4607218D01*
G01X11258867Y4614647D01*
G01X11268070Y4622800D01*
G01X12011386Y4622800D01*
G01X12013313Y4606930D01*
G01X12018982Y4591982D01*
G01X12028063Y4578826D01*
G01X12040029Y4568225D01*
G01X12054185Y4560795D01*
G01X12069707Y4556969D01*
G01X12085693Y4556969D01*
G01X12101215Y4560795D01*
G01X12115371Y4568225D01*
G01X12127337Y4578826D01*
G01X12136418Y4591982D01*
G01X12142087Y4606930D01*
G01X12144014Y4622800D01*
G01X12142087Y4638670D01*
G01X12136418Y4653618D01*
G01X12131392Y4660900D01*
G01X12798786Y4660900D01*
G01X12800713Y4645030D01*
G01X12806382Y4630082D01*
G01X12815463Y4616926D01*
G01X12827429Y4606325D01*
G01X12841585Y4598895D01*
G01X12857107Y4595069D01*
G01X12873093Y4595069D01*
G01X12888615Y4598895D01*
G01X12902771Y4606325D01*
G01X12914737Y4616926D01*
G01X12923818Y4630082D01*
G01X12929487Y4645030D01*
G01X12931414Y4660900D01*
G01X13649686Y4660900D01*
G01X13651613Y4645030D01*
G01X13657282Y4630082D01*
G01X13666363Y4616926D01*
G01X13678329Y4606325D01*
G01X13692485Y4598895D01*
G01X13708007Y4595069D01*
G01X13723993Y4595069D01*
G01X13739515Y4598895D01*
G01X13753671Y4606325D01*
G01X13765637Y4616926D01*
G01X13774718Y4630082D01*
G01X13780387Y4645030D01*
G01X13782314Y4660900D01*
G01X13780387Y4676770D01*
G01X13774718Y4691718D01*
G01X13765637Y4704874D01*
G01X13753671Y4715475D01*
G01X13739515Y4722905D01*
G01X13723993Y4726731D01*
G01X13708007Y4726731D01*
G01X13692485Y4722905D01*
G01X13678329Y4715475D01*
G01X13666363Y4704874D01*
G01X13657282Y4691718D01*
G01X13651613Y4676770D01*
G01X13649686Y4660900D01*
G01X13649686Y4660900D01*
G01X12931414Y4660900D01*
G01X12929487Y4676770D01*
G01X12923818Y4691718D01*
G01X12914737Y4704874D01*
G01X12902771Y4715475D01*
G01X12888615Y4722905D01*
G01X12873093Y4726731D01*
G01X12857107Y4726731D01*
G01X12841585Y4722905D01*
G01X12827429Y4715475D01*
G01X12815463Y4704874D01*
G01X12806382Y4691718D01*
G01X12800713Y4676770D01*
G01X12798786Y4660900D01*
G01X12798786Y4660900D01*
G01X12131392Y4660900D01*
G01X12127337Y4666774D01*
G01X12115371Y4677375D01*
G01X12101215Y4684805D01*
G01X12085693Y4688631D01*
G01X12069707Y4688631D01*
G01X12054185Y4684805D01*
G01X12040029Y4677375D01*
G01X12028063Y4666774D01*
G01X12018982Y4653618D01*
G01X12013313Y4638670D01*
G01X12011386Y4622800D01*
G01X12011386Y4622800D01*
G01X11268070Y4622800D01*
G01X11270834Y4625248D01*
G01X11279915Y4638405D01*
G01X11285584Y4653352D01*
G01X11287511Y4669222D01*
G01X11285584Y4685092D01*
G01X11279915Y4700040D01*
G01X11270834Y4713197D01*
G01X11258867Y4723798D01*
G01X11244712Y4731227D01*
G01X11229190Y4735053D01*
G01X11213203Y4735053D01*
G01X11197681Y4731227D01*
G01X11183526Y4723798D01*
G01X11171560Y4713197D01*
G01X11162479Y4700040D01*
G01X11156810Y4685092D01*
G01X11154883Y4669222D01*
G01X11154883Y4669222D01*
G01X35814Y4669222D01*
G01X35814Y4962996D01*
G01X18458241Y4962996D01*
G01X18460545Y4948169D01*
G01X18466124Y4934239D01*
G01X18474692Y4921920D01*
G01X18485810Y4911843D01*
G01X18498909Y4904523D01*
G01X18513318Y4900335D01*
G01X18528300Y4899495D01*
G01X18533746Y4884732D01*
G01X18542516Y4871667D01*
G01X18554118Y4861037D01*
G01X18567898Y4853439D01*
G01X18583080Y4849302D01*
G01X18598810Y4848859D01*
G01X18614201Y4852134D01*
G01X18628387Y4858943D01*
G01X18640569Y4868903D01*
G01X18652623Y4858439D01*
G01X18666828Y4851159D01*
G01X18682361Y4847484D01*
G01X18698323Y4847627D01*
G01X18713788Y4851580D01*
G01X18727860Y4859114D01*
G01X18739725Y4869792D01*
G01X18748694Y4882996D01*
G01X18754248Y4897961D01*
G01X18769219Y4898834D01*
G01X18783612Y4903048D01*
G01X18796690Y4910389D01*
G01X18807784Y4920480D01*
G01X18816326Y4932807D01*
G01X18821881Y4946737D01*
G01X18824163Y4961560D01*
G01X18823055Y4976516D01*
G01X18818616Y4990841D01*
G01X18811071Y5003802D01*
G01X18800807Y5014737D01*
G01X18788348Y5023085D01*
G01X18774332Y5028420D01*
G01X18759476Y5030470D01*
G01X18744539Y5029129D01*
G01X18730285Y5024465D01*
G01X18717444Y5016718D01*
G01X18706672Y5006284D01*
G01X18698520Y4993696D01*
G01X18693405Y4979598D01*
G01X18679204Y4978854D01*
G01X18665488Y4975100D01*
G01X18652888Y4968508D01*
G01X18641983Y4959381D01*
G01X18630916Y4969165D01*
G01X18617957Y4976257D01*
G01X18603750Y4980304D01*
G01X18589000Y4981105D01*
G01X18583885Y4995212D01*
G01X18575730Y5007808D01*
G01X18564952Y5018247D01*
G01X18552102Y5025997D01*
G01X18537839Y5030659D01*
G01X18522893Y5031995D01*
G01X18508030Y5029936D01*
G01X18494009Y5024589D01*
G01X18481550Y5016226D01*
G01X18471290Y5005276D01*
G01X18471290Y5005276D01*
G01X18463755Y4992300D01*
G01X18459330Y4977962D01*
G01X18458241Y4962996D01*
G01X35814Y4962996D01*
G01X35814Y5369298D01*
G01X16309746Y5369298D01*
G01X16311673Y5353428D01*
G01X16317342Y5338480D01*
G01X16326423Y5325324D01*
G01X16338389Y5314722D01*
G01X16352545Y5307293D01*
G01X16368067Y5303467D01*
G01X16384053Y5303467D01*
G01X16399575Y5307293D01*
G01X16413731Y5314722D01*
G01X16425697Y5325324D01*
G01X16434778Y5338480D01*
G01X16440447Y5353428D01*
G01X16442374Y5369298D01*
G01X16440447Y5385168D01*
G01X16434778Y5400116D01*
G01X16425697Y5413272D01*
G01X16413731Y5423873D01*
G01X16399575Y5431303D01*
G01X16384053Y5435128D01*
G01X16368067Y5435128D01*
G01X16352545Y5431303D01*
G01X16338389Y5423873D01*
G01X16326423Y5413272D01*
G01X16317342Y5400116D01*
G01X16311673Y5385168D01*
G01X16309746Y5369298D01*
G01X16309746Y5369298D01*
G01X35814Y5369298D01*
G01X35814Y5486400D01*
G01X10835786Y5486400D01*
G01X10837553Y5471846D01*
G01X10842752Y5458138D01*
G01X10851080Y5446073D01*
G01X10862054Y5436351D01*
G01X10875035Y5429538D01*
G01X10889270Y5426029D01*
G01X10903930Y5426029D01*
G01X10918165Y5429538D01*
G01X10931146Y5436351D01*
G01X10942120Y5446073D01*
G01X10950448Y5458138D01*
G01X10955647Y5471846D01*
G01X10957414Y5486400D01*
G01X11699386Y5486400D01*
G01X11701153Y5471846D01*
G01X11706352Y5458138D01*
G01X11714680Y5446073D01*
G01X11725654Y5436351D01*
G01X11738635Y5429538D01*
G01X11752870Y5426029D01*
G01X11767530Y5426029D01*
G01X11781765Y5429538D01*
G01X11794746Y5436351D01*
G01X11805720Y5446073D01*
G01X11814048Y5458138D01*
G01X11819247Y5471846D01*
G01X11820844Y5485001D01*
G01X12550286Y5485001D01*
G01X12552053Y5470447D01*
G01X12557252Y5456739D01*
G01X12565580Y5444674D01*
G01X12576554Y5434952D01*
G01X12589535Y5428139D01*
G01X12603770Y5424630D01*
G01X12618430Y5424630D01*
G01X12632665Y5428139D01*
G01X12645646Y5434952D01*
G01X12656620Y5444674D01*
G01X12664948Y5456739D01*
G01X12670147Y5470447D01*
G01X12671182Y5478974D01*
G01X13426586Y5478974D01*
G01X13428353Y5464420D01*
G01X13433552Y5450712D01*
G01X13441880Y5438647D01*
G01X13452854Y5428925D01*
G01X13465835Y5422112D01*
G01X13480070Y5418604D01*
G01X13494730Y5418604D01*
G01X13508965Y5422112D01*
G01X13521946Y5428925D01*
G01X13532920Y5438647D01*
G01X13541248Y5450712D01*
G01X13546447Y5464420D01*
G01X13548214Y5478974D01*
G01X13547312Y5486400D01*
G01X16418286Y5486400D01*
G01X16420213Y5470530D01*
G01X16425882Y5455582D01*
G01X16434963Y5442426D01*
G01X16446929Y5431825D01*
G01X16461085Y5424395D01*
G01X16476607Y5420569D01*
G01X16492593Y5420569D01*
G01X16508115Y5424395D01*
G01X16522271Y5431825D01*
G01X16534237Y5442426D01*
G01X16543318Y5455582D01*
G01X16548987Y5470530D01*
G01X16550914Y5486400D01*
G01X16548987Y5502270D01*
G01X16543318Y5517218D01*
G01X16534237Y5530374D01*
G01X16522271Y5540975D01*
G01X16508115Y5548405D01*
G01X16492593Y5552231D01*
G01X16476607Y5552231D01*
G01X16461085Y5548405D01*
G01X16446929Y5540975D01*
G01X16434963Y5530374D01*
G01X16425882Y5517218D01*
G01X16420213Y5502270D01*
G01X16418286Y5486400D01*
G01X16418286Y5486400D01*
G01X13547312Y5486400D01*
G01X13546447Y5493528D01*
G01X13541248Y5507236D01*
G01X13532920Y5519301D01*
G01X13521946Y5529023D01*
G01X13508965Y5535836D01*
G01X13494730Y5539345D01*
G01X13480070Y5539345D01*
G01X13465835Y5535836D01*
G01X13452854Y5529023D01*
G01X13441880Y5519301D01*
G01X13433552Y5507236D01*
G01X13428353Y5493528D01*
G01X13426586Y5478974D01*
G01X13426586Y5478974D01*
G01X12671182Y5478974D01*
G01X12671914Y5485001D01*
G01X12670147Y5499555D01*
G01X12664948Y5513263D01*
G01X12656620Y5525328D01*
G01X12645646Y5535050D01*
G01X12632665Y5541863D01*
G01X12618430Y5545372D01*
G01X12603770Y5545372D01*
G01X12589535Y5541863D01*
G01X12576554Y5535050D01*
G01X12565580Y5525328D01*
G01X12557252Y5513263D01*
G01X12552053Y5499555D01*
G01X12550286Y5485001D01*
G01X12550286Y5485001D01*
G01X11820844Y5485001D01*
G01X11821014Y5486400D01*
G01X11819247Y5500954D01*
G01X11814048Y5514662D01*
G01X11805720Y5526727D01*
G01X11794746Y5536449D01*
G01X11781765Y5543262D01*
G01X11767530Y5546771D01*
G01X11752870Y5546771D01*
G01X11738635Y5543262D01*
G01X11725654Y5536449D01*
G01X11714680Y5526727D01*
G01X11706352Y5514662D01*
G01X11701153Y5500954D01*
G01X11699386Y5486400D01*
G01X11699386Y5486400D01*
G01X10957414Y5486400D01*
G01X10955647Y5500954D01*
G01X10950448Y5514662D01*
G01X10942120Y5526727D01*
G01X10931146Y5536449D01*
G01X10918165Y5543262D01*
G01X10903930Y5546771D01*
G01X10889270Y5546771D01*
G01X10875035Y5543262D01*
G01X10862054Y5536449D01*
G01X10851080Y5526727D01*
G01X10842752Y5514662D01*
G01X10837553Y5500954D01*
G01X10835786Y5486400D01*
G01X10835786Y5486400D01*
G01X35814Y5486400D01*
G01X35814Y5715000D01*
G01X817486Y5715000D01*
G01X819378Y5688556D01*
G01X825013Y5662650D01*
G01X834278Y5637810D01*
G01X846984Y5614542D01*
G01X862871Y5593318D01*
G01X881618Y5574571D01*
G01X902842Y5558684D01*
G01X926110Y5545978D01*
G01X950950Y5536713D01*
G01X976856Y5531078D01*
G01X1003300Y5529186D01*
G01X1003300Y5529186D01*
G01X1029744Y5531078D01*
G01X1055650Y5536713D01*
G01X1080490Y5545978D01*
G01X1094073Y5553395D01*
G01X18869607Y5553395D01*
G01X18871534Y5537525D01*
G01X18877203Y5522577D01*
G01X18886285Y5509420D01*
G01X18898251Y5498819D01*
G01X18912406Y5491390D01*
G01X18927928Y5487564D01*
G01X18943915Y5487564D01*
G01X18959437Y5491390D01*
G01X18973592Y5498819D01*
G01X18985558Y5509420D01*
G01X18994640Y5522577D01*
G01X19000309Y5537525D01*
G01X19002236Y5553395D01*
G01X19000309Y5569265D01*
G01X18994640Y5584212D01*
G01X18985558Y5597369D01*
G01X18973592Y5607970D01*
G01X18959437Y5615400D01*
G01X18943915Y5619225D01*
G01X18927928Y5619225D01*
G01X18912406Y5615400D01*
G01X18898251Y5607970D01*
G01X18886285Y5597369D01*
G01X18877203Y5584212D01*
G01X18871534Y5569265D01*
G01X18869607Y5553395D01*
G01X18869607Y5553395D01*
G01X1094073Y5553395D01*
G01X1103758Y5558684D01*
G01X1124982Y5574571D01*
G01X1143729Y5593318D01*
G01X1159616Y5614542D01*
G01X1172322Y5637810D01*
G01X1172691Y5638800D01*
G01X6918686Y5638800D01*
G01X6920613Y5622930D01*
G01X6926282Y5607982D01*
G01X6935363Y5594826D01*
G01X6947329Y5584225D01*
G01X6961485Y5576795D01*
G01X6977007Y5572969D01*
G01X6992993Y5572969D01*
G01X7008515Y5576795D01*
G01X7022671Y5584225D01*
G01X7034637Y5594826D01*
G01X7043718Y5607982D01*
G01X7049387Y5622930D01*
G01X7051314Y5638800D01*
G01X7049387Y5654670D01*
G01X7043718Y5669618D01*
G01X7034637Y5682774D01*
G01X7029715Y5687135D01*
G01X10967973Y5687135D01*
G01X10969874Y5670264D01*
G01X10975481Y5654240D01*
G01X10984513Y5639865D01*
G01X10996517Y5627861D01*
G01X11010892Y5618829D01*
G01X11026916Y5613222D01*
G01X11043787Y5611321D01*
G01X11060657Y5613222D01*
G01X11076681Y5618829D01*
G01X11091056Y5627861D01*
G01X11103060Y5639865D01*
G01X11112093Y5654240D01*
G01X11117700Y5670264D01*
G01X11119601Y5687135D01*
G01X11119323Y5689600D01*
G01X11833586Y5689600D01*
G01X11835513Y5673730D01*
G01X11841182Y5658782D01*
G01X11850263Y5645626D01*
G01X11862229Y5635025D01*
G01X11876385Y5627595D01*
G01X11891907Y5623769D01*
G01X11907893Y5623769D01*
G01X11923415Y5627595D01*
G01X11937571Y5635025D01*
G01X11949537Y5645626D01*
G01X11958618Y5658782D01*
G01X11964287Y5673730D01*
G01X11966214Y5689600D01*
G01X12671786Y5689600D01*
G01X12673713Y5673730D01*
G01X12679382Y5658782D01*
G01X12688463Y5645626D01*
G01X12700429Y5635025D01*
G01X12714585Y5627595D01*
G01X12730107Y5623769D01*
G01X12746093Y5623769D01*
G01X12761615Y5627595D01*
G01X12775771Y5635025D01*
G01X12787737Y5645626D01*
G01X12796818Y5658782D01*
G01X12802487Y5673730D01*
G01X12804414Y5689600D01*
G01X13547293Y5689600D01*
G01X13549220Y5673730D01*
G01X13554889Y5658782D01*
G01X13563970Y5645626D01*
G01X13575937Y5635025D01*
G01X13590092Y5627595D01*
G01X13605614Y5623769D01*
G01X13621601Y5623769D01*
G01X13637123Y5627595D01*
G01X13651278Y5635025D01*
G01X13663244Y5645626D01*
G01X13672325Y5658782D01*
G01X13677994Y5673730D01*
G01X13679921Y5689600D01*
G01X13677994Y5705470D01*
G01X13672325Y5720418D01*
G01X13663244Y5733574D01*
G01X13651278Y5744175D01*
G01X13637123Y5751605D01*
G01X13621601Y5755431D01*
G01X13605614Y5755431D01*
G01X13590092Y5751605D01*
G01X13575937Y5744175D01*
G01X13563970Y5733574D01*
G01X13554889Y5720418D01*
G01X13549220Y5705470D01*
G01X13547293Y5689600D01*
G01X13547293Y5689600D01*
G01X12804414Y5689600D01*
G01X12802487Y5705470D01*
G01X12796818Y5720418D01*
G01X12787737Y5733574D01*
G01X12775771Y5744175D01*
G01X12761615Y5751605D01*
G01X12746093Y5755431D01*
G01X12730107Y5755431D01*
G01X12714585Y5751605D01*
G01X12700429Y5744175D01*
G01X12688463Y5733574D01*
G01X12679382Y5720418D01*
G01X12673713Y5705470D01*
G01X12671786Y5689600D01*
G01X12671786Y5689600D01*
G01X11966214Y5689600D01*
G01X11964287Y5705470D01*
G01X11958618Y5720418D01*
G01X11949537Y5733574D01*
G01X11937571Y5744175D01*
G01X11923415Y5751605D01*
G01X11907893Y5755431D01*
G01X11891907Y5755431D01*
G01X11876385Y5751605D01*
G01X11862229Y5744175D01*
G01X11850263Y5733574D01*
G01X11841182Y5720418D01*
G01X11835513Y5705470D01*
G01X11833586Y5689600D01*
G01X11833586Y5689600D01*
G01X11119323Y5689600D01*
G01X11117700Y5704005D01*
G01X11112093Y5720029D01*
G01X11103060Y5734404D01*
G01X11091056Y5746408D01*
G01X11076681Y5755441D01*
G01X11060657Y5761048D01*
G01X11043787Y5762949D01*
G01X11026916Y5761048D01*
G01X11010892Y5755441D01*
G01X10996517Y5746408D01*
G01X10984513Y5734404D01*
G01X10975481Y5720029D01*
G01X10969874Y5704005D01*
G01X10967973Y5687135D01*
G01X10967973Y5687135D01*
G01X7029715Y5687135D01*
G01X7022671Y5693375D01*
G01X7008515Y5700805D01*
G01X6992993Y5704631D01*
G01X6977007Y5704631D01*
G01X6961485Y5700805D01*
G01X6947329Y5693375D01*
G01X6935363Y5682774D01*
G01X6926282Y5669618D01*
G01X6920613Y5654670D01*
G01X6918686Y5638800D01*
G01X6918686Y5638800D01*
G01X1172691Y5638800D01*
G01X1181587Y5662650D01*
G01X1187222Y5688556D01*
G01X1189114Y5715000D01*
G01X1187222Y5741444D01*
G01X1181587Y5767350D01*
G01X1172322Y5792190D01*
G01X1159616Y5815458D01*
G01X1143729Y5836682D01*
G01X1124982Y5855429D01*
G01X1103758Y5871316D01*
G01X1087673Y5880100D01*
G01X10871586Y5880100D01*
G01X10873487Y5863230D01*
G01X10879094Y5847206D01*
G01X10888126Y5832831D01*
G01X10900131Y5820826D01*
G01X10914506Y5811794D01*
G01X10930530Y5806187D01*
G01X10947400Y5804286D01*
G01X10964270Y5806187D01*
G01X10980294Y5811794D01*
G01X10994669Y5820826D01*
G01X11006674Y5832831D01*
G01X11015706Y5847206D01*
G01X11021313Y5863230D01*
G01X11023214Y5880100D01*
G01X11744417Y5880100D01*
G01X11746318Y5863230D01*
G01X11751925Y5847206D01*
G01X11760957Y5832831D01*
G01X11772962Y5820826D01*
G01X11787336Y5811794D01*
G01X11803361Y5806187D01*
G01X11820231Y5804286D01*
G01X11837101Y5806187D01*
G01X11853125Y5811794D01*
G01X11867500Y5820826D01*
G01X11879505Y5832831D01*
G01X11888537Y5847206D01*
G01X11894144Y5863230D01*
G01X11896045Y5880100D01*
G01X11894144Y5896970D01*
G01X11891159Y5905500D01*
G01X12573386Y5905500D01*
G01X12575287Y5888630D01*
G01X12580894Y5872606D01*
G01X12589926Y5858231D01*
G01X12601931Y5846226D01*
G01X12616306Y5837194D01*
G01X12632330Y5831587D01*
G01X12649200Y5829686D01*
G01X12666070Y5831587D01*
G01X12682094Y5837194D01*
G01X12696469Y5846226D01*
G01X12708474Y5858231D01*
G01X12715363Y5869195D01*
G01X13422666Y5869195D01*
G01X13424567Y5852324D01*
G01X13430174Y5836300D01*
G01X13439206Y5821925D01*
G01X13451211Y5809921D01*
G01X13465585Y5800889D01*
G01X13481610Y5795281D01*
G01X13498480Y5793381D01*
G01X13515350Y5795281D01*
G01X13531374Y5800889D01*
G01X13545749Y5809921D01*
G01X13552428Y5816600D01*
G01X20235386Y5816600D01*
G01X20237366Y5791443D01*
G01X20243257Y5766906D01*
G01X20252914Y5743592D01*
G01X20266099Y5722076D01*
G01X20282487Y5702887D01*
G01X20301676Y5686499D01*
G01X20323192Y5673314D01*
G01X20346506Y5663657D01*
G01X20371043Y5657766D01*
G01X20396200Y5655786D01*
G01X20421357Y5657766D01*
G01X20445894Y5663657D01*
G01X20469208Y5673314D01*
G01X20490724Y5686499D01*
G01X20509913Y5702887D01*
G01X20520258Y5715000D01*
G01X21810586Y5715000D01*
G01X21812478Y5688556D01*
G01X21818113Y5662650D01*
G01X21827378Y5637810D01*
G01X21840084Y5614542D01*
G01X21855971Y5593318D01*
G01X21874718Y5574571D01*
G01X21895942Y5558684D01*
G01X21919210Y5545978D01*
G01X21944050Y5536713D01*
G01X21969956Y5531078D01*
G01X21996400Y5529186D01*
G01X22022844Y5531078D01*
G01X22048750Y5536713D01*
G01X22073590Y5545978D01*
G01X22096858Y5558684D01*
G01X22118082Y5574571D01*
G01X22136829Y5593318D01*
G01X22152716Y5614542D01*
G01X22165422Y5637810D01*
G01X22174687Y5662650D01*
G01X22180322Y5688556D01*
G01X22182214Y5715000D01*
G01X22180322Y5741444D01*
G01X22174687Y5767350D01*
G01X22165422Y5792190D01*
G01X22152716Y5815458D01*
G01X22136829Y5836682D01*
G01X22118082Y5855429D01*
G01X22096858Y5871316D01*
G01X22073590Y5884022D01*
G01X22048750Y5893287D01*
G01X22022844Y5898922D01*
G01X21996400Y5900814D01*
G01X21996400Y5900814D01*
G01X21969956Y5898922D01*
G01X21944050Y5893287D01*
G01X21919210Y5884022D01*
G01X21895942Y5871316D01*
G01X21874718Y5855429D01*
G01X21855971Y5836682D01*
G01X21840084Y5815458D01*
G01X21827378Y5792190D01*
G01X21818113Y5767350D01*
G01X21812478Y5741444D01*
G01X21810586Y5715000D01*
G01X20520258Y5715000D01*
G01X20526301Y5722076D01*
G01X20539486Y5743592D01*
G01X20549143Y5766906D01*
G01X20555034Y5791443D01*
G01X20557014Y5816600D01*
G01X20555034Y5841757D01*
G01X20549143Y5866294D01*
G01X20539486Y5889608D01*
G01X20526301Y5911124D01*
G01X20509913Y5930313D01*
G01X20490724Y5946701D01*
G01X20469208Y5959886D01*
G01X20445894Y5969543D01*
G01X20421357Y5975434D01*
G01X20396200Y5977414D01*
G01X20371043Y5975434D01*
G01X20346506Y5969543D01*
G01X20323192Y5959886D01*
G01X20301676Y5946701D01*
G01X20282487Y5930313D01*
G01X20266099Y5911124D01*
G01X20252914Y5889608D01*
G01X20243257Y5866294D01*
G01X20237366Y5841757D01*
G01X20235386Y5816600D01*
G01X20235386Y5816600D01*
G01X13552428Y5816600D01*
G01X13557753Y5821925D01*
G01X13566786Y5836300D01*
G01X13572393Y5852324D01*
G01X13574294Y5869195D01*
G01X13572393Y5886065D01*
G01X13566786Y5902089D01*
G01X13557753Y5916464D01*
G01X13545749Y5928468D01*
G01X13531374Y5937500D01*
G01X13515350Y5943108D01*
G01X13498480Y5945008D01*
G01X13481610Y5943108D01*
G01X13465585Y5937500D01*
G01X13451211Y5928468D01*
G01X13439206Y5916464D01*
G01X13430174Y5902089D01*
G01X13424567Y5886065D01*
G01X13422666Y5869195D01*
G01X13422666Y5869195D01*
G01X12715363Y5869195D01*
G01X12717506Y5872606D01*
G01X12723113Y5888630D01*
G01X12725014Y5905500D01*
G01X12723113Y5922370D01*
G01X12717506Y5938394D01*
G01X12708474Y5952769D01*
G01X12696469Y5964774D01*
G01X12682094Y5973806D01*
G01X12666070Y5979413D01*
G01X12649200Y5981314D01*
G01X12632330Y5979413D01*
G01X12616306Y5973806D01*
G01X12601931Y5964774D01*
G01X12589926Y5952769D01*
G01X12580894Y5938394D01*
G01X12575287Y5922370D01*
G01X12573386Y5905500D01*
G01X12573386Y5905500D01*
G01X11891159Y5905500D01*
G01X11888537Y5912994D01*
G01X11879505Y5927369D01*
G01X11867500Y5939374D01*
G01X11853125Y5948406D01*
G01X11837101Y5954013D01*
G01X11820231Y5955914D01*
G01X11803361Y5954013D01*
G01X11787336Y5948406D01*
G01X11772962Y5939374D01*
G01X11760957Y5927369D01*
G01X11751925Y5912994D01*
G01X11746318Y5896970D01*
G01X11744417Y5880100D01*
G01X11744417Y5880100D01*
G01X11023214Y5880100D01*
G01X11021313Y5896970D01*
G01X11015706Y5912994D01*
G01X11006674Y5927369D01*
G01X10994669Y5939374D01*
G01X10980294Y5948406D01*
G01X10964270Y5954013D01*
G01X10947400Y5955914D01*
G01X10930530Y5954013D01*
G01X10914506Y5948406D01*
G01X10900131Y5939374D01*
G01X10888126Y5927369D01*
G01X10879094Y5912994D01*
G01X10873487Y5896970D01*
G01X10871586Y5880100D01*
G01X10871586Y5880100D01*
G01X1087673Y5880100D01*
G01X1080490Y5884022D01*
G01X1055650Y5893287D01*
G01X1029744Y5898922D01*
G01X1003300Y5900814D01*
G01X976856Y5898922D01*
G01X950950Y5893287D01*
G01X926110Y5884022D01*
G01X902842Y5871316D01*
G01X881618Y5855429D01*
G01X862871Y5836682D01*
G01X846984Y5815458D01*
G01X834278Y5792190D01*
G01X825013Y5767350D01*
G01X819378Y5741444D01*
G01X817486Y5715000D01*
G01X35814Y5715000D01*
G01X35814Y6214872D01*
G01X817486Y6214872D01*
G01X819378Y6188428D01*
G01X825013Y6162522D01*
G01X834278Y6137682D01*
G01X846984Y6114414D01*
G01X862871Y6093190D01*
G01X881618Y6074443D01*
G01X902842Y6058556D01*
G01X926110Y6045850D01*
G01X950950Y6036585D01*
G01X976856Y6030950D01*
G01X1003300Y6029058D01*
G01X1003300Y6029058D01*
G01X1029744Y6030950D01*
G01X1055650Y6036585D01*
G01X1080490Y6045850D01*
G01X1103758Y6058556D01*
G01X1124982Y6074443D01*
G01X1143729Y6093190D01*
G01X1159616Y6114414D01*
G01X1172322Y6137682D01*
G01X1181587Y6162522D01*
G01X1187222Y6188428D01*
G01X1189114Y6214872D01*
G01X1188532Y6223000D01*
G01X21810586Y6223000D01*
G01X21812478Y6196556D01*
G01X21818113Y6170650D01*
G01X21827378Y6145810D01*
G01X21840084Y6122542D01*
G01X21855971Y6101318D01*
G01X21874718Y6082571D01*
G01X21895942Y6066684D01*
G01X21919210Y6053978D01*
G01X21944050Y6044713D01*
G01X21969956Y6039078D01*
G01X21996400Y6037186D01*
G01X22022844Y6039078D01*
G01X22048750Y6044713D01*
G01X22073590Y6053978D01*
G01X22096858Y6066684D01*
G01X22118082Y6082571D01*
G01X22136829Y6101318D01*
G01X22152716Y6122542D01*
G01X22165422Y6145810D01*
G01X22174687Y6170650D01*
G01X22180322Y6196556D01*
G01X22182214Y6223000D01*
G01X22180322Y6249444D01*
G01X22174687Y6275350D01*
G01X22165422Y6300190D01*
G01X22152716Y6323458D01*
G01X22136829Y6344682D01*
G01X22118082Y6363429D01*
G01X22096858Y6379316D01*
G01X22073590Y6392022D01*
G01X22048750Y6401287D01*
G01X22022844Y6406922D01*
G01X21996400Y6408814D01*
G01X21996400Y6408814D01*
G01X21969956Y6406922D01*
G01X21944050Y6401287D01*
G01X21919210Y6392022D01*
G01X21895942Y6379316D01*
G01X21874718Y6363429D01*
G01X21855971Y6344682D01*
G01X21840084Y6323458D01*
G01X21827378Y6300190D01*
G01X21818113Y6275350D01*
G01X21812478Y6249444D01*
G01X21810586Y6223000D01*
G01X1188532Y6223000D01*
G01X1187222Y6241316D01*
G01X1181587Y6267222D01*
G01X1172322Y6292062D01*
G01X1159616Y6315330D01*
G01X1143729Y6336554D01*
G01X1130283Y6350000D01*
G01X11058886Y6350000D01*
G01X11060813Y6334130D01*
G01X11066482Y6319182D01*
G01X11075563Y6306026D01*
G01X11087529Y6295425D01*
G01X11101685Y6287995D01*
G01X11117207Y6284169D01*
G01X11133193Y6284169D01*
G01X11148715Y6287995D01*
G01X11162871Y6295425D01*
G01X11174837Y6306026D01*
G01X11183918Y6319182D01*
G01X11189587Y6334130D01*
G01X11191514Y6350000D01*
G01X11189587Y6365870D01*
G01X11183918Y6380818D01*
G01X11174837Y6393974D01*
G01X11162871Y6404575D01*
G01X11148715Y6412005D01*
G01X11133193Y6415831D01*
G01X11117207Y6415831D01*
G01X11101685Y6412005D01*
G01X11087529Y6404575D01*
G01X11075563Y6393974D01*
G01X11066482Y6380818D01*
G01X11060813Y6365870D01*
G01X11058886Y6350000D01*
G01X11058886Y6350000D01*
G01X1130283Y6350000D01*
G01X1124982Y6355301D01*
G01X1103758Y6371188D01*
G01X1080490Y6383894D01*
G01X1055650Y6393159D01*
G01X1029744Y6398794D01*
G01X1003300Y6400686D01*
G01X976856Y6398794D01*
G01X950950Y6393159D01*
G01X926110Y6383894D01*
G01X902842Y6371188D01*
G01X881618Y6355301D01*
G01X862871Y6336554D01*
G01X846984Y6315330D01*
G01X834278Y6292062D01*
G01X825013Y6267222D01*
G01X819378Y6241316D01*
G01X817486Y6214872D01*
G01X35814Y6214872D01*
G01X35814Y6426200D01*
G01X6817086Y6426200D01*
G01X6819013Y6410330D01*
G01X6824682Y6395382D01*
G01X6833763Y6382226D01*
G01X6845729Y6371625D01*
G01X6859885Y6364195D01*
G01X6875407Y6360369D01*
G01X6891393Y6360369D01*
G01X6906915Y6364195D01*
G01X6921071Y6371625D01*
G01X6933037Y6382226D01*
G01X6942118Y6395382D01*
G01X6947787Y6410330D01*
G01X6949714Y6426200D01*
G01X6947787Y6442070D01*
G01X6942118Y6457018D01*
G01X6933037Y6470174D01*
G01X6921071Y6480775D01*
G01X6906915Y6488205D01*
G01X6891393Y6492031D01*
G01X6875407Y6492031D01*
G01X6859885Y6488205D01*
G01X6845729Y6480775D01*
G01X6833763Y6470174D01*
G01X6824682Y6457018D01*
G01X6819013Y6442070D01*
G01X6817086Y6426200D01*
G01X6817086Y6426200D01*
G01X35814Y6426200D01*
G01X35814Y6527800D01*
G01X10017486Y6527800D01*
G01X10019413Y6511930D01*
G01X10025082Y6496982D01*
G01X10034163Y6483826D01*
G01X10046129Y6473225D01*
G01X10060285Y6465795D01*
G01X10075807Y6461969D01*
G01X10091793Y6461969D01*
G01X10107315Y6465795D01*
G01X10121471Y6473225D01*
G01X10133437Y6483826D01*
G01X10142518Y6496982D01*
G01X10148187Y6511930D01*
G01X10150114Y6527800D01*
G01X10449286Y6527800D01*
G01X10451213Y6511930D01*
G01X10456882Y6496982D01*
G01X10465963Y6483826D01*
G01X10477929Y6473225D01*
G01X10492085Y6465795D01*
G01X10507607Y6461969D01*
G01X10523593Y6461969D01*
G01X10539115Y6465795D01*
G01X10553271Y6473225D01*
G01X10565237Y6483826D01*
G01X10574318Y6496982D01*
G01X10579987Y6511930D01*
G01X10581914Y6527800D01*
G01X10579987Y6543670D01*
G01X10574318Y6558618D01*
G01X10565237Y6571774D01*
G01X10553271Y6582375D01*
G01X10539115Y6589805D01*
G01X10523593Y6593631D01*
G01X10507607Y6593631D01*
G01X10492085Y6589805D01*
G01X10477929Y6582375D01*
G01X10465963Y6571774D01*
G01X10456882Y6558618D01*
G01X10451213Y6543670D01*
G01X10449286Y6527800D01*
G01X10449286Y6527800D01*
G01X10150114Y6527800D01*
G01X10148187Y6543670D01*
G01X10142518Y6558618D01*
G01X10133437Y6571774D01*
G01X10121471Y6582375D01*
G01X10107315Y6589805D01*
G01X10091793Y6593631D01*
G01X10075807Y6593631D01*
G01X10060285Y6589805D01*
G01X10046129Y6582375D01*
G01X10034163Y6571774D01*
G01X10025082Y6558618D01*
G01X10019413Y6543670D01*
G01X10017486Y6527800D01*
G01X10017486Y6527800D01*
G01X35814Y6527800D01*
G01X35814Y6731000D01*
G01X817486Y6731000D01*
G01X819378Y6704556D01*
G01X825013Y6678650D01*
G01X834278Y6653810D01*
G01X846984Y6630542D01*
G01X862871Y6609318D01*
G01X881618Y6590571D01*
G01X902842Y6574684D01*
G01X926110Y6561978D01*
G01X950950Y6552713D01*
G01X976856Y6547078D01*
G01X1003300Y6545186D01*
G01X1003300Y6545186D01*
G01X1029744Y6547078D01*
G01X1055650Y6552713D01*
G01X1080490Y6561978D01*
G01X1103758Y6574684D01*
G01X1124982Y6590571D01*
G01X1143729Y6609318D01*
G01X1149255Y6616700D01*
G01X4277086Y6616700D01*
G01X4279013Y6600830D01*
G01X4284682Y6585882D01*
G01X4293763Y6572726D01*
G01X4305729Y6562125D01*
G01X4319885Y6554695D01*
G01X4335407Y6550869D01*
G01X4351393Y6550869D01*
G01X4366915Y6554695D01*
G01X4381071Y6562125D01*
G01X4393037Y6572726D01*
G01X4402118Y6585882D01*
G01X4407787Y6600830D01*
G01X4409714Y6616700D01*
G01X4407787Y6632570D01*
G01X4404173Y6642100D01*
G01X9890486Y6642100D01*
G01X9892413Y6626230D01*
G01X9898082Y6611282D01*
G01X9907163Y6598126D01*
G01X9919129Y6587525D01*
G01X9933285Y6580095D01*
G01X9948807Y6576269D01*
G01X9964793Y6576269D01*
G01X9980315Y6580095D01*
G01X9994471Y6587525D01*
G01X10006437Y6598126D01*
G01X10015518Y6611282D01*
G01X10021187Y6626230D01*
G01X10021572Y6629400D01*
G01X10284186Y6629400D01*
G01X10286113Y6613530D01*
G01X10291782Y6598582D01*
G01X10300863Y6585426D01*
G01X10312829Y6574825D01*
G01X10326985Y6567395D01*
G01X10342507Y6563569D01*
G01X10358493Y6563569D01*
G01X10374015Y6567395D01*
G01X10388171Y6574825D01*
G01X10400137Y6585426D01*
G01X10409218Y6598582D01*
G01X10414887Y6613530D01*
G01X10416814Y6629400D01*
G01X10414887Y6645270D01*
G01X10409218Y6660218D01*
G01X10400137Y6673374D01*
G01X10388171Y6683975D01*
G01X10374015Y6691405D01*
G01X10358493Y6695231D01*
G01X10342507Y6695231D01*
G01X10326985Y6691405D01*
G01X10312829Y6683975D01*
G01X10300863Y6673374D01*
G01X10291782Y6660218D01*
G01X10286113Y6645270D01*
G01X10284186Y6629400D01*
G01X10284186Y6629400D01*
G01X10021572Y6629400D01*
G01X10023114Y6642100D01*
G01X10021187Y6657970D01*
G01X10015518Y6672918D01*
G01X10006437Y6686074D01*
G01X9994471Y6696675D01*
G01X9980315Y6704105D01*
G01X9964793Y6707931D01*
G01X9948807Y6707931D01*
G01X9933285Y6704105D01*
G01X9919129Y6696675D01*
G01X9907163Y6686074D01*
G01X9898082Y6672918D01*
G01X9892413Y6657970D01*
G01X9890486Y6642100D01*
G01X9890486Y6642100D01*
G01X4404173Y6642100D01*
G01X4402118Y6647518D01*
G01X4393037Y6660674D01*
G01X4381071Y6671275D01*
G01X4366915Y6678705D01*
G01X4351393Y6682531D01*
G01X4335407Y6682531D01*
G01X4319885Y6678705D01*
G01X4305729Y6671275D01*
G01X4293763Y6660674D01*
G01X4284682Y6647518D01*
G01X4279013Y6632570D01*
G01X4277086Y6616700D01*
G01X4277086Y6616700D01*
G01X1149255Y6616700D01*
G01X1159616Y6630542D01*
G01X1172322Y6653810D01*
G01X1181587Y6678650D01*
G01X1187222Y6704556D01*
G01X1189066Y6730339D01*
G01X11604989Y6730339D01*
G01X11606837Y6715442D01*
G01X11611987Y6701343D01*
G01X11620176Y6688764D01*
G01X11630984Y6678348D01*
G01X11643858Y6670630D01*
G01X11658138Y6666005D01*
G01X11673092Y6664710D01*
G01X11687955Y6666811D01*
G01X11701964Y6672201D01*
G01X11714402Y6680604D01*
G01X11724632Y6691588D01*
G01X11732129Y6704592D01*
G01X11746603Y6702792D01*
G01X11761120Y6704200D01*
G01X11765388Y6705600D01*
G01X12461212Y6705600D01*
G01X12463139Y6689730D01*
G01X12468807Y6674782D01*
G01X12477889Y6661626D01*
G01X12489855Y6651025D01*
G01X12504010Y6643595D01*
G01X12519532Y6639769D01*
G01X12535519Y6639769D01*
G01X12551041Y6643595D01*
G01X12565196Y6651025D01*
G01X12577162Y6661626D01*
G01X12586244Y6674782D01*
G01X12591913Y6689730D01*
G01X12593840Y6705600D01*
G01X12591913Y6721470D01*
G01X12588298Y6731000D01*
G01X21810586Y6731000D01*
G01X21812478Y6704556D01*
G01X21818113Y6678650D01*
G01X21827378Y6653810D01*
G01X21840084Y6630542D01*
G01X21855971Y6609318D01*
G01X21874718Y6590571D01*
G01X21895942Y6574684D01*
G01X21919210Y6561978D01*
G01X21944050Y6552713D01*
G01X21969956Y6547078D01*
G01X21996400Y6545186D01*
G01X22022844Y6547078D01*
G01X22048750Y6552713D01*
G01X22073590Y6561978D01*
G01X22096858Y6574684D01*
G01X22118082Y6590571D01*
G01X22136829Y6609318D01*
G01X22152716Y6630542D01*
G01X22165422Y6653810D01*
G01X22174687Y6678650D01*
G01X22180322Y6704556D01*
G01X22182214Y6731000D01*
G01X22180322Y6757444D01*
G01X22174687Y6783350D01*
G01X22165422Y6808190D01*
G01X22152716Y6831458D01*
G01X22136829Y6852682D01*
G01X22118082Y6871429D01*
G01X22096858Y6887316D01*
G01X22073590Y6900022D01*
G01X22048750Y6909287D01*
G01X22022844Y6914922D01*
G01X21996400Y6916814D01*
G01X21996400Y6916814D01*
G01X21969956Y6914922D01*
G01X21944050Y6909287D01*
G01X21919210Y6900022D01*
G01X21895942Y6887316D01*
G01X21874718Y6871429D01*
G01X21855971Y6852682D01*
G01X21840084Y6831458D01*
G01X21827378Y6808190D01*
G01X21818113Y6783350D01*
G01X21812478Y6757444D01*
G01X21810586Y6731000D01*
G01X12588298Y6731000D01*
G01X12586244Y6736418D01*
G01X12577162Y6749574D01*
G01X12565196Y6760175D01*
G01X12551041Y6767605D01*
G01X12535519Y6771431D01*
G01X12519532Y6771431D01*
G01X12504010Y6767605D01*
G01X12489855Y6760175D01*
G01X12477889Y6749574D01*
G01X12468807Y6736418D01*
G01X12463139Y6721470D01*
G01X12461212Y6705600D01*
G01X12461212Y6705600D01*
G01X11765388Y6705600D01*
G01X11774979Y6708747D01*
G01X11787508Y6716214D01*
G01X11798102Y6726240D01*
G01X11806248Y6738338D01*
G01X11811551Y6751925D01*
G01X11813757Y6766343D01*
G01X11828883Y6768743D01*
G01X11843055Y6774548D01*
G01X11855517Y6783449D01*
G01X11865605Y6794972D01*
G01X11872781Y6808502D01*
G01X11876661Y6823317D01*
G01X11877040Y6838627D01*
G01X11873896Y6853616D01*
G01X11867397Y6867484D01*
G01X11857891Y6879491D01*
G01X11845884Y6888997D01*
G01X11832016Y6895496D01*
G01X11817027Y6898640D01*
G01X11801717Y6898261D01*
G01X11786902Y6894381D01*
G01X11773372Y6887205D01*
G01X11761849Y6877117D01*
G01X11752948Y6864655D01*
G01X11747143Y6850483D01*
G01X11744743Y6835357D01*
G01X11730099Y6833090D01*
G01X11716324Y6827629D01*
G01X11704105Y6819244D01*
G01X11694054Y6808356D01*
G01X11686671Y6795508D01*
G01X11686671Y6795508D01*
G01X11671770Y6797312D01*
G01X11656844Y6795719D01*
G01X11642659Y6790810D01*
G01X11629942Y6782837D01*
G01X11619344Y6772208D01*
G01X11611407Y6759467D01*
G01X11606539Y6745268D01*
G01X11604989Y6730339D01*
G01X1189066Y6730339D01*
G01X1189114Y6731000D01*
G01X1187222Y6757444D01*
G01X1181587Y6783350D01*
G01X1172322Y6808190D01*
G01X1159616Y6831458D01*
G01X1143729Y6852682D01*
G01X1124982Y6871429D01*
G01X1103758Y6887316D01*
G01X1080490Y6900022D01*
G01X1055650Y6909287D01*
G01X1029744Y6914922D01*
G01X1003300Y6916814D01*
G01X976856Y6914922D01*
G01X950950Y6909287D01*
G01X926110Y6900022D01*
G01X902842Y6887316D01*
G01X881618Y6871429D01*
G01X862871Y6852682D01*
G01X846984Y6831458D01*
G01X834278Y6808190D01*
G01X825013Y6783350D01*
G01X819378Y6757444D01*
G01X817486Y6731000D01*
G01X35814Y6731000D01*
G01X35814Y7048500D01*
G01X2214086Y7048500D01*
G01X2216066Y7023343D01*
G01X2221957Y6998806D01*
G01X2231614Y6975492D01*
G01X2244799Y6953976D01*
G01X2261187Y6934787D01*
G01X2280376Y6918399D01*
G01X2301892Y6905214D01*
G01X2325206Y6895557D01*
G01X2349743Y6889666D01*
G01X2374900Y6887686D01*
G01X2400057Y6889666D01*
G01X2424594Y6895557D01*
G01X2447908Y6905214D01*
G01X2469424Y6918399D01*
G01X2488613Y6934787D01*
G01X2505001Y6953976D01*
G01X2516213Y6972272D01*
G01X10436805Y6972272D01*
G01X10438732Y6956402D01*
G01X10444401Y6941454D01*
G01X10453482Y6928298D01*
G01X10465449Y6917697D01*
G01X10479604Y6910267D01*
G01X10495126Y6906441D01*
G01X10511112Y6906441D01*
G01X10526634Y6910267D01*
G01X10540790Y6917697D01*
G01X10552756Y6928298D01*
G01X10561837Y6941454D01*
G01X10567506Y6956402D01*
G01X10569433Y6972272D01*
G01X10567506Y6988142D01*
G01X10561837Y7003090D01*
G01X10552756Y7016246D01*
G01X10540790Y7026847D01*
G01X10526634Y7034277D01*
G01X10511112Y7038103D01*
G01X10495126Y7038103D01*
G01X10479604Y7034277D01*
G01X10465449Y7026847D01*
G01X10453482Y7016246D01*
G01X10444401Y7003090D01*
G01X10438732Y6988142D01*
G01X10436805Y6972272D01*
G01X10436805Y6972272D01*
G01X2516213Y6972272D01*
G01X2518186Y6975492D01*
G01X2527843Y6998806D01*
G01X2533734Y7023343D01*
G01X2535714Y7048500D01*
G01X2533734Y7073657D01*
G01X2530686Y7086353D01*
G01X11465286Y7086353D01*
G01X11466984Y7071688D01*
G01X11471885Y7057762D01*
G01X11479744Y7045266D01*
G01X11490174Y7034817D01*
G01X11502657Y7026936D01*
G01X11516574Y7022011D01*
G01X11531236Y7020287D01*
G01X11545916Y7021850D01*
G01X11559886Y7026621D01*
G01X11572455Y7034365D01*
G01X11582999Y7044698D01*
G01X11590995Y7057108D01*
G01X11596048Y7070979D01*
G01X11597907Y7085624D01*
G01X11612789Y7091159D01*
G01X11625929Y7100072D01*
G01X11636573Y7111854D01*
G01X11644112Y7125828D01*
G01X11648113Y7141193D01*
G01X11663994Y7145178D01*
G01X11678414Y7152932D01*
G01X11690495Y7163983D01*
G01X11699500Y7177658D01*
G01X11704880Y7193121D01*
G01X11706308Y7209432D01*
G01X11703695Y7225595D01*
G01X11697905Y7239000D01*
G01X21810586Y7239000D01*
G01X21812478Y7212556D01*
G01X21818113Y7186650D01*
G01X21827378Y7161810D01*
G01X21840084Y7138542D01*
G01X21855971Y7117318D01*
G01X21874718Y7098571D01*
G01X21895942Y7082684D01*
G01X21919210Y7069978D01*
G01X21944050Y7060713D01*
G01X21969956Y7055078D01*
G01X21996400Y7053186D01*
G01X22022844Y7055078D01*
G01X22048750Y7060713D01*
G01X22073590Y7069978D01*
G01X22096858Y7082684D01*
G01X22118082Y7098571D01*
G01X22136829Y7117318D01*
G01X22152716Y7138542D01*
G01X22165422Y7161810D01*
G01X22174687Y7186650D01*
G01X22180322Y7212556D01*
G01X22182214Y7239000D01*
G01X22180322Y7265444D01*
G01X22174687Y7291350D01*
G01X22165422Y7316190D01*
G01X22152716Y7339458D01*
G01X22136829Y7360682D01*
G01X22118082Y7379429D01*
G01X22096858Y7395316D01*
G01X22073590Y7408022D01*
G01X22048750Y7417287D01*
G01X22022844Y7422922D01*
G01X21996400Y7424814D01*
G01X21996400Y7424814D01*
G01X21969956Y7422922D01*
G01X21944050Y7417287D01*
G01X21919210Y7408022D01*
G01X21895942Y7395316D01*
G01X21874718Y7379429D01*
G01X21855971Y7360682D01*
G01X21840084Y7339458D01*
G01X21827378Y7316190D01*
G01X21818113Y7291350D01*
G01X21812478Y7265444D01*
G01X21810586Y7239000D01*
G01X11697905Y7239000D01*
G01X11697202Y7240626D01*
G01X11687224Y7253607D01*
G01X11674370Y7263749D01*
G01X11659423Y7270431D01*
G01X11643294Y7273248D01*
G01X11626966Y7272027D01*
G01X11611436Y7266842D01*
G01X11597649Y7258011D01*
G01X11586446Y7246071D01*
G01X11578510Y7231750D01*
G01X11574325Y7215921D01*
G01X11558972Y7212138D01*
G01X11544952Y7204828D01*
G01X11533060Y7194408D01*
G01X11523974Y7181468D01*
G01X11518209Y7166745D01*
G01X11516093Y7151076D01*
G01X11516093Y7151076D01*
G01X11502213Y7146047D01*
G01X11489789Y7138073D01*
G01X11479438Y7127547D01*
G01X11471671Y7114992D01*
G01X11466875Y7101030D01*
G01X11465286Y7086353D01*
G01X2530686Y7086353D01*
G01X2527843Y7098194D01*
G01X2518186Y7121508D01*
G01X2505001Y7143024D01*
G01X2488613Y7162213D01*
G01X2469424Y7178601D01*
G01X2447908Y7191786D01*
G01X2424594Y7201443D01*
G01X2400057Y7207334D01*
G01X2374900Y7209314D01*
G01X2349743Y7207334D01*
G01X2325206Y7201443D01*
G01X2301892Y7191786D01*
G01X2280376Y7178601D01*
G01X2261187Y7162213D01*
G01X2244799Y7143024D01*
G01X2231614Y7121508D01*
G01X2221957Y7098194D01*
G01X2216066Y7073657D01*
G01X2214086Y7048500D01*
G01X2214086Y7048500D01*
G01X35814Y7048500D01*
G01X35814Y7239000D01*
G01X817486Y7239000D01*
G01X819378Y7212556D01*
G01X825013Y7186650D01*
G01X834278Y7161810D01*
G01X846984Y7138542D01*
G01X862871Y7117318D01*
G01X881618Y7098571D01*
G01X902842Y7082684D01*
G01X926110Y7069978D01*
G01X950950Y7060713D01*
G01X976856Y7055078D01*
G01X1003300Y7053186D01*
G01X1003300Y7053186D01*
G01X1029744Y7055078D01*
G01X1055650Y7060713D01*
G01X1080490Y7069978D01*
G01X1103758Y7082684D01*
G01X1124982Y7098571D01*
G01X1143729Y7117318D01*
G01X1159616Y7138542D01*
G01X1172322Y7161810D01*
G01X1181587Y7186650D01*
G01X1187222Y7212556D01*
G01X1189114Y7239000D01*
G01X1187222Y7265444D01*
G01X1181587Y7291350D01*
G01X1172322Y7316190D01*
G01X1159616Y7339458D01*
G01X1143729Y7360682D01*
G01X1124982Y7379429D01*
G01X1103758Y7395316D01*
G01X1087673Y7404100D01*
G01X11058886Y7404100D01*
G01X11060813Y7388230D01*
G01X11066482Y7373282D01*
G01X11075563Y7360126D01*
G01X11087529Y7349525D01*
G01X11101685Y7342095D01*
G01X11117207Y7338269D01*
G01X11133193Y7338269D01*
G01X11148715Y7342095D01*
G01X11162871Y7349525D01*
G01X11167132Y7353300D01*
G01X11452586Y7353300D01*
G01X11454513Y7337430D01*
G01X11460182Y7322482D01*
G01X11469263Y7309326D01*
G01X11481229Y7298725D01*
G01X11495385Y7291295D01*
G01X11510907Y7287469D01*
G01X11526893Y7287469D01*
G01X11542415Y7291295D01*
G01X11556571Y7298725D01*
G01X11568537Y7309326D01*
G01X11577618Y7322482D01*
G01X11583287Y7337430D01*
G01X11585214Y7353300D01*
G01X11699353Y7353300D01*
G01X11701280Y7337430D01*
G01X11706949Y7322482D01*
G01X11716030Y7309326D01*
G01X11727996Y7298725D01*
G01X11742152Y7291295D01*
G01X11757674Y7287469D01*
G01X11773660Y7287469D01*
G01X11789182Y7291295D01*
G01X11803338Y7298725D01*
G01X11815304Y7309326D01*
G01X11824385Y7322482D01*
G01X11826440Y7327900D01*
G01X11947886Y7327900D01*
G01X11949813Y7312030D01*
G01X11955482Y7297082D01*
G01X11964563Y7283926D01*
G01X11976529Y7273325D01*
G01X11990685Y7265895D01*
G01X12006207Y7262069D01*
G01X12022193Y7262069D01*
G01X12037715Y7265895D01*
G01X12051871Y7273325D01*
G01X12063837Y7283926D01*
G01X12072918Y7297082D01*
G01X12078587Y7312030D01*
G01X12080514Y7327900D01*
G01X12209797Y7327900D01*
G01X12211723Y7312030D01*
G01X12217392Y7297082D01*
G01X12226474Y7283926D01*
G01X12238440Y7273325D01*
G01X12252595Y7265895D01*
G01X12268117Y7262069D01*
G01X12284104Y7262069D01*
G01X12299626Y7265895D01*
G01X12313781Y7273325D01*
G01X12325747Y7283926D01*
G01X12334829Y7297082D01*
G01X12340498Y7312030D01*
G01X12342425Y7327900D01*
G01X12340883Y7340600D01*
G01X12709886Y7340600D01*
G01X12711813Y7324730D01*
G01X12717482Y7309782D01*
G01X12726563Y7296626D01*
G01X12738529Y7286025D01*
G01X12752685Y7278595D01*
G01X12768207Y7274769D01*
G01X12784193Y7274769D01*
G01X12799715Y7278595D01*
G01X12813871Y7286025D01*
G01X12825837Y7296626D01*
G01X12834918Y7309782D01*
G01X12840587Y7324730D01*
G01X12842514Y7340600D01*
G01X12970205Y7340600D01*
G01X12972132Y7324730D01*
G01X12977801Y7309782D01*
G01X12986882Y7296626D01*
G01X12998848Y7286025D01*
G01X13013003Y7278595D01*
G01X13028525Y7274769D01*
G01X13044512Y7274769D01*
G01X13060034Y7278595D01*
G01X13074189Y7286025D01*
G01X13086156Y7296626D01*
G01X13095237Y7309782D01*
G01X13100906Y7324730D01*
G01X13102833Y7340600D01*
G01X13100906Y7356470D01*
G01X13095237Y7371418D01*
G01X13086156Y7384574D01*
G01X13074189Y7395175D01*
G01X13060034Y7402605D01*
G01X13044512Y7406431D01*
G01X13028525Y7406431D01*
G01X13013003Y7402605D01*
G01X12998848Y7395175D01*
G01X12986882Y7384574D01*
G01X12977801Y7371418D01*
G01X12972132Y7356470D01*
G01X12970205Y7340600D01*
G01X12970205Y7340600D01*
G01X12842514Y7340600D01*
G01X12840587Y7356470D01*
G01X12834918Y7371418D01*
G01X12825837Y7384574D01*
G01X12813871Y7395175D01*
G01X12799715Y7402605D01*
G01X12784193Y7406431D01*
G01X12768207Y7406431D01*
G01X12752685Y7402605D01*
G01X12738529Y7395175D01*
G01X12726563Y7384574D01*
G01X12717482Y7371418D01*
G01X12711813Y7356470D01*
G01X12709886Y7340600D01*
G01X12709886Y7340600D01*
G01X12340883Y7340600D01*
G01X12340498Y7343770D01*
G01X12334829Y7358718D01*
G01X12325747Y7371874D01*
G01X12313781Y7382475D01*
G01X12299626Y7389905D01*
G01X12284104Y7393731D01*
G01X12268117Y7393731D01*
G01X12252595Y7389905D01*
G01X12238440Y7382475D01*
G01X12226474Y7371874D01*
G01X12217392Y7358718D01*
G01X12211723Y7343770D01*
G01X12209797Y7327900D01*
G01X12209797Y7327900D01*
G01X12080514Y7327900D01*
G01X12078587Y7343770D01*
G01X12072918Y7358718D01*
G01X12063837Y7371874D01*
G01X12051871Y7382475D01*
G01X12037715Y7389905D01*
G01X12022193Y7393731D01*
G01X12006207Y7393731D01*
G01X11990685Y7389905D01*
G01X11976529Y7382475D01*
G01X11964563Y7371874D01*
G01X11955482Y7358718D01*
G01X11949813Y7343770D01*
G01X11947886Y7327900D01*
G01X11947886Y7327900D01*
G01X11826440Y7327900D01*
G01X11830054Y7337430D01*
G01X11831981Y7353300D01*
G01X11830054Y7369170D01*
G01X11824385Y7384118D01*
G01X11815304Y7397274D01*
G01X11803338Y7407875D01*
G01X11789182Y7415305D01*
G01X11773660Y7419131D01*
G01X11757674Y7419131D01*
G01X11742152Y7415305D01*
G01X11727996Y7407875D01*
G01X11716030Y7397274D01*
G01X11706949Y7384118D01*
G01X11701280Y7369170D01*
G01X11699353Y7353300D01*
G01X11699353Y7353300D01*
G01X11585214Y7353300D01*
G01X11583287Y7369170D01*
G01X11577618Y7384118D01*
G01X11568537Y7397274D01*
G01X11556571Y7407875D01*
G01X11542415Y7415305D01*
G01X11526893Y7419131D01*
G01X11510907Y7419131D01*
G01X11495385Y7415305D01*
G01X11481229Y7407875D01*
G01X11469263Y7397274D01*
G01X11460182Y7384118D01*
G01X11454513Y7369170D01*
G01X11452586Y7353300D01*
G01X11452586Y7353300D01*
G01X11167132Y7353300D01*
G01X11174837Y7360126D01*
G01X11183918Y7373282D01*
G01X11189587Y7388230D01*
G01X11191514Y7404100D01*
G01X11189587Y7419970D01*
G01X11183918Y7434918D01*
G01X11174837Y7448074D01*
G01X11162871Y7458675D01*
G01X11148715Y7466105D01*
G01X11133193Y7469931D01*
G01X11117207Y7469931D01*
G01X11101685Y7466105D01*
G01X11087529Y7458675D01*
G01X11075563Y7448074D01*
G01X11066482Y7434918D01*
G01X11060813Y7419970D01*
G01X11058886Y7404100D01*
G01X11058886Y7404100D01*
G01X1087673Y7404100D01*
G01X1080490Y7408022D01*
G01X1055650Y7417287D01*
G01X1029744Y7422922D01*
G01X1003300Y7424814D01*
G01X976856Y7422922D01*
G01X950950Y7417287D01*
G01X926110Y7408022D01*
G01X902842Y7395316D01*
G01X881618Y7379429D01*
G01X862871Y7360682D01*
G01X846984Y7339458D01*
G01X834278Y7316190D01*
G01X825013Y7291350D01*
G01X819378Y7265444D01*
G01X817486Y7239000D01*
G01X35814Y7239000D01*
G01X35814Y7556500D01*
G01X19682186Y7556500D01*
G01X19684113Y7540630D01*
G01X19689782Y7525682D01*
G01X19698863Y7512526D01*
G01X19710829Y7501925D01*
G01X19724985Y7494495D01*
G01X19740507Y7490669D01*
G01X19756493Y7490669D01*
G01X19772015Y7494495D01*
G01X19786171Y7501925D01*
G01X19798137Y7512526D01*
G01X19807218Y7525682D01*
G01X19812887Y7540630D01*
G01X19814814Y7556500D01*
G01X19812887Y7572370D01*
G01X19807218Y7587318D01*
G01X19798137Y7600474D01*
G01X19786171Y7611075D01*
G01X19772015Y7618505D01*
G01X19756493Y7622331D01*
G01X19740507Y7622331D01*
G01X19724985Y7618505D01*
G01X19710829Y7611075D01*
G01X19698863Y7600474D01*
G01X19689782Y7587318D01*
G01X19684113Y7572370D01*
G01X19682186Y7556500D01*
G01X19682186Y7556500D01*
G01X35814Y7556500D01*
G01X35814Y7747000D01*
G01X817486Y7747000D01*
G01X819378Y7720556D01*
G01X825013Y7694650D01*
G01X834278Y7669810D01*
G01X846984Y7646542D01*
G01X862871Y7625318D01*
G01X881618Y7606571D01*
G01X902842Y7590684D01*
G01X926110Y7577978D01*
G01X950950Y7568713D01*
G01X976856Y7563078D01*
G01X1003300Y7561186D01*
G01X1003300Y7561186D01*
G01X1029744Y7563078D01*
G01X1055650Y7568713D01*
G01X1080490Y7577978D01*
G01X1103758Y7590684D01*
G01X1124982Y7606571D01*
G01X1143729Y7625318D01*
G01X1159616Y7646542D01*
G01X1172322Y7669810D01*
G01X1181587Y7694650D01*
G01X1187222Y7720556D01*
G01X1189114Y7747000D01*
G01X21810586Y7747000D01*
G01X21812478Y7720556D01*
G01X21818113Y7694650D01*
G01X21827378Y7669810D01*
G01X21840084Y7646542D01*
G01X21855971Y7625318D01*
G01X21874718Y7606571D01*
G01X21895942Y7590684D01*
G01X21919210Y7577978D01*
G01X21944050Y7568713D01*
G01X21969956Y7563078D01*
G01X21996400Y7561186D01*
G01X22022844Y7563078D01*
G01X22048750Y7568713D01*
G01X22073590Y7577978D01*
G01X22096858Y7590684D01*
G01X22118082Y7606571D01*
G01X22136829Y7625318D01*
G01X22152716Y7646542D01*
G01X22165422Y7669810D01*
G01X22174687Y7694650D01*
G01X22180322Y7720556D01*
G01X22182214Y7747000D01*
G01X22180322Y7773444D01*
G01X22174687Y7799350D01*
G01X22165422Y7824190D01*
G01X22152716Y7847458D01*
G01X22136829Y7868682D01*
G01X22118082Y7887429D01*
G01X22096858Y7903316D01*
G01X22073590Y7916022D01*
G01X22048750Y7925287D01*
G01X22022844Y7930922D01*
G01X21996400Y7932814D01*
G01X21996400Y7932814D01*
G01X21969956Y7930922D01*
G01X21944050Y7925287D01*
G01X21919210Y7916022D01*
G01X21895942Y7903316D01*
G01X21874718Y7887429D01*
G01X21855971Y7868682D01*
G01X21840084Y7847458D01*
G01X21827378Y7824190D01*
G01X21818113Y7799350D01*
G01X21812478Y7773444D01*
G01X21810586Y7747000D01*
G01X1189114Y7747000D01*
G01X1187222Y7773444D01*
G01X1181587Y7799350D01*
G01X1172322Y7824190D01*
G01X1159616Y7847458D01*
G01X1143729Y7868682D01*
G01X1124982Y7887429D01*
G01X1103758Y7903316D01*
G01X1080490Y7916022D01*
G01X1055650Y7925287D01*
G01X1029744Y7930922D01*
G01X1003300Y7932814D01*
G01X976856Y7930922D01*
G01X950950Y7925287D01*
G01X926110Y7916022D01*
G01X902842Y7903316D01*
G01X881618Y7887429D01*
G01X862871Y7868682D01*
G01X846984Y7847458D01*
G01X834278Y7824190D01*
G01X825013Y7799350D01*
G01X819378Y7773444D01*
G01X817486Y7747000D01*
G01X35814Y7747000D01*
G01X35814Y7954075D01*
G01X4614059Y7954075D01*
G01X4614059Y7933625D01*
G01X4617816Y7913524D01*
G01X4625203Y7894456D01*
G01X4635969Y7877070D01*
G01X4649745Y7861957D01*
G01X4666064Y7849634D01*
G01X4684369Y7840519D01*
G01X4704038Y7834923D01*
G01X4724400Y7833036D01*
G01X4724400Y7833036D01*
G01X4744762Y7834923D01*
G01X4764431Y7840519D01*
G01X4782736Y7849634D01*
G01X4799055Y7861957D01*
G01X4812831Y7877070D01*
G01X4823597Y7894456D01*
G01X4830984Y7913524D01*
G01X4834741Y7933625D01*
G01X4834741Y7954075D01*
G01X5122059Y7954075D01*
G01X5122059Y7933625D01*
G01X5125816Y7913524D01*
G01X5133203Y7894456D01*
G01X5143969Y7877070D01*
G01X5157745Y7861957D01*
G01X5174064Y7849634D01*
G01X5192369Y7840519D01*
G01X5212038Y7834923D01*
G01X5232400Y7833036D01*
G01X5232400Y7833036D01*
G01X5252762Y7834923D01*
G01X5272431Y7840519D01*
G01X5290736Y7849634D01*
G01X5307055Y7861957D01*
G01X5320831Y7877070D01*
G01X5331597Y7894456D01*
G01X5338984Y7913524D01*
G01X5342741Y7933625D01*
G01X5342741Y7954075D01*
G01X5338984Y7974176D01*
G01X5331597Y7993244D01*
G01X5320831Y8010630D01*
G01X5307055Y8025743D01*
G01X5290736Y8038066D01*
G01X5272431Y8047181D01*
G01X5252762Y8052777D01*
G01X5241126Y8053855D01*
G01X12983541Y8053855D01*
G01X12985394Y8031501D01*
G01X12990900Y8009757D01*
G01X12999910Y7989215D01*
G01X13012179Y7970437D01*
G01X13027371Y7953934D01*
G01X13045072Y7940156D01*
G01X13064799Y7929480D01*
G01X13086015Y7922197D01*
G01X13108140Y7918505D01*
G01X13130571Y7918505D01*
G01X13152696Y7922197D01*
G01X13173911Y7929480D01*
G01X13193639Y7940156D01*
G01X13211340Y7953934D01*
G01X13226532Y7970437D01*
G01X13238800Y7989215D01*
G01X13247811Y8009757D01*
G01X13253317Y8031501D01*
G01X13255169Y8053855D01*
G01X13255169Y8053855D01*
G01X17022141Y8053855D01*
G01X17023994Y8031501D01*
G01X17029500Y8009757D01*
G01X17038510Y7989215D01*
G01X17050779Y7970437D01*
G01X17065971Y7953934D01*
G01X17083672Y7940156D01*
G01X17103399Y7929480D01*
G01X17124615Y7922197D01*
G01X17146740Y7918505D01*
G01X17169171Y7918505D01*
G01X17191296Y7922197D01*
G01X17212511Y7929480D01*
G01X17232239Y7940156D01*
G01X17249940Y7953934D01*
G01X17254648Y7959048D01*
G01X19942140Y7959048D01*
G01X19942190Y7942731D01*
G01X19946224Y7926919D01*
G01X19953997Y7912572D01*
G01X19965038Y7900557D01*
G01X19978679Y7891602D01*
G01X19994094Y7886249D01*
G01X20010349Y7884823D01*
G01X20026460Y7887408D01*
G01X20041452Y7893851D01*
G01X20054417Y7903759D01*
G01X20049456Y7888214D01*
G01X20048440Y7871928D01*
G01X20051432Y7855887D01*
G01X20058251Y7841062D01*
G01X20068483Y7828351D01*
G01X20081510Y7818524D01*
G01X20096542Y7812176D01*
G01X20112669Y7809690D01*
G01X20128915Y7811218D01*
G01X20144296Y7816666D01*
G01X20157881Y7825706D01*
G01X20168847Y7837789D01*
G01X20168847Y7837789D01*
G01X20176530Y7852185D01*
G01X20180466Y7868021D01*
G01X20180415Y7884338D01*
G01X20176381Y7900149D01*
G01X20168608Y7914497D01*
G01X20157567Y7926512D01*
G01X20143927Y7935467D01*
G01X20128512Y7940820D01*
G01X20112257Y7942246D01*
G01X20096145Y7939660D01*
G01X20081153Y7933218D01*
G01X20068188Y7923310D01*
G01X20073150Y7938855D01*
G01X20074165Y7955141D01*
G01X20071173Y7971182D01*
G01X20064355Y7986007D01*
G01X20054122Y7998718D01*
G01X20041096Y8008545D01*
G01X20026064Y8014893D01*
G01X20009936Y8017379D01*
G01X19993691Y8015851D01*
G01X19978309Y8010403D01*
G01X19964725Y8001363D01*
G01X19953759Y7989280D01*
G01X19946075Y7974884D01*
G01X19942140Y7959048D01*
G01X17254648Y7959048D01*
G01X17265132Y7970437D01*
G01X17277400Y7989215D01*
G01X17286411Y8009757D01*
G01X17291917Y8031501D01*
G01X17293769Y8053855D01*
G01X17293769Y8053855D01*
G01X17291917Y8076210D01*
G01X17286411Y8097954D01*
G01X17277400Y8118496D01*
G01X17265132Y8137274D01*
G01X17249940Y8153777D01*
G01X17232239Y8167554D01*
G01X17212511Y8178230D01*
G01X17191296Y8185514D01*
G01X17169171Y8189206D01*
G01X17146740Y8189206D01*
G01X17124615Y8185514D01*
G01X17103399Y8178230D01*
G01X17083672Y8167554D01*
G01X17065971Y8153777D01*
G01X17050779Y8137274D01*
G01X17038510Y8118496D01*
G01X17029500Y8097954D01*
G01X17023994Y8076210D01*
G01X17022141Y8053855D01*
G01X13255169Y8053855D01*
G01X13253317Y8076210D01*
G01X13247811Y8097954D01*
G01X13238800Y8118496D01*
G01X13226532Y8137274D01*
G01X13211340Y8153777D01*
G01X13193639Y8167554D01*
G01X13173911Y8178230D01*
G01X13152696Y8185514D01*
G01X13130571Y8189206D01*
G01X13108140Y8189206D01*
G01X13086015Y8185514D01*
G01X13064799Y8178230D01*
G01X13045072Y8167554D01*
G01X13027371Y8153777D01*
G01X13012179Y8137274D01*
G01X12999910Y8118496D01*
G01X12990900Y8097954D01*
G01X12985394Y8076210D01*
G01X12983541Y8053855D01*
G01X5241126Y8053855D01*
G01X5232400Y8054664D01*
G01X5212038Y8052777D01*
G01X5192369Y8047181D01*
G01X5174064Y8038066D01*
G01X5157745Y8025743D01*
G01X5143969Y8010630D01*
G01X5133203Y7993244D01*
G01X5125816Y7974176D01*
G01X5122059Y7954075D01*
G01X4834741Y7954075D01*
G01X4830984Y7974176D01*
G01X4823597Y7993244D01*
G01X4812831Y8010630D01*
G01X4799055Y8025743D01*
G01X4782736Y8038066D01*
G01X4764431Y8047181D01*
G01X4744762Y8052777D01*
G01X4724400Y8054664D01*
G01X4704038Y8052777D01*
G01X4684369Y8047181D01*
G01X4666064Y8038066D01*
G01X4649745Y8025743D01*
G01X4635969Y8010630D01*
G01X4625203Y7993244D01*
G01X4617816Y7974176D01*
G01X4614059Y7954075D01*
G01X35814Y7954075D01*
G01X35814Y8255000D01*
G01X817486Y8255000D01*
G01X819378Y8228556D01*
G01X825013Y8202650D01*
G01X834278Y8177810D01*
G01X846984Y8154542D01*
G01X862871Y8133318D01*
G01X881618Y8114571D01*
G01X902842Y8098684D01*
G01X926110Y8085978D01*
G01X950950Y8076713D01*
G01X976856Y8071078D01*
G01X1003300Y8069186D01*
G01X1003300Y8069186D01*
G01X1029744Y8071078D01*
G01X1055650Y8076713D01*
G01X1080490Y8085978D01*
G01X1083139Y8087425D01*
G01X3407559Y8087425D01*
G01X3407559Y8066975D01*
G01X3411316Y8046874D01*
G01X3418703Y8027806D01*
G01X3429469Y8010420D01*
G01X3443245Y7995307D01*
G01X3459564Y7982984D01*
G01X3477869Y7973869D01*
G01X3497538Y7968273D01*
G01X3517900Y7966386D01*
G01X3517900Y7966386D01*
G01X3538262Y7968273D01*
G01X3557931Y7973869D01*
G01X3576236Y7982984D01*
G01X3592555Y7995307D01*
G01X3606331Y8010420D01*
G01X3617097Y8027806D01*
G01X3624484Y8046874D01*
G01X3628241Y8066975D01*
G01X3628241Y8087425D01*
G01X3915559Y8087425D01*
G01X3915559Y8066975D01*
G01X3919316Y8046874D01*
G01X3926703Y8027806D01*
G01X3937469Y8010420D01*
G01X3951245Y7995307D01*
G01X3967564Y7982984D01*
G01X3985869Y7973869D01*
G01X4005538Y7968273D01*
G01X4025900Y7966386D01*
G01X4025900Y7966386D01*
G01X4046262Y7968273D01*
G01X4065931Y7973869D01*
G01X4084236Y7982984D01*
G01X4100555Y7995307D01*
G01X4114331Y8010420D01*
G01X4125097Y8027806D01*
G01X4132484Y8046874D01*
G01X4136241Y8066975D01*
G01X4136241Y8087425D01*
G01X4132484Y8107526D01*
G01X4125097Y8126594D01*
G01X4114331Y8143980D01*
G01X4100555Y8159093D01*
G01X4084236Y8171416D01*
G01X4065931Y8180531D01*
G01X4046262Y8186127D01*
G01X4025900Y8188014D01*
G01X4005538Y8186127D01*
G01X3985869Y8180531D01*
G01X3967564Y8171416D01*
G01X3951245Y8159093D01*
G01X3937469Y8143980D01*
G01X3926703Y8126594D01*
G01X3919316Y8107526D01*
G01X3915559Y8087425D01*
G01X3628241Y8087425D01*
G01X3624484Y8107526D01*
G01X3617097Y8126594D01*
G01X3606331Y8143980D01*
G01X3592555Y8159093D01*
G01X3576236Y8171416D01*
G01X3557931Y8180531D01*
G01X3538262Y8186127D01*
G01X3517900Y8188014D01*
G01X3497538Y8186127D01*
G01X3477869Y8180531D01*
G01X3459564Y8171416D01*
G01X3443245Y8159093D01*
G01X3429469Y8143980D01*
G01X3418703Y8126594D01*
G01X3411316Y8107526D01*
G01X3407559Y8087425D01*
G01X1083139Y8087425D01*
G01X1103758Y8098684D01*
G01X1124982Y8114571D01*
G01X1143729Y8133318D01*
G01X1159616Y8154542D01*
G01X1172322Y8177810D01*
G01X1181587Y8202650D01*
G01X1187222Y8228556D01*
G01X1189114Y8255000D01*
G01X21810586Y8255000D01*
G01X21812478Y8228556D01*
G01X21818113Y8202650D01*
G01X21827378Y8177810D01*
G01X21840084Y8154542D01*
G01X21855971Y8133318D01*
G01X21874718Y8114571D01*
G01X21895942Y8098684D01*
G01X21919210Y8085978D01*
G01X21944050Y8076713D01*
G01X21969956Y8071078D01*
G01X21996400Y8069186D01*
G01X22022844Y8071078D01*
G01X22048750Y8076713D01*
G01X22073590Y8085978D01*
G01X22096858Y8098684D01*
G01X22118082Y8114571D01*
G01X22136829Y8133318D01*
G01X22152716Y8154542D01*
G01X22165422Y8177810D01*
G01X22174687Y8202650D01*
G01X22180322Y8228556D01*
G01X22182214Y8255000D01*
G01X22180322Y8281444D01*
G01X22174687Y8307350D01*
G01X22165422Y8332190D01*
G01X22152716Y8355458D01*
G01X22136829Y8376682D01*
G01X22118082Y8395429D01*
G01X22096858Y8411316D01*
G01X22073590Y8424022D01*
G01X22048750Y8433287D01*
G01X22022844Y8438922D01*
G01X21996400Y8440814D01*
G01X21996400Y8440814D01*
G01X21969956Y8438922D01*
G01X21944050Y8433287D01*
G01X21919210Y8424022D01*
G01X21895942Y8411316D01*
G01X21874718Y8395429D01*
G01X21855971Y8376682D01*
G01X21840084Y8355458D01*
G01X21827378Y8332190D01*
G01X21818113Y8307350D01*
G01X21812478Y8281444D01*
G01X21810586Y8255000D01*
G01X1189114Y8255000D01*
G01X1187222Y8281444D01*
G01X1181587Y8307350D01*
G01X1172322Y8332190D01*
G01X1159616Y8355458D01*
G01X1143729Y8376682D01*
G01X1124982Y8395429D01*
G01X1103758Y8411316D01*
G01X1080490Y8424022D01*
G01X1055650Y8433287D01*
G01X1029744Y8438922D01*
G01X1003300Y8440814D01*
G01X976856Y8438922D01*
G01X950950Y8433287D01*
G01X926110Y8424022D01*
G01X902842Y8411316D01*
G01X881618Y8395429D01*
G01X862871Y8376682D01*
G01X846984Y8355458D01*
G01X834278Y8332190D01*
G01X825013Y8307350D01*
G01X819378Y8281444D01*
G01X817486Y8255000D01*
G01X35814Y8255000D01*
G01X35814Y8462075D01*
G01X4614059Y8462075D01*
G01X4614059Y8441625D01*
G01X4617816Y8421524D01*
G01X4625203Y8402456D01*
G01X4635969Y8385070D01*
G01X4649745Y8369957D01*
G01X4666064Y8357634D01*
G01X4684369Y8348519D01*
G01X4704038Y8342923D01*
G01X4724400Y8341036D01*
G01X4724400Y8341036D01*
G01X4744762Y8342923D01*
G01X4764431Y8348519D01*
G01X4782736Y8357634D01*
G01X4799055Y8369957D01*
G01X4812831Y8385070D01*
G01X4823597Y8402456D01*
G01X4830984Y8421524D01*
G01X4834741Y8441625D01*
G01X4834741Y8462075D01*
G01X4832367Y8474775D01*
G01X5122059Y8474775D01*
G01X5122059Y8454325D01*
G01X5125816Y8434224D01*
G01X5133203Y8415156D01*
G01X5143969Y8397770D01*
G01X5157745Y8382657D01*
G01X5174064Y8370334D01*
G01X5192369Y8361219D01*
G01X5212038Y8355623D01*
G01X5232400Y8353736D01*
G01X5232400Y8353736D01*
G01X5252762Y8355623D01*
G01X5272431Y8361219D01*
G01X5290736Y8370334D01*
G01X5307055Y8382657D01*
G01X5320831Y8397770D01*
G01X5331597Y8415156D01*
G01X5338984Y8434224D01*
G01X5342741Y8454325D01*
G01X5342741Y8474775D01*
G01X5338984Y8494876D01*
G01X5331597Y8513944D01*
G01X5320831Y8531330D01*
G01X5307055Y8546443D01*
G01X5290736Y8558766D01*
G01X5272431Y8567881D01*
G01X5252762Y8573477D01*
G01X5232400Y8575364D01*
G01X5212038Y8573477D01*
G01X5192369Y8567881D01*
G01X5174064Y8558766D01*
G01X5157745Y8546443D01*
G01X5143969Y8531330D01*
G01X5133203Y8513944D01*
G01X5125816Y8494876D01*
G01X5122059Y8474775D01*
G01X4832367Y8474775D01*
G01X4830984Y8482176D01*
G01X4823597Y8501244D01*
G01X4812831Y8518630D01*
G01X4799055Y8533743D01*
G01X4782736Y8546066D01*
G01X4764431Y8555181D01*
G01X4744762Y8560777D01*
G01X4724400Y8562664D01*
G01X4704038Y8560777D01*
G01X4684369Y8555181D01*
G01X4666064Y8546066D01*
G01X4649745Y8533743D01*
G01X4635969Y8518630D01*
G01X4625203Y8501244D01*
G01X4617816Y8482176D01*
G01X4614059Y8462075D01*
G01X35814Y8462075D01*
G01X35814Y8763000D01*
G01X817486Y8763000D01*
G01X819378Y8736556D01*
G01X825013Y8710650D01*
G01X834278Y8685810D01*
G01X846984Y8662542D01*
G01X862871Y8641318D01*
G01X881618Y8622571D01*
G01X902842Y8606684D01*
G01X926110Y8593978D01*
G01X950950Y8584713D01*
G01X976856Y8579078D01*
G01X1003300Y8577186D01*
G01X1003300Y8577186D01*
G01X1029744Y8579078D01*
G01X1055650Y8584713D01*
G01X1080490Y8593978D01*
G01X1083139Y8595425D01*
G01X3407559Y8595425D01*
G01X3407559Y8574975D01*
G01X3411316Y8554874D01*
G01X3418703Y8535806D01*
G01X3429469Y8518420D01*
G01X3443245Y8503307D01*
G01X3459564Y8490984D01*
G01X3477869Y8481869D01*
G01X3497538Y8476273D01*
G01X3517900Y8474386D01*
G01X3517900Y8474386D01*
G01X3538262Y8476273D01*
G01X3557931Y8481869D01*
G01X3576236Y8490984D01*
G01X3592555Y8503307D01*
G01X3606331Y8518420D01*
G01X3617097Y8535806D01*
G01X3624484Y8554874D01*
G01X3628241Y8574975D01*
G01X3628241Y8595425D01*
G01X3625867Y8608125D01*
G01X3915559Y8608125D01*
G01X3915559Y8587675D01*
G01X3919316Y8567574D01*
G01X3926703Y8548506D01*
G01X3937469Y8531120D01*
G01X3951245Y8516007D01*
G01X3967564Y8503684D01*
G01X3985869Y8494569D01*
G01X4005538Y8488973D01*
G01X4025900Y8487086D01*
G01X4025900Y8487086D01*
G01X4046262Y8488973D01*
G01X4065931Y8494569D01*
G01X4084236Y8503684D01*
G01X4100555Y8516007D01*
G01X4114331Y8531120D01*
G01X4125097Y8548506D01*
G01X4132484Y8567574D01*
G01X4136241Y8587675D01*
G01X4136241Y8608125D01*
G01X4132484Y8628226D01*
G01X4130732Y8632747D01*
G01X14198705Y8632747D01*
G01X14200606Y8615877D01*
G01X14206213Y8599852D01*
G01X14215246Y8585478D01*
G01X14227250Y8573473D01*
G01X14241625Y8564441D01*
G01X14257649Y8558834D01*
G01X14274519Y8556933D01*
G01X14291390Y8558834D01*
G01X14307414Y8564441D01*
G01X14321789Y8573473D01*
G01X14333793Y8585478D01*
G01X14342825Y8599852D01*
G01X14348432Y8615877D01*
G01X14350333Y8632747D01*
G01X14348432Y8649617D01*
G01X14342825Y8665641D01*
G01X14333793Y8680016D01*
G01X14321789Y8692020D01*
G01X14307414Y8701053D01*
G01X14291390Y8706660D01*
G01X14274519Y8708561D01*
G01X14257649Y8706660D01*
G01X14241625Y8701053D01*
G01X14227250Y8692020D01*
G01X14215246Y8680016D01*
G01X14206213Y8665641D01*
G01X14200606Y8649617D01*
G01X14198705Y8632747D01*
G01X14198705Y8632747D01*
G01X4130732Y8632747D01*
G01X4125097Y8647294D01*
G01X4114331Y8664680D01*
G01X4100555Y8679793D01*
G01X4084236Y8692116D01*
G01X4065931Y8701231D01*
G01X4046262Y8706827D01*
G01X4025900Y8708714D01*
G01X4005538Y8706827D01*
G01X3985869Y8701231D01*
G01X3967564Y8692116D01*
G01X3951245Y8679793D01*
G01X3937469Y8664680D01*
G01X3926703Y8647294D01*
G01X3919316Y8628226D01*
G01X3915559Y8608125D01*
G01X3625867Y8608125D01*
G01X3624484Y8615526D01*
G01X3617097Y8634594D01*
G01X3606331Y8651980D01*
G01X3592555Y8667093D01*
G01X3576236Y8679416D01*
G01X3557931Y8688531D01*
G01X3538262Y8694127D01*
G01X3517900Y8696014D01*
G01X3497538Y8694127D01*
G01X3477869Y8688531D01*
G01X3459564Y8679416D01*
G01X3443245Y8667093D01*
G01X3429469Y8651980D01*
G01X3418703Y8634594D01*
G01X3411316Y8615526D01*
G01X3407559Y8595425D01*
G01X1083139Y8595425D01*
G01X1103758Y8606684D01*
G01X1124982Y8622571D01*
G01X1143729Y8641318D01*
G01X1159616Y8662542D01*
G01X1172322Y8685810D01*
G01X1181587Y8710650D01*
G01X1187222Y8736556D01*
G01X1189114Y8763000D01*
G01X1188532Y8771128D01*
G01X21810586Y8771128D01*
G01X21812478Y8744684D01*
G01X21818113Y8718778D01*
G01X21827378Y8693938D01*
G01X21840084Y8670670D01*
G01X21855971Y8649446D01*
G01X21874718Y8630699D01*
G01X21895942Y8614812D01*
G01X21919210Y8602106D01*
G01X21944050Y8592841D01*
G01X21969956Y8587206D01*
G01X21996400Y8585314D01*
G01X22022844Y8587206D01*
G01X22048750Y8592841D01*
G01X22073590Y8602106D01*
G01X22096858Y8614812D01*
G01X22118082Y8630699D01*
G01X22136829Y8649446D01*
G01X22152716Y8670670D01*
G01X22165422Y8693938D01*
G01X22174687Y8718778D01*
G01X22180322Y8744684D01*
G01X22182214Y8771128D01*
G01X22180322Y8797572D01*
G01X22174687Y8823478D01*
G01X22165422Y8848318D01*
G01X22152716Y8871586D01*
G01X22136829Y8892810D01*
G01X22118082Y8911557D01*
G01X22096858Y8927444D01*
G01X22073590Y8940150D01*
G01X22048750Y8949415D01*
G01X22022844Y8955050D01*
G01X21996400Y8956942D01*
G01X21996400Y8956942D01*
G01X21969956Y8955050D01*
G01X21944050Y8949415D01*
G01X21919210Y8940150D01*
G01X21895942Y8927444D01*
G01X21874718Y8911557D01*
G01X21855971Y8892810D01*
G01X21840084Y8871586D01*
G01X21827378Y8848318D01*
G01X21818113Y8823478D01*
G01X21812478Y8797572D01*
G01X21810586Y8771128D01*
G01X1188532Y8771128D01*
G01X1187222Y8789444D01*
G01X1181587Y8815350D01*
G01X1172322Y8840190D01*
G01X1159616Y8863458D01*
G01X1143729Y8884682D01*
G01X1124982Y8903429D01*
G01X1103758Y8919316D01*
G01X1080490Y8932022D01*
G01X1055650Y8941287D01*
G01X1029744Y8946922D01*
G01X1003300Y8948814D01*
G01X976856Y8946922D01*
G01X950950Y8941287D01*
G01X926110Y8932022D01*
G01X902842Y8919316D01*
G01X881618Y8903429D01*
G01X862871Y8884682D01*
G01X846984Y8863458D01*
G01X834278Y8840190D01*
G01X825013Y8815350D01*
G01X819378Y8789444D01*
G01X817486Y8763000D01*
G01X35814Y8763000D01*
G01X35814Y9271000D01*
G01X817486Y9271000D01*
G01X819378Y9244556D01*
G01X825013Y9218650D01*
G01X834278Y9193810D01*
G01X846984Y9170542D01*
G01X862871Y9149318D01*
G01X881618Y9130571D01*
G01X902842Y9114684D01*
G01X926110Y9101978D01*
G01X950950Y9092713D01*
G01X976856Y9087078D01*
G01X1003300Y9085186D01*
G01X1003300Y9085186D01*
G01X1029744Y9087078D01*
G01X1055650Y9092713D01*
G01X1080490Y9101978D01*
G01X1103758Y9114684D01*
G01X1124982Y9130571D01*
G01X1143729Y9149318D01*
G01X1159616Y9170542D01*
G01X1172322Y9193810D01*
G01X1181587Y9218650D01*
G01X1185798Y9238007D01*
G01X2753937Y9238007D01*
G01X2755873Y9212176D01*
G01X2761637Y9186922D01*
G01X2771100Y9162809D01*
G01X2784052Y9140376D01*
G01X2800203Y9120124D01*
G01X2819191Y9102505D01*
G01X2840594Y9087913D01*
G01X2863932Y9076674D01*
G01X2888685Y9069039D01*
G01X2914299Y9065178D01*
G01X2940202Y9065178D01*
G01X2965817Y9069039D01*
G01X2990569Y9076674D01*
G01X3013908Y9087913D01*
G01X3035310Y9102505D01*
G01X3049824Y9115972D01*
G01X3284564Y9115972D01*
G01X3285458Y9094566D01*
G01X3289862Y9073599D01*
G01X3297654Y9053641D01*
G01X3308624Y9035238D01*
G01X3322472Y9018889D01*
G01X3338820Y9005042D01*
G01X3357223Y8994072D01*
G01X3377181Y8986280D01*
G01X3398148Y8981876D01*
G01X3419554Y8980982D01*
G01X3440816Y8983622D01*
G01X3461354Y8989723D01*
G01X3480608Y8999119D01*
G01X3498054Y9011555D01*
G01X3513217Y9026692D01*
G01X3525683Y9044116D01*
G01X3535113Y9063354D01*
G01X3541249Y9083881D01*
G01X3547630Y9062737D01*
G01X3557502Y9042981D01*
G01X3570581Y9025184D01*
G01X3586488Y9009863D01*
G01X3604763Y8997460D01*
G01X3624875Y8988335D01*
G01X3646244Y8982753D01*
G01X3668249Y8980874D01*
G01X3690255Y8982753D01*
G01X3711623Y8988335D01*
G01X3731736Y8997460D01*
G01X3750010Y9009863D01*
G01X3765917Y9025184D01*
G01X3778996Y9042981D01*
G01X3788869Y9062737D01*
G01X3795249Y9083881D01*
G01X3801629Y9062737D01*
G01X3811502Y9042981D01*
G01X3824581Y9025184D01*
G01X3840488Y9009863D01*
G01X3858762Y8997460D01*
G01X3878875Y8988335D01*
G01X3900243Y8982753D01*
G01X3922249Y8980874D01*
G01X3944254Y8982753D01*
G01X3965623Y8988335D01*
G01X3985735Y8997460D01*
G01X4004010Y9009863D01*
G01X4019917Y9025184D01*
G01X4032996Y9042981D01*
G01X4042868Y9062737D01*
G01X4049248Y9083881D01*
G01X4055628Y9062737D01*
G01X4065501Y9042981D01*
G01X4078580Y9025184D01*
G01X4094487Y9009863D01*
G01X4112762Y8997460D01*
G01X4132874Y8988335D01*
G01X4154243Y8982753D01*
G01X4176248Y8980874D01*
G01X4198254Y8982753D01*
G01X4219622Y8988335D01*
G01X4239735Y8997460D01*
G01X4258009Y9009863D01*
G01X4273916Y9025184D01*
G01X4286995Y9042981D01*
G01X4296868Y9062737D01*
G01X4303248Y9083881D01*
G01X4309628Y9062737D01*
G01X4319500Y9042981D01*
G01X4332580Y9025184D01*
G01X4348487Y9009863D01*
G01X4366761Y8997460D01*
G01X4386874Y8988335D01*
G01X4408242Y8982753D01*
G01X4430248Y8980874D01*
G01X4452253Y8982753D01*
G01X4473622Y8988335D01*
G01X4493734Y8997460D01*
G01X4512009Y9009863D01*
G01X4527916Y9025184D01*
G01X4540995Y9042981D01*
G01X4550867Y9062737D01*
G01X4557247Y9083881D01*
G01X4563627Y9062737D01*
G01X4573500Y9042981D01*
G01X4586579Y9025184D01*
G01X4602486Y9009863D01*
G01X4620761Y8997460D01*
G01X4640873Y8988335D01*
G01X4662242Y8982753D01*
G01X4684247Y8980874D01*
G01X4706253Y8982753D01*
G01X4727621Y8988335D01*
G01X4747734Y8997460D01*
G01X4766008Y9009863D01*
G01X4781915Y9025184D01*
G01X4794994Y9042981D01*
G01X4804867Y9062737D01*
G01X4811247Y9083881D01*
G01X4817627Y9062737D01*
G01X4827499Y9042981D01*
G01X4840579Y9025184D01*
G01X4856486Y9009863D01*
G01X4874760Y8997460D01*
G01X4894873Y8988335D01*
G01X4916241Y8982753D01*
G01X4938247Y8980874D01*
G01X4960252Y8982753D01*
G01X4981621Y8988335D01*
G01X5001733Y8997460D01*
G01X5020008Y9009863D01*
G01X5035915Y9025184D01*
G01X5048994Y9042981D01*
G01X5058866Y9062737D01*
G01X5065246Y9083881D01*
G01X5071626Y9062737D01*
G01X5081499Y9042981D01*
G01X5094578Y9025184D01*
G01X5110485Y9009863D01*
G01X5128759Y8997460D01*
G01X5148872Y8988335D01*
G01X5170241Y8982753D01*
G01X5192246Y8980874D01*
G01X5214252Y8982753D01*
G01X5235620Y8988335D01*
G01X5255733Y8997460D01*
G01X5274007Y9009863D01*
G01X5289914Y9025184D01*
G01X5302993Y9042981D01*
G01X5312866Y9062737D01*
G01X5319246Y9083881D01*
G01X5325626Y9062737D01*
G01X5335498Y9042981D01*
G01X5348578Y9025184D01*
G01X5364485Y9009863D01*
G01X5382759Y8997460D01*
G01X5402872Y8988335D01*
G01X5424240Y8982753D01*
G01X5446246Y8980874D01*
G01X5468251Y8982753D01*
G01X5489620Y8988335D01*
G01X5509732Y8997460D01*
G01X5528007Y9009863D01*
G01X5543914Y9025184D01*
G01X5556993Y9042981D01*
G01X5566865Y9062737D01*
G01X5573245Y9083881D01*
G01X5579625Y9062737D01*
G01X5589498Y9042981D01*
G01X5602577Y9025184D01*
G01X5618484Y9009863D01*
G01X5636758Y8997460D01*
G01X5656871Y8988335D01*
G01X5678240Y8982753D01*
G01X5700245Y8980874D01*
G01X5722251Y8982753D01*
G01X5743619Y8988335D01*
G01X5763732Y8997460D01*
G01X5782006Y9009863D01*
G01X5797913Y9025184D01*
G01X5810992Y9042981D01*
G01X5820865Y9062737D01*
G01X5827245Y9083881D01*
G01X5833625Y9062737D01*
G01X5843497Y9042981D01*
G01X5856577Y9025184D01*
G01X5872484Y9009863D01*
G01X5890758Y8997460D01*
G01X5910871Y8988335D01*
G01X5932239Y8982753D01*
G01X5954245Y8980874D01*
G01X5976250Y8982753D01*
G01X5997619Y8988335D01*
G01X6017731Y8997460D01*
G01X6036006Y9009863D01*
G01X6051913Y9025184D01*
G01X6064992Y9042981D01*
G01X6074864Y9062737D01*
G01X6081244Y9083881D01*
G01X6087624Y9062737D01*
G01X6097497Y9042981D01*
G01X6110576Y9025184D01*
G01X6126483Y9009863D01*
G01X6144757Y8997460D01*
G01X6164870Y8988335D01*
G01X6186239Y8982753D01*
G01X6208244Y8980874D01*
G01X6230250Y8982753D01*
G01X6251618Y8988335D01*
G01X6271731Y8997460D01*
G01X6290005Y9009863D01*
G01X6305912Y9025184D01*
G01X6318991Y9042981D01*
G01X6328864Y9062737D01*
G01X6335244Y9083881D01*
G01X6341624Y9062737D01*
G01X6351496Y9042981D01*
G01X6364576Y9025184D01*
G01X6380483Y9009863D01*
G01X6398757Y8997460D01*
G01X6418870Y8988335D01*
G01X6440238Y8982753D01*
G01X6462244Y8980874D01*
G01X6484249Y8982753D01*
G01X6505618Y8988335D01*
G01X6525730Y8997460D01*
G01X6544005Y9009863D01*
G01X6559912Y9025184D01*
G01X6572991Y9042981D01*
G01X6582863Y9062737D01*
G01X6589243Y9083881D01*
G01X6595623Y9062737D01*
G01X6605496Y9042981D01*
G01X6618575Y9025184D01*
G01X6634482Y9009863D01*
G01X6652756Y8997460D01*
G01X6672869Y8988335D01*
G01X6694237Y8982753D01*
G01X6716243Y8980874D01*
G01X6738249Y8982753D01*
G01X6759617Y8988335D01*
G01X6779730Y8997460D01*
G01X6798004Y9009863D01*
G01X6813911Y9025184D01*
G01X6826990Y9042981D01*
G01X6836863Y9062737D01*
G01X6843243Y9083881D01*
G01X6849623Y9062737D01*
G01X6859495Y9042981D01*
G01X6872575Y9025184D01*
G01X6888482Y9009863D01*
G01X6906756Y8997460D01*
G01X6926869Y8988335D01*
G01X6948237Y8982753D01*
G01X6970243Y8980874D01*
G01X6992248Y8982753D01*
G01X7013617Y8988335D01*
G01X7033729Y8997460D01*
G01X7052004Y9009863D01*
G01X7067911Y9025184D01*
G01X7080990Y9042981D01*
G01X7090862Y9062737D01*
G01X7097242Y9083881D01*
G01X7103622Y9062737D01*
G01X7113495Y9042981D01*
G01X7126574Y9025184D01*
G01X7142481Y9009863D01*
G01X7160755Y8997460D01*
G01X7180868Y8988335D01*
G01X7202236Y8982753D01*
G01X7224242Y8980874D01*
G01X7246248Y8982753D01*
G01X7267616Y8988335D01*
G01X7287729Y8997460D01*
G01X7306003Y9009863D01*
G01X7321910Y9025184D01*
G01X7334989Y9042981D01*
G01X7344862Y9062737D01*
G01X7351242Y9083881D01*
G01X7357622Y9062737D01*
G01X7367494Y9042981D01*
G01X7380574Y9025184D01*
G01X7396481Y9009863D01*
G01X7414755Y8997460D01*
G01X7434868Y8988335D01*
G01X7456236Y8982753D01*
G01X7478242Y8980874D01*
G01X7500247Y8982753D01*
G01X7521616Y8988335D01*
G01X7541728Y8997460D01*
G01X7560003Y9009863D01*
G01X7575910Y9025184D01*
G01X7588989Y9042981D01*
G01X7598861Y9062737D01*
G01X7605241Y9083881D01*
G01X7611621Y9062737D01*
G01X7621494Y9042981D01*
G01X7634573Y9025184D01*
G01X7650480Y9009863D01*
G01X7668754Y8997460D01*
G01X7688867Y8988335D01*
G01X7710235Y8982753D01*
G01X7732241Y8980874D01*
G01X7754247Y8982753D01*
G01X7775615Y8988335D01*
G01X7795728Y8997460D01*
G01X7814002Y9009863D01*
G01X7829909Y9025184D01*
G01X7842988Y9042981D01*
G01X7852861Y9062737D01*
G01X7859241Y9083881D01*
G01X7865621Y9062737D01*
G01X7875493Y9042981D01*
G01X7888573Y9025184D01*
G01X7904480Y9009863D01*
G01X7922754Y8997460D01*
G01X7942866Y8988335D01*
G01X7964235Y8982753D01*
G01X7986241Y8980874D01*
G01X8008246Y8982753D01*
G01X8029615Y8988335D01*
G01X8049727Y8997460D01*
G01X8068002Y9009863D01*
G01X8083909Y9025184D01*
G01X8096988Y9042981D01*
G01X8106860Y9062737D01*
G01X8113240Y9083881D01*
G01X8119377Y9063354D01*
G01X8128807Y9044116D01*
G01X8141273Y9026692D01*
G01X8156436Y9011555D01*
G01X8173882Y8999119D01*
G01X8193136Y8989723D01*
G01X8213674Y8983622D01*
G01X8234936Y8980982D01*
G01X8256342Y8981876D01*
G01X8277309Y8986280D01*
G01X8297266Y8994072D01*
G01X8315670Y9005042D01*
G01X8332018Y9018889D01*
G01X8345866Y9035238D01*
G01X8356835Y9053641D01*
G01X8364628Y9073599D01*
G01X8369031Y9094566D01*
G01X8369925Y9115972D01*
G01X8367286Y9137234D01*
G01X8361185Y9157771D01*
G01X8351788Y9177026D01*
G01X8339353Y9194472D01*
G01X8324216Y9209635D01*
G01X8306792Y9222101D01*
G01X8287554Y9231531D01*
G01X8267027Y9237667D01*
G01X8268164Y9238007D01*
G01X8553925Y9238007D01*
G01X8555861Y9212176D01*
G01X8561625Y9186922D01*
G01X8571089Y9162809D01*
G01X8584040Y9140376D01*
G01X8600191Y9120124D01*
G01X8619180Y9102505D01*
G01X8640582Y9087913D01*
G01X8663920Y9076674D01*
G01X8688673Y9069039D01*
G01X8714287Y9065178D01*
G01X8740191Y9065178D01*
G01X8765805Y9069039D01*
G01X8790558Y9076674D01*
G01X8813896Y9087913D01*
G01X8835299Y9102505D01*
G01X8854287Y9120124D01*
G01X8870438Y9140376D01*
G01X8883389Y9162809D01*
G01X8892853Y9186922D01*
G01X8898617Y9212176D01*
G01X8900173Y9232941D01*
G01X18980578Y9232941D01*
G01X18982419Y9214248D01*
G01X18987871Y9196274D01*
G01X18996726Y9179709D01*
G01X19008641Y9165190D01*
G01X19023161Y9153274D01*
G01X19039725Y9144420D01*
G01X19057700Y9138968D01*
G01X19076392Y9137127D01*
G01X19095084Y9138968D01*
G01X19113058Y9144420D01*
G01X19129623Y9153274D01*
G01X19144143Y9165190D01*
G01X19156058Y9179709D01*
G01X19164912Y9196274D01*
G01X19170365Y9214248D01*
G01X19172206Y9232941D01*
G01X19170365Y9251633D01*
G01X19164912Y9269607D01*
G01X19164168Y9271000D01*
G01X21810586Y9271000D01*
G01X21812478Y9244556D01*
G01X21818113Y9218650D01*
G01X21827378Y9193810D01*
G01X21840084Y9170542D01*
G01X21855971Y9149318D01*
G01X21874718Y9130571D01*
G01X21895942Y9114684D01*
G01X21919210Y9101978D01*
G01X21944050Y9092713D01*
G01X21969956Y9087078D01*
G01X21996400Y9085186D01*
G01X22022844Y9087078D01*
G01X22048750Y9092713D01*
G01X22073590Y9101978D01*
G01X22096858Y9114684D01*
G01X22118082Y9130571D01*
G01X22136829Y9149318D01*
G01X22152716Y9170542D01*
G01X22165422Y9193810D01*
G01X22174687Y9218650D01*
G01X22180322Y9244556D01*
G01X22182214Y9271000D01*
G01X22180322Y9297444D01*
G01X22174687Y9323350D01*
G01X22165422Y9348190D01*
G01X22152716Y9371458D01*
G01X22136829Y9392682D01*
G01X22118082Y9411429D01*
G01X22096858Y9427316D01*
G01X22073590Y9440022D01*
G01X22048750Y9449287D01*
G01X22022844Y9454922D01*
G01X21996400Y9456814D01*
G01X21996400Y9456814D01*
G01X21969956Y9454922D01*
G01X21944050Y9449287D01*
G01X21919210Y9440022D01*
G01X21895942Y9427316D01*
G01X21874718Y9411429D01*
G01X21855971Y9392682D01*
G01X21840084Y9371458D01*
G01X21827378Y9348190D01*
G01X21818113Y9323350D01*
G01X21812478Y9297444D01*
G01X21810586Y9271000D01*
G01X19164168Y9271000D01*
G01X19156058Y9286172D01*
G01X19144143Y9300691D01*
G01X19129623Y9312607D01*
G01X19113058Y9321461D01*
G01X19095084Y9326913D01*
G01X19076392Y9328755D01*
G01X19057700Y9326913D01*
G01X19039725Y9321461D01*
G01X19023161Y9312607D01*
G01X19008641Y9300691D01*
G01X18996726Y9286172D01*
G01X18987871Y9269607D01*
G01X18982419Y9251633D01*
G01X18980578Y9232941D01*
G01X18980578Y9232941D01*
G01X8900173Y9232941D01*
G01X8900553Y9238007D01*
G01X8898617Y9263839D01*
G01X8892853Y9289093D01*
G01X8883389Y9313205D01*
G01X8870438Y9335639D01*
G01X8854287Y9355891D01*
G01X8835299Y9373510D01*
G01X8813896Y9388102D01*
G01X8790558Y9399341D01*
G01X8765805Y9406976D01*
G01X8740191Y9410837D01*
G01X8714287Y9410837D01*
G01X8688673Y9406976D01*
G01X8663920Y9399341D01*
G01X8640582Y9388102D01*
G01X8619180Y9373510D01*
G01X8600191Y9355891D01*
G01X8584040Y9335639D01*
G01X8571089Y9313205D01*
G01X8561625Y9289093D01*
G01X8555861Y9263839D01*
G01X8553925Y9238007D01*
G01X8553925Y9238007D01*
G01X8268164Y9238007D01*
G01X8287554Y9243804D01*
G01X8306792Y9253234D01*
G01X8324216Y9265700D01*
G01X8339353Y9280863D01*
G01X8351788Y9298309D01*
G01X8361185Y9317563D01*
G01X8367286Y9338101D01*
G01X8369925Y9359363D01*
G01X8369031Y9380769D01*
G01X8364628Y9401736D01*
G01X8356835Y9421693D01*
G01X8345866Y9440097D01*
G01X8332018Y9456445D01*
G01X8315670Y9470293D01*
G01X8297266Y9481262D01*
G01X8277309Y9489055D01*
G01X8256342Y9493458D01*
G01X8234936Y9494353D01*
G01X8213674Y9491713D01*
G01X8193136Y9485612D01*
G01X8173882Y9476216D01*
G01X8156436Y9463780D01*
G01X8141273Y9448643D01*
G01X8128807Y9431219D01*
G01X8119377Y9411981D01*
G01X8113240Y9391454D01*
G01X8106860Y9412598D01*
G01X8096988Y9432354D01*
G01X8083909Y9450150D01*
G01X8068002Y9465472D01*
G01X8049727Y9477874D01*
G01X8029615Y9486999D01*
G01X8008246Y9492582D01*
G01X7986241Y9494461D01*
G01X7964235Y9492582D01*
G01X7942866Y9486999D01*
G01X7922754Y9477874D01*
G01X7904480Y9465472D01*
G01X7888573Y9450150D01*
G01X7875493Y9432354D01*
G01X7865621Y9412598D01*
G01X7859241Y9391454D01*
G01X7852861Y9412598D01*
G01X7842988Y9432354D01*
G01X7829909Y9450150D01*
G01X7814002Y9465472D01*
G01X7795728Y9477874D01*
G01X7775615Y9486999D01*
G01X7754247Y9492582D01*
G01X7732241Y9494461D01*
G01X7710235Y9492582D01*
G01X7688867Y9486999D01*
G01X7668754Y9477874D01*
G01X7650480Y9465472D01*
G01X7634573Y9450150D01*
G01X7621494Y9432354D01*
G01X7611621Y9412598D01*
G01X7605241Y9391454D01*
G01X7598861Y9412598D01*
G01X7588989Y9432354D01*
G01X7575910Y9450150D01*
G01X7560003Y9465472D01*
G01X7541728Y9477874D01*
G01X7521616Y9486999D01*
G01X7500247Y9492582D01*
G01X7478242Y9494461D01*
G01X7456236Y9492582D01*
G01X7434868Y9486999D01*
G01X7414755Y9477874D01*
G01X7396481Y9465472D01*
G01X7380574Y9450150D01*
G01X7367494Y9432354D01*
G01X7357622Y9412598D01*
G01X7351242Y9391454D01*
G01X7344862Y9412598D01*
G01X7334989Y9432354D01*
G01X7321910Y9450150D01*
G01X7306003Y9465472D01*
G01X7287729Y9477874D01*
G01X7267616Y9486999D01*
G01X7246248Y9492582D01*
G01X7224242Y9494461D01*
G01X7202236Y9492582D01*
G01X7180868Y9486999D01*
G01X7160755Y9477874D01*
G01X7142481Y9465472D01*
G01X7126574Y9450150D01*
G01X7113495Y9432354D01*
G01X7103622Y9412598D01*
G01X7097242Y9391454D01*
G01X7090862Y9412598D01*
G01X7080990Y9432354D01*
G01X7067911Y9450150D01*
G01X7052004Y9465472D01*
G01X7033729Y9477874D01*
G01X7013617Y9486999D01*
G01X6992248Y9492582D01*
G01X6970243Y9494461D01*
G01X6948237Y9492582D01*
G01X6926869Y9486999D01*
G01X6906756Y9477874D01*
G01X6888482Y9465472D01*
G01X6872575Y9450150D01*
G01X6859495Y9432354D01*
G01X6849623Y9412598D01*
G01X6843243Y9391454D01*
G01X6836863Y9412598D01*
G01X6826990Y9432354D01*
G01X6813911Y9450150D01*
G01X6798004Y9465472D01*
G01X6779730Y9477874D01*
G01X6759617Y9486999D01*
G01X6738249Y9492582D01*
G01X6716243Y9494461D01*
G01X6694237Y9492582D01*
G01X6672869Y9486999D01*
G01X6652756Y9477874D01*
G01X6634482Y9465472D01*
G01X6618575Y9450150D01*
G01X6605496Y9432354D01*
G01X6595623Y9412598D01*
G01X6589243Y9391454D01*
G01X6582863Y9412598D01*
G01X6572991Y9432354D01*
G01X6559912Y9450150D01*
G01X6544005Y9465472D01*
G01X6525730Y9477874D01*
G01X6505618Y9486999D01*
G01X6484249Y9492582D01*
G01X6462244Y9494461D01*
G01X6440238Y9492582D01*
G01X6418870Y9486999D01*
G01X6398757Y9477874D01*
G01X6380483Y9465472D01*
G01X6364576Y9450150D01*
G01X6351496Y9432354D01*
G01X6341624Y9412598D01*
G01X6335244Y9391454D01*
G01X6328864Y9412598D01*
G01X6318991Y9432354D01*
G01X6305912Y9450150D01*
G01X6290005Y9465472D01*
G01X6271731Y9477874D01*
G01X6251618Y9486999D01*
G01X6230250Y9492582D01*
G01X6208244Y9494461D01*
G01X6186239Y9492582D01*
G01X6164870Y9486999D01*
G01X6144757Y9477874D01*
G01X6126483Y9465472D01*
G01X6110576Y9450150D01*
G01X6097497Y9432354D01*
G01X6087624Y9412598D01*
G01X6081244Y9391454D01*
G01X6074864Y9412598D01*
G01X6064992Y9432354D01*
G01X6051913Y9450150D01*
G01X6036006Y9465472D01*
G01X6017731Y9477874D01*
G01X5997619Y9486999D01*
G01X5976250Y9492582D01*
G01X5954245Y9494461D01*
G01X5954245Y9494461D01*
G01X5932239Y9492582D01*
G01X5910871Y9486999D01*
G01X5890758Y9477874D01*
G01X5872484Y9465472D01*
G01X5856577Y9450150D01*
G01X5843497Y9432354D01*
G01X5833625Y9412598D01*
G01X5827245Y9391454D01*
G01X5820865Y9412598D01*
G01X5810992Y9432354D01*
G01X5797913Y9450150D01*
G01X5782006Y9465472D01*
G01X5763732Y9477874D01*
G01X5743619Y9486999D01*
G01X5722251Y9492582D01*
G01X5700245Y9494461D01*
G01X5678240Y9492582D01*
G01X5656871Y9486999D01*
G01X5636758Y9477874D01*
G01X5618484Y9465472D01*
G01X5602577Y9450150D01*
G01X5589498Y9432354D01*
G01X5579625Y9412598D01*
G01X5573245Y9391454D01*
G01X5566865Y9412598D01*
G01X5556993Y9432354D01*
G01X5543914Y9450150D01*
G01X5528007Y9465472D01*
G01X5509732Y9477874D01*
G01X5489620Y9486999D01*
G01X5468251Y9492582D01*
G01X5446246Y9494461D01*
G01X5424240Y9492582D01*
G01X5402872Y9486999D01*
G01X5382759Y9477874D01*
G01X5364485Y9465472D01*
G01X5348578Y9450150D01*
G01X5335498Y9432354D01*
G01X5325626Y9412598D01*
G01X5319246Y9391454D01*
G01X5312866Y9412598D01*
G01X5302993Y9432354D01*
G01X5289914Y9450150D01*
G01X5274007Y9465472D01*
G01X5255733Y9477874D01*
G01X5235620Y9486999D01*
G01X5214252Y9492582D01*
G01X5192246Y9494461D01*
G01X5170241Y9492582D01*
G01X5148872Y9486999D01*
G01X5128759Y9477874D01*
G01X5110485Y9465472D01*
G01X5094578Y9450150D01*
G01X5081499Y9432354D01*
G01X5071626Y9412598D01*
G01X5065246Y9391454D01*
G01X5058866Y9412598D01*
G01X5048994Y9432354D01*
G01X5035915Y9450150D01*
G01X5020008Y9465472D01*
G01X5001733Y9477874D01*
G01X4981621Y9486999D01*
G01X4960252Y9492582D01*
G01X4938247Y9494461D01*
G01X4916241Y9492582D01*
G01X4894873Y9486999D01*
G01X4874760Y9477874D01*
G01X4856486Y9465472D01*
G01X4840579Y9450150D01*
G01X4827499Y9432354D01*
G01X4817627Y9412598D01*
G01X4811247Y9391454D01*
G01X4804867Y9412598D01*
G01X4794994Y9432354D01*
G01X4781915Y9450150D01*
G01X4766008Y9465472D01*
G01X4747734Y9477874D01*
G01X4727621Y9486999D01*
G01X4706253Y9492582D01*
G01X4684247Y9494461D01*
G01X4662242Y9492582D01*
G01X4640873Y9486999D01*
G01X4620761Y9477874D01*
G01X4602486Y9465472D01*
G01X4586579Y9450150D01*
G01X4573500Y9432354D01*
G01X4563627Y9412598D01*
G01X4557247Y9391454D01*
G01X4550867Y9412598D01*
G01X4540995Y9432354D01*
G01X4527916Y9450150D01*
G01X4512009Y9465472D01*
G01X4493734Y9477874D01*
G01X4473622Y9486999D01*
G01X4452253Y9492582D01*
G01X4430248Y9494461D01*
G01X4408242Y9492582D01*
G01X4386874Y9486999D01*
G01X4366761Y9477874D01*
G01X4348487Y9465472D01*
G01X4332580Y9450150D01*
G01X4319500Y9432354D01*
G01X4309628Y9412598D01*
G01X4303248Y9391454D01*
G01X4296868Y9412598D01*
G01X4286995Y9432354D01*
G01X4273916Y9450150D01*
G01X4258009Y9465472D01*
G01X4239735Y9477874D01*
G01X4219622Y9486999D01*
G01X4198254Y9492582D01*
G01X4176248Y9494461D01*
G01X4154243Y9492582D01*
G01X4132874Y9486999D01*
G01X4112762Y9477874D01*
G01X4094487Y9465472D01*
G01X4078580Y9450150D01*
G01X4065501Y9432354D01*
G01X4055628Y9412598D01*
G01X4049248Y9391454D01*
G01X4042868Y9412598D01*
G01X4032996Y9432354D01*
G01X4019917Y9450150D01*
G01X4004010Y9465472D01*
G01X3985735Y9477874D01*
G01X3965623Y9486999D01*
G01X3944254Y9492582D01*
G01X3922249Y9494461D01*
G01X3900243Y9492582D01*
G01X3878875Y9486999D01*
G01X3858762Y9477874D01*
G01X3840488Y9465472D01*
G01X3824581Y9450150D01*
G01X3811502Y9432354D01*
G01X3801629Y9412598D01*
G01X3795249Y9391454D01*
G01X3788869Y9412598D01*
G01X3778996Y9432354D01*
G01X3765917Y9450150D01*
G01X3750010Y9465472D01*
G01X3731736Y9477874D01*
G01X3711623Y9486999D01*
G01X3690255Y9492582D01*
G01X3668249Y9494461D01*
G01X3646244Y9492582D01*
G01X3624875Y9486999D01*
G01X3604763Y9477874D01*
G01X3586488Y9465472D01*
G01X3570581Y9450150D01*
G01X3557502Y9432354D01*
G01X3547630Y9412598D01*
G01X3541249Y9391454D01*
G01X3535113Y9411981D01*
G01X3525683Y9431219D01*
G01X3513217Y9448643D01*
G01X3498054Y9463780D01*
G01X3480608Y9476216D01*
G01X3461354Y9485612D01*
G01X3440816Y9491713D01*
G01X3419554Y9494353D01*
G01X3398148Y9493458D01*
G01X3377181Y9489055D01*
G01X3357223Y9481262D01*
G01X3338820Y9470293D01*
G01X3322472Y9456445D01*
G01X3308624Y9440097D01*
G01X3297654Y9421693D01*
G01X3289862Y9401736D01*
G01X3285458Y9380769D01*
G01X3284564Y9359363D01*
G01X3287204Y9338101D01*
G01X3293305Y9317563D01*
G01X3302701Y9298309D01*
G01X3315137Y9280863D01*
G01X3330274Y9265700D01*
G01X3347698Y9253234D01*
G01X3366936Y9243804D01*
G01X3387463Y9237667D01*
G01X3366936Y9231531D01*
G01X3347698Y9222101D01*
G01X3330274Y9209635D01*
G01X3315137Y9194472D01*
G01X3302701Y9177026D01*
G01X3293305Y9157771D01*
G01X3287204Y9137234D01*
G01X3284564Y9115972D01*
G01X3049824Y9115972D01*
G01X3054299Y9120124D01*
G01X3070449Y9140376D01*
G01X3083401Y9162809D01*
G01X3092865Y9186922D01*
G01X3098629Y9212176D01*
G01X3100565Y9238007D01*
G01X3098629Y9263839D01*
G01X3092865Y9289093D01*
G01X3083401Y9313205D01*
G01X3070449Y9335639D01*
G01X3054299Y9355891D01*
G01X3035310Y9373510D01*
G01X3013908Y9388102D01*
G01X2990569Y9399341D01*
G01X2965817Y9406976D01*
G01X2940202Y9410837D01*
G01X2914299Y9410837D01*
G01X2888685Y9406976D01*
G01X2863932Y9399341D01*
G01X2840594Y9388102D01*
G01X2819191Y9373510D01*
G01X2800203Y9355891D01*
G01X2784052Y9335639D01*
G01X2771100Y9313205D01*
G01X2761637Y9289093D01*
G01X2755873Y9263839D01*
G01X2753937Y9238007D01*
G01X2753937Y9238007D01*
G01X1185798Y9238007D01*
G01X1187222Y9244556D01*
G01X1189114Y9271000D01*
G01X1187222Y9297444D01*
G01X1181587Y9323350D01*
G01X1172322Y9348190D01*
G01X1159616Y9371458D01*
G01X1143729Y9392682D01*
G01X1124982Y9411429D01*
G01X1103758Y9427316D01*
G01X1080490Y9440022D01*
G01X1055650Y9449287D01*
G01X1029744Y9454922D01*
G01X1003300Y9456814D01*
G01X976856Y9454922D01*
G01X950950Y9449287D01*
G01X926110Y9440022D01*
G01X902842Y9427316D01*
G01X881618Y9411429D01*
G01X862871Y9392682D01*
G01X846984Y9371458D01*
G01X834278Y9348190D01*
G01X825013Y9323350D01*
G01X819378Y9297444D01*
G01X817486Y9271000D01*
G01X35814Y9271000D01*
G01X35814Y9993300D01*
G01X3547186Y9993300D01*
G01X3547186Y9793300D01*
G01X3548939Y9782233D01*
G01X3554026Y9772249D01*
G01X3561949Y9764326D01*
G01X3571933Y9759239D01*
G01X3583000Y9757486D01*
G01X3783000Y9757486D01*
G01X3794067Y9759239D01*
G01X3804051Y9764326D01*
G01X3811974Y9772249D01*
G01X3817061Y9782233D01*
G01X3818814Y9793300D01*
G01X3818814Y9826387D01*
G01X3831337Y9807973D01*
G01X3846701Y9791853D01*
G01X3864493Y9778460D01*
G01X3884234Y9768155D01*
G01X3905394Y9761215D01*
G01X3927404Y9757826D01*
G01X3949671Y9758079D01*
G01X3971598Y9761967D01*
G01X3992595Y9769386D01*
G01X4012097Y9780137D01*
G01X4029580Y9793930D01*
G01X4044574Y9810395D01*
G01X4056676Y9829089D01*
G01X4065560Y9849509D01*
G01X4070988Y9871106D01*
G01X4072814Y9893300D01*
G01X4099286Y9893300D01*
G01X4101213Y9877430D01*
G01X4106882Y9862482D01*
G01X4115963Y9849326D01*
G01X4127929Y9838725D01*
G01X4142085Y9831295D01*
G01X4157607Y9827469D01*
G01X4173593Y9827469D01*
G01X4189115Y9831295D01*
G01X4203271Y9838725D01*
G01X4215237Y9849326D01*
G01X4224318Y9862482D01*
G01X4229987Y9877430D01*
G01X4230622Y9882655D01*
G01X12983541Y9882655D01*
G01X12985394Y9860301D01*
G01X12990900Y9838557D01*
G01X12999910Y9818015D01*
G01X13012179Y9799237D01*
G01X13027371Y9782734D01*
G01X13045072Y9768956D01*
G01X13064799Y9758280D01*
G01X13086015Y9750997D01*
G01X13108140Y9747305D01*
G01X13130571Y9747305D01*
G01X13152696Y9750997D01*
G01X13173911Y9758280D01*
G01X13193639Y9768956D01*
G01X13211340Y9782734D01*
G01X13226532Y9799237D01*
G01X13238800Y9818015D01*
G01X13247811Y9838557D01*
G01X13253317Y9860301D01*
G01X13255169Y9882655D01*
G01X13255169Y9882655D01*
G01X17022141Y9882655D01*
G01X17023994Y9860301D01*
G01X17029500Y9838557D01*
G01X17038510Y9818015D01*
G01X17050779Y9799237D01*
G01X17065971Y9782734D01*
G01X17083672Y9768956D01*
G01X17103399Y9758280D01*
G01X17124615Y9750997D01*
G01X17146740Y9747305D01*
G01X17169171Y9747305D01*
G01X17191296Y9750997D01*
G01X17212511Y9758280D01*
G01X17232239Y9768956D01*
G01X17249940Y9782734D01*
G01X17265132Y9799237D01*
G01X17277400Y9818015D01*
G01X17286411Y9838557D01*
G01X17291917Y9860301D01*
G01X17293769Y9882655D01*
G01X17293769Y9882655D01*
G01X17291917Y9905010D01*
G01X17286411Y9926754D01*
G01X17278072Y9945764D01*
G01X20418787Y9945764D01*
G01X20420874Y9929556D01*
G01X20426862Y9914350D01*
G01X20436387Y9901071D01*
G01X20448870Y9890524D01*
G01X20463553Y9883351D01*
G01X20449394Y9876515D01*
G01X20437242Y9866538D01*
G01X20427780Y9853981D01*
G01X20421541Y9839549D01*
G01X20418874Y9824054D01*
G01X20419931Y9808366D01*
G01X20424651Y9793368D01*
G01X20432769Y9779903D01*
G01X20443829Y9768728D01*
G01X20457210Y9760471D01*
G01X20472158Y9755596D01*
G01X20456743Y9750502D01*
G01X20443027Y9741816D01*
G01X20431834Y9730057D01*
G01X20423832Y9715931D01*
G01X20419503Y9700284D01*
G01X20419106Y9684054D01*
G01X20422663Y9668214D01*
G01X20429963Y9653713D01*
G01X20440567Y9641421D01*
G01X20453841Y9632073D01*
G01X20468987Y9626230D01*
G01X20485100Y9624243D01*
G01X20501213Y9626230D01*
G01X20516359Y9632073D01*
G01X20529633Y9641421D01*
G01X20540237Y9653713D01*
G01X20547537Y9668214D01*
G01X20551094Y9684054D01*
G01X20550908Y9691675D01*
G01X21097361Y9691675D01*
G01X21099288Y9675805D01*
G01X21104957Y9660857D01*
G01X21114038Y9647700D01*
G01X21126004Y9637099D01*
G01X21140160Y9629670D01*
G01X21155682Y9625844D01*
G01X21171668Y9625844D01*
G01X21187190Y9629670D01*
G01X21201346Y9637099D01*
G01X21213312Y9647700D01*
G01X21222393Y9660857D01*
G01X21228062Y9675805D01*
G01X21229989Y9691675D01*
G01X21228062Y9707545D01*
G01X21222393Y9722492D01*
G01X21213312Y9735649D01*
G01X21201346Y9746250D01*
G01X21187190Y9753680D01*
G01X21171668Y9757505D01*
G01X21155682Y9757505D01*
G01X21140160Y9753680D01*
G01X21126004Y9746250D01*
G01X21114038Y9735649D01*
G01X21104957Y9722492D01*
G01X21099288Y9707545D01*
G01X21097361Y9691675D01*
G01X21097361Y9691675D01*
G01X20550908Y9691675D01*
G01X20550697Y9700284D01*
G01X20546368Y9715931D01*
G01X20538366Y9730057D01*
G01X20527173Y9741816D01*
G01X20513457Y9750502D01*
G01X20498042Y9755596D01*
G01X20512990Y9760471D01*
G01X20526371Y9768728D01*
G01X20537431Y9779903D01*
G01X20545549Y9793368D01*
G01X20550269Y9808366D01*
G01X20550858Y9817100D01*
G01X21028386Y9817100D01*
G01X21030313Y9801230D01*
G01X21035982Y9786282D01*
G01X21045063Y9773126D01*
G01X21057029Y9762525D01*
G01X21071185Y9755095D01*
G01X21086707Y9751269D01*
G01X21102693Y9751269D01*
G01X21118215Y9755095D01*
G01X21132371Y9762525D01*
G01X21144337Y9773126D01*
G01X21153418Y9786282D01*
G01X21159087Y9801230D01*
G01X21161014Y9817100D01*
G01X21159087Y9832970D01*
G01X21153418Y9847918D01*
G01X21144337Y9861074D01*
G01X21132371Y9871675D01*
G01X21118215Y9879105D01*
G01X21102693Y9882931D01*
G01X21086707Y9882931D01*
G01X21071185Y9879105D01*
G01X21057029Y9871675D01*
G01X21045063Y9861074D01*
G01X21035982Y9847918D01*
G01X21030313Y9832970D01*
G01X21028386Y9817100D01*
G01X21028386Y9817100D01*
G01X20550858Y9817100D01*
G01X20551326Y9824054D01*
G01X20548659Y9839549D01*
G01X20542420Y9853981D01*
G01X20532958Y9866538D01*
G01X20520806Y9876515D01*
G01X20506647Y9883351D01*
G01X20521330Y9890524D01*
G01X20533813Y9901071D01*
G01X20543338Y9914350D01*
G01X20549326Y9929556D01*
G01X20551199Y9944100D01*
G01X20964886Y9944100D01*
G01X20966813Y9928230D01*
G01X20972482Y9913282D01*
G01X20981563Y9900126D01*
G01X20993529Y9889525D01*
G01X21007685Y9882095D01*
G01X21023207Y9878269D01*
G01X21039193Y9878269D01*
G01X21054715Y9882095D01*
G01X21068871Y9889525D01*
G01X21080837Y9900126D01*
G01X21089918Y9913282D01*
G01X21095587Y9928230D01*
G01X21097514Y9944100D01*
G01X21095587Y9959970D01*
G01X21089918Y9974918D01*
G01X21080837Y9988074D01*
G01X21068871Y9998675D01*
G01X21054715Y10006105D01*
G01X21039193Y10009931D01*
G01X21023207Y10009931D01*
G01X21007685Y10006105D01*
G01X20993529Y9998675D01*
G01X20981563Y9988074D01*
G01X20972482Y9974918D01*
G01X20966813Y9959970D01*
G01X20964886Y9944100D01*
G01X20964886Y9944100D01*
G01X20551199Y9944100D01*
G01X20551413Y9945764D01*
G01X20549474Y9961990D01*
G01X20543625Y9977250D01*
G01X20534222Y9990616D01*
G01X20521836Y10001276D01*
G01X20507218Y10008583D01*
G01X20507218Y10008583D01*
G01X20521789Y10015860D01*
G01X20534147Y10026469D01*
G01X20543546Y10039770D01*
G01X20549420Y10054960D01*
G01X20551411Y10071100D01*
G01X20888686Y10071100D01*
G01X20890613Y10055230D01*
G01X20896282Y10040282D01*
G01X20905363Y10027126D01*
G01X20917329Y10016525D01*
G01X20931485Y10009095D01*
G01X20947007Y10005269D01*
G01X20962993Y10005269D01*
G01X20978515Y10009095D01*
G01X20992671Y10016525D01*
G01X21004637Y10027126D01*
G01X21013718Y10040282D01*
G01X21019387Y10055230D01*
G01X21021314Y10071100D01*
G01X21019387Y10086970D01*
G01X21013718Y10101918D01*
G01X21004637Y10115074D01*
G01X20992671Y10125675D01*
G01X20978515Y10133105D01*
G01X20962993Y10136931D01*
G01X20947007Y10136931D01*
G01X20931485Y10133105D01*
G01X20917329Y10125675D01*
G01X20905363Y10115074D01*
G01X20896282Y10101918D01*
G01X20890613Y10086970D01*
G01X20888686Y10071100D01*
G01X20888686Y10071100D01*
G01X20551411Y10071100D01*
G01X20551414Y10071124D01*
G01X20549408Y10087287D01*
G01X20543523Y10102473D01*
G01X20534114Y10115767D01*
G01X20521749Y10126367D01*
G01X20507172Y10133633D01*
G01X20521274Y10139920D01*
G01X20533539Y10149299D01*
G01X20543304Y10161259D01*
G01X20550037Y10175153D01*
G01X20553376Y10190227D01*
G01X20553254Y10198100D01*
G01X20825186Y10198100D01*
G01X20827113Y10182230D01*
G01X20832782Y10167282D01*
G01X20841863Y10154126D01*
G01X20853829Y10143525D01*
G01X20867985Y10136095D01*
G01X20883507Y10132269D01*
G01X20899493Y10132269D01*
G01X20915015Y10136095D01*
G01X20929171Y10143525D01*
G01X20941137Y10154126D01*
G01X20950218Y10167282D01*
G01X20955887Y10182230D01*
G01X20957814Y10198100D01*
G01X20955887Y10213970D01*
G01X20950218Y10228918D01*
G01X20941137Y10242074D01*
G01X20929171Y10252675D01*
G01X20915015Y10260105D01*
G01X20899493Y10263931D01*
G01X20883507Y10263931D01*
G01X20867985Y10260105D01*
G01X20853829Y10252675D01*
G01X20841863Y10242074D01*
G01X20832782Y10228918D01*
G01X20827113Y10213970D01*
G01X20825186Y10198100D01*
G01X20825186Y10198100D01*
G01X20553254Y10198100D01*
G01X20553138Y10205665D01*
G01X20549336Y10220630D01*
G01X20542178Y10234309D01*
G01X20532049Y10245963D01*
G01X20519501Y10254959D01*
G01X20505212Y10260809D01*
G01X20520060Y10266972D01*
G01X20532989Y10276526D01*
G01X20543238Y10288912D01*
G01X20550206Y10303399D01*
G01X20553483Y10319138D01*
G01X20553258Y10325100D01*
G01X20761686Y10325100D01*
G01X20763613Y10309230D01*
G01X20769282Y10294282D01*
G01X20778363Y10281126D01*
G01X20790329Y10270525D01*
G01X20804485Y10263095D01*
G01X20820007Y10259269D01*
G01X20835993Y10259269D01*
G01X20851515Y10263095D01*
G01X20865671Y10270525D01*
G01X20877637Y10281126D01*
G01X20886718Y10294282D01*
G01X20892387Y10309230D01*
G01X20894314Y10325100D01*
G01X20892387Y10340970D01*
G01X20886718Y10355918D01*
G01X20877637Y10369074D01*
G01X20865671Y10379675D01*
G01X20851515Y10387105D01*
G01X20835993Y10390931D01*
G01X20820007Y10390931D01*
G01X20804485Y10387105D01*
G01X20790329Y10379675D01*
G01X20778363Y10369074D01*
G01X20769282Y10355918D01*
G01X20763613Y10340970D01*
G01X20761686Y10325100D01*
G01X20761686Y10325100D01*
G01X20553258Y10325100D01*
G01X20552876Y10335202D01*
G01X20548422Y10350649D01*
G01X20540381Y10364570D01*
G01X20529227Y10376147D01*
G01X20515614Y10384699D01*
G01X20500344Y10389725D01*
G01X20515032Y10394480D01*
G01X20528222Y10402503D01*
G01X20539200Y10413358D01*
G01X20547371Y10426457D01*
G01X20552291Y10441091D01*
G01X20553295Y10452100D01*
G01X20698186Y10452100D01*
G01X20700113Y10436230D01*
G01X20705782Y10421282D01*
G01X20714863Y10408126D01*
G01X20726829Y10397525D01*
G01X20740985Y10390095D01*
G01X20756507Y10386269D01*
G01X20772493Y10386269D01*
G01X20788015Y10390095D01*
G01X20802171Y10397525D01*
G01X20814137Y10408126D01*
G01X20823218Y10421282D01*
G01X20828887Y10436230D01*
G01X20830814Y10452100D01*
G01X20828887Y10467970D01*
G01X20823218Y10482918D01*
G01X20814137Y10496074D01*
G01X20802171Y10506675D01*
G01X20788015Y10514105D01*
G01X20772493Y10517931D01*
G01X20756507Y10517931D01*
G01X20740985Y10514105D01*
G01X20726829Y10506675D01*
G01X20714863Y10496074D01*
G01X20705782Y10482918D01*
G01X20700113Y10467970D01*
G01X20698186Y10452100D01*
G01X20698186Y10452100D01*
G01X20553295Y10452100D01*
G01X20553694Y10456466D01*
G01X20551504Y10471748D01*
G01X20545839Y10486110D01*
G01X20537007Y10498773D01*
G01X20525487Y10509051D01*
G01X20511902Y10516386D01*
G01X20525320Y10523604D01*
G01X20536736Y10533694D01*
G01X20545547Y10546124D01*
G01X20551290Y10560236D01*
G01X20553660Y10575286D01*
G01X20553377Y10579100D01*
G01X20634686Y10579100D01*
G01X20636613Y10563230D01*
G01X20642282Y10548282D01*
G01X20651363Y10535126D01*
G01X20663329Y10524525D01*
G01X20677485Y10517095D01*
G01X20693007Y10513269D01*
G01X20708993Y10513269D01*
G01X20724515Y10517095D01*
G01X20738671Y10524525D01*
G01X20750637Y10535126D01*
G01X20759718Y10548282D01*
G01X20765387Y10563230D01*
G01X20767314Y10579100D01*
G01X20765387Y10594970D01*
G01X20759718Y10609918D01*
G01X20750637Y10623074D01*
G01X20738671Y10633675D01*
G01X20724515Y10641105D01*
G01X20708993Y10644931D01*
G01X20693007Y10644931D01*
G01X20677485Y10641105D01*
G01X20663329Y10633675D01*
G01X20651363Y10623074D01*
G01X20642282Y10609918D01*
G01X20636613Y10594970D01*
G01X20634686Y10579100D01*
G01X20634686Y10579100D01*
G01X20553377Y10579100D01*
G01X20552532Y10590481D01*
G01X20547966Y10605016D01*
G01X20540203Y10618127D01*
G01X20529653Y10629119D01*
G01X20516873Y10637413D01*
G01X20502537Y10642572D01*
G01X20487401Y10644322D01*
G01X20472266Y10642572D01*
G01X20457930Y10637413D01*
G01X20445150Y10629119D01*
G01X20434600Y10618127D01*
G01X20426837Y10605016D01*
G01X20422271Y10590481D01*
G01X20421143Y10575286D01*
G01X20423513Y10560236D01*
G01X20429256Y10546124D01*
G01X20438067Y10533694D01*
G01X20449483Y10523604D01*
G01X20462901Y10516386D01*
G01X20449316Y10509051D01*
G01X20437796Y10498773D01*
G01X20428964Y10486110D01*
G01X20423299Y10471748D01*
G01X20421109Y10456466D01*
G01X20422512Y10441091D01*
G01X20427432Y10426457D01*
G01X20435603Y10413358D01*
G01X20446581Y10402503D01*
G01X20459771Y10394480D01*
G01X20474459Y10389725D01*
G01X20459189Y10384699D01*
G01X20445576Y10376147D01*
G01X20434422Y10364570D01*
G01X20426381Y10350649D01*
G01X20421927Y10335202D01*
G01X20421320Y10319138D01*
G01X20424597Y10303399D01*
G01X20431565Y10288912D01*
G01X20441814Y10276526D01*
G01X20454743Y10266972D01*
G01X20469591Y10260809D01*
G01X20455495Y10255065D01*
G01X20443081Y10246259D01*
G01X20433001Y10234854D01*
G01X20425787Y10221451D01*
G01X20421819Y10206757D01*
G01X20421307Y10191545D01*
G01X20424276Y10176616D01*
G01X20430570Y10162758D01*
G01X20439859Y10150700D01*
G01X20451652Y10141078D01*
G01X20465329Y10134398D01*
G01X20451581Y10128319D01*
G01X20439556Y10119300D01*
G01X20429870Y10107805D01*
G01X20423023Y10094423D01*
G01X20419365Y10079844D01*
G01X20419084Y10064815D01*
G01X20422196Y10050108D01*
G01X20428540Y10036481D01*
G01X20437789Y10024632D01*
G01X20449470Y10015171D01*
G01X20462982Y10008583D01*
G01X20448364Y10001276D01*
G01X20435978Y9990616D01*
G01X20426575Y9977250D01*
G01X20420726Y9961990D01*
G01X20418787Y9945764D01*
G01X17278072Y9945764D01*
G01X17277400Y9947296D01*
G01X17265132Y9966074D01*
G01X17249940Y9982577D01*
G01X17232239Y9996354D01*
G01X17212511Y10007030D01*
G01X17191296Y10014314D01*
G01X17169171Y10018006D01*
G01X17146740Y10018006D01*
G01X17124615Y10014314D01*
G01X17103399Y10007030D01*
G01X17083672Y9996354D01*
G01X17065971Y9982577D01*
G01X17050779Y9966074D01*
G01X17038510Y9947296D01*
G01X17029500Y9926754D01*
G01X17023994Y9905010D01*
G01X17022141Y9882655D01*
G01X13255169Y9882655D01*
G01X13253317Y9905010D01*
G01X13247811Y9926754D01*
G01X13238800Y9947296D01*
G01X13226532Y9966074D01*
G01X13211340Y9982577D01*
G01X13193639Y9996354D01*
G01X13173911Y10007030D01*
G01X13152696Y10014314D01*
G01X13130571Y10018006D01*
G01X13108140Y10018006D01*
G01X13086015Y10014314D01*
G01X13064799Y10007030D01*
G01X13045072Y9996354D01*
G01X13027371Y9982577D01*
G01X13012179Y9966074D01*
G01X12999910Y9947296D01*
G01X12990900Y9926754D01*
G01X12985394Y9905010D01*
G01X12983541Y9882655D01*
G01X4230622Y9882655D01*
G01X4231914Y9893300D01*
G01X4229987Y9909170D01*
G01X4224318Y9924118D01*
G01X4215237Y9937274D01*
G01X4203271Y9947875D01*
G01X4189115Y9955305D01*
G01X4173593Y9959131D01*
G01X4157607Y9959131D01*
G01X4142085Y9955305D01*
G01X4127929Y9947875D01*
G01X4115963Y9937274D01*
G01X4106882Y9924118D01*
G01X4101213Y9909170D01*
G01X4099286Y9893300D01*
G01X4099286Y9893300D01*
G01X4072814Y9893300D01*
G01X4070988Y9915494D01*
G01X4065560Y9937091D01*
G01X4056676Y9957511D01*
G01X4044574Y9976205D01*
G01X4029580Y9992670D01*
G01X4012097Y10006463D01*
G01X3992595Y10017214D01*
G01X3971598Y10024633D01*
G01X3949671Y10028521D01*
G01X3927404Y10028774D01*
G01X3905394Y10025385D01*
G01X3884234Y10018445D01*
G01X3864493Y10008140D01*
G01X3846701Y9994747D01*
G01X3831337Y9978627D01*
G01X3818814Y9960213D01*
G01X3818814Y9993300D01*
G01X3818814Y9993300D01*
G01X3817061Y10004367D01*
G01X3811974Y10014351D01*
G01X3804051Y10022274D01*
G01X3794067Y10027361D01*
G01X3783000Y10029114D01*
G01X3583000Y10029114D01*
G01X3571933Y10027361D01*
G01X3561949Y10022274D01*
G01X3554026Y10014351D01*
G01X3548939Y10004367D01*
G01X3547186Y9993300D01*
G01X35814Y9993300D01*
G01X35814Y10807700D01*
G01X19288486Y10807700D01*
G01X19290413Y10791830D01*
G01X19296082Y10776882D01*
G01X19305163Y10763726D01*
G01X19317129Y10753125D01*
G01X19331285Y10745695D01*
G01X19346807Y10741869D01*
G01X19362793Y10741869D01*
G01X19378315Y10745695D01*
G01X19392471Y10753125D01*
G01X19404437Y10763726D01*
G01X19413518Y10776882D01*
G01X19419187Y10791830D01*
G01X19421114Y10807700D01*
G01X19419187Y10823570D01*
G01X19413518Y10838518D01*
G01X19408492Y10845800D01*
G01X20195286Y10845800D01*
G01X20197193Y10825217D01*
G01X20202850Y10805336D01*
G01X20212064Y10786832D01*
G01X20224521Y10770337D01*
G01X20239796Y10756411D01*
G01X20257371Y10745529D01*
G01X20276646Y10738062D01*
G01X20296965Y10734264D01*
G01X20317635Y10734264D01*
G01X20337954Y10738062D01*
G01X20357229Y10745529D01*
G01X20374804Y10756411D01*
G01X20390079Y10770337D01*
G01X20402536Y10786832D01*
G01X20411750Y10805336D01*
G01X20417407Y10825217D01*
G01X20419314Y10845800D01*
G01X20417407Y10866383D01*
G01X20411750Y10886264D01*
G01X20402536Y10904768D01*
G01X20390079Y10921263D01*
G01X20374804Y10935189D01*
G01X20357229Y10946071D01*
G01X20337954Y10953538D01*
G01X20317635Y10957336D01*
G01X20296965Y10957336D01*
G01X20276646Y10953538D01*
G01X20257371Y10946071D01*
G01X20239796Y10935189D01*
G01X20224521Y10921263D01*
G01X20212064Y10904768D01*
G01X20202850Y10886264D01*
G01X20197193Y10866383D01*
G01X20195286Y10845800D01*
G01X20195286Y10845800D01*
G01X19408492Y10845800D01*
G01X19404437Y10851674D01*
G01X19392471Y10862275D01*
G01X19378315Y10869705D01*
G01X19362793Y10873531D01*
G01X19346807Y10873531D01*
G01X19331285Y10869705D01*
G01X19317129Y10862275D01*
G01X19305163Y10851674D01*
G01X19296082Y10838518D01*
G01X19290413Y10823570D01*
G01X19288486Y10807700D01*
G01X19288486Y10807700D01*
G01X35814Y10807700D01*
G01X35814Y11064240D01*
G37*
G54D10*
G01X35814Y11064240D02*
G01X22963886Y11064240D01*
G01X22963886Y1724660D01*
G01X35814Y1724660D01*
G01X35814Y11064240D01*
G01X1003300Y5529186D02*
G03X1003300Y5900814I0J185814D01*
G03X1003300Y5529186I0J-185814D01*
G01X1003300Y7561186D02*
G03X1003300Y7932814I0J185814D01*
G03X1003300Y7561186I0J-185814D01*
G01X1003300Y8069186D02*
G03X1003300Y8440814I0J185814D01*
G03X1003300Y8069186I0J-185814D01*
G01X1003300Y8577186D02*
G03X1003300Y8948814I0J185814D01*
G03X1003300Y8577186I0J-185814D01*
G01X1003300Y7053186D02*
G03X1003300Y7424814I0J185814D01*
G03X1003300Y7053186I0J-185814D01*
G01X1003300Y6545186D02*
G03X1003300Y6916814I0J185814D01*
G03X1003300Y6545186I0J-185814D01*
G01X1003300Y6029058D02*
G03X1003300Y6400686I0J185814D01*
G03X1003300Y6029058I0J-185814D01*
G01X1003300Y9085186D02*
G03X1003300Y9456814I0J185814D01*
G03X1003300Y9085186I0J-185814D01*
G01X2214086Y7048500D02*
G03X2535714Y7048500I160814J0D01*
G03X2214086Y7048500I-160814J0D01*
G01X2753937Y9238007D02*
G03X3100565Y9238007I173314J0D01*
G03X2753937Y9238007I-173314J0D01*
G01X2753937Y4338017D02*
G03X3100565Y4338017I173314J0D01*
G03X2753937Y4338017I-173314J0D01*
G01X5954245Y9494461D02*
G03X5827245Y9391454I0J-129794D01*
G03X5573245Y9391454I-127000J-26786D01*
G03X5319246Y9391454I-127000J-26786D01*
G03X5065246Y9391454I-127000J-26786D01*
G03X4811247Y9391454I-127000J-26786D01*
G03X4557247Y9391454I-127000J-26786D01*
G03X4303248Y9391454I-127000J-26786D01*
G03X4049248Y9391454I-127000J-26786D01*
G03X3795249Y9391454I-127000J-26786D01*
G03X3541249Y9391454I-127000J-26786D01*
G03X3322472Y9456445I-127000J-26786D01*
G03X3387463Y9237667I91778J-91778D01*
G03X3322472Y9018889I26786J-127000D01*
G03X3541249Y9083881I91778J91778D01*
G03X3795249Y9083881I127000J26786D01*
G03X4049248Y9083881I127000J26786D01*
G03X4303248Y9083881I127000J26786D01*
G03X4557247Y9083881I127000J26786D01*
G03X4811247Y9083881I127000J26786D01*
G03X5065246Y9083881I127000J26786D01*
G03X5319246Y9083881I127000J26786D01*
G03X5573245Y9083881I127000J26786D01*
G03X5827245Y9083881I127000J26786D01*
G03X5954245Y8980874I127000J26786D01*
G03X6081244Y9083881I0J129794D01*
G03X6208244Y8980874I127000J26786D01*
G03X6335244Y9083881I0J129794D01*
G03X6589243Y9083881I127000J26786D01*
G03X6843243Y9083881I127000J26786D01*
G03X7097242Y9083881I127000J26786D01*
G03X7351242Y9083881I127000J26786D01*
G03X7605241Y9083881I127000J26786D01*
G03X7859241Y9083881I127000J26786D01*
G03X8113240Y9083881I127000J26786D01*
G03X8332018Y9018889I127000J26786D01*
G03X8267027Y9237667I-91778J91778D01*
G03X8332018Y9456445I-26786J127000D01*
G03X8113240Y9391454I-91778J-91778D01*
G03X7986241Y9494461I-127000J-26786D01*
G03X7859241Y9391454I0J-129794D01*
G03X7605241Y9391454I-127000J-26786D01*
G03X7351242Y9391454I-127000J-26786D01*
G03X7097242Y9391454I-127000J-26786D01*
G03X6843243Y9391454I-127000J-26786D01*
G03X6589243Y9391454I-127000J-26786D01*
G03X6335244Y9391454I-127000J-26786D01*
G03X6208244Y9494461I-127000J-26786D01*
G03X6081244Y9391454I0J-129794D01*
G03X5954245Y9494461I-127000J-26786D01*
G01X3306686Y3187700D02*
G03X3678314Y3187700I185814J0D01*
G03X3306686Y3187700I-185814J0D01*
G01X3306686Y2171700D02*
G03X3678314Y2171700I185814J0D01*
G03X3306686Y2171700I-185814J0D01*
G01X3517900Y7966386D02*
G03X3517900Y8188014I0J110814D01*
G03X3517900Y7966386I0J-110814D01*
G01X3517900Y8474386D02*
G03X3517900Y8696014I0J110814D01*
G03X3517900Y8474386I0J-110814D01*
G01X3818814Y9993300D02*
G03X3783000Y10029114I-35814J0D01*
G01X3583000Y10029114D01*
G03X3547186Y9993300I0J-35814D01*
G01X3547186Y9793300D01*
G03X3583000Y9757486I35814J0D01*
G01X3783000Y9757486D01*
G03X3818814Y9793300I0J35814D01*
G01X3818814Y9826387D01*
G03X4072814Y9893300I118186J66913D01*
G03X3818814Y9960213I-135814J0D01*
G01X3818814Y9993300D01*
G01X3814686Y3187700D02*
G03X4186314Y3187700I185814J0D01*
G03X3814686Y3187700I-185814J0D01*
G01X3814686Y2171700D02*
G03X4186314Y2171700I185814J0D01*
G03X3814686Y2171700I-185814J0D01*
G01X4025900Y7966386D02*
G03X4025900Y8188014I0J110814D01*
G03X4025900Y7966386I0J-110814D01*
G01X4025900Y8487086D02*
G03X4025900Y8708714I0J110814D01*
G03X4025900Y8487086I0J-110814D01*
G01X4099286Y9893300D02*
G03X4231914Y9893300I66314J0D01*
G03X4099286Y9893300I-66314J0D01*
G01X4277086Y6616700D02*
G03X4409714Y6616700I66314J0D01*
G03X4277086Y6616700I-66314J0D01*
G01X4724400Y7833036D02*
G03X4724400Y8054664I0J110814D01*
G03X4724400Y7833036I0J-110814D01*
G01X4724400Y8341036D02*
G03X4724400Y8562664I0J110814D01*
G03X4724400Y8341036I0J-110814D01*
G01X5232400Y8353736D02*
G03X5232400Y8575364I0J110814D01*
G03X5232400Y8353736I0J-110814D01*
G01X5232400Y7833036D02*
G03X5232400Y8054664I0J110814D01*
G03X5232400Y7833036I0J-110814D01*
G01X6060186Y2654300D02*
G03X6284214Y2654300I112014J0D01*
G03X6060186Y2654300I-112014J0D01*
G01X6060186Y2146300D02*
G03X6284214Y2146300I112014J0D01*
G03X6060186Y2146300I-112014J0D01*
G01X6568186Y2654300D02*
G03X6792214Y2654300I112014J0D01*
G03X6568186Y2654300I-112014J0D01*
G01X6568186Y2146300D02*
G03X6792214Y2146300I112014J0D01*
G03X6568186Y2146300I-112014J0D01*
G01X6817086Y6426200D02*
G03X6949714Y6426200I66314J0D01*
G03X6817086Y6426200I-66314J0D01*
G01X6918686Y5638800D02*
G03X7051314Y5638800I66314J0D01*
G03X6918686Y5638800I-66314J0D01*
G01X7076186Y2654300D02*
G03X7300214Y2654300I112014J0D01*
G03X7076186Y2654300I-112014J0D01*
G01X7078061Y2146300D02*
G03X7302089Y2146300I112014J0D01*
G03X7078061Y2146300I-112014J0D01*
G01X7582620Y2654300D02*
G03X7806648Y2654300I112014J0D01*
G03X7582620Y2654300I-112014J0D01*
G01X7584186Y2146300D02*
G03X7808214Y2146300I112014J0D01*
G03X7584186Y2146300I-112014J0D01*
G01X8089903Y2654300D02*
G03X8313931Y2654300I112014J0D01*
G03X8089903Y2654300I-112014J0D01*
G01X8090619Y2146300D02*
G03X8314647Y2146300I112014J0D01*
G03X8090619Y2146300I-112014J0D01*
G01X8553925Y9238007D02*
G03X8900553Y9238007I173314J0D01*
G03X8553925Y9238007I-173314J0D01*
G01X8553925Y4338017D02*
G03X8900553Y4338017I173314J0D01*
G03X8553925Y4338017I-173314J0D01*
G01X8598566Y2146300D02*
G03X8822594Y2146300I112014J0D01*
G03X8598566Y2146300I-112014J0D01*
G01X8600186Y2654300D02*
G03X8824214Y2654300I112014J0D01*
G03X8600186Y2654300I-112014J0D01*
G01X9113423Y2654300D02*
G03X9337451Y2654300I112014J0D01*
G03X9113423Y2654300I-112014J0D01*
G01X9117122Y2146300D02*
G03X9341150Y2146300I112014J0D01*
G03X9117122Y2146300I-112014J0D01*
G01X9614739Y2654300D02*
G03X9838767Y2654300I112014J0D01*
G03X9614739Y2654300I-112014J0D01*
G01X9616186Y2146300D02*
G03X9840214Y2146300I112014J0D01*
G03X9616186Y2146300I-112014J0D01*
G01X9890486Y6642100D02*
G03X10023114Y6642100I66314J0D01*
G03X9890486Y6642100I-66314J0D01*
G01X10017486Y6527800D02*
G03X10150114Y6527800I66314J0D01*
G03X10017486Y6527800I-66314J0D01*
G01X10284186Y6629400D02*
G03X10416814Y6629400I66314J0D01*
G03X10284186Y6629400I-66314J0D01*
G01X10436805Y6972272D02*
G03X10569433Y6972272I66314J0D01*
G03X10436805Y6972272I-66314J0D01*
G01X10449286Y6527800D02*
G03X10581914Y6527800I66314J0D01*
G03X10449286Y6527800I-66314J0D01*
G01X10632186Y2654300D02*
G03X10856214Y2654300I112014J0D01*
G03X10632186Y2654300I-112014J0D01*
G01X10632186Y2146300D02*
G03X10856214Y2146300I112014J0D01*
G03X10632186Y2146300I-112014J0D01*
G01X10835786Y5486400D02*
G03X10957414Y5486400I60814J0D01*
G03X10835786Y5486400I-60814J0D01*
G01X10871586Y5880100D02*
G03X11023214Y5880100I75814J0D01*
G03X10871586Y5880100I-75814J0D01*
G01X10967973Y5687135D02*
G03X11119601Y5687135I75814J0D01*
G03X10967973Y5687135I-75814J0D01*
G01X11058886Y7404100D02*
G03X11191514Y7404100I66314J0D01*
G03X11058886Y7404100I-66314J0D01*
G01X11058886Y6350000D02*
G03X11191514Y6350000I66314J0D01*
G03X11058886Y6350000I-66314J0D01*
G01X11084286Y3505200D02*
G03X11216914Y3505200I66314J0D01*
G03X11084286Y3505200I-66314J0D01*
G01X11140186Y2654300D02*
G03X11364214Y2654300I112014J0D01*
G03X11140186Y2654300I-112014J0D01*
G01X11140186Y2146300D02*
G03X11364214Y2146300I112014J0D01*
G03X11140186Y2146300I-112014J0D01*
G01X11154883Y4669222D02*
G03X11287511Y4669222I66314J0D01*
G03X11154883Y4669222I-66314J0D01*
G01X11452586Y7353300D02*
G03X11585214Y7353300I66314J0D01*
G03X11452586Y7353300I-66314J0D01*
G01X11516093Y7151076D02*
G03X11490174Y7034817I15507J-64476D01*
G03X11597907Y7085624I41426J51783D01*
G03X11648113Y7141193I-15507J64476D01*
G03X11687224Y7253607I-8075J65821D01*
G03X11574325Y7215921I-47187J-46594D01*
G03X11516093Y7151076I8075J-65821D01*
G01X11686671Y6795508D02*
G03X11611987Y6701343I-15371J-64508D01*
G03X11732129Y6704592I59313J29657D01*
G03X11813757Y6766343I15371J64508D01*
G03X11857891Y6879491I-2757J66257D01*
G03X11744743Y6835357I-46891J-46891D01*
G03X11686671Y6795508I2757J-66257D01*
G01X11648186Y2654300D02*
G03X11872214Y2654300I112014J0D01*
G03X11648186Y2654300I-112014J0D01*
G01X11648186Y2146300D02*
G03X11872214Y2146300I112014J0D01*
G03X11648186Y2146300I-112014J0D01*
G01X11699353Y7353300D02*
G03X11831981Y7353300I66314J0D01*
G03X11699353Y7353300I-66314J0D01*
G01X11699386Y5486400D02*
G03X11821014Y5486400I60814J0D01*
G03X11699386Y5486400I-60814J0D01*
G01X11744417Y5880100D02*
G03X11896045Y5880100I75814J0D01*
G03X11744417Y5880100I-75814J0D01*
G01X11833586Y5689600D02*
G03X11966214Y5689600I66314J0D01*
G03X11833586Y5689600I-66314J0D01*
G01X11947886Y7327900D02*
G03X12080514Y7327900I66314J0D01*
G03X11947886Y7327900I-66314J0D01*
G01X11947886Y3530600D02*
G03X12080514Y3530600I66314J0D01*
G03X11947886Y3530600I-66314J0D01*
G01X12011386Y4622800D02*
G03X12144014Y4622800I66314J0D01*
G03X12011386Y4622800I-66314J0D01*
G01X12156186Y2654300D02*
G03X12380214Y2654300I112014J0D01*
G03X12156186Y2654300I-112014J0D01*
G01X12156186Y2146300D02*
G03X12380214Y2146300I112014J0D01*
G03X12156186Y2146300I-112014J0D01*
G01X12209797Y7327900D02*
G03X12342425Y7327900I66314J0D01*
G03X12209797Y7327900I-66314J0D01*
G01X12461212Y6705600D02*
G03X12593840Y6705600I66314J0D01*
G03X12461212Y6705600I-66314J0D01*
G01X12550286Y5485001D02*
G03X12671914Y5485001I60814J0D01*
G03X12550286Y5485001I-60814J0D01*
G01X12573386Y5905500D02*
G03X12725014Y5905500I75814J0D01*
G03X12573386Y5905500I-75814J0D01*
G01X12671786Y5689600D02*
G03X12804414Y5689600I66314J0D01*
G03X12671786Y5689600I-66314J0D01*
G01X12709886Y7340600D02*
G03X12842514Y7340600I66314J0D01*
G03X12709886Y7340600I-66314J0D01*
G01X12798786Y4660900D02*
G03X12931414Y4660900I66314J0D01*
G03X12798786Y4660900I-66314J0D01*
G01X12811486Y3556000D02*
G03X12944114Y3556000I66314J0D01*
G03X12811486Y3556000I-66314J0D01*
G01X12970205Y7340600D02*
G03X13102833Y7340600I66314J0D01*
G03X12970205Y7340600I-66314J0D01*
G01X13255169Y9882655D02*
G03X12983541Y9882655I-135814J0D01*
G03X13255169Y9882655I135814J0D01*
G01X13255169Y8053855D02*
G03X12983541Y8053855I-135814J0D01*
G03X13255169Y8053855I135814J0D01*
G01X13172186Y2654300D02*
G03X13396214Y2654300I112014J0D01*
G03X13172186Y2654300I-112014J0D01*
G01X13172186Y2146300D02*
G03X13396214Y2146300I112014J0D01*
G03X13172186Y2146300I-112014J0D01*
G01X13422666Y5869195D02*
G03X13574294Y5869195I75814J0D01*
G03X13422666Y5869195I-75814J0D01*
G01X13426586Y5478974D02*
G03X13548214Y5478974I60814J0D01*
G03X13426586Y5478974I-60814J0D01*
G01X13547293Y5689600D02*
G03X13679921Y5689600I66314J0D01*
G03X13547293Y5689600I-66314J0D01*
G01X13649686Y4660900D02*
G03X13782314Y4660900I66314J0D01*
G03X13649686Y4660900I-66314J0D01*
G01X13662386Y3568700D02*
G03X13795014Y3568700I66314J0D01*
G03X13662386Y3568700I-66314J0D01*
G01X13680186Y2654300D02*
G03X13904214Y2654300I112014J0D01*
G03X13680186Y2654300I-112014J0D01*
G01X13680186Y2146300D02*
G03X13904214Y2146300I112014J0D01*
G03X13680186Y2146300I-112014J0D01*
G01X14188186Y2654300D02*
G03X14412214Y2654300I112014J0D01*
G03X14188186Y2654300I-112014J0D01*
G01X14188186Y2146300D02*
G03X14412214Y2146300I112014J0D01*
G03X14188186Y2146300I-112014J0D01*
G01X14198705Y8632747D02*
G03X14350333Y8632747I75814J0D01*
G03X14198705Y8632747I-75814J0D01*
G01X14696186Y2654300D02*
G03X14920214Y2654300I112014J0D01*
G03X14696186Y2654300I-112014J0D01*
G01X14696186Y2146300D02*
G03X14920214Y2146300I112014J0D01*
G03X14696186Y2146300I-112014J0D01*
G01X15703248Y4100603D02*
G03X15835876Y4100603I66314J0D01*
G03X15703248Y4100603I-66314J0D01*
G01X15792971Y3352800D02*
G03X15925599Y3352800I66314J0D01*
G03X15792971Y3352800I-66314J0D01*
G01X15981808Y3962400D02*
G03X16114436Y3962400I66314J0D01*
G03X15981808Y3962400I-66314J0D01*
G01X16427614Y2616200D02*
G03X16185986Y2616200I-120814J0D01*
G03X16427614Y2616200I120814J0D01*
G01X16427614Y2362200D02*
G03X16185986Y2362200I-120814J0D01*
G03X16427614Y2362200I120814J0D01*
G01X16309746Y5369298D02*
G03X16442374Y5369298I66314J0D01*
G03X16309746Y5369298I-66314J0D01*
G01X16418286Y5486400D02*
G03X16550914Y5486400I66314J0D01*
G03X16418286Y5486400I-66314J0D01*
G01X16681614Y2616200D02*
G03X16439986Y2616200I-120814J0D01*
G03X16681614Y2616200I120814J0D01*
G01X16475800Y2483014D02*
G03X16439986Y2447200I0J-35814D01*
G01X16439986Y2277200D01*
G03X16475800Y2241386I35814J0D01*
G01X16645800Y2241386D01*
G03X16681614Y2277200I0J35814D01*
G01X16681614Y2447200D01*
G03X16645800Y2483014I-35814J0D01*
G01X16475800Y2483014D01*
G01X16760430Y4011701D02*
G03X16893058Y4011701I66314J0D01*
G03X16760430Y4011701I-66314J0D01*
G01X16837386Y3263900D02*
G03X16970014Y3263900I66314J0D01*
G03X16837386Y3263900I-66314J0D01*
G01X17011263Y3860800D02*
G03X17143891Y3860800I66314J0D01*
G03X17011263Y3860800I-66314J0D01*
G01X17293769Y9882655D02*
G03X17022141Y9882655I-135814J0D01*
G03X17293769Y9882655I135814J0D01*
G01X17293769Y8053855D02*
G03X17022141Y8053855I-135814J0D01*
G03X17293769Y8053855I135814J0D01*
G01X17697614Y2349500D02*
G03X17455986Y2349500I-120814J0D01*
G03X17697614Y2349500I120814J0D01*
G01X17697614Y2603500D02*
G03X17455986Y2603500I-120814J0D01*
G03X17697614Y2603500I120814J0D01*
G01X17745800Y2470314D02*
G03X17709986Y2434500I0J-35814D01*
G01X17709986Y2264500D01*
G03X17745800Y2228686I35814J0D01*
G01X17915800Y2228686D01*
G03X17951614Y2264500I0J35814D01*
G01X17951614Y2434500D01*
G03X17915800Y2470314I-35814J0D01*
G01X17745800Y2470314D01*
G01X17951614Y2603500D02*
G03X17709986Y2603500I-120814J0D01*
G03X17951614Y2603500I120814J0D01*
G01X18064738Y3973601D02*
G03X18197366Y3973601I66314J0D01*
G03X18064738Y3973601I-66314J0D01*
G01X18152577Y3225800D02*
G03X18285205Y3225800I66314J0D01*
G03X18152577Y3225800I-66314J0D01*
G01X18318286Y3822700D02*
G03X18450915Y3822700I66314J0D01*
G03X18318286Y3822700I-66314J0D01*
G01X18471290Y5005276D02*
G03X18528300Y4899495I53210J-39576D01*
G03X18640569Y4868903I64500J15405D01*
G03X18754248Y4897961I49183J44481D01*
G03X18811071Y5003802I3652J66213D01*
G03X18693405Y4979598I-53171J-39628D01*
G03X18641983Y4959381I-3652J-66213D01*
G03X18589000Y4981105I-49183J-44481D01*
G03X18471290Y5005276I-64500J-15405D01*
G01X18916814Y2616200D02*
G03X18675186Y2616200I-120814J0D01*
G03X18916814Y2616200I120814J0D01*
G01X18916814Y2362200D02*
G03X18675186Y2362200I-120814J0D01*
G03X18916814Y2362200I120814J0D01*
G01X18869607Y5553395D02*
G03X19002236Y5553395I66314J0D01*
G03X18869607Y5553395I-66314J0D01*
G01X19170814Y2616200D02*
G03X18929186Y2616200I-120814J0D01*
G03X19170814Y2616200I120814J0D01*
G01X18965000Y2483014D02*
G03X18929186Y2447200I0J-35814D01*
G01X18929186Y2277200D01*
G03X18965000Y2241386I35814J0D01*
G01X19135000Y2241386D01*
G03X19170814Y2277200I0J35814D01*
G01X19170814Y2447200D01*
G03X19135000Y2483014I-35814J0D01*
G01X18965000Y2483014D01*
G01X18980578Y9232941D02*
G03X19172206Y9232941I95814J0D01*
G03X18980578Y9232941I-95814J0D01*
G01X19288486Y10807700D02*
G03X19421114Y10807700I66314J0D01*
G03X19288486Y10807700I-66314J0D01*
G01X19288486Y4000500D02*
G03X19421114Y4000500I66314J0D01*
G03X19288486Y4000500I-66314J0D01*
G01X19383990Y3263900D02*
G03X19516618Y3263900I66314J0D01*
G03X19383990Y3263900I-66314J0D01*
G01X19540025Y3848100D02*
G03X19672654Y3848100I66314J0D01*
G03X19540025Y3848100I-66314J0D01*
G01X19682186Y7556500D02*
G03X19814814Y7556500I66314J0D01*
G03X19682186Y7556500I-66314J0D01*
G01X20148714Y2616200D02*
G03X19907086Y2616200I-120814J0D01*
G03X20148714Y2616200I120814J0D01*
G01X20148714Y2362200D02*
G03X19907086Y2362200I-120814J0D01*
G03X20148714Y2362200I120814J0D01*
G01X20168847Y7837789D02*
G03X20068188Y7923310I-54216J38185D01*
G03X19953759Y7989280I-60213J27784D01*
G03X20054417Y7903759I54216J-38185D01*
G03X20168847Y7837789I60213J-27784D01*
G01X20402714Y2616200D02*
G03X20161086Y2616200I-120814J0D01*
G03X20402714Y2616200I120814J0D01*
G01X20196900Y2483014D02*
G03X20161086Y2447200I0J-35814D01*
G01X20161086Y2277200D01*
G03X20196900Y2241386I35814J0D01*
G01X20366900Y2241386D01*
G03X20402714Y2277200I0J35814D01*
G01X20402714Y2447200D01*
G03X20366900Y2483014I-35814J0D01*
G01X20196900Y2483014D01*
G01X20195286Y10845800D02*
G03X20419314Y10845800I112014J0D01*
G03X20195286Y10845800I-112014J0D01*
G01X20235386Y5816600D02*
G03X20557014Y5816600I160814J0D01*
G03X20235386Y5816600I-160814J0D01*
G01X20507218Y10008583D02*
G03X20507172Y10133633I-22118J62517D01*
G03X20505212Y10260809I-19771J63298D01*
G03X20500344Y10389725I-17811J63877D01*
G03X20511902Y10516386I-12942J65039D01*
G03X20487401Y10644322I-24501J61622D01*
G03X20462901Y10516386I0J-66314D01*
G03X20474459Y10389725I24501J-61622D01*
G03X20469591Y10260809I12942J-65039D01*
G03X20465329Y10134398I17811J-63877D01*
G03X20462982Y10008583I19771J-63298D01*
G03X20463553Y9883351I22118J-62517D01*
G03X20472158Y9755596I21547J-62716D01*
G03X20485100Y9624243I12942J-65039D01*
G03X20498042Y9755596I0J66314D01*
G03X20506647Y9883351I-12942J65039D01*
G03X20507218Y10008583I-21547J62716D01*
G01X20634686Y10579100D02*
G03X20767314Y10579100I66314J0D01*
G03X20634686Y10579100I-66314J0D01*
G01X20698186Y10452100D02*
G03X20830814Y10452100I66314J0D01*
G03X20698186Y10452100I-66314J0D01*
G01X20761686Y10325100D02*
G03X20894314Y10325100I66314J0D01*
G03X20761686Y10325100I-66314J0D01*
G01X20825186Y10198100D02*
G03X20957814Y10198100I66314J0D01*
G03X20825186Y10198100I-66314J0D01*
G01X20888686Y10071100D02*
G03X21021314Y10071100I66314J0D01*
G03X20888686Y10071100I-66314J0D01*
G01X20964886Y9944100D02*
G03X21097514Y9944100I66314J0D01*
G03X20964886Y9944100I-66314J0D01*
G01X21028386Y9817100D02*
G03X21161014Y9817100I66314J0D01*
G03X21028386Y9817100I-66314J0D01*
G01X21097361Y9691675D02*
G03X21229989Y9691675I66314J0D01*
G03X21097361Y9691675I-66314J0D01*
G01X21996400Y9456814D02*
G03X21996400Y9085186I0J-185814D01*
G03X21996400Y9456814I0J185814D01*
G01X21996400Y8440814D02*
G03X21996400Y8069186I0J-185814D01*
G03X21996400Y8440814I0J185814D01*
G01X21996400Y7424814D02*
G03X21996400Y7053186I0J-185814D01*
G03X21996400Y7424814I0J185814D01*
G01X21996400Y6916814D02*
G03X21996400Y6545186I0J-185814D01*
G03X21996400Y6916814I0J185814D01*
G01X21996400Y7932814D02*
G03X21996400Y7561186I0J-185814D01*
G03X21996400Y7932814I0J185814D01*
G01X21996400Y8956942D02*
G03X21996400Y8585314I0J-185814D01*
G03X21996400Y8956942I0J185814D01*
G01X21996400Y6408814D02*
G03X21996400Y6037186I0J-185814D01*
G03X21996400Y6408814I0J185814D01*
G01X21996400Y5900814D02*
G03X21996400Y5529186I0J-185814D01*
G03X21996400Y5900814I0J185814D01*
G54D11*
G01X2250154Y7048500D02*
G01X2224246Y7048500D01*
G01X2499646Y7048500D02*
G01X2525554Y7048500D01*
G01X2374900Y7173246D02*
G01X2374900Y7199154D01*
G01X2374900Y6923754D02*
G01X2374900Y6897846D01*
G01X3342754Y3187700D02*
G01X3316846Y3187700D01*
G01X3642246Y3187700D02*
G01X3668154Y3187700D01*
G01X3492500Y3337446D02*
G01X3492500Y3363354D01*
G01X3492500Y3037954D02*
G01X3492500Y3012046D01*
G01X4430248Y9016942D02*
G01X4430248Y8991034D01*
G01X6462244Y9016942D02*
G01X6462244Y8991034D01*
G01X3922249Y9458393D02*
G01X3922249Y9484301D01*
G01X5700245Y9458393D02*
G01X5700245Y9484301D01*
G01X4938247Y9458393D02*
G01X4938247Y9484301D01*
G01X8240240Y9016942D02*
G01X8240240Y8991034D01*
G01X8333966Y9110668D02*
G01X8359874Y9110668D01*
G01X7112254Y2654300D02*
G01X7086346Y2654300D01*
G01X7264146Y2654300D02*
G01X7290054Y2654300D01*
G01X7188200Y2730246D02*
G01X7188200Y2756154D01*
G01X7188200Y2578354D02*
G01X7188200Y2552446D01*
G01X9149491Y2654300D02*
G01X9123583Y2654300D01*
G01X9301383Y2654300D02*
G01X9327291Y2654300D01*
G01X9225437Y2730246D02*
G01X9225437Y2756154D01*
G01X9225437Y2578354D02*
G01X9225437Y2552446D01*
G01X7618688Y2654300D02*
G01X7592780Y2654300D01*
G01X7770580Y2654300D02*
G01X7796488Y2654300D01*
G01X7694634Y2730246D02*
G01X7694634Y2756154D01*
G01X7694634Y2578354D02*
G01X7694634Y2552446D01*
G01X10668254Y2654300D02*
G01X10642346Y2654300D01*
G01X10820146Y2654300D02*
G01X10846054Y2654300D01*
G01X10744200Y2730246D02*
G01X10744200Y2756154D01*
G01X10744200Y2578354D02*
G01X10744200Y2552446D01*
G01X8125971Y2654300D02*
G01X8100063Y2654300D01*
G01X8277863Y2654300D02*
G01X8303771Y2654300D01*
G01X8201917Y2730246D02*
G01X8201917Y2756154D01*
G01X8201917Y2578354D02*
G01X8201917Y2552446D01*
G01X9650807Y2654300D02*
G01X9624899Y2654300D01*
G01X9802699Y2654300D02*
G01X9828607Y2654300D01*
G01X9726753Y2730246D02*
G01X9726753Y2756154D01*
G01X9726753Y2578354D02*
G01X9726753Y2552446D01*
G01X8636254Y2654300D02*
G01X8610346Y2654300D01*
G01X8788146Y2654300D02*
G01X8814054Y2654300D01*
G01X8712200Y2730246D02*
G01X8712200Y2756154D01*
G01X8712200Y2578354D02*
G01X8712200Y2552446D01*
G01X11176254Y2654300D02*
G01X11150346Y2654300D01*
G01X11328146Y2654300D02*
G01X11354054Y2654300D01*
G01X11252200Y2730246D02*
G01X11252200Y2756154D01*
G01X11252200Y2578354D02*
G01X11252200Y2552446D01*
G01X11684254Y2654300D02*
G01X11658346Y2654300D01*
G01X11836146Y2654300D02*
G01X11862054Y2654300D01*
G01X11760200Y2730246D02*
G01X11760200Y2756154D01*
G01X11760200Y2578354D02*
G01X11760200Y2552446D01*
G01X13716254Y2654300D02*
G01X13690346Y2654300D01*
G01X13868146Y2654300D02*
G01X13894054Y2654300D01*
G01X13792200Y2730246D02*
G01X13792200Y2756154D01*
G01X13792200Y2578354D02*
G01X13792200Y2552446D01*
G01X12192254Y2654300D02*
G01X12166346Y2654300D01*
G01X12344146Y2654300D02*
G01X12370054Y2654300D01*
G01X12268200Y2730246D02*
G01X12268200Y2756154D01*
G01X12268200Y2578354D02*
G01X12268200Y2552446D01*
G01X13208254Y2654300D02*
G01X13182346Y2654300D01*
G01X13360146Y2654300D02*
G01X13386054Y2654300D01*
G01X13284200Y2730246D02*
G01X13284200Y2756154D01*
G01X13284200Y2578354D02*
G01X13284200Y2552446D01*
G01X14732254Y2654300D02*
G01X14706346Y2654300D01*
G01X14884146Y2654300D02*
G01X14910054Y2654300D01*
G01X14808200Y2730246D02*
G01X14808200Y2756154D01*
G01X14808200Y2578354D02*
G01X14808200Y2552446D01*
G01X14224254Y2654300D02*
G01X14198346Y2654300D01*
G01X14376146Y2654300D02*
G01X14402054Y2654300D01*
G01X14300200Y2730246D02*
G01X14300200Y2756154D01*
G01X14300200Y2578354D02*
G01X14300200Y2552446D01*
G01X17257701Y8053855D02*
G01X17283609Y8053855D01*
G01X17058209Y8053855D02*
G01X17032301Y8053855D01*
G01X17157955Y7954109D02*
G01X17157955Y7928201D01*
G01X17157955Y8153601D02*
G01X17157955Y8179509D01*
G01X20231354Y10845800D02*
G01X20205446Y10845800D01*
G01X20383246Y10845800D02*
G01X20409154Y10845800D01*
G01X20307300Y10921746D02*
G01X20307300Y10947654D01*
G01X20307300Y10769854D02*
G01X20307300Y10743946D01*
G01X3342754Y2171700D02*
G01X3316846Y2171700D01*
G01X3642246Y2171700D02*
G01X3668154Y2171700D01*
G01X3492500Y2321446D02*
G01X3492500Y2347354D01*
G01X3492500Y2021954D02*
G01X3492500Y1996046D01*
G01X6604254Y2654300D02*
G01X6578346Y2654300D01*
G01X6756146Y2654300D02*
G01X6782054Y2654300D01*
G01X6680200Y2730246D02*
G01X6680200Y2756154D01*
G01X6680200Y2578354D02*
G01X6680200Y2552446D01*
G01X6096254Y2654300D02*
G01X6070346Y2654300D01*
G01X6248146Y2654300D02*
G01X6274054Y2654300D01*
G01X6172200Y2730246D02*
G01X6172200Y2756154D01*
G01X6172200Y2578354D02*
G01X6172200Y2552446D01*
G01X7478242Y9458393D02*
G01X7478242Y9484301D01*
G01X6970243Y9458393D02*
G01X6970243Y9484301D01*
G01X13219101Y8053855D02*
G01X13245009Y8053855D01*
G01X13019609Y8053855D02*
G01X12993701Y8053855D01*
G01X13119355Y7954109D02*
G01X13119355Y7928201D01*
G01X13119355Y8153601D02*
G01X13119355Y8179509D01*
G04 Copper End*

G04 Pad Start*
G54D12*
G01X20307300Y10845800D03*
G01X5430450Y12794050D03*
G01X5430450Y12286050D03*
G01X7440825Y12788006D03*
G01X7440825Y12280006D03*
G01X9460125Y12788006D03*
G01X9460125Y12280006D03*
G01X11504825Y12800706D03*
G01X11504825Y12292706D03*
G01X13549525Y12788006D03*
G01X13549525Y12280006D03*
G01X17613525Y12788006D03*
G01X17613525Y12280006D03*
G01X15581525Y12788006D03*
G01X15581525Y12280006D03*
G01X19620125Y12788006D03*
G01X19620125Y12280006D03*
G54D13*
G01X4000500Y2171700D03*
G01X4000500Y3187700D03*
G01X3492500Y2171700D03*
G01X3492500Y3187700D03*
G54D14*
G01X3517900Y8077200D03*
G01X3517900Y8585200D03*
G01X4025900Y8597900D03*
G01X4025900Y8077200D03*
G01X4724400Y8451850D03*
G01X5232400Y8464550D03*
G01X5232400Y7943850D03*
G01X4724400Y7943850D03*
G54D16*
G01X3414250Y9110668D03*
G01X3668249Y9110668D03*
G01X3922249Y9110668D03*
G01X4176248Y9110668D03*
G01X4430248Y9110668D03*
G01X4684247Y9110668D03*
G01X4938247Y9110668D03*
G01X5192246Y9110668D03*
G01X5446246Y9110668D03*
G01X5700245Y9110668D03*
G01X5954245Y9110668D03*
G01X6208244Y9110668D03*
G01X6462244Y9110668D03*
G01X6462244Y9364667D03*
G01X6208244Y9364667D03*
G01X5954245Y9364667D03*
G01X5700245Y9364667D03*
G01X5446246Y9364667D03*
G01X5192246Y9364667D03*
G01X4938247Y9364667D03*
G01X4684247Y9364667D03*
G01X4430248Y9364667D03*
G01X4176248Y9364667D03*
G01X3922249Y9364667D03*
G01X3668249Y9364667D03*
G01X3414250Y9364667D03*
G01X6716243Y9110668D03*
G01X6716243Y9364667D03*
G01X6970243Y9110668D03*
G01X6970243Y9364667D03*
G01X7224242Y9110668D03*
G01X7224242Y9364667D03*
G01X7478242Y9110668D03*
G01X7478242Y9364667D03*
G01X7732241Y9110668D03*
G01X7732241Y9364667D03*
G01X7986241Y9110668D03*
G01X7986241Y9364667D03*
G01X8240240Y9110668D03*
G01X8240240Y9364667D03*
G54D17*
G01X3683000Y9893300D03*
G54D18*
G01X3937000Y9893300D03*
G54D19*
G01X3796107Y13049126D03*
G01X4396055Y11629113D03*
G01X4996054Y11829113D03*
G01X3796057Y11829113D03*
G01X4996003Y13049126D03*
G01X5828107Y13049126D03*
G01X6428055Y11629113D03*
G01X7028054Y11829113D03*
G01X5828057Y11829113D03*
G01X7028003Y13049126D03*
G01X7860107Y13049126D03*
G01X8460055Y11629113D03*
G01X9060054Y11829113D03*
G01X7860057Y11829113D03*
G01X9060003Y13049126D03*
G01X9892107Y13049126D03*
G01X10492055Y11629113D03*
G01X11092054Y11829113D03*
G01X9892057Y11829113D03*
G01X11092003Y13049126D03*
G01X11924107Y13049126D03*
G01X12524055Y11629113D03*
G01X13124054Y11829113D03*
G01X11924057Y11829113D03*
G01X13124003Y13049126D03*
G01X13956107Y13049126D03*
G01X14556055Y11629113D03*
G01X15156054Y11829113D03*
G01X13956057Y11829113D03*
G01X15156003Y13049126D03*
G01X15988107Y13049126D03*
G01X16588055Y11629113D03*
G01X17188054Y11829113D03*
G01X15988057Y11829113D03*
G01X17188003Y13049126D03*
G01X18020107Y13049126D03*
G01X18620055Y11629113D03*
G01X19220054Y11829113D03*
G01X18020057Y11829113D03*
G01X19220003Y13049126D03*
G54D20*
G01X4902200Y13995400D03*
G01X4394200Y13995400D03*
G01X3886200Y13995400D03*
G01X6934200Y13995400D03*
G01X6426200Y13995400D03*
G01X5918200Y13995400D03*
G01X8966200Y13995400D03*
G01X8458200Y13995400D03*
G01X7950200Y13995400D03*
G01X10998200Y13995400D03*
G01X10490200Y13995400D03*
G01X9982200Y13995400D03*
G01X13030200Y13995400D03*
G01X12522200Y13995400D03*
G01X12014200Y13995400D03*
G01X15062200Y13995400D03*
G01X14554200Y13995400D03*
G01X14046200Y13995400D03*
G01X17094200Y13995400D03*
G01X16586200Y13995400D03*
G01X16078200Y13995400D03*
G01X19126200Y14008100D03*
G01X18618200Y14008100D03*
G01X18110200Y14008100D03*
G54D13*
G01X9728200Y1003300D03*
G01X9228328Y1003300D03*
G01X8712200Y1003300D03*
G01X8204200Y1003300D03*
G01X7696200Y1003300D03*
G01X7188200Y1003300D03*
G01X6680200Y1003300D03*
G01X6172200Y1003300D03*
G54D21*
G01X14808200Y1003300D03*
G01X14300200Y1003300D03*
G01X13792200Y1003300D03*
G01X13284200Y1003300D03*
G54D13*
G01X21996400Y9271000D03*
G01X21996400Y8771128D03*
G01X21996400Y8255000D03*
G01X21996400Y7747000D03*
G01X21996400Y7239000D03*
G01X21996400Y6731000D03*
G01X21996400Y6223000D03*
G01X21996400Y5715000D03*
G01X1003300Y5715000D03*
G01X1003300Y6214872D03*
G01X1003300Y6731000D03*
G01X1003300Y7239000D03*
G01X1003300Y7747000D03*
G01X1003300Y8255000D03*
G01X1003300Y8763000D03*
G01X1003300Y9271000D03*
G54D21*
G01X12268200Y1003300D03*
G01X11760200Y1003300D03*
G01X11252200Y1003300D03*
G01X10744200Y1003300D03*
G54D22*
G01X16560800Y2362200D03*
G54D23*
G01X16560800Y2616200D03*
G01X16306800Y2362200D03*
G01X16306800Y2616200D03*
G54D22*
G01X17830800Y2349500D03*
G54D23*
G01X17830800Y2603500D03*
G01X17576800Y2349500D03*
G01X17576800Y2603500D03*
G54D22*
G01X19050000Y2362200D03*
G54D23*
G01X19050000Y2616200D03*
G01X18796000Y2362200D03*
G01X18796000Y2616200D03*
G54D22*
G01X20281900Y2362200D03*
G54D23*
G01X20281900Y2616200D03*
G01X20027900Y2362200D03*
G01X20027900Y2616200D03*
G54D18*
G01X13119355Y9882655D03*
G01X13119355Y8053855D03*
G01X17157955Y8053855D03*
G01X17157955Y9882655D03*
G54D12*
G01X6172200Y2654300D03*
G01X6680200Y2654300D03*
G01X7188200Y2654300D03*
G01X7694634Y2654300D03*
G01X8201918Y2654300D03*
G01X8712200Y2654300D03*
G01X9225437Y2654300D03*
G01X9726753Y2654300D03*
G01X6172200Y2146300D03*
G01X6680200Y2146300D03*
G01X7190075Y2146300D03*
G01X7696200Y2146300D03*
G01X8202633Y2146300D03*
G01X8710580Y2146300D03*
G01X9229136Y2146300D03*
G01X9728200Y2146300D03*
G01X10744200Y2654300D03*
G01X10744200Y2146300D03*
G01X11252200Y2146300D03*
G01X11252200Y2654300D03*
G01X11760200Y2146300D03*
G01X11760200Y2654300D03*
G01X12268200Y2146300D03*
G01X12268200Y2654300D03*
G01X13284200Y2146300D03*
G01X13284200Y2654300D03*
G01X13792200Y2654300D03*
G01X13792200Y2146300D03*
G01X14300200Y2146300D03*
G01X14300200Y2654300D03*
G01X14808200Y2146300D03*
G01X14808200Y2654300D03*
G54D24*
G01X20396200Y5816600D03*
G01X2374900Y7048500D03*
G54D25*
G01X21539200Y482600D03*
G01X1320800Y571500D03*
G01X1244600Y14389100D03*
G04 Pad End*

G04 Via Start*
G54D26*
G01X5130800Y6477000D03*
G01X20701000Y10579100D03*
G01X20764500Y10452100D03*
G01X20828000Y10325100D03*
G01X20891500Y10198100D03*
G01X20955000Y10071100D03*
G01X21031200Y9944100D03*
G01X21094700Y9817100D03*
G01X21163675Y9691675D03*
G01X20487401Y10578008D03*
G01X20487401Y10454764D03*
G01X20487401Y10324686D03*
G01X20487401Y10196931D03*
G01X20485100Y10071100D03*
G01X20485100Y9946067D03*
G01X20485100Y9820635D03*
G01X20485100Y9690557D03*
G01X19741275Y7354875D03*
G01X19753975Y7676606D03*
G01X19354800Y10807700D03*
G01X4165600Y9893300D03*
G01X6883400Y6426200D03*
G01X6819900Y6007100D03*
G01X6985000Y5638800D03*
G01X6464300Y6007100D03*
G01X16843417Y5360189D03*
G01X17389517Y4991889D03*
G01X16380482Y4991889D03*
G01X16376060Y5369298D03*
G01X18935921Y5553395D03*
G01X4343400Y6616700D03*
G01X20114631Y7875975D03*
G54D27*
G01X19076392Y9232941D03*
G01X17967881Y9220220D03*
G54D26*
G01X19050000Y5270500D03*
G01X18821400Y5080000D03*
G01X18605500Y5422900D03*
G01X7086600Y5867400D03*
G01X10606828Y3183818D03*
G01X11652055Y3285407D03*
G01X12520119Y3319586D03*
G01X13356360Y3301959D03*
G01X10083800Y6972300D03*
G01X10503119Y6972272D03*
G54D28*
G01X10896911Y5571468D03*
G54D26*
G01X10756900Y4433809D03*
G01X10756900Y3594100D03*
G01X10769600Y4038600D03*
G01X11611841Y4432987D03*
G01X11624541Y3591191D03*
G54D28*
G01X11760200Y5562600D03*
G01X10617200Y5499100D03*
G01X11477858Y5495000D03*
G01X11760200Y5486400D03*
G01X10896600Y5486400D03*
G01X12335990Y5495000D03*
G01X12611100Y5562600D03*
G01X12611100Y5485001D03*
G54D26*
G01X12462979Y4432212D03*
G01X12484100Y3594100D03*
G01X12474768Y4033428D03*
G01X11607800Y4040346D03*
G01X13347700Y3594100D03*
G01X13333258Y4436321D03*
G01X13335000Y4035498D03*
G54D28*
G01X13487400Y5562600D03*
G01X13487400Y5478974D03*
G01X13195300Y5499100D03*
G54D26*
G01X12776200Y7340600D03*
G01X13036519Y7340600D03*
G01X12911808Y7340600D03*
G01X12649200Y6705600D03*
G01X12527526Y6705600D03*
G01X13161229Y7340600D03*
G01X11518900Y7353300D03*
G01X11765667Y7353300D03*
G01X12014200Y7327900D03*
G01X12276111Y7327900D03*
G01X11043787Y5687135D03*
G01X11899900Y5689600D03*
G01X12738100Y5689600D03*
G01X13613607Y5689600D03*
G54D29*
G01X10947400Y5880100D03*
G01X11820231Y5880100D03*
G01X12649200Y5905500D03*
G01X13498480Y5869195D03*
G54D26*
G01X16484600Y5486400D03*
G01X20007975Y7951094D03*
G01X19748500Y7556500D03*
G01X19821932Y7943474D03*
G01X16042875Y3352800D03*
G01X15859285Y3352800D03*
G01X15900400Y3962400D03*
G01X16048122Y3962400D03*
G01X16941800Y3860800D03*
G01X17077577Y3860800D03*
G01X16903700Y3263900D03*
G01X17099445Y3263900D03*
G01X18218891Y3225800D03*
G01X18407602Y3225800D03*
G01X18249900Y3822700D03*
G01X18384601Y3822700D03*
G01X19450304Y3263900D03*
G01X19639187Y3263900D03*
G01X19469100Y3848100D03*
G01X19606340Y3848100D03*
G01X18524500Y4965700D03*
G01X19354800Y4000500D03*
G01X18131052Y3973601D03*
G01X16826744Y4011701D03*
G01X15769562Y4100603D03*
G01X5461000Y3619500D03*
G01X5856981Y3619500D03*
G01X6227496Y3619500D03*
G01X6591301Y3615492D03*
G01X6980331Y3615492D03*
G01X7393117Y3615492D03*
G01X7768625Y3615492D03*
G01X8148680Y3615492D03*
G01X5321300Y4508500D03*
G01X5703766Y4508356D03*
G01X6108700Y4508500D03*
G01X6473656Y4508500D03*
G01X6853710Y4508500D03*
G01X7650071Y4508356D03*
G01X8026605Y4508356D03*
G01X5505347Y4724472D03*
G01X5900513Y4724328D03*
G01X6280047Y4724472D03*
G01X6657703Y4724472D03*
G01X7037758Y4724472D03*
G01X7450549Y4724328D03*
G01X7846818Y4724328D03*
G01X8223353Y4724328D03*
G01X7264400Y4508500D03*
G54D14*
G01X2311400Y5212292D03*
G54D26*
G01X18592800Y4914900D03*
G01X18689752Y4913385D03*
G01X18757900Y4964174D03*
G54D29*
G01X14274519Y8632747D03*
G54D26*
G01X11531600Y7086600D03*
G01X11582400Y7150100D03*
G01X11640038Y7207014D03*
G01X11671300Y6731000D03*
G01X11747500Y6769100D03*
G01X11811000Y6832600D03*
G01X11125200Y7404100D03*
G01X11125200Y6350000D03*
G01X11150600Y3505200D03*
G01X12014200Y3530600D03*
G01X12877800Y3556000D03*
G01X13728700Y3568700D03*
G01X11221197Y4669222D03*
G01X12077700Y4622800D03*
G01X12865100Y4660900D03*
G01X13716000Y4660900D03*
G01X9956800Y6642100D03*
G01X10083800Y6527800D03*
G01X10515600Y6527800D03*
G01X10350500Y6629400D03*
G04 Via End*

G04 Track Start*
G54D13*
G01X3886200Y13995400D02*
G01X3796107Y13905307D01*
G01X3796107Y13049126D01*
G01X4394200Y13995400D02*
G01X4394200Y11630969D01*
G01X4396055Y11629113D01*
G01X4902200Y13995400D02*
G01X4996003Y13901597D01*
G01X4996003Y13049126D01*
G01X5918200Y13995400D02*
G01X5828107Y13905307D01*
G01X5828107Y13049126D01*
G01X6426200Y13995400D02*
G01X6426200Y11630969D01*
G01X6428055Y11629113D01*
G01X6934200Y13995400D02*
G01X7028003Y13901597D01*
G01X7028003Y13049126D01*
G01X7950200Y13995400D02*
G01X7860107Y13905307D01*
G01X7860107Y13049126D01*
G01X8458200Y13995400D02*
G01X8458200Y11630969D01*
G01X8460055Y11629113D01*
G01X8966200Y13995400D02*
G01X9060003Y13901597D01*
G01X9060003Y13049126D01*
G01X9892107Y13049126D02*
G01X9892107Y13905307D01*
G01X9982200Y13995400D01*
G01X10490200Y13995400D02*
G01X10490200Y11630969D01*
G01X10492055Y11629113D01*
G01X11092003Y13049126D02*
G01X11092003Y13901597D01*
G01X10998200Y13995400D01*
G01X12014200Y13995400D02*
G01X11924107Y13905307D01*
G01X11924107Y13049126D01*
G01X12522200Y13995400D02*
G01X12522200Y11630969D01*
G01X12524055Y11629113D01*
G01X13030200Y13995400D02*
G01X13124003Y13901597D01*
G01X13124003Y13049126D01*
G01X14046200Y13995400D02*
G01X13956107Y13905307D01*
G01X13956107Y13049126D01*
G01X14554200Y13995400D02*
G01X14554200Y11630969D01*
G01X14556055Y11629113D01*
G01X15062200Y13995400D02*
G01X15156003Y13901597D01*
G01X15156003Y13049126D01*
G01X16078200Y13995400D02*
G01X15988107Y13905307D01*
G01X15988107Y13049126D01*
G01X16586200Y13995400D02*
G01X16586200Y11630969D01*
G01X16588055Y11629113D01*
G01X17094200Y13995400D02*
G01X17188003Y13901597D01*
G01X17188003Y13049126D01*
G01X18110200Y14008100D02*
G01X18020107Y13918007D01*
G01X18020107Y13049126D01*
G01X18618200Y14008100D02*
G01X18618200Y11630969D01*
G01X18620055Y11629113D01*
G01X19126200Y14008100D02*
G01X19220003Y13914297D01*
G01X19220003Y13049126D01*
G54D11*
G01X1358900Y2984500D02*
G01X1358900Y3644900D01*
G04 Track End*

M02*

