G04 Layer: DrillDrawingLayer*
G04 EasyEDA Pro v2.2.40.8, 2025-09-09 13:59:53*
G04 Gerber Generator version 0.3*
G04 Scale: 100 percent, Rotated: No, Reflected: No*
G04 Dimensions in millimeters*
G04 Leading zeros omitted, absolute positions, 4 integers and 5 decimals*
G04 Generated by one-click*
%FSLAX45Y45*%
%MOMM*%
%AMIconRect*4,1,4,0.2,-0.2,-0.2,-0.2,-0.2,0.2,0.2,0.2,0.2,-0.2,0*4,0,4,0.166667,-0.166667,0.166667,0.166667,-0.166667,0.166667,-0.166667,-0.166667,0.166667,-0.166667,0*%
%AMIconTriangle*4,1,3,-0.242567,0.171767,0.242567,0.171767,0,-0.2706,-0.242567,0.171767,0*4,0,3,-0.189767,0.1386,0,-0.1953,0.190167,0.1386,-0.189767,0.1386,0*%
%AMIconStar6*4,1,12,0.0862,0.1492,0.213233,0.123367,0.172367,0,0.213233,-0.1229,0.0862,-0.148733,0,-0.245767,-0.085767,-0.148733,-0.213267,-0.1229,-0.171933,0,-0.213267,0.1229,-0.085767,0.1492,0,0.245767,0.0862,0.1492,0*4,0,12,-0.000333,0.195333,-0.064333,0.122667,-0.169667,0.097667,-0.138333,-0.005333,-0.169667,-0.098,-0.064333,-0.122667,-0.000333,-0.195667,0.064333,-0.122667,0.169667,-0.098,0.138667,0.005,0.169667,0.098,0.064333,0.122333,-0.000333,0.195333,0*%
%AMIconStar4*4,1,8,-0.222667,0.222667,0,0.144667,0.222667,0.222667,0.144667,0,0.222667,-0.222667,0,-0.144667,-0.217433,-0.222667,-0.144667,0,-0.222667,0.222667,0*4,0,8,0.166667,-0.166667,0.108,0,0.166667,0.166667,0,0.108,-0.166667,0.166667,-0.108,0,-0.166667,-0.166667,0,-0.108,0.166667,-0.166667,0*%
%AMIconPlus*4,1,12,0.124,-0.2,-0.124,-0.2,-0.124,-0.124,-0.2,-0.124,-0.2,0.124,-0.124,0.124,-0.124,0.2,0.124,0.2,0.124,0.124,0.2,0.124,0.2,-0.124,0.124,-0.124,0.124,-0.2,0*4,0,12,0.090667,-0.166667,0.090667,-0.090667,0.166667,-0.090667,0.166667,0.090667,0.090667,0.090667,0.090667,0.166667,-0.090667,0.166667,-0.090667,0.090667,-0.166667,0.090667,-0.166667,-0.090667,-0.090667,-0.090667,-0.090667,-0.166667,0.090667,-0.166667,0*%
%AMIconX*4,1,16,0.2,-0.2,0.054533,-0.2,0,-0.145467,-0.054533,-0.2,-0.2,-0.2,-0.2,-0.054533,-0.145467,0,-0.2,0.054533,-0.2,0.2,-0.054533,0.2,0,0.145467,0.054533,0.2,0.2,0.2,0.2,0.054533,0.145467,0,0.2,-0.054533,0.2,-0.2,0*4,0,16,0.1668,-0.1664,0.1668,-0.068467,0.097933,0.000067,0.1668,0.068467,0.1668,0.1665,0.068467,0.1665,0,0.097933,-0.068467,0.1665,-0.1668,0.1665,-0.1668,0.068467,-0.097933,0.000067,-0.1668,-0.068467,-0.1668,-0.1664,-0.068467,-0.1664,0,-0.097933,0.068467,-0.1664,0.1668,-0.1664,0*%
%AMIconDiamond*4,1,4,0,-0.26,-0.26,0,0,0.26,0.26,0,0,-0.26,0*4,0,4,0,-0.203433,0.203433,0,0,0.2036,-0.203433,0,0,-0.203433,0*%
%AMIconRect2*4,1,6,0.2,-0.2,-0.2,-0.2,-0.2,0.2,-0.1668,0.1665,-0.166667,-0.166667,0.1668,-0.166667,0.2,-0.2,0*4,1,6,0.2,-0.2,0.1668,-0.166667,0.1668,0.1665,-0.1668,0.1665,-0.2,0.2,0.2,0.2,0.2,-0.2,0*4,1,6,0.133467,-0.133333,-0.133333,-0.133333,-0.133333,0.133467,-0.1,0.100133,-0.1,-0.1,0.100133,-0.1,0.133467,-0.133333,0*4,1,6,0.133467,-0.133333,0.100133,-0.1,0.100133,0.100133,-0.1,0.100133,-0.133333,0.133467,0.133467,0.133467,0.133467,-0.133333,0*%
%AMCharA*4,1,8,-0.122067,-0.1864,-0.1532,-0.174533,-0.015133,0.1864,0.016,0.1864,0.1532,-0.174533,0.122067,-0.1864,0.0764,-0.0662,-0.076133,-0.0662,-0.122067,-0.1864,0*4,0,3,-0.063333,-0.032867,0.063667,-0.032867,0.000333,0.1338,-0.063333,-0.032867,0*%
%AMCharB*4,1,17,-0.131133,-0.1894,-0.131133,0.1894,0.033533,0.1894,0.088067,0.172467,0.1114,0.151733,0.131133,0.114133,0.131,0.066467,0.114333,0.0338,0.094733,0.0128,0.086467,0.0084,0.094733,0.003867,0.114333,-0.017133,0.131,-0.0498,0.131133,-0.114133,0.1114,-0.151733,0.088067,-0.1726,0.033533,-0.1894,-0.131133,-0.1894,0*4,0,10,-0.0978,-0.156067,0.030867,-0.156067,0.073867,-0.142,0.085867,-0.130133,0.099533,-0.1028,0.099533,-0.0614,0.085867,-0.034533,0.073867,-0.0226,0.030867,-0.008667,-0.0978,-0.008667,-0.0978,-0.156067,0*4,0,10,-0.0978,0.024667,0.0308,0.024667,0.073867,0.039267,0.085867,0.051267,0.099533,0.078067,0.099533,0.102667,0.085867,0.130133,0.073867,0.142,0.030867,0.156067,-0.0978,0.156067,-0.0978,0.024667,0*%
%AMCharC*4,1,36,-0.027533,-0.1894,-0.071933,-0.1684,-0.1084,-0.130667,-0.125333,-0.096,-0.1428,-0.041333,-0.1428,0.041333,-0.1244,0.098,-0.105267,0.135067,-0.067533,0.171667,-0.027533,0.1894,0.038533,0.1894,0.083067,0.1684,0.119467,0.130667,0.1428,0.083,0.112867,0.0684,0.090867,0.113467,0.0614,0.142933,0.034733,0.156067,-0.0236,0.156067,-0.050333,0.142933,-0.079733,0.113467,-0.094067,0.084333,-0.109467,0.0386,-0.109467,-0.0386,-0.094067,-0.084333,-0.079733,-0.113467,-0.050333,-0.142867,-0.0236,-0.156067,0.034733,-0.156067,0.0614,-0.142867,0.090867,-0.113467,0.112867,-0.0684,0.1428,-0.083,0.119467,-0.130667,0.083067,-0.1684,0.038533,-0.1894,-0.027533,-0.1894,0*%
%AMCharD*4,1,12,-0.132,-0.1894,-0.132,0.1894,-0.000067,0.1894,0.054533,0.172467,0.0968,0.130933,0.1144,0.096067,0.132,0.041333,0.132,-0.041333,0.113467,-0.098267,0.093933,-0.134933,0.054533,-0.1726,-0.000067,-0.1894,-0.132,-0.1894,0*4,0,12,-0.098667,-0.156067,-0.002667,-0.156067,0.040333,-0.142133,0.068333,-0.113467,0.083267,-0.0842,0.098667,-0.0386,0.098667,0.0386,0.083267,0.0842,0.068333,0.113467,0.040333,0.142133,-0.002667,0.156067,-0.098667,0.156067,-0.098667,-0.156067,0*%
%AMCharE*4,1,12,-0.123667,-0.1894,-0.123667,0.1894,0.123667,0.1894,0.123667,0.156067,-0.090333,0.156067,-0.090333,0.024667,0.0416,0.024667,0.0416,-0.008667,-0.090333,-0.008667,-0.090333,-0.156067,0.123667,-0.156067,0.123667,-0.1894,-0.123667,-0.1894,0*%
%AMCharF*4,1,11,-0.123667,-0.1894,-0.123667,0.1894,-0.090333,0.1894,0.123667,0.1894,0.123667,0.156067,-0.090333,0.156067,-0.090333,0.024667,0.0416,0.024667,0.0416,-0.008667,-0.090333,-0.008667,-0.090333,-0.1894,-0.123667,-0.1894,0*%
%AMCharG*4,1,40,-0.027933,-0.1894,-0.072333,-0.1684,-0.1088,-0.130667,-0.125733,-0.096,-0.1424,-0.046667,-0.1424,0.046667,-0.1248,0.098,-0.105667,0.135067,-0.067933,0.171667,-0.027933,0.1894,0.038133,0.1894,0.082667,0.1684,0.119067,0.130667,0.1424,0.083,0.112467,0.0684,0.090467,0.113467,0.061,0.142933,0.034333,0.156067,-0.024,0.156067,-0.050733,0.142933,-0.080133,0.113467,-0.094467,0.084333,-0.1098,0.0386,-0.1098,-0.0386,-0.094467,-0.084333,-0.080133,-0.113467,-0.050733,-0.142867,-0.024,-0.156067,0.034333,-0.156067,0.061,-0.142867,0.090467,-0.113467,0.103467,-0.0868,0.103467,-0.058,0.021467,-0.058,0.021467,-0.024667,0.1368,-0.024667,0.1368,-0.090667,0.116,-0.135067,0.078067,-0.171667,0.038133,-0.1894,-0.027933,-0.1894,0*%
%AMCharH*4,1,12,-0.132,-0.1894,-0.132,0.1894,-0.098667,0.1894,-0.098667,0.024667,0.098667,0.024667,0.098667,0.1894,0.132,0.1894,0.132,-0.1894,0.098667,-0.1894,0.098667,-0.008667,-0.098667,-0.008667,-0.098667,-0.1894,-0.132,-0.1894,0*%
%AMCharI*4,1,4,-0.02,-0.1894,-0.02,0.1894,0.02,0.1894,0.02,-0.1894,-0.02,-0.1894,0*%
%AMCharJ*4,1,20,-0.0164,-0.1894,-0.056933,-0.171667,-0.077733,-0.151467,-0.099,-0.090667,-0.099,-0.040667,-0.065667,-0.040667,-0.065667,-0.087933,-0.051067,-0.1312,-0.039733,-0.142867,-0.012467,-0.156067,0.012533,-0.156067,0.039733,-0.142867,0.051067,-0.1312,0.065667,-0.087933,0.065667,0.1894,0.099,0.1894,0.099,-0.090667,0.077733,-0.151467,0.056933,-0.171667,0.016267,-0.1894,-0.0164,-0.1894,0*%
%AMCharK*4,1,12,0.1086,-0.196133,-0.038533,-0.001,-0.102067,-0.0644,-0.102067,-0.189533,-0.1354,-0.189533,-0.1354,0.189267,-0.102067,0.189267,-0.102067,-0.017267,0.111867,0.196133,0.1354,0.172467,-0.0146,0.022867,0.135133,-0.176133,0.1086,-0.196133,0*%
%ADD10IconRect*%
%ADD11C,0.44X0.373333*%
%ADD12IconTriangle*%
%ADD13IconStar6*%
%ADD14IconStar4*%
%ADD15IconPlus*%
%ADD16IconX*%
%ADD17IconDiamond*%
%ADD18IconRect2*%
%ADD19CharA*%
%ADD20CharB*%
%ADD21CharC*%
%ADD22CharD*%
%ADD23CharE*%
%ADD24CharF*%
%ADD25CharG*%
%ADD26CharH*%
%ADD27CharI*%
%ADD28CharJ*%
%ADD29CharK*%
G75*


G04 Drill Drawing Start*
G54D10*
G01X609600Y609600D03*
G54D11*
G01X17967881Y9220220D03*
G01X19076392Y9232941D03*
G54D12*
G01X2311400Y5212292D03*
G01X11043787Y5687135D03*
G54D13*
G01X3683000Y9893300D03*
G01X3937000Y9893300D03*
G54D14*
G01X2374900Y7048500D03*
G01X20396200Y5816600D03*
G54D15*
G01X1244600Y14389100D03*
G01X1320800Y571500D03*
G01X21539200Y482600D03*
G54D16*
G01X609600Y14389100D03*
G01X22390100Y609600D03*
G01X22390100Y14389100D03*
G54D17*
G01X10896600Y5486400D03*
G01X11760200Y5486400D03*
G01X12611100Y5485001D03*
G01X13487400Y5478974D03*
G54D18*
G01X13119355Y8053855D03*
G01X13119355Y9882655D03*
G01X17157955Y8053855D03*
G01X17157955Y9882655D03*
G54D19*
G01X2927251Y4338017D03*
G01X2927251Y9238007D03*
G01X8727239Y4338017D03*
G01X8727239Y9238007D03*
G54D20*
G01X10947400Y5880100D03*
G01X11820231Y5880100D03*
G01X12649200Y5905500D03*
G01X13498480Y5869195D03*
G01X14274519Y8632747D03*
G54D21*
G01X10744197Y1003290D03*
G01X11252197Y1003290D03*
G01X11760200Y1003290D03*
G01X12268200Y1003290D03*
G01X13284197Y1003290D03*
G01X13792197Y1003290D03*
G01X14300200Y1003290D03*
G01X14808200Y1003290D03*
G54D22*
G01X3414250Y9110668D03*
G01X3517900Y8077200D03*
G01X3517900Y8585200D03*
G01X4025900Y8077200D03*
G01X4025900Y8597900D03*
G01X4724400Y7943850D03*
G01X4724400Y8451850D03*
G01X5232400Y7943850D03*
G01X5232400Y8464550D03*
G54D23*
G01X16306800Y2362200D03*
G01X16306800Y2616200D03*
G01X16560800Y2362200D03*
G01X16560800Y2616200D03*
G01X17576800Y2349500D03*
G01X17576800Y2603500D03*
G01X17830800Y2349500D03*
G01X17830800Y2603500D03*
G01X18796000Y2362200D03*
G01X18796000Y2616200D03*
G01X19050000Y2362200D03*
G01X19050000Y2616200D03*
G01X20027900Y2362200D03*
G01X20027900Y2616200D03*
G01X20281900Y2362200D03*
G01X20281900Y2616200D03*
G54D24*
G01X3886200Y13995400D03*
G01X4394200Y13995400D03*
G01X4902200Y13995400D03*
G01X5918200Y13995400D03*
G01X6426200Y13995400D03*
G01X6934200Y13995400D03*
G01X7950200Y13995400D03*
G01X8458200Y13995400D03*
G01X8966200Y13995400D03*
G01X9982200Y13995400D03*
G01X10490200Y13995400D03*
G01X10998200Y13995400D03*
G01X12014200Y13995400D03*
G01X12522200Y13995400D03*
G01X13030200Y13995400D03*
G01X14046200Y13995400D03*
G01X14554200Y13995400D03*
G01X15062200Y13995400D03*
G01X16078200Y13995400D03*
G01X16586200Y13995400D03*
G01X17094200Y13995400D03*
G01X18110200Y14008100D03*
G01X18618200Y14008100D03*
G01X19126200Y14008100D03*
G54D25*
G01X1003300Y5715000D03*
G01X1003300Y7747000D03*
G01X1003300Y8255000D03*
G01X1003300Y8763000D03*
G01X1003300Y6214872D03*
G01X1003300Y6731000D03*
G01X1003300Y7239000D03*
G01X1003300Y9271000D03*
G01X3492500Y2171700D03*
G01X3492500Y3187700D03*
G01X4000500Y2171700D03*
G01X4000500Y3187700D03*
G01X6172200Y1003300D03*
G01X6680200Y1003300D03*
G01X7188200Y1003300D03*
G01X7696200Y1003300D03*
G01X8204200Y1003300D03*
G01X8712200Y1003300D03*
G01X9228328Y1003300D03*
G01X9728200Y1003300D03*
G01X21996400Y5715000D03*
G01X21996400Y6223000D03*
G01X21996400Y6731000D03*
G01X21996400Y7239000D03*
G01X21996400Y7747000D03*
G01X21996400Y8255000D03*
G01X21996400Y8771128D03*
G01X21996400Y9271000D03*
G54D26*
G01X3414250Y9364667D03*
G01X3668249Y9110668D03*
G01X3668249Y9364667D03*
G01X3922249Y9110668D03*
G01X3922249Y9364667D03*
G01X4176248Y9110668D03*
G01X4176248Y9364667D03*
G01X4430248Y9110668D03*
G01X4430248Y9364667D03*
G01X4684247Y9110668D03*
G01X4684247Y9364667D03*
G01X4938247Y9110668D03*
G01X4938247Y9364667D03*
G01X5192246Y9110668D03*
G01X5192246Y9364667D03*
G01X5446246Y9110668D03*
G01X5446246Y9364667D03*
G01X5700245Y9110668D03*
G01X5700245Y9364667D03*
G01X5954245Y9110668D03*
G01X5954245Y9364667D03*
G01X6208244Y9110668D03*
G01X6208244Y9364667D03*
G01X6462244Y9110668D03*
G01X6462244Y9364667D03*
G01X6716243Y9110668D03*
G01X6716243Y9364667D03*
G01X6970243Y9110668D03*
G01X6970243Y9364667D03*
G01X7224242Y9110668D03*
G01X7224242Y9364667D03*
G01X7478242Y9110668D03*
G01X7478242Y9364667D03*
G01X7732241Y9110668D03*
G01X7732241Y9364667D03*
G01X7986241Y9110668D03*
G01X7986241Y9364667D03*
G01X8240240Y9110668D03*
G01X8240240Y9364667D03*
G54D27*
G01X3796057Y11829120D03*
G01X3796107Y13049113D03*
G01X4396055Y11629118D03*
G01X4996003Y13049120D03*
G01X4996054Y11829120D03*
G01X5828057Y11829120D03*
G01X5828107Y13049113D03*
G01X6428055Y11629118D03*
G01X7028003Y13049120D03*
G01X7028054Y11829120D03*
G01X7860057Y11829120D03*
G01X7860107Y13049113D03*
G01X8460055Y11629118D03*
G01X9060003Y13049120D03*
G01X9060054Y11829120D03*
G01X9892057Y11829120D03*
G01X9892107Y13049113D03*
G01X10492055Y11629118D03*
G01X11092003Y13049120D03*
G01X11092054Y11829120D03*
G01X11924057Y11829120D03*
G01X11924107Y13049113D03*
G01X12524055Y11629118D03*
G01X13124003Y13049120D03*
G01X13124054Y11829120D03*
G01X13956057Y11829120D03*
G01X13956107Y13049113D03*
G01X14556055Y11629118D03*
G01X15156003Y13049120D03*
G01X15156054Y11829120D03*
G01X15988057Y11829120D03*
G01X15988107Y13049113D03*
G01X16588055Y11629118D03*
G01X17188003Y13049120D03*
G01X17188054Y11829120D03*
G01X18020057Y11829120D03*
G01X18020107Y13049113D03*
G01X18620055Y11629118D03*
G01X19220003Y13049120D03*
G01X19220054Y11829120D03*
G54D28*
G01X5430450Y12286050D03*
G01X5430450Y12794050D03*
G01X6172200Y2146300D03*
G01X6172200Y2654300D03*
G01X6680200Y2146300D03*
G01X6680200Y2654300D03*
G01X7188200Y2654300D03*
G01X7190075Y2146300D03*
G01X7440825Y12280006D03*
G01X7440825Y12788006D03*
G01X7694634Y2654300D03*
G01X7696200Y2146300D03*
G01X8201917Y2654300D03*
G01X8202633Y2146300D03*
G01X8710580Y2146300D03*
G01X8712200Y2654300D03*
G01X9225437Y2654300D03*
G01X9229136Y2146300D03*
G01X9460125Y12280006D03*
G01X9460125Y12788006D03*
G01X9726753Y2654300D03*
G01X9728200Y2146300D03*
G01X10744200Y2146300D03*
G01X10744200Y2654300D03*
G01X11252200Y2146300D03*
G01X11252200Y2654300D03*
G01X11504825Y12292706D03*
G01X11504825Y12800706D03*
G01X11760200Y2146300D03*
G01X11760200Y2654300D03*
G01X12268200Y2146300D03*
G01X12268200Y2654300D03*
G01X13284200Y2146300D03*
G01X13284200Y2654300D03*
G01X13549525Y12280006D03*
G01X13549525Y12788006D03*
G01X13792200Y2146300D03*
G01X13792200Y2654300D03*
G01X14300200Y2146300D03*
G01X14300200Y2654300D03*
G01X14808200Y2146300D03*
G01X14808200Y2654300D03*
G01X15581525Y12280006D03*
G01X15581525Y12788006D03*
G01X17613525Y12280006D03*
G01X17613525Y12788006D03*
G01X19620125Y12280006D03*
G01X19620125Y12788006D03*
G01X20307300Y10845800D03*
G54D29*
G01X4165600Y9893300D03*
G01X4343400Y6616700D03*
G01X5130800Y6477000D03*
G01X5321300Y4508500D03*
G01X5461000Y3619500D03*
G01X5505347Y4724472D03*
G01X5703766Y4508356D03*
G01X5856981Y3619500D03*
G01X5900513Y4724328D03*
G01X6108700Y4508500D03*
G01X6227496Y3619500D03*
G01X6280047Y4724472D03*
G01X6464300Y6007100D03*
G01X6473656Y4508500D03*
G01X6591301Y3615492D03*
G01X6657703Y4724472D03*
G01X6819900Y6007100D03*
G01X6853710Y4508500D03*
G01X6883400Y6426200D03*
G01X6980331Y3615492D03*
G01X6985000Y5638800D03*
G01X7037758Y4724472D03*
G01X7086600Y5867400D03*
G01X7264400Y4508500D03*
G01X7393117Y3615492D03*
G01X7450549Y4724328D03*
G01X7650071Y4508356D03*
G01X7768625Y3615492D03*
G01X7846818Y4724328D03*
G01X8026605Y4508356D03*
G01X8148680Y3615492D03*
G01X8223353Y4724328D03*
G01X9956800Y6642100D03*
G01X10083800Y6527800D03*
G01X10083800Y6972300D03*
G01X10350500Y6629400D03*
G01X10503119Y6972272D03*
G01X10515600Y6527800D03*
G01X10606828Y3183818D03*
G01X10617200Y5499100D03*
G01X10756900Y3594100D03*
G01X10756900Y4433809D03*
G01X10769600Y4038600D03*
G01X10896911Y5571468D03*
G01X11125200Y6350000D03*
G01X11125200Y7404100D03*
G01X11150600Y3505200D03*
G01X11221197Y4669222D03*
G01X11477858Y5495000D03*
G01X11518900Y7353300D03*
G01X11531600Y7086600D03*
G01X11582400Y7150100D03*
G01X11607800Y4040346D03*
G01X11611841Y4432987D03*
G01X11624541Y3591191D03*
G01X11640038Y7207014D03*
G01X11652055Y3285407D03*
G01X11671300Y6731000D03*
G01X11747500Y6769100D03*
G01X11760200Y5562600D03*
G01X11765667Y7353300D03*
G01X11811000Y6832600D03*
G01X11899900Y5689600D03*
G01X12014200Y3530600D03*
G01X12014200Y7327900D03*
G01X12077700Y4622800D03*
G01X12276111Y7327900D03*
G01X12335990Y5495000D03*
G01X12462979Y4432212D03*
G01X12474768Y4033428D03*
G01X12484100Y3594100D03*
G01X12520119Y3319586D03*
G01X12527526Y6705600D03*
G01X12611100Y5562600D03*
G01X12649200Y6705600D03*
G01X12738100Y5689600D03*
G01X12776200Y7340600D03*
G01X12865100Y4660900D03*
G01X12877800Y3556000D03*
G01X12911808Y7340600D03*
G01X13036519Y7340600D03*
G01X13161229Y7340600D03*
G01X13195300Y5499100D03*
G01X13333258Y4436321D03*
G01X13335000Y4035498D03*
G01X13347700Y3594100D03*
G01X13356360Y3301959D03*
G01X13487400Y5562600D03*
G01X13613607Y5689600D03*
G01X13716000Y4660900D03*
G01X13728700Y3568700D03*
G01X15769562Y4100603D03*
G01X15859285Y3352800D03*
G01X15900400Y3962400D03*
G01X16042875Y3352800D03*
G01X16048122Y3962400D03*
G01X16376060Y5369298D03*
G01X16380482Y4991889D03*
G01X16484600Y5486400D03*
G01X16826744Y4011701D03*
G01X16843417Y5360189D03*
G01X16903700Y3263900D03*
G01X16941800Y3860800D03*
G01X17077577Y3860800D03*
G01X17099445Y3263900D03*
G01X17389517Y4991889D03*
G01X18131052Y3973601D03*
G01X18218891Y3225800D03*
G01X18249900Y3822700D03*
G01X18384601Y3822700D03*
G01X18407602Y3225800D03*
G01X18524500Y4965700D03*
G01X18592800Y4914900D03*
G01X18605500Y5422900D03*
G01X18689752Y4913385D03*
G01X18757900Y4964174D03*
G01X18821400Y5080000D03*
G01X18935921Y5553395D03*
G01X19050000Y5270500D03*
G01X19354800Y4000500D03*
G01X19354800Y10807700D03*
G01X19450304Y3263900D03*
G01X19469100Y3848100D03*
G01X19606340Y3848100D03*
G01X19639187Y3263900D03*
G01X19741275Y7354875D03*
G01X19748500Y7556500D03*
G01X19753975Y7676606D03*
G01X19821932Y7943474D03*
G01X20007975Y7951094D03*
G01X20114631Y7875975D03*
G01X20485100Y9690557D03*
G01X20485100Y9820635D03*
G01X20485100Y9946067D03*
G01X20485100Y10071100D03*
G01X20487401Y10196931D03*
G01X20487401Y10324686D03*
G01X20487401Y10454764D03*
G01X20487401Y10578008D03*
G01X20701000Y10579100D03*
G01X20764500Y10452100D03*
G01X20828000Y10325100D03*
G01X20891500Y10198100D03*
G01X20955000Y10071100D03*
G01X21031200Y9944100D03*
G01X21094700Y9817100D03*
G01X21163675Y9691675D03*
G04 Drill Drawing End*

M02*

