G04 Layer: TopPasteMaskLayer*
G04 EasyEDA Pro v2.2.40.8, 2025-09-09 13:59:53*
G04 Gerber Generator version 0.3*
G04 Scale: 100 percent, Rotated: No, Reflected: No*
G04 Dimensions in millimeters*
G04 Leading zeros omitted, absolute positions, 4 integers and 5 decimals*
G04 Generated by one-click*
%FSLAX45Y45*%
%MOMM*%
%ADD10R,0.8X0.9*%
%ADD11R,1.07X0.6*%
%ADD12R,3.49999X1.2*%
%ADD13R,0.8X0.8*%
%ADD14O,2.08201X0.36401*%
%ADD15O,2.1X0.55999*%
%ADD16R,0.9X0.8*%
%ADD17R,0.7X1.25001*%
%ADD18O,0.3616X2.08201*%
%ADD19O,0.36401X2.08201*%
%ADD20O,0.4064X1.8034*%
%ADD21R,0.295X1.5*%
%ADD22O,1.62001X0.28001*%
%ADD23O,1.73149X0.343*%
%ADD24O,0.6X2.3*%
%ADD25R,0.64X0.7*%
%ADD26R,0.6X1.1*%
%ADD27R,0.6X0.41999*%
%ADD28R,0.95001X1.2*%
%ADD29O,0.5684X1.95021*%
%ADD30R,0.6X1.07*%
%ADD31C,1.152*%
G75*


G04 PolygonModel Start*
G36*
G01X2835300Y6503827D02*
G01X2835300Y6631825D01*
G01X2840302Y6636826D01*
G01X2955303Y6636826D01*
G01X2960301Y6631825D01*
G01X2960804Y6590822D01*
G01X2915803Y6590822D01*
G01X2915803Y6545823D01*
G01X2959804Y6545823D01*
G01X2960301Y6503827D01*
G01X2955303Y6498825D01*
G01X2840302Y6498825D01*
G01X2835300Y6503827D01*
G37*
G36*
G01X3176295Y6631827D02*
G01X3176295Y6503829D01*
G01X3171294Y6498828D01*
G01X3056293Y6498828D01*
G01X3051294Y6503829D01*
G01X3050791Y6544832D01*
G01X3095793Y6544832D01*
G01X3095793Y6589831D01*
G01X3051792Y6589831D01*
G01X3051294Y6631827D01*
G01X3056293Y6636829D01*
G01X3171294Y6636829D01*
G01X3176295Y6631827D01*
G37*
G36*
G01X2835300Y6268462D02*
G01X2835300Y6396461D01*
G01X2840302Y6401462D01*
G01X2955303Y6401462D01*
G01X2960301Y6396461D01*
G01X2960804Y6355457D01*
G01X2915803Y6355457D01*
G01X2915803Y6310459D01*
G01X2959804Y6310459D01*
G01X2960301Y6268462D01*
G01X2955303Y6263461D01*
G01X2840302Y6263461D01*
G01X2835300Y6268462D01*
G37*
G36*
G01X3176295Y6396463D02*
G01X3176295Y6268465D01*
G01X3171294Y6263464D01*
G01X3056293Y6263464D01*
G01X3051294Y6268465D01*
G01X3050791Y6309468D01*
G01X3095793Y6309468D01*
G01X3095793Y6354467D01*
G01X3051792Y6354467D01*
G01X3051294Y6396463D01*
G01X3056293Y6401464D01*
G01X3171294Y6401464D01*
G01X3176295Y6396463D01*
G37*
G36*
G01X2835300Y6033098D02*
G01X2835300Y6161096D01*
G01X2840302Y6166098D01*
G01X2955303Y6166098D01*
G01X2960301Y6161096D01*
G01X2960804Y6120093D01*
G01X2915803Y6120093D01*
G01X2915803Y6075095D01*
G01X2959804Y6075095D01*
G01X2960301Y6033098D01*
G01X2955303Y6028097D01*
G01X2840302Y6028097D01*
G01X2835300Y6033098D01*
G37*
G36*
G01X3176295Y6161099D02*
G01X3176295Y6033101D01*
G01X3171294Y6028099D01*
G01X3056293Y6028099D01*
G01X3051294Y6033101D01*
G01X3050791Y6074104D01*
G01X3095793Y6074104D01*
G01X3095793Y6119103D01*
G01X3051792Y6119103D01*
G01X3051294Y6161099D01*
G01X3056293Y6166100D01*
G01X3171294Y6166100D01*
G01X3176295Y6161099D01*
G37*
G36*
G01X2835300Y5797734D02*
G01X2835300Y5925732D01*
G01X2840302Y5930733D01*
G01X2955303Y5930733D01*
G01X2960301Y5925732D01*
G01X2960804Y5884729D01*
G01X2915803Y5884729D01*
G01X2915803Y5839730D01*
G01X2959804Y5839730D01*
G01X2960301Y5797734D01*
G01X2955303Y5792733D01*
G01X2840302Y5792733D01*
G01X2835300Y5797734D01*
G37*
G36*
G01X3176295Y5925735D02*
G01X3176295Y5797736D01*
G01X3171294Y5792735D01*
G01X3056293Y5792735D01*
G01X3051294Y5797736D01*
G01X3050791Y5838740D01*
G01X3095793Y5838740D01*
G01X3095793Y5883738D01*
G01X3051792Y5883738D01*
G01X3051294Y5925735D01*
G01X3056293Y5930736D01*
G01X3171294Y5930736D01*
G01X3176295Y5925735D01*
G37*
G36*
G01X20136998Y11148479D02*
G01X20216998Y11148479D01*
G01X20221999Y11153480D01*
G01X20221999Y11176277D01*
G01X20184999Y11176277D01*
G01X20184999Y11209277D01*
G01X20221999Y11209277D01*
G01X20221999Y11233480D01*
G01X20216998Y11238479D01*
G01X20136998Y11238479D01*
G01X20131999Y11233480D01*
G01X20131999Y11153480D01*
G01X20136998Y11148479D01*
G37*
G36*
G01X20376002Y11238476D02*
G01X20296002Y11238476D01*
G01X20291001Y11233475D01*
G01X20291001Y11210679D01*
G01X20328001Y11210679D01*
G01X20328001Y11177679D01*
G01X20291001Y11177679D01*
G01X20291001Y11153475D01*
G01X20296002Y11148477D01*
G01X20376002Y11148477D01*
G01X20381001Y11153475D01*
G01X20381001Y11233475D01*
G01X20376002Y11238476D01*
G37*
G36*
G01X20136998Y11333852D02*
G01X20216998Y11333852D01*
G01X20221999Y11338853D01*
G01X20221999Y11361650D01*
G01X20184999Y11361650D01*
G01X20184999Y11394649D01*
G01X20221999Y11394649D01*
G01X20221999Y11418853D01*
G01X20216998Y11423852D01*
G01X20136998Y11423852D01*
G01X20131999Y11418853D01*
G01X20131999Y11338853D01*
G01X20136998Y11333852D01*
G37*
G36*
G01X20376002Y11423849D02*
G01X20296002Y11423849D01*
G01X20291001Y11418848D01*
G01X20291001Y11396051D01*
G01X20328001Y11396051D01*
G01X20328001Y11363052D01*
G01X20291001Y11363052D01*
G01X20291001Y11338848D01*
G01X20296002Y11333849D01*
G01X20376002Y11333849D01*
G01X20381001Y11338848D01*
G01X20381001Y11418848D01*
G01X20376002Y11423849D01*
G37*
G36*
G01X20136998Y11519224D02*
G01X20216998Y11519224D01*
G01X20221999Y11524226D01*
G01X20221999Y11547022D01*
G01X20184999Y11547022D01*
G01X20184999Y11580022D01*
G01X20221999Y11580022D01*
G01X20221999Y11604225D01*
G01X20216998Y11609224D01*
G01X20136998Y11609224D01*
G01X20131999Y11604225D01*
G01X20131999Y11524226D01*
G01X20136998Y11519224D01*
G37*
G36*
G01X20376002Y11609222D02*
G01X20296002Y11609222D01*
G01X20291001Y11604220D01*
G01X20291001Y11581424D01*
G01X20328001Y11581424D01*
G01X20328001Y11548424D01*
G01X20291001Y11548424D01*
G01X20291001Y11524221D01*
G01X20296002Y11519222D01*
G01X20376002Y11519222D01*
G01X20381001Y11524221D01*
G01X20381001Y11604220D01*
G01X20376002Y11609222D01*
G37*
G36*
G01X20136998Y11704597D02*
G01X20216998Y11704597D01*
G01X20221999Y11709598D01*
G01X20221999Y11732395D01*
G01X20184999Y11732395D01*
G01X20184999Y11765395D01*
G01X20221999Y11765395D01*
G01X20221999Y11789598D01*
G01X20216998Y11794597D01*
G01X20136998Y11794597D01*
G01X20131999Y11789598D01*
G01X20131999Y11709598D01*
G01X20136998Y11704597D01*
G37*
G36*
G01X20376002Y11794594D02*
G01X20296002Y11794594D01*
G01X20291001Y11789593D01*
G01X20291001Y11766797D01*
G01X20328001Y11766797D01*
G01X20328001Y11733797D01*
G01X20291001Y11733797D01*
G01X20291001Y11709593D01*
G01X20296002Y11704595D01*
G01X20376002Y11704595D01*
G01X20381001Y11709593D01*
G01X20381001Y11789593D01*
G01X20376002Y11794594D01*
G37*
G36*
G01X20136998Y11889970D02*
G01X20216998Y11889970D01*
G01X20221999Y11894971D01*
G01X20221999Y11917767D01*
G01X20184999Y11917767D01*
G01X20184999Y11950767D01*
G01X20221999Y11950767D01*
G01X20221999Y11974971D01*
G01X20216998Y11979969D01*
G01X20136998Y11979969D01*
G01X20131999Y11974971D01*
G01X20131999Y11894971D01*
G01X20136998Y11889970D01*
G37*
G36*
G01X20376002Y11979967D02*
G01X20296002Y11979967D01*
G01X20291001Y11974966D01*
G01X20291001Y11952169D01*
G01X20328001Y11952169D01*
G01X20328001Y11919169D01*
G01X20291001Y11919169D01*
G01X20291001Y11894966D01*
G01X20296002Y11889967D01*
G01X20376002Y11889967D01*
G01X20381001Y11894966D01*
G01X20381001Y11974966D01*
G01X20376002Y11979967D01*
G37*
G36*
G01X20136998Y12075342D02*
G01X20216998Y12075342D01*
G01X20221999Y12080344D01*
G01X20221999Y12103140D01*
G01X20184999Y12103140D01*
G01X20184999Y12136140D01*
G01X20221999Y12136140D01*
G01X20221999Y12160343D01*
G01X20216998Y12165342D01*
G01X20136998Y12165342D01*
G01X20131999Y12160343D01*
G01X20131999Y12080344D01*
G01X20136998Y12075342D01*
G37*
G36*
G01X20376002Y12165340D02*
G01X20296002Y12165340D01*
G01X20291001Y12160338D01*
G01X20291001Y12137542D01*
G01X20328001Y12137542D01*
G01X20328001Y12104542D01*
G01X20291001Y12104542D01*
G01X20291001Y12080339D01*
G01X20296002Y12075340D01*
G01X20376002Y12075340D01*
G01X20381001Y12080339D01*
G01X20381001Y12160338D01*
G01X20376002Y12165340D01*
G37*
G36*
G01X20136998Y12260715D02*
G01X20216998Y12260715D01*
G01X20221999Y12265716D01*
G01X20221999Y12288513D01*
G01X20184999Y12288513D01*
G01X20184999Y12321512D01*
G01X20221999Y12321512D01*
G01X20221999Y12345716D01*
G01X20216998Y12350715D01*
G01X20136998Y12350715D01*
G01X20131999Y12345716D01*
G01X20131999Y12265716D01*
G01X20136998Y12260715D01*
G37*
G36*
G01X20376002Y12350712D02*
G01X20296002Y12350712D01*
G01X20291001Y12345711D01*
G01X20291001Y12322914D01*
G01X20328001Y12322914D01*
G01X20328001Y12289915D01*
G01X20291001Y12289915D01*
G01X20291001Y12265711D01*
G01X20296002Y12260712D01*
G01X20376002Y12260712D01*
G01X20381001Y12265711D01*
G01X20381001Y12345711D01*
G01X20376002Y12350712D01*
G37*
G36*
G01X20136998Y12446088D02*
G01X20216998Y12446088D01*
G01X20221999Y12451089D01*
G01X20221999Y12473885D01*
G01X20184999Y12473885D01*
G01X20184999Y12506885D01*
G01X20221999Y12506885D01*
G01X20221999Y12531089D01*
G01X20216998Y12536087D01*
G01X20136998Y12536087D01*
G01X20131999Y12531089D01*
G01X20131999Y12451089D01*
G01X20136998Y12446088D01*
G37*
G36*
G01X20376002Y12536085D02*
G01X20296002Y12536085D01*
G01X20291001Y12531084D01*
G01X20291001Y12508287D01*
G01X20328001Y12508287D01*
G01X20328001Y12475287D01*
G01X20291001Y12475287D01*
G01X20291001Y12451084D01*
G01X20296002Y12446085D01*
G01X20376002Y12446085D01*
G01X20381001Y12451084D01*
G01X20381001Y12531084D01*
G01X20376002Y12536085D01*
G37*
G36*
G01X4344584Y11166695D02*
G01X4264584Y11166695D01*
G01X4259583Y11161693D01*
G01X4259583Y11138897D01*
G01X4296583Y11138897D01*
G01X4296583Y11105897D01*
G01X4259583Y11105897D01*
G01X4259583Y11081694D01*
G01X4264584Y11076695D01*
G01X4344584Y11076695D01*
G01X4349582Y11081694D01*
G01X4349582Y11161693D01*
G01X4344584Y11166695D01*
G37*
G36*
G01X4105580Y11076697D02*
G01X4185580Y11076697D01*
G01X4190581Y11081699D01*
G01X4190581Y11104495D01*
G01X4153581Y11104495D01*
G01X4153581Y11137495D01*
G01X4190581Y11137495D01*
G01X4190581Y11161699D01*
G01X4185580Y11166697D01*
G01X4105580Y11166697D01*
G01X4100581Y11161699D01*
G01X4100581Y11081699D01*
G01X4105580Y11076697D01*
G37*
G36*
G01X6403508Y11166695D02*
G01X6323508Y11166695D01*
G01X6318507Y11161693D01*
G01X6318507Y11138897D01*
G01X6355507Y11138897D01*
G01X6355507Y11105897D01*
G01X6318507Y11105897D01*
G01X6318507Y11081694D01*
G01X6323508Y11076695D01*
G01X6403508Y11076695D01*
G01X6408506Y11081694D01*
G01X6408506Y11161693D01*
G01X6403508Y11166695D01*
G37*
G36*
G01X6164504Y11076697D02*
G01X6244504Y11076697D01*
G01X6249505Y11081699D01*
G01X6249505Y11104495D01*
G01X6212505Y11104495D01*
G01X6212505Y11137495D01*
G01X6249505Y11137495D01*
G01X6249505Y11161699D01*
G01X6244504Y11166697D01*
G01X6164504Y11166697D01*
G01X6159505Y11161699D01*
G01X6159505Y11081699D01*
G01X6164504Y11076697D01*
G37*
G36*
G01X8398932Y11166695D02*
G01X8318932Y11166695D01*
G01X8313931Y11161693D01*
G01X8313931Y11138897D01*
G01X8350931Y11138897D01*
G01X8350931Y11105897D01*
G01X8313931Y11105897D01*
G01X8313931Y11081694D01*
G01X8318932Y11076695D01*
G01X8398932Y11076695D01*
G01X8403930Y11081694D01*
G01X8403930Y11161693D01*
G01X8398932Y11166695D01*
G37*
G36*
G01X8159928Y11076697D02*
G01X8239928Y11076697D01*
G01X8244929Y11081699D01*
G01X8244929Y11104495D01*
G01X8207929Y11104495D01*
G01X8207929Y11137495D01*
G01X8244929Y11137495D01*
G01X8244929Y11161699D01*
G01X8239928Y11166697D01*
G01X8159928Y11166697D01*
G01X8154929Y11161699D01*
G01X8154929Y11081699D01*
G01X8159928Y11076697D01*
G37*
G36*
G01X10534056Y11166695D02*
G01X10454056Y11166695D01*
G01X10449055Y11161693D01*
G01X10449055Y11138897D01*
G01X10486055Y11138897D01*
G01X10486055Y11105897D01*
G01X10449055Y11105897D01*
G01X10449055Y11081694D01*
G01X10454056Y11076695D01*
G01X10534056Y11076695D01*
G01X10539054Y11081694D01*
G01X10539054Y11161693D01*
G01X10534056Y11166695D01*
G37*
G36*
G01X10295052Y11076697D02*
G01X10375052Y11076697D01*
G01X10380053Y11081699D01*
G01X10380053Y11104495D01*
G01X10343053Y11104495D01*
G01X10343053Y11137495D01*
G01X10380053Y11137495D01*
G01X10380053Y11161699D01*
G01X10375052Y11166697D01*
G01X10295052Y11166697D01*
G01X10290053Y11161699D01*
G01X10290053Y11081699D01*
G01X10295052Y11076697D01*
G37*
G36*
G01X12590699Y11166695D02*
G01X12510699Y11166695D01*
G01X12505698Y11161693D01*
G01X12505698Y11138897D01*
G01X12542698Y11138897D01*
G01X12542698Y11105897D01*
G01X12505698Y11105897D01*
G01X12505698Y11081694D01*
G01X12510699Y11076695D01*
G01X12590699Y11076695D01*
G01X12595697Y11081694D01*
G01X12595697Y11161693D01*
G01X12590699Y11166695D01*
G37*
G36*
G01X12351695Y11076697D02*
G01X12431695Y11076697D01*
G01X12436696Y11081699D01*
G01X12436696Y11104495D01*
G01X12399696Y11104495D01*
G01X12399696Y11137495D01*
G01X12436696Y11137495D01*
G01X12436696Y11161699D01*
G01X12431695Y11166697D01*
G01X12351695Y11166697D01*
G01X12346696Y11161699D01*
G01X12346696Y11081699D01*
G01X12351695Y11076697D01*
G37*
G36*
G01X14624223Y11166695D02*
G01X14544223Y11166695D01*
G01X14539222Y11161693D01*
G01X14539222Y11138897D01*
G01X14576222Y11138897D01*
G01X14576222Y11105897D01*
G01X14539222Y11105897D01*
G01X14539222Y11081694D01*
G01X14544223Y11076695D01*
G01X14624223Y11076695D01*
G01X14629221Y11081694D01*
G01X14629221Y11161693D01*
G01X14624223Y11166695D01*
G37*
G36*
G01X14385219Y11076697D02*
G01X14465219Y11076697D01*
G01X14470220Y11081699D01*
G01X14470220Y11104495D01*
G01X14433220Y11104495D01*
G01X14433220Y11137495D01*
G01X14470220Y11137495D01*
G01X14470220Y11161699D01*
G01X14465219Y11166697D01*
G01X14385219Y11166697D01*
G01X14380220Y11161699D01*
G01X14380220Y11081699D01*
G01X14385219Y11076697D01*
G37*
G36*
G01X16606947Y11166695D02*
G01X16526947Y11166695D01*
G01X16521946Y11161693D01*
G01X16521946Y11138897D01*
G01X16558946Y11138897D01*
G01X16558946Y11105897D01*
G01X16521946Y11105897D01*
G01X16521946Y11081694D01*
G01X16526947Y11076695D01*
G01X16606947Y11076695D01*
G01X16611945Y11081694D01*
G01X16611945Y11161693D01*
G01X16606947Y11166695D01*
G37*
G36*
G01X16367943Y11076697D02*
G01X16447943Y11076697D01*
G01X16452944Y11081699D01*
G01X16452944Y11104495D01*
G01X16415944Y11104495D01*
G01X16415944Y11137495D01*
G01X16452944Y11137495D01*
G01X16452944Y11161699D01*
G01X16447943Y11166697D01*
G01X16367943Y11166697D01*
G01X16362944Y11161699D01*
G01X16362944Y11081699D01*
G01X16367943Y11076697D01*
G37*
G36*
G01X18678571Y11166695D02*
G01X18598571Y11166695D01*
G01X18593570Y11161693D01*
G01X18593570Y11138897D01*
G01X18630570Y11138897D01*
G01X18630570Y11105897D01*
G01X18593570Y11105897D01*
G01X18593570Y11081694D01*
G01X18598571Y11076695D01*
G01X18678571Y11076695D01*
G01X18683569Y11081694D01*
G01X18683569Y11161693D01*
G01X18678571Y11166695D01*
G37*
G36*
G01X18439567Y11076697D02*
G01X18519567Y11076697D01*
G01X18524568Y11081699D01*
G01X18524568Y11104495D01*
G01X18487568Y11104495D01*
G01X18487568Y11137495D01*
G01X18524568Y11137495D01*
G01X18524568Y11161699D01*
G01X18519567Y11166697D01*
G01X18439567Y11166697D01*
G01X18434568Y11161699D01*
G01X18434568Y11081699D01*
G01X18439567Y11076697D01*
G37*
G36*
G01X20052974Y8022773D02*
G01X20052974Y8102773D01*
G01X20047972Y8107774D01*
G01X20025176Y8107774D01*
G01X20025176Y8070774D01*
G01X19992176Y8070774D01*
G01X19992176Y8107774D01*
G01X19967973Y8107774D01*
G01X19962974Y8102773D01*
G01X19962974Y8022773D01*
G01X19967973Y8017774D01*
G01X20047972Y8017774D01*
G01X20052974Y8022773D01*
G37*
G36*
G01X19962976Y8261777D02*
G01X19962976Y8181777D01*
G01X19967978Y8176776D01*
G01X19990774Y8176776D01*
G01X19990774Y8213776D01*
G01X20023774Y8213776D01*
G01X20023774Y8176776D01*
G01X20047977Y8176776D01*
G01X20052976Y8181777D01*
G01X20052976Y8261777D01*
G01X20047977Y8266775D01*
G01X19967978Y8266775D01*
G01X19962976Y8261777D01*
G37*
G36*
G01X6560616Y6390394D02*
G01X6640615Y6390394D01*
G01X6645617Y6395395D01*
G01X6645617Y6418191D01*
G01X6608616Y6418191D01*
G01X6608616Y6451191D01*
G01X6645617Y6451191D01*
G01X6645617Y6475395D01*
G01X6640615Y6480393D01*
G01X6560616Y6480393D01*
G01X6555617Y6475395D01*
G01X6555617Y6395395D01*
G01X6560616Y6390394D01*
G37*
G36*
G01X6799619Y6480391D02*
G01X6719620Y6480391D01*
G01X6714618Y6475390D01*
G01X6714618Y6452593D01*
G01X6751618Y6452593D01*
G01X6751618Y6419593D01*
G01X6714618Y6419593D01*
G01X6714618Y6395390D01*
G01X6719620Y6390391D01*
G01X6799619Y6390391D01*
G01X6804618Y6395390D01*
G01X6804618Y6475390D01*
G01X6799619Y6480391D01*
G37*
G36*
G01X5577098Y3554696D02*
G01X5577098Y3474696D01*
G01X5582100Y3469695D01*
G01X5604896Y3469695D01*
G01X5604896Y3506695D01*
G01X5637896Y3506695D01*
G01X5637896Y3469695D01*
G01X5662099Y3469695D01*
G01X5667098Y3474696D01*
G01X5667098Y3554696D01*
G01X5662099Y3559694D01*
G01X5582100Y3559694D01*
G01X5577098Y3554696D01*
G37*
G36*
G01X5667096Y3315692D02*
G01X5667096Y3395692D01*
G01X5662094Y3400693D01*
G01X5639298Y3400693D01*
G01X5639298Y3363693D01*
G01X5606298Y3363693D01*
G01X5606298Y3400693D01*
G01X5582095Y3400693D01*
G01X5577096Y3395692D01*
G01X5577096Y3315692D01*
G01X5582095Y3310693D01*
G01X5662094Y3310693D01*
G01X5667096Y3315692D01*
G37*
G36*
G01X5411998Y3554696D02*
G01X5411998Y3474696D01*
G01X5417000Y3469695D01*
G01X5439796Y3469695D01*
G01X5439796Y3506695D01*
G01X5472796Y3506695D01*
G01X5472796Y3469695D01*
G01X5496999Y3469695D01*
G01X5501998Y3474696D01*
G01X5501998Y3554696D01*
G01X5496999Y3559694D01*
G01X5417000Y3559694D01*
G01X5411998Y3554696D01*
G37*
G36*
G01X5501996Y3315692D02*
G01X5501996Y3395692D01*
G01X5496994Y3400693D01*
G01X5474198Y3400693D01*
G01X5474198Y3363693D01*
G01X5441198Y3363693D01*
G01X5441198Y3400693D01*
G01X5416995Y3400693D01*
G01X5411996Y3395692D01*
G01X5411996Y3315692D01*
G01X5416995Y3310693D01*
G01X5496994Y3310693D01*
G01X5501996Y3315692D01*
G37*
G36*
G01X5989782Y3554696D02*
G01X5989782Y3474696D01*
G01X5994784Y3469695D01*
G01X6017580Y3469695D01*
G01X6017580Y3506695D01*
G01X6050580Y3506695D01*
G01X6050580Y3469695D01*
G01X6074783Y3469695D01*
G01X6079782Y3474696D01*
G01X6079782Y3554696D01*
G01X6074783Y3559694D01*
G01X5994784Y3559694D01*
G01X5989782Y3554696D01*
G37*
G36*
G01X6079780Y3315692D02*
G01X6079780Y3395692D01*
G01X6074778Y3400693D01*
G01X6051982Y3400693D01*
G01X6051982Y3363693D01*
G01X6018982Y3363693D01*
G01X6018982Y3400693D01*
G01X5994778Y3400693D01*
G01X5989780Y3395692D01*
G01X5989780Y3315692D01*
G01X5994778Y3310693D01*
G01X6074778Y3310693D01*
G01X6079780Y3315692D01*
G37*
G36*
G01X5811982Y3554696D02*
G01X5811982Y3474696D01*
G01X5816984Y3469695D01*
G01X5839780Y3469695D01*
G01X5839780Y3506695D01*
G01X5872780Y3506695D01*
G01X5872780Y3469695D01*
G01X5896983Y3469695D01*
G01X5901982Y3474696D01*
G01X5901982Y3554696D01*
G01X5896983Y3559694D01*
G01X5816984Y3559694D01*
G01X5811982Y3554696D01*
G37*
G36*
G01X5901980Y3315692D02*
G01X5901980Y3395692D01*
G01X5896978Y3400693D01*
G01X5874182Y3400693D01*
G01X5874182Y3363693D01*
G01X5841182Y3363693D01*
G01X5841182Y3400693D01*
G01X5816978Y3400693D01*
G01X5811980Y3395692D01*
G01X5811980Y3315692D01*
G01X5816978Y3310693D01*
G01X5896978Y3310693D01*
G01X5901980Y3315692D01*
G37*
G36*
G01X6360651Y3554696D02*
G01X6360651Y3474696D01*
G01X6365653Y3469695D01*
G01X6388449Y3469695D01*
G01X6388449Y3506695D01*
G01X6421449Y3506695D01*
G01X6421449Y3469695D01*
G01X6445653Y3469695D01*
G01X6450651Y3474696D01*
G01X6450651Y3554696D01*
G01X6445653Y3559694D01*
G01X6365653Y3559694D01*
G01X6360651Y3554696D01*
G37*
G36*
G01X6450649Y3315692D02*
G01X6450649Y3395692D01*
G01X6445648Y3400693D01*
G01X6422851Y3400693D01*
G01X6422851Y3363693D01*
G01X6389851Y3363693D01*
G01X6389851Y3400693D01*
G01X6365648Y3400693D01*
G01X6360649Y3395692D01*
G01X6360649Y3315692D01*
G01X6365648Y3310693D01*
G01X6445648Y3310693D01*
G01X6450649Y3315692D01*
G37*
G36*
G01X6182851Y3554696D02*
G01X6182851Y3474696D01*
G01X6187853Y3469695D01*
G01X6210649Y3469695D01*
G01X6210649Y3506695D01*
G01X6243649Y3506695D01*
G01X6243649Y3469695D01*
G01X6267853Y3469695D01*
G01X6272851Y3474696D01*
G01X6272851Y3554696D01*
G01X6267853Y3559694D01*
G01X6187853Y3559694D01*
G01X6182851Y3554696D01*
G37*
G36*
G01X6272849Y3315692D02*
G01X6272849Y3395692D01*
G01X6267848Y3400693D01*
G01X6245051Y3400693D01*
G01X6245051Y3363693D01*
G01X6212051Y3363693D01*
G01X6212051Y3400693D01*
G01X6187848Y3400693D01*
G01X6182849Y3395692D01*
G01X6182849Y3315692D01*
G01X6187848Y3310693D01*
G01X6267848Y3310693D01*
G01X6272849Y3315692D01*
G37*
G36*
G01X6722668Y3554696D02*
G01X6722668Y3474696D01*
G01X6727669Y3469695D01*
G01X6750465Y3469695D01*
G01X6750465Y3506695D01*
G01X6783465Y3506695D01*
G01X6783465Y3469695D01*
G01X6807669Y3469695D01*
G01X6812667Y3474696D01*
G01X6812667Y3554696D01*
G01X6807669Y3559694D01*
G01X6727669Y3559694D01*
G01X6722668Y3554696D01*
G37*
G36*
G01X6812665Y3315692D02*
G01X6812665Y3395692D01*
G01X6807664Y3400693D01*
G01X6784867Y3400693D01*
G01X6784867Y3363693D01*
G01X6751867Y3363693D01*
G01X6751867Y3400693D01*
G01X6727664Y3400693D01*
G01X6722665Y3395692D01*
G01X6722665Y3315692D01*
G01X6727664Y3310693D01*
G01X6807664Y3310693D01*
G01X6812665Y3315692D01*
G37*
G36*
G01X6546301Y3554696D02*
G01X6546301Y3474696D01*
G01X6551303Y3469695D01*
G01X6574099Y3469695D01*
G01X6574099Y3506695D01*
G01X6607099Y3506695D01*
G01X6607099Y3469695D01*
G01X6631302Y3469695D01*
G01X6636301Y3474696D01*
G01X6636301Y3554696D01*
G01X6631302Y3559694D01*
G01X6551303Y3559694D01*
G01X6546301Y3554696D01*
G37*
G36*
G01X6636299Y3315692D02*
G01X6636299Y3395692D01*
G01X6631297Y3400693D01*
G01X6608501Y3400693D01*
G01X6608501Y3363693D01*
G01X6575501Y3363693D01*
G01X6575501Y3400693D01*
G01X6551298Y3400693D01*
G01X6546299Y3395692D01*
G01X6546299Y3315692D01*
G01X6551298Y3310693D01*
G01X6631297Y3310693D01*
G01X6636299Y3315692D01*
G37*
G36*
G01X7110590Y3554696D02*
G01X7110590Y3474696D01*
G01X7115592Y3469695D01*
G01X7138388Y3469695D01*
G01X7138388Y3506695D01*
G01X7171388Y3506695D01*
G01X7171388Y3469695D01*
G01X7195591Y3469695D01*
G01X7200590Y3474696D01*
G01X7200590Y3554696D01*
G01X7195591Y3559694D01*
G01X7115592Y3559694D01*
G01X7110590Y3554696D01*
G37*
G36*
G01X7200588Y3315692D02*
G01X7200588Y3395692D01*
G01X7195586Y3400693D01*
G01X7172790Y3400693D01*
G01X7172790Y3363693D01*
G01X7139790Y3363693D01*
G01X7139790Y3400693D01*
G01X7115586Y3400693D01*
G01X7110588Y3395692D01*
G01X7110588Y3315692D01*
G01X7115586Y3310693D01*
G01X7195586Y3310693D01*
G01X7200588Y3315692D01*
G37*
G36*
G01X6932790Y3554696D02*
G01X6932790Y3474696D01*
G01X6937792Y3469695D01*
G01X6960588Y3469695D01*
G01X6960588Y3506695D01*
G01X6993588Y3506695D01*
G01X6993588Y3469695D01*
G01X7017791Y3469695D01*
G01X7022790Y3474696D01*
G01X7022790Y3554696D01*
G01X7017791Y3559694D01*
G01X6937792Y3559694D01*
G01X6932790Y3554696D01*
G37*
G36*
G01X7022788Y3315692D02*
G01X7022788Y3395692D01*
G01X7017786Y3400693D01*
G01X6994990Y3400693D01*
G01X6994990Y3363693D01*
G01X6961990Y3363693D01*
G01X6961990Y3400693D01*
G01X6937786Y3400693D01*
G01X6932788Y3395692D01*
G01X6932788Y3315692D01*
G01X6937786Y3310693D01*
G01X7017786Y3310693D01*
G01X7022788Y3315692D01*
G37*
G36*
G01X7522764Y3554696D02*
G01X7522764Y3474696D01*
G01X7527765Y3469695D01*
G01X7550561Y3469695D01*
G01X7550561Y3506695D01*
G01X7583561Y3506695D01*
G01X7583561Y3469695D01*
G01X7607765Y3469695D01*
G01X7612764Y3474696D01*
G01X7612764Y3554696D01*
G01X7607765Y3559694D01*
G01X7527765Y3559694D01*
G01X7522764Y3554696D01*
G37*
G36*
G01X7612761Y3315692D02*
G01X7612761Y3395692D01*
G01X7607760Y3400693D01*
G01X7584963Y3400693D01*
G01X7584963Y3363693D01*
G01X7551964Y3363693D01*
G01X7551964Y3400693D01*
G01X7527760Y3400693D01*
G01X7522761Y3395692D01*
G01X7522761Y3315692D01*
G01X7527760Y3310693D01*
G01X7607760Y3310693D01*
G01X7612761Y3315692D01*
G37*
G36*
G01X7344964Y3554696D02*
G01X7344964Y3474696D01*
G01X7349965Y3469695D01*
G01X7372761Y3469695D01*
G01X7372761Y3506695D01*
G01X7405761Y3506695D01*
G01X7405761Y3469695D01*
G01X7429965Y3469695D01*
G01X7434964Y3474696D01*
G01X7434964Y3554696D01*
G01X7429965Y3559694D01*
G01X7349965Y3559694D01*
G01X7344964Y3554696D01*
G37*
G36*
G01X7434961Y3315692D02*
G01X7434961Y3395692D01*
G01X7429960Y3400693D01*
G01X7407163Y3400693D01*
G01X7407163Y3363693D01*
G01X7374164Y3363693D01*
G01X7374164Y3400693D01*
G01X7349960Y3400693D01*
G01X7344961Y3395692D01*
G01X7344961Y3315692D01*
G01X7349960Y3310693D01*
G01X7429960Y3310693D01*
G01X7434961Y3315692D01*
G37*
G36*
G01X7900227Y3554696D02*
G01X7900227Y3474696D01*
G01X7905228Y3469695D01*
G01X7928025Y3469695D01*
G01X7928025Y3506695D01*
G01X7961024Y3506695D01*
G01X7961024Y3469695D01*
G01X7985228Y3469695D01*
G01X7990227Y3474696D01*
G01X7990227Y3554696D01*
G01X7985228Y3559694D01*
G01X7905228Y3559694D01*
G01X7900227Y3554696D01*
G37*
G36*
G01X7990224Y3315692D02*
G01X7990224Y3395692D01*
G01X7985223Y3400693D01*
G01X7962426Y3400693D01*
G01X7962426Y3363693D01*
G01X7929427Y3363693D01*
G01X7929427Y3400693D01*
G01X7905223Y3400693D01*
G01X7900224Y3395692D01*
G01X7900224Y3315692D01*
G01X7905223Y3310693D01*
G01X7985223Y3310693D01*
G01X7990224Y3315692D01*
G37*
G36*
G01X7722960Y3554696D02*
G01X7722960Y3474696D01*
G01X7727961Y3469695D01*
G01X7750758Y3469695D01*
G01X7750758Y3506695D01*
G01X7783758Y3506695D01*
G01X7783758Y3469695D01*
G01X7807961Y3469695D01*
G01X7812960Y3474696D01*
G01X7812960Y3554696D01*
G01X7807961Y3559694D01*
G01X7727961Y3559694D01*
G01X7722960Y3554696D01*
G37*
G36*
G01X7812957Y3315692D02*
G01X7812957Y3395692D01*
G01X7807956Y3400693D01*
G01X7785160Y3400693D01*
G01X7785160Y3363693D01*
G01X7752160Y3363693D01*
G01X7752160Y3400693D01*
G01X7727956Y3400693D01*
G01X7722958Y3395692D01*
G01X7722958Y3315692D01*
G01X7727956Y3310693D01*
G01X7807956Y3310693D01*
G01X7812957Y3315692D01*
G37*
G36*
G01X8281560Y3554696D02*
G01X8281560Y3474696D01*
G01X8286561Y3469695D01*
G01X8309357Y3469695D01*
G01X8309357Y3506695D01*
G01X8342357Y3506695D01*
G01X8342357Y3469695D01*
G01X8366561Y3469695D01*
G01X8371559Y3474696D01*
G01X8371559Y3554696D01*
G01X8366561Y3559694D01*
G01X8286561Y3559694D01*
G01X8281560Y3554696D01*
G37*
G36*
G01X8371557Y3315692D02*
G01X8371557Y3395692D01*
G01X8366556Y3400693D01*
G01X8343759Y3400693D01*
G01X8343759Y3363693D01*
G01X8310759Y3363693D01*
G01X8310759Y3400693D01*
G01X8286556Y3400693D01*
G01X8281557Y3395692D01*
G01X8281557Y3315692D01*
G01X8286556Y3310693D01*
G01X8366556Y3310693D01*
G01X8371557Y3315692D01*
G37*
G36*
G01X8103760Y3554696D02*
G01X8103760Y3474696D01*
G01X8108761Y3469695D01*
G01X8131557Y3469695D01*
G01X8131557Y3506695D01*
G01X8164557Y3506695D01*
G01X8164557Y3469695D01*
G01X8188761Y3469695D01*
G01X8193759Y3474696D01*
G01X8193759Y3554696D01*
G01X8188761Y3559694D01*
G01X8108761Y3559694D01*
G01X8103760Y3554696D01*
G37*
G36*
G01X8193757Y3315692D02*
G01X8193757Y3395692D01*
G01X8188756Y3400693D01*
G01X8165959Y3400693D01*
G01X8165959Y3363693D01*
G01X8132959Y3363693D01*
G01X8132959Y3400693D01*
G01X8108756Y3400693D01*
G01X8103757Y3395692D01*
G01X8103757Y3315692D01*
G01X8108756Y3310693D01*
G01X8188756Y3310693D01*
G01X8193757Y3315692D01*
G37*
G36*
G01X18256799Y2737998D02*
G01X18256799Y2817998D01*
G01X18251797Y2822999D01*
G01X18229001Y2822999D01*
G01X18229001Y2785999D01*
G01X18196001Y2785999D01*
G01X18196001Y2822999D01*
G01X18171798Y2822999D01*
G01X18166799Y2817998D01*
G01X18166799Y2737998D01*
G01X18171798Y2732999D01*
G01X18251797Y2732999D01*
G01X18256799Y2737998D01*
G37*
G36*
G01X18166801Y2977002D02*
G01X18166801Y2897002D01*
G01X18171803Y2892001D01*
G01X18194599Y2892001D01*
G01X18194599Y2929001D01*
G01X18227599Y2929001D01*
G01X18227599Y2892001D01*
G01X18251802Y2892001D01*
G01X18256801Y2897002D01*
G01X18256801Y2977002D01*
G01X18251802Y2982001D01*
G01X18171803Y2982001D01*
G01X18166801Y2977002D01*
G37*
G36*
G01X19488699Y2763398D02*
G01X19488699Y2843398D01*
G01X19483697Y2848399D01*
G01X19460901Y2848399D01*
G01X19460901Y2811399D01*
G01X19427901Y2811399D01*
G01X19427901Y2848399D01*
G01X19403698Y2848399D01*
G01X19398699Y2843398D01*
G01X19398699Y2763398D01*
G01X19403698Y2758399D01*
G01X19483697Y2758399D01*
G01X19488699Y2763398D01*
G37*
G36*
G01X19398701Y3002402D02*
G01X19398701Y2922402D01*
G01X19403703Y2917401D01*
G01X19426499Y2917401D01*
G01X19426499Y2954401D01*
G01X19459499Y2954401D01*
G01X19459499Y2917401D01*
G01X19483702Y2917401D01*
G01X19488701Y2922402D01*
G01X19488701Y3002402D01*
G01X19483702Y3007401D01*
G01X19403703Y3007401D01*
G01X19398701Y3002402D01*
G37*
G36*
G01X10243875Y3352748D02*
G01X10243875Y3272748D01*
G01X10248876Y3267747D01*
G01X10271673Y3267747D01*
G01X10271673Y3304747D01*
G01X10304672Y3304747D01*
G01X10304672Y3267747D01*
G01X10328876Y3267747D01*
G01X10333875Y3272748D01*
G01X10333875Y3352748D01*
G01X10328876Y3357747D01*
G01X10248876Y3357747D01*
G01X10243875Y3352748D01*
G37*
G36*
G01X10333872Y3113744D02*
G01X10333872Y3193744D01*
G01X10328871Y3198745D01*
G01X10306074Y3198745D01*
G01X10306074Y3161745D01*
G01X10273075Y3161745D01*
G01X10273075Y3198745D01*
G01X10248871Y3198745D01*
G01X10243872Y3193744D01*
G01X10243872Y3113744D01*
G01X10248871Y3108745D01*
G01X10328871Y3108745D01*
G01X10333872Y3113744D01*
G37*
G36*
G01X11299316Y3470632D02*
G01X11299316Y3390632D01*
G01X11304317Y3385631D01*
G01X11327114Y3385631D01*
G01X11327114Y3422631D01*
G01X11360113Y3422631D01*
G01X11360113Y3385631D01*
G01X11384317Y3385631D01*
G01X11389316Y3390632D01*
G01X11389316Y3470632D01*
G01X11384317Y3475631D01*
G01X11304317Y3475631D01*
G01X11299316Y3470632D01*
G37*
G36*
G01X11389313Y3231628D02*
G01X11389313Y3311628D01*
G01X11384312Y3316629D01*
G01X11361516Y3316629D01*
G01X11361516Y3279629D01*
G01X11328516Y3279629D01*
G01X11328516Y3316629D01*
G01X11304312Y3316629D01*
G01X11299313Y3311628D01*
G01X11299313Y3231628D01*
G01X11304312Y3226630D01*
G01X11384312Y3226630D01*
G01X11389313Y3231628D01*
G37*
G36*
G01X12145518Y3497644D02*
G01X12145518Y3417644D01*
G01X12150520Y3412643D01*
G01X12173316Y3412643D01*
G01X12173316Y3449643D01*
G01X12206316Y3449643D01*
G01X12206316Y3412643D01*
G01X12230519Y3412643D01*
G01X12235518Y3417644D01*
G01X12235518Y3497644D01*
G01X12230519Y3502642D01*
G01X12150520Y3502642D01*
G01X12145518Y3497644D01*
G37*
G36*
G01X12235516Y3258640D02*
G01X12235516Y3338640D01*
G01X12230514Y3343641D01*
G01X12207718Y3343641D01*
G01X12207718Y3306641D01*
G01X12174718Y3306641D01*
G01X12174718Y3343641D01*
G01X12150514Y3343641D01*
G01X12145516Y3338640D01*
G01X12145516Y3258640D01*
G01X12150514Y3253641D01*
G01X12230514Y3253641D01*
G01X12235516Y3258640D01*
G37*
G36*
G01X13012375Y3492745D02*
G01X13012375Y3412745D01*
G01X13017377Y3407744D01*
G01X13040173Y3407744D01*
G01X13040173Y3444744D01*
G01X13073173Y3444744D01*
G01X13073173Y3407744D01*
G01X13097376Y3407744D01*
G01X13102375Y3412745D01*
G01X13102375Y3492745D01*
G01X13097376Y3497743D01*
G01X13017377Y3497743D01*
G01X13012375Y3492745D01*
G37*
G36*
G01X13102373Y3253741D02*
G01X13102373Y3333741D01*
G01X13097371Y3338742D01*
G01X13074575Y3338742D01*
G01X13074575Y3301742D01*
G01X13041575Y3301742D01*
G01X13041575Y3338742D01*
G01X13017371Y3338742D01*
G01X13012373Y3333741D01*
G01X13012373Y3253741D01*
G01X13017371Y3248742D01*
G01X13097371Y3248742D01*
G01X13102373Y3253741D01*
G37*
G36*
G01X10819127Y3650517D02*
G01X10691129Y3650517D01*
G01X10686128Y3655518D01*
G01X10686128Y3770520D01*
G01X10691129Y3775518D01*
G01X10732132Y3776021D01*
G01X10732132Y3731020D01*
G01X10777131Y3731020D01*
G01X10777131Y3775020D01*
G01X10819127Y3775518D01*
G01X10824129Y3770520D01*
G01X10824129Y3655518D01*
G01X10819127Y3650517D01*
G37*
G36*
G01X10819127Y3865518D02*
G01X10777131Y3865521D01*
G01X10777131Y3910019D01*
G01X10732132Y3910019D01*
G01X10732132Y3866021D01*
G01X10691129Y3865518D01*
G01X10686128Y3870519D01*
G01X10686128Y3985518D01*
G01X10691129Y3990519D01*
G01X10819127Y3990519D01*
G01X10824129Y3985518D01*
G01X10824129Y3870519D01*
G01X10819127Y3865518D01*
G37*
G36*
G01X10743400Y4887100D02*
G01X10743400Y4841100D01*
G01X10739399Y4837100D01*
G01X10689336Y4837100D01*
G01X10685336Y4841100D01*
G01X10685336Y4887100D01*
G01X10689336Y4891100D01*
G01X10739399Y4891100D01*
G01X10743400Y4887100D01*
G37*
G36*
G01X10770400Y4887100D02*
G01X10770400Y4841100D01*
G01X10774401Y4837100D01*
G01X10824464Y4837100D01*
G01X10828465Y4841100D01*
G01X10828465Y4887100D01*
G01X10824464Y4891100D01*
G01X10774401Y4891100D01*
G01X10770400Y4887100D01*
G37*
G36*
G01X11680276Y3663217D02*
G01X11552278Y3663217D01*
G01X11547277Y3668218D01*
G01X11547277Y3783220D01*
G01X11552278Y3788218D01*
G01X11593281Y3788721D01*
G01X11593281Y3743720D01*
G01X11638280Y3743720D01*
G01X11638280Y3787720D01*
G01X11680276Y3788218D01*
G01X11685278Y3783220D01*
G01X11685278Y3668218D01*
G01X11680276Y3663217D01*
G37*
G36*
G01X11680276Y3878218D02*
G01X11638280Y3878221D01*
G01X11638280Y3922719D01*
G01X11593281Y3922719D01*
G01X11593281Y3878721D01*
G01X11552278Y3878218D01*
G01X11547277Y3883219D01*
G01X11547277Y3998218D01*
G01X11552278Y4003219D01*
G01X11680276Y4003219D01*
G01X11685278Y3998218D01*
G01X11685278Y3883219D01*
G01X11680276Y3878218D01*
G37*
G36*
G01X11594300Y4899800D02*
G01X11594300Y4853800D01*
G01X11590299Y4849800D01*
G01X11540236Y4849800D01*
G01X11536236Y4853800D01*
G01X11536236Y4899800D01*
G01X11540236Y4903800D01*
G01X11590299Y4903800D01*
G01X11594300Y4899800D01*
G37*
G36*
G01X11621300Y4899800D02*
G01X11621300Y4853800D01*
G01X11625301Y4849800D01*
G01X11675364Y4849800D01*
G01X11679365Y4853800D01*
G01X11679365Y4899800D01*
G01X11675364Y4903800D01*
G01X11625301Y4903800D01*
G01X11621300Y4899800D01*
G37*
G36*
G01X12538767Y3650517D02*
G01X12410769Y3650517D01*
G01X12405768Y3655518D01*
G01X12405768Y3770520D01*
G01X12410769Y3775518D01*
G01X12451772Y3776021D01*
G01X12451772Y3731020D01*
G01X12496771Y3731020D01*
G01X12496771Y3775020D01*
G01X12538767Y3775518D01*
G01X12543768Y3770520D01*
G01X12543768Y3655518D01*
G01X12538767Y3650517D01*
G37*
G36*
G01X12538767Y3865518D02*
G01X12496771Y3865521D01*
G01X12496771Y3910019D01*
G01X12451772Y3910019D01*
G01X12451772Y3866021D01*
G01X12410769Y3865518D01*
G01X12405768Y3870519D01*
G01X12405768Y3985518D01*
G01X12410769Y3990519D01*
G01X12538767Y3990519D01*
G01X12543768Y3985518D01*
G01X12543768Y3870519D01*
G01X12538767Y3865518D01*
G37*
G36*
G01X12457187Y4881310D02*
G01X12457187Y4835310D01*
G01X12453187Y4831310D01*
G01X12403124Y4831310D01*
G01X12399123Y4835310D01*
G01X12399123Y4881310D01*
G01X12403124Y4885310D01*
G01X12453187Y4885310D01*
G01X12457187Y4881310D01*
G37*
G36*
G01X12484188Y4881310D02*
G01X12484188Y4835310D01*
G01X12488188Y4831310D01*
G01X12538252Y4831310D01*
G01X12542252Y4835310D01*
G01X12542252Y4881310D01*
G01X12538252Y4885310D01*
G01X12488188Y4885310D01*
G01X12484188Y4881310D01*
G37*
G36*
G01X13397258Y3650517D02*
G01X13269260Y3650517D01*
G01X13264258Y3655518D01*
G01X13264258Y3770520D01*
G01X13269260Y3775518D01*
G01X13310263Y3776021D01*
G01X13310263Y3731020D01*
G01X13355262Y3731020D01*
G01X13355262Y3775020D01*
G01X13397258Y3775518D01*
G01X13402259Y3770520D01*
G01X13402259Y3655518D01*
G01X13397258Y3650517D01*
G37*
G36*
G01X13397258Y3865518D02*
G01X13355262Y3865521D01*
G01X13355262Y3910019D01*
G01X13310263Y3910019D01*
G01X13310263Y3866021D01*
G01X13269260Y3865518D01*
G01X13264258Y3870519D01*
G01X13264258Y3985518D01*
G01X13269260Y3990519D01*
G01X13397258Y3990519D01*
G01X13402259Y3985518D01*
G01X13402259Y3870519D01*
G01X13397258Y3865518D01*
G37*
G36*
G01X13315678Y4881310D02*
G01X13315678Y4835310D01*
G01X13311678Y4831310D01*
G01X13261614Y4831310D01*
G01X13257614Y4835310D01*
G01X13257614Y4881310D01*
G01X13261614Y4885310D01*
G01X13311678Y4885310D01*
G01X13315678Y4881310D01*
G37*
G36*
G01X13342678Y4881310D02*
G01X13342678Y4835310D01*
G01X13346679Y4831310D01*
G01X13396742Y4831310D01*
G01X13400743Y4835310D01*
G01X13400743Y4881310D01*
G01X13396742Y4885310D01*
G01X13346679Y4885310D01*
G01X13342678Y4881310D01*
G37*
G36*
G01X13043270Y9157228D02*
G01X13043270Y9285226D01*
G01X13048272Y9290227D01*
G01X13163273Y9290227D01*
G01X13168271Y9285226D01*
G01X13168774Y9244223D01*
G01X13123773Y9244223D01*
G01X13123773Y9199224D01*
G01X13167774Y9199224D01*
G01X13168271Y9157228D01*
G01X13163273Y9152227D01*
G01X13048272Y9152227D01*
G01X13043270Y9157228D01*
G37*
G36*
G01X13384265Y9285229D02*
G01X13384265Y9157230D01*
G01X13379264Y9152229D01*
G01X13264263Y9152229D01*
G01X13259264Y9157230D01*
G01X13258761Y9198234D01*
G01X13303763Y9198234D01*
G01X13303763Y9243232D01*
G01X13259762Y9243232D01*
G01X13259264Y9285229D01*
G01X13264263Y9290230D01*
G01X13379264Y9290230D01*
G01X13384265Y9285229D01*
G37*
G36*
G01X15897586Y2835428D02*
G01X15897586Y2915428D01*
G01X15892584Y2920429D01*
G01X15869788Y2920429D01*
G01X15869788Y2883429D01*
G01X15836788Y2883429D01*
G01X15836788Y2920429D01*
G01X15812585Y2920429D01*
G01X15807586Y2915428D01*
G01X15807586Y2835428D01*
G01X15812585Y2830429D01*
G01X15892584Y2830429D01*
G01X15897586Y2835428D01*
G37*
G36*
G01X15807588Y3074432D02*
G01X15807588Y2994432D01*
G01X15812590Y2989431D01*
G01X15835386Y2989431D01*
G01X15835386Y3026431D01*
G01X15868386Y3026431D01*
G01X15868386Y2989431D01*
G01X15892590Y2989431D01*
G01X15897588Y2994432D01*
G01X15897588Y3074432D01*
G01X15892590Y3079431D01*
G01X15812590Y3079431D01*
G01X15807588Y3074432D01*
G37*
G36*
G01X16961399Y2750698D02*
G01X16961399Y2830698D01*
G01X16956397Y2835699D01*
G01X16933601Y2835699D01*
G01X16933601Y2798699D01*
G01X16900601Y2798699D01*
G01X16900601Y2835699D01*
G01X16876398Y2835699D01*
G01X16871399Y2830698D01*
G01X16871399Y2750698D01*
G01X16876398Y2745699D01*
G01X16956397Y2745699D01*
G01X16961399Y2750698D01*
G37*
G36*
G01X16871401Y2989702D02*
G01X16871401Y2909702D01*
G01X16876403Y2904701D01*
G01X16899199Y2904701D01*
G01X16899199Y2941701D01*
G01X16932199Y2941701D01*
G01X16932199Y2904701D01*
G01X16956402Y2904701D01*
G01X16961401Y2909702D01*
G01X16961401Y2989702D01*
G01X16956402Y2994701D01*
G01X16876403Y2994701D01*
G01X16871401Y2989702D01*
G37*
G36*
G01X6071580Y4451341D02*
G01X6071580Y4371341D01*
G01X6076582Y4366340D01*
G01X6099378Y4366340D01*
G01X6099378Y4403340D01*
G01X6132378Y4403340D01*
G01X6132378Y4366340D01*
G01X6156582Y4366340D01*
G01X6161580Y4371341D01*
G01X6161580Y4451341D01*
G01X6156582Y4456340D01*
G01X6076582Y4456340D01*
G01X6071580Y4451341D01*
G37*
G36*
G01X6161578Y4212337D02*
G01X6161578Y4292337D01*
G01X6156576Y4297338D01*
G01X6133780Y4297338D01*
G01X6133780Y4260338D01*
G01X6100780Y4260338D01*
G01X6100780Y4297338D01*
G01X6076577Y4297338D01*
G01X6071578Y4292337D01*
G01X6071578Y4212337D01*
G01X6076577Y4207339D01*
G01X6156576Y4207339D01*
G01X6161578Y4212337D01*
G37*
G36*
G01X5658764Y4451341D02*
G01X5658764Y4371341D01*
G01X5663766Y4366340D01*
G01X5686562Y4366340D01*
G01X5686562Y4403340D01*
G01X5719562Y4403340D01*
G01X5719562Y4366340D01*
G01X5743766Y4366340D01*
G01X5748764Y4371341D01*
G01X5748764Y4451341D01*
G01X5743766Y4456340D01*
G01X5663766Y4456340D01*
G01X5658764Y4451341D01*
G37*
G36*
G01X5748762Y4212337D02*
G01X5748762Y4292337D01*
G01X5743760Y4297338D01*
G01X5720964Y4297338D01*
G01X5720964Y4260338D01*
G01X5687964Y4260338D01*
G01X5687964Y4297338D01*
G01X5663761Y4297338D01*
G01X5658762Y4292337D01*
G01X5658762Y4212337D01*
G01X5663761Y4207339D01*
G01X5743760Y4207339D01*
G01X5748762Y4212337D01*
G37*
G36*
G01X5275327Y4451341D02*
G01X5275327Y4371341D01*
G01X5280329Y4366340D01*
G01X5303125Y4366340D01*
G01X5303125Y4403340D01*
G01X5336125Y4403340D01*
G01X5336125Y4366340D01*
G01X5360328Y4366340D01*
G01X5365327Y4371341D01*
G01X5365327Y4451341D01*
G01X5360328Y4456340D01*
G01X5280329Y4456340D01*
G01X5275327Y4451341D01*
G37*
G36*
G01X5365325Y4212337D02*
G01X5365325Y4292337D01*
G01X5360323Y4297338D01*
G01X5337527Y4297338D01*
G01X5337527Y4260338D01*
G01X5304527Y4260338D01*
G01X5304527Y4297338D01*
G01X5280323Y4297338D01*
G01X5275325Y4292337D01*
G01X5275325Y4212337D01*
G01X5280323Y4207339D01*
G01X5360323Y4207339D01*
G01X5365325Y4212337D01*
G37*
G36*
G01X7979788Y4451341D02*
G01X7979788Y4371341D01*
G01X7984790Y4366340D01*
G01X8007586Y4366340D01*
G01X8007586Y4403340D01*
G01X8040586Y4403340D01*
G01X8040586Y4366340D01*
G01X8064790Y4366340D01*
G01X8069788Y4371341D01*
G01X8069788Y4451341D01*
G01X8064790Y4456340D01*
G01X7984790Y4456340D01*
G01X7979788Y4451341D01*
G37*
G36*
G01X8069786Y4212337D02*
G01X8069786Y4292337D01*
G01X8064784Y4297338D01*
G01X8041988Y4297338D01*
G01X8041988Y4260338D01*
G01X8008988Y4260338D01*
G01X8008988Y4297338D01*
G01X7984785Y4297338D01*
G01X7979786Y4292337D01*
G01X7979786Y4212337D01*
G01X7984785Y4207339D01*
G01X8064784Y4207339D01*
G01X8069786Y4212337D01*
G37*
G36*
G01X7605072Y4451341D02*
G01X7605072Y4371341D01*
G01X7610074Y4366340D01*
G01X7632870Y4366340D01*
G01X7632870Y4403340D01*
G01X7665870Y4403340D01*
G01X7665870Y4366340D01*
G01X7690074Y4366340D01*
G01X7695072Y4371341D01*
G01X7695072Y4451341D01*
G01X7690074Y4456340D01*
G01X7610074Y4456340D01*
G01X7605072Y4451341D01*
G37*
G36*
G01X7695070Y4212337D02*
G01X7695070Y4292337D01*
G01X7690068Y4297338D01*
G01X7667272Y4297338D01*
G01X7667272Y4260338D01*
G01X7634272Y4260338D01*
G01X7634272Y4297338D01*
G01X7610069Y4297338D01*
G01X7605070Y4292337D01*
G01X7605070Y4212337D01*
G01X7610069Y4207339D01*
G01X7690068Y4207339D01*
G01X7695070Y4212337D01*
G37*
G36*
G01X7221503Y4451341D02*
G01X7221503Y4371341D01*
G01X7226504Y4366340D01*
G01X7249301Y4366340D01*
G01X7249301Y4403340D01*
G01X7282301Y4403340D01*
G01X7282301Y4366340D01*
G01X7306504Y4366340D01*
G01X7311503Y4371341D01*
G01X7311503Y4451341D01*
G01X7306504Y4456340D01*
G01X7226504Y4456340D01*
G01X7221503Y4451341D01*
G37*
G36*
G01X7311500Y4212337D02*
G01X7311500Y4292337D01*
G01X7306499Y4297338D01*
G01X7283703Y4297338D01*
G01X7283703Y4260338D01*
G01X7250703Y4260338D01*
G01X7250703Y4297338D01*
G01X7226499Y4297338D01*
G01X7221501Y4292337D01*
G01X7221501Y4212337D01*
G01X7226499Y4207339D01*
G01X7306499Y4207339D01*
G01X7311500Y4212337D01*
G37*
G36*
G01X6808819Y4451341D02*
G01X6808819Y4371341D01*
G01X6813821Y4366340D01*
G01X6836617Y4366340D01*
G01X6836617Y4403340D01*
G01X6869617Y4403340D01*
G01X6869617Y4366340D01*
G01X6893820Y4366340D01*
G01X6898819Y4371341D01*
G01X6898819Y4451341D01*
G01X6893820Y4456340D01*
G01X6813821Y4456340D01*
G01X6808819Y4451341D01*
G37*
G36*
G01X6898817Y4212337D02*
G01X6898817Y4292337D01*
G01X6893815Y4297338D01*
G01X6871019Y4297338D01*
G01X6871019Y4260338D01*
G01X6838019Y4260338D01*
G01X6838019Y4297338D01*
G01X6813815Y4297338D01*
G01X6808817Y4292337D01*
G01X6808817Y4212337D01*
G01X6813815Y4207339D01*
G01X6893815Y4207339D01*
G01X6898817Y4212337D01*
G37*
G36*
G01X6433596Y4451341D02*
G01X6433596Y4371341D01*
G01X6438598Y4366340D01*
G01X6461394Y4366340D01*
G01X6461394Y4403340D01*
G01X6494394Y4403340D01*
G01X6494394Y4366340D01*
G01X6518598Y4366340D01*
G01X6523596Y4371341D01*
G01X6523596Y4451341D01*
G01X6518598Y4456340D01*
G01X6438598Y4456340D01*
G01X6433596Y4451341D01*
G37*
G36*
G01X6523594Y4212337D02*
G01X6523594Y4292337D01*
G01X6518593Y4297338D01*
G01X6495796Y4297338D01*
G01X6495796Y4260338D01*
G01X6462796Y4260338D01*
G01X6462796Y4297338D01*
G01X6438593Y4297338D01*
G01X6433594Y4292337D01*
G01X6433594Y4212337D01*
G01X6438593Y4207339D01*
G01X6518593Y4207339D01*
G01X6523594Y4212337D01*
G37*
G36*
G01X11200135Y4726442D02*
G01X11200135Y4806442D01*
G01X11195134Y4811443D01*
G01X11172337Y4811443D01*
G01X11172337Y4774443D01*
G01X11139338Y4774443D01*
G01X11139338Y4811443D01*
G01X11115134Y4811443D01*
G01X11110135Y4806442D01*
G01X11110135Y4726442D01*
G01X11115134Y4721443D01*
G01X11195134Y4721443D01*
G01X11200135Y4726442D01*
G37*
G36*
G01X11110138Y4965446D02*
G01X11110138Y4885446D01*
G01X11115139Y4880445D01*
G01X11137936Y4880445D01*
G01X11137936Y4917445D01*
G01X11170935Y4917445D01*
G01X11170935Y4880445D01*
G01X11195139Y4880445D01*
G01X11200138Y4885446D01*
G01X11200138Y4965446D01*
G01X11195139Y4970445D01*
G01X11115139Y4970445D01*
G01X11110138Y4965446D01*
G37*
G36*
G01X13841735Y4731261D02*
G01X13841735Y4811260D01*
G01X13836734Y4816262D01*
G01X13813937Y4816262D01*
G01X13813937Y4779261D01*
G01X13780938Y4779261D01*
G01X13780938Y4816262D01*
G01X13756734Y4816262D01*
G01X13751735Y4811260D01*
G01X13751735Y4731261D01*
G01X13756734Y4726262D01*
G01X13836734Y4726262D01*
G01X13841735Y4731261D01*
G37*
G36*
G01X13751738Y4970264D02*
G01X13751738Y4890265D01*
G01X13756739Y4885263D01*
G01X13779536Y4885263D01*
G01X13779536Y4922263D01*
G01X13812535Y4922263D01*
G01X13812535Y4885263D01*
G01X13836739Y4885263D01*
G01X13841738Y4890265D01*
G01X13841738Y4970264D01*
G01X13836739Y4975263D01*
G01X13756739Y4975263D01*
G01X13751738Y4970264D01*
G37*
G36*
G01X11966123Y4933185D02*
G01X11966123Y4853186D01*
G01X11971124Y4848184D01*
G01X11993921Y4848184D01*
G01X11993921Y4885185D01*
G01X12026920Y4885185D01*
G01X12026920Y4848184D01*
G01X12051124Y4848184D01*
G01X12056123Y4853186D01*
G01X12056123Y4933185D01*
G01X12051124Y4938184D01*
G01X11971124Y4938184D01*
G01X11966123Y4933185D01*
G37*
G36*
G01X12056120Y4694182D02*
G01X12056120Y4774181D01*
G01X12051119Y4779183D01*
G01X12028322Y4779183D01*
G01X12028322Y4742183D01*
G01X11995323Y4742183D01*
G01X11995323Y4779183D01*
G01X11971119Y4779183D01*
G01X11966120Y4774181D01*
G01X11966120Y4694182D01*
G01X11971119Y4689183D01*
G01X12051119Y4689183D01*
G01X12056120Y4694182D01*
G37*
G36*
G01X12893223Y4964425D02*
G01X12893223Y4884425D01*
G01X12898224Y4879424D01*
G01X12921021Y4879424D01*
G01X12921021Y4916424D01*
G01X12954020Y4916424D01*
G01X12954020Y4879424D01*
G01X12978224Y4879424D01*
G01X12983223Y4884425D01*
G01X12983223Y4964425D01*
G01X12978224Y4969424D01*
G01X12898224Y4969424D01*
G01X12893223Y4964425D01*
G37*
G36*
G01X12983220Y4725421D02*
G01X12983220Y4805421D01*
G01X12978219Y4810422D01*
G01X12955422Y4810422D01*
G01X12955422Y4773422D01*
G01X12922423Y4773422D01*
G01X12922423Y4810422D01*
G01X12898219Y4810422D01*
G01X12893220Y4805421D01*
G01X12893220Y4725421D01*
G01X12898219Y4720422D01*
G01X12978219Y4720422D01*
G01X12983220Y4725421D01*
G37*

G04 Pad Start*
G54D10*
G01X3128079Y7409365D03*
G01X2988074Y7409365D03*
G01X3128079Y7202548D03*
G01X2988074Y7202548D03*
G01X3128079Y6995731D03*
G01X2988074Y6995731D03*
G01X3128079Y6788914D03*
G01X2988074Y6788914D03*
G01X3128079Y7616183D03*
G01X2988074Y7616183D03*
G01X3128079Y7823000D03*
G01X2988074Y7823000D03*
G01X3128079Y8029817D03*
G01X2988074Y8029817D03*
G01X3128079Y8236634D03*
G01X2988074Y8236634D03*
G01X4516932Y6080725D03*
G01X4656936Y6080725D03*
G01X4516932Y6298139D03*
G01X4656936Y6298139D03*
G01X4993226Y6960046D03*
G01X5133231Y6960046D03*
G54D11*
G01X4708140Y6515980D03*
G01X4708140Y6705972D03*
G01X4461125Y6610976D03*
G54D10*
G01X19780098Y10934700D03*
G01X19920102Y10934700D03*
G54D12*
G01X18797284Y9220241D03*
G01X18263300Y9220241D03*
G54D13*
G01X18981699Y11122594D03*
G01X18821806Y11121883D03*
G01X4647712Y11122594D03*
G01X4487819Y11121883D03*
G01X6706636Y11122594D03*
G01X6546743Y11121883D03*
G01X8702060Y11122594D03*
G01X8542167Y11121883D03*
G01X10875508Y11122594D03*
G01X10715615Y11121883D03*
G01X12963599Y11122594D03*
G01X12803706Y11121883D03*
G01X14968795Y11122594D03*
G01X14808902Y11121883D03*
G01X16910075Y11122594D03*
G01X16750182Y11121883D03*
G54D14*
G01X19582677Y7875981D03*
G01X19582677Y7810983D03*
G01X19582677Y7745984D03*
G01X19582677Y7680985D03*
G01X19582677Y7615961D03*
G01X19582677Y7550963D03*
G01X19582677Y7485964D03*
G01X19582677Y7420966D03*
G01X19582677Y7355967D03*
G01X19582677Y7290968D03*
G01X20280873Y7875981D03*
G01X20280873Y7810983D03*
G01X20280873Y7745984D03*
G01X20280873Y7680985D03*
G01X20280873Y7615961D03*
G01X20280873Y7550963D03*
G01X20280873Y7485964D03*
G01X20280873Y7420966D03*
G01X20280873Y7355967D03*
G01X20280873Y7290968D03*
G54D15*
G01X20317409Y9690100D03*
G01X20317409Y9817100D03*
G01X20317409Y9944100D03*
G01X20317409Y10071100D03*
G01X20317409Y10198100D03*
G01X20317409Y10325100D03*
G01X20317409Y10452100D03*
G01X20317409Y10579100D03*
G01X20317409Y10706100D03*
G01X19357391Y9690100D03*
G01X19357391Y9817100D03*
G01X19357391Y9944100D03*
G01X19357391Y10071100D03*
G01X19357391Y10198100D03*
G01X19357391Y10325100D03*
G01X19357391Y10452100D03*
G01X19357391Y10579100D03*
G01X19357391Y10706100D03*
G54D16*
G01X19817475Y8212277D03*
G01X19817475Y8072272D03*
G01X7193331Y5736629D03*
G01X7193331Y5876634D03*
G54D17*
G01X5315204Y4827600D03*
G01X5505196Y4827600D03*
G01X5410200Y5027600D03*
G01X5708904Y4827600D03*
G01X5898896Y4827600D03*
G01X5803900Y5027600D03*
G01X6089904Y4827600D03*
G01X6279896Y4827600D03*
G01X6184900Y5027600D03*
G01X6470904Y4827600D03*
G01X6660896Y4827600D03*
G01X6565900Y5027600D03*
G01X6851904Y4827600D03*
G01X7041896Y4827600D03*
G01X6946900Y5027600D03*
G01X7258304Y4827600D03*
G01X7448296Y4827600D03*
G01X7353300Y5027600D03*
G01X7652004Y4827600D03*
G01X7841996Y4827600D03*
G01X7747000Y5027600D03*
G01X8033004Y4827600D03*
G01X8222996Y4827600D03*
G01X8128000Y5027600D03*
G54D19*
G01X6985966Y6174890D03*
G01X6920968Y6174890D03*
G01X6855969Y6174890D03*
G01X6790971Y6174890D03*
G01X6725947Y6174890D03*
G01X6660948Y6174890D03*
G01X6595949Y6174890D03*
G01X6530951Y6174890D03*
G01X6465952Y6174890D03*
G01X6400954Y6174890D03*
G01X6985966Y5476695D03*
G01X6920968Y5476695D03*
G01X6855969Y5476695D03*
G01X6790971Y5476695D03*
G01X6725947Y5476695D03*
G01X6660948Y5476695D03*
G01X6595949Y5476695D03*
G01X6530951Y5476695D03*
G01X6465952Y5476695D03*
G01X6400954Y5476695D03*
G54D16*
G01X18935918Y5271170D03*
G01X18935918Y5411175D03*
G01X16376088Y5248269D03*
G01X16376088Y5108265D03*
G54D20*
G01X16548986Y4849700D03*
G01X16613984Y4849700D03*
G01X16679008Y4849700D03*
G01X16744007Y4849700D03*
G01X16809005Y4849700D03*
G01X16874004Y4849700D03*
G01X16939003Y4849700D03*
G01X17004001Y4849700D03*
G01X17069000Y4849700D03*
G01X17133998Y4849700D03*
G01X17198997Y4849700D03*
G01X17263996Y4849700D03*
G01X17328994Y4849700D03*
G01X17394018Y4849700D03*
G01X17394018Y5489679D03*
G01X17328994Y5489679D03*
G01X17263996Y5489679D03*
G01X17198997Y5489679D03*
G01X17133998Y5489679D03*
G01X17069000Y5489679D03*
G01X17004001Y5489679D03*
G01X16939003Y5489679D03*
G01X16874004Y5489679D03*
G01X16809005Y5489679D03*
G01X16744007Y5489679D03*
G01X16679008Y5489679D03*
G01X16614010Y5489679D03*
G01X16549011Y5489679D03*
G54D21*
G01X18759527Y5579894D03*
G01X18709515Y5579894D03*
G01X18659528Y5579894D03*
G01X18609515Y5579894D03*
G01X18559528Y5579894D03*
G01X18559528Y5089674D03*
G01X18609515Y5089674D03*
G01X18659528Y5089674D03*
G01X18709515Y5089674D03*
G01X18759527Y5089674D03*
G54D10*
G01X10369702Y6972300D03*
G01X10229698Y6972300D03*
G54D22*
G01X10088702Y6792900D03*
G01X10088702Y6742887D03*
G01X10088702Y6692900D03*
G01X10088702Y6642887D03*
G01X10088702Y6592900D03*
G01X10510698Y6792900D03*
G01X10510698Y6742887D03*
G01X10510698Y6692900D03*
G01X10510698Y6642887D03*
G01X10510698Y6592900D03*
G54D16*
G01X10460415Y3318611D03*
G01X10460415Y3178606D03*
G01X11525031Y3426286D03*
G01X11525031Y3286281D03*
G01X12370992Y3453064D03*
G01X12370992Y3313059D03*
G01X13237849Y3448165D03*
G01X13237849Y3308160D03*
G01X12771402Y6283611D03*
G01X12771402Y6143606D03*
G54D12*
G01X13114244Y8663221D03*
G01X13648228Y8663221D03*
G54D10*
G01X10829008Y5794618D03*
G01X10689003Y5794618D03*
G54D16*
G01X10756900Y4578198D03*
G01X10756900Y4718202D03*
G54D10*
G01X11690502Y5791200D03*
G01X11550498Y5791200D03*
G54D16*
G01X11607800Y4578198D03*
G01X11607800Y4718202D03*
G54D10*
G01X12541402Y5778500D03*
G01X12401398Y5778500D03*
G54D16*
G01X12470332Y4559017D03*
G01X12470332Y4699022D03*
G54D10*
G01X13407826Y5780295D03*
G01X13267821Y5780295D03*
G54D16*
G01X13328823Y4559017D03*
G01X13328823Y4699022D03*
G54D23*
G01X10470636Y5621176D03*
G01X10470636Y5556178D03*
G01X10470636Y5491179D03*
G01X10470636Y5426155D03*
G01X10470636Y5361156D03*
G01X10470636Y5296158D03*
G01X10470636Y5231159D03*
G01X10470636Y5166161D03*
G01X11043787Y5621176D03*
G01X11043787Y5556178D03*
G01X11043787Y5491179D03*
G01X11043787Y5426155D03*
G01X11043787Y5361156D03*
G01X11043787Y5296158D03*
G01X11043787Y5231159D03*
G01X11043787Y5166161D03*
G54D24*
G01X11509858Y6520656D03*
G01X11636858Y6520656D03*
G01X11763858Y6520656D03*
G01X11890858Y6520656D03*
G01X12017858Y6520656D03*
G01X12144858Y6520656D03*
G01X12271858Y6520656D03*
G01X12398858Y6520656D03*
G01X12525858Y6520656D03*
G01X12652858Y6520656D03*
G01X12779858Y6520656D03*
G01X12906858Y6520656D03*
G01X13033858Y6520656D03*
G01X13160858Y6520656D03*
G01X11509858Y7532160D03*
G01X11636858Y7532160D03*
G01X11763858Y7532160D03*
G01X11890858Y7532160D03*
G01X12017858Y7532160D03*
G01X12144858Y7532160D03*
G01X12271858Y7532160D03*
G01X12398858Y7532160D03*
G01X12525858Y7532160D03*
G01X12652858Y7532160D03*
G01X12779858Y7532160D03*
G01X12906858Y7532160D03*
G01X13033858Y7532160D03*
G01X13160858Y7532160D03*
G54D25*
G01X10803890Y4273702D03*
G01X10803890Y4133698D03*
G01X10709910Y4273702D03*
G01X10709910Y4133698D03*
G54D23*
G01X11333925Y5625008D03*
G01X11333925Y5560009D03*
G01X11333925Y5495011D03*
G01X11333925Y5429987D03*
G01X11333925Y5364988D03*
G01X11333925Y5299989D03*
G01X11333925Y5234991D03*
G01X11333925Y5169992D03*
G01X11907076Y5625008D03*
G01X11907076Y5560009D03*
G01X11907076Y5495011D03*
G01X11907076Y5429987D03*
G01X11907076Y5364988D03*
G01X11907076Y5299989D03*
G01X11907076Y5234991D03*
G01X11907076Y5169992D03*
G54D25*
G01X11658831Y4274801D03*
G01X11658831Y4134796D03*
G01X11564851Y4274801D03*
G01X11564851Y4134796D03*
G54D23*
G01X12184825Y5625008D03*
G01X12184825Y5560009D03*
G01X12184825Y5495011D03*
G01X12184825Y5429987D03*
G01X12184825Y5364988D03*
G01X12184825Y5299989D03*
G01X12184825Y5234991D03*
G01X12184825Y5169992D03*
G01X12757976Y5625008D03*
G01X12757976Y5560009D03*
G01X12757976Y5495011D03*
G01X12757976Y5429987D03*
G01X12757976Y5364988D03*
G01X12757976Y5299989D03*
G01X12757976Y5234991D03*
G01X12757976Y5169992D03*
G54D25*
G01X12517322Y4262101D03*
G01X12517322Y4122096D03*
G01X12423342Y4262101D03*
G01X12423342Y4122096D03*
G54D23*
G01X13048425Y5625008D03*
G01X13048425Y5560009D03*
G01X13048425Y5495011D03*
G01X13048425Y5429987D03*
G01X13048425Y5364988D03*
G01X13048425Y5299989D03*
G01X13048425Y5234991D03*
G01X13048425Y5169992D03*
G01X13621576Y5625008D03*
G01X13621576Y5560009D03*
G01X13621576Y5495011D03*
G01X13621576Y5429987D03*
G01X13621576Y5364988D03*
G01X13621576Y5299989D03*
G01X13621576Y5234991D03*
G01X13621576Y5169992D03*
G54D25*
G01X13381990Y4261002D03*
G01X13381990Y4120998D03*
G01X13288010Y4261002D03*
G01X13288010Y4120998D03*
G54D10*
G01X15906608Y3823899D03*
G01X16046613Y3823899D03*
G01X16939669Y3730572D03*
G01X17079674Y3730572D03*
G01X18247769Y3692144D03*
G01X18387774Y3692144D03*
G54D26*
G01X15856204Y3482810D03*
G01X16046196Y3482810D03*
G01X16046196Y3222790D03*
G01X15951200Y3222790D03*
G01X15856204Y3222790D03*
G54D27*
G01X16058896Y4230599D03*
G01X16058896Y4165600D03*
G01X16058896Y4100601D03*
G01X15868904Y4100601D03*
G01X15868904Y4165600D03*
G01X15868904Y4230599D03*
G54D10*
G01X19466969Y3721529D03*
G01X19606974Y3721529D03*
G54D28*
G01X2311400Y5379898D03*
G01X2311400Y5719902D03*
G54D26*
G01X16897604Y3393910D03*
G01X17087596Y3393910D03*
G01X17087596Y3133890D03*
G01X16992600Y3133890D03*
G01X16897604Y3133890D03*
G54D27*
G01X17100296Y4141699D03*
G01X17100296Y4076700D03*
G01X17100296Y4011701D03*
G01X16910304Y4011701D03*
G01X16910304Y4076700D03*
G01X16910304Y4141699D03*
G54D26*
G01X18218404Y3355810D03*
G01X18408396Y3355810D03*
G01X18408396Y3095790D03*
G01X18313400Y3095790D03*
G01X18218404Y3095790D03*
G54D27*
G01X18408396Y4103599D03*
G01X18408396Y4038600D03*
G01X18408396Y3973601D03*
G01X18218404Y3973601D03*
G01X18218404Y4038600D03*
G01X18218404Y4103599D03*
G54D26*
G01X19450304Y3393910D03*
G01X19640296Y3393910D03*
G01X19640296Y3133890D03*
G01X19545300Y3133890D03*
G01X19450304Y3133890D03*
G54D27*
G01X19627596Y4128999D03*
G01X19627596Y4064000D03*
G01X19627596Y3999001D03*
G01X19437604Y3999001D03*
G01X19437604Y4064000D03*
G01X19437604Y4128999D03*
G54D29*
G01X5003800Y6168390D03*
G01X5130800Y6168390D03*
G01X5257800Y6168390D03*
G01X5384800Y6168390D03*
G01X5003800Y6709410D03*
G01X5130800Y6709410D03*
G01X5257800Y6709410D03*
G01X5384800Y6709410D03*
G54D30*
G01X11245596Y3870008D03*
G01X11055604Y3870008D03*
G01X11150600Y3622993D03*
G01X12109196Y3895408D03*
G01X11919204Y3895408D03*
G01X12014200Y3648393D03*
G01X13823696Y3920808D03*
G01X13633704Y3920808D03*
G01X13728700Y3673793D03*
G01X12972796Y3908108D03*
G01X12782804Y3908108D03*
G01X12877800Y3661093D03*
G54D31*
G01X1244600Y13944600D03*
G01X1320800Y1092200D03*
G01X21526500Y990600D03*
G04 Pad End*

M02*

