G04 Layer: BottomSolderMaskLayer*
G04 EasyEDA Pro v2.2.40.8, 2025-09-09 13:59:53*
G04 Gerber Generator version 0.3*
G04 Scale: 100 percent, Rotated: No, Reflected: No*
G04 Dimensions in millimeters*
G04 Leading zeros omitted, absolute positions, 4 integers and 5 decimals*
G04 Generated by one-click*
%FSLAX45Y45*%
%MOMM*%
%AMRoundRect*1,1,$1,$2,$3*1,1,$1,$4,$5*1,1,$1,0-$2,0-$3*1,1,$1,0-$4,0-$5*20,1,$1,$2,$3,$4,$5,0*20,1,$1,$4,$5,0-$2,0-$3,0*20,1,$1,0-$2,0-$3,0-$4,0-$5,0*20,1,$1,0-$4,0-$5,$2,$3,0*4,1,4,$2,$3,$4,$5,0-$2,0-$3,0-$4,0-$5,$2,$3,0*%
%ADD10C,1.6256*%
%ADD11C,3.1016*%
%ADD12C,1.6016*%
%ADD13C,1.8796*%
%ADD14RoundRect,0.09691X-1.00234X1.00234X1.00234X1.00234*%
%ADD15C,2.1016*%
%ADD16C,2.8956*%
%ADD17C,2.5063*%
%ADD18C,2.5016*%
%ADD19C,2.90159*%
%ADD20RoundRect,0.09618X-0.85271X0.85271X0.85271X0.85271*%
%ADD21C,1.8016*%
%ADD22C,2.6016*%
%ADD23C,2.152*%
G75*


G04 Pad Start*
G54D10*
G01X20307300Y10845800D03*
G01X5430450Y12794050D03*
G01X5430450Y12286050D03*
G01X7440825Y12788006D03*
G01X7440825Y12280006D03*
G01X9460125Y12788006D03*
G01X9460125Y12280006D03*
G01X11504825Y12800706D03*
G01X11504825Y12292706D03*
G01X13549525Y12788006D03*
G01X13549525Y12280006D03*
G01X17613525Y12788006D03*
G01X17613525Y12280006D03*
G01X15581525Y12788006D03*
G01X15581525Y12280006D03*
G01X19620125Y12788006D03*
G01X19620125Y12280006D03*
G54D11*
G01X4000500Y2171700D03*
G01X4000500Y3187700D03*
G01X3492500Y2171700D03*
G01X3492500Y3187700D03*
G54D12*
G01X3517900Y8077200D03*
G01X3517900Y8585200D03*
G01X4025900Y8597900D03*
G01X4025900Y8077200D03*
G01X4724400Y8451850D03*
G01X5232400Y8464550D03*
G01X5232400Y7943850D03*
G01X4724400Y7943850D03*
G54D13*
G01X3414250Y9110668D03*
G01X3668249Y9110668D03*
G01X3922249Y9110668D03*
G01X4176248Y9110668D03*
G01X4430248Y9110668D03*
G01X4684247Y9110668D03*
G01X4938247Y9110668D03*
G01X5192246Y9110668D03*
G01X5446246Y9110668D03*
G01X5700245Y9110668D03*
G01X5954245Y9110668D03*
G01X6208244Y9110668D03*
G01X6462244Y9110668D03*
G01X6462244Y9364667D03*
G01X6208244Y9364667D03*
G01X5954245Y9364667D03*
G01X5700245Y9364667D03*
G01X5446246Y9364667D03*
G01X5192246Y9364667D03*
G01X4938247Y9364667D03*
G01X4684247Y9364667D03*
G01X4430248Y9364667D03*
G01X4176248Y9364667D03*
G01X3922249Y9364667D03*
G01X3668249Y9364667D03*
G01X3414250Y9364667D03*
G01X6716243Y9110668D03*
G01X6716243Y9364667D03*
G01X6970243Y9110668D03*
G01X6970243Y9364667D03*
G01X7224242Y9110668D03*
G01X7224242Y9364667D03*
G01X7478242Y9110668D03*
G01X7478242Y9364667D03*
G01X7732241Y9110668D03*
G01X7732241Y9364667D03*
G01X7986241Y9110668D03*
G01X7986241Y9364667D03*
G01X8240240Y9110668D03*
G01X8240240Y9364667D03*
G54D14*
G01X3683000Y9893300D03*
G54D15*
G01X3937000Y9893300D03*
G54D16*
G01X3796107Y13049126D03*
G01X4396055Y11629113D03*
G01X4996054Y11829113D03*
G01X3796057Y11829113D03*
G01X4996003Y13049126D03*
G01X5828107Y13049126D03*
G01X6428055Y11629113D03*
G01X7028054Y11829113D03*
G01X5828057Y11829113D03*
G01X7028003Y13049126D03*
G01X7860107Y13049126D03*
G01X8460055Y11629113D03*
G01X9060054Y11829113D03*
G01X7860057Y11829113D03*
G01X9060003Y13049126D03*
G01X9892107Y13049126D03*
G01X10492055Y11629113D03*
G01X11092054Y11829113D03*
G01X9892057Y11829113D03*
G01X11092003Y13049126D03*
G01X11924107Y13049126D03*
G01X12524055Y11629113D03*
G01X13124054Y11829113D03*
G01X11924057Y11829113D03*
G01X13124003Y13049126D03*
G01X13956107Y13049126D03*
G01X14556055Y11629113D03*
G01X15156054Y11829113D03*
G01X13956057Y11829113D03*
G01X15156003Y13049126D03*
G01X15988107Y13049126D03*
G01X16588055Y11629113D03*
G01X17188054Y11829113D03*
G01X15988057Y11829113D03*
G01X17188003Y13049126D03*
G01X18020107Y13049126D03*
G01X18620055Y11629113D03*
G01X19220054Y11829113D03*
G01X18020057Y11829113D03*
G01X19220003Y13049126D03*
G54D18*
G01X4902200Y13995400D03*
G01X4394200Y13995400D03*
G01X3886200Y13995400D03*
G01X6934200Y13995400D03*
G01X6426200Y13995400D03*
G01X5918200Y13995400D03*
G01X8966200Y13995400D03*
G01X8458200Y13995400D03*
G01X7950200Y13995400D03*
G01X10998200Y13995400D03*
G01X10490200Y13995400D03*
G01X9982200Y13995400D03*
G01X13030200Y13995400D03*
G01X12522200Y13995400D03*
G01X12014200Y13995400D03*
G01X15062200Y13995400D03*
G01X14554200Y13995400D03*
G01X14046200Y13995400D03*
G01X17094200Y13995400D03*
G01X16586200Y13995400D03*
G01X16078200Y13995400D03*
G01X19126200Y14008100D03*
G01X18618200Y14008100D03*
G01X18110200Y14008100D03*
G54D11*
G01X9728200Y1003300D03*
G01X9228328Y1003300D03*
G01X8712200Y1003300D03*
G01X8204200Y1003300D03*
G01X7696200Y1003300D03*
G01X7188200Y1003300D03*
G01X6680200Y1003300D03*
G01X6172200Y1003300D03*
G54D19*
G01X14808200Y1003300D03*
G01X14300200Y1003300D03*
G01X13792200Y1003300D03*
G01X13284200Y1003300D03*
G54D11*
G01X21996400Y9271000D03*
G01X21996400Y8771128D03*
G01X21996400Y8255000D03*
G01X21996400Y7747000D03*
G01X21996400Y7239000D03*
G01X21996400Y6731000D03*
G01X21996400Y6223000D03*
G01X21996400Y5715000D03*
G01X1003300Y5715000D03*
G01X1003300Y6214872D03*
G01X1003300Y6731000D03*
G01X1003300Y7239000D03*
G01X1003300Y7747000D03*
G01X1003300Y8255000D03*
G01X1003300Y8763000D03*
G01X1003300Y9271000D03*
G54D19*
G01X12268200Y1003300D03*
G01X11760200Y1003300D03*
G01X11252200Y1003300D03*
G01X10744200Y1003300D03*
G54D20*
G01X16560800Y2362200D03*
G54D21*
G01X16560800Y2616200D03*
G01X16306800Y2362200D03*
G01X16306800Y2616200D03*
G54D20*
G01X17830800Y2349500D03*
G54D21*
G01X17830800Y2603500D03*
G01X17576800Y2349500D03*
G01X17576800Y2603500D03*
G54D20*
G01X19050000Y2362200D03*
G54D21*
G01X19050000Y2616200D03*
G01X18796000Y2362200D03*
G01X18796000Y2616200D03*
G54D20*
G01X20281900Y2362200D03*
G54D21*
G01X20281900Y2616200D03*
G01X20027900Y2362200D03*
G01X20027900Y2616200D03*
G54D15*
G01X13119355Y9882655D03*
G01X13119355Y8053855D03*
G01X17157955Y8053855D03*
G01X17157955Y9882655D03*
G54D10*
G01X6172200Y2654300D03*
G01X6680200Y2654300D03*
G01X7188200Y2654300D03*
G01X7694634Y2654300D03*
G01X8201918Y2654300D03*
G01X8712200Y2654300D03*
G01X9225437Y2654300D03*
G01X9726753Y2654300D03*
G01X6172200Y2146300D03*
G01X6680200Y2146300D03*
G01X7190075Y2146300D03*
G01X7696200Y2146300D03*
G01X8202633Y2146300D03*
G01X8710580Y2146300D03*
G01X9229136Y2146300D03*
G01X9728200Y2146300D03*
G01X10744200Y2654300D03*
G01X10744200Y2146300D03*
G01X11252200Y2146300D03*
G01X11252200Y2654300D03*
G01X11760200Y2146300D03*
G01X11760200Y2654300D03*
G01X12268200Y2146300D03*
G01X12268200Y2654300D03*
G01X13284200Y2146300D03*
G01X13284200Y2654300D03*
G01X13792200Y2654300D03*
G01X13792200Y2146300D03*
G01X14300200Y2146300D03*
G01X14300200Y2654300D03*
G01X14808200Y2146300D03*
G01X14808200Y2654300D03*
G54D22*
G01X20396200Y5816600D03*
G01X2374900Y7048500D03*
G54D23*
G01X21539200Y482600D03*
G01X1320800Y571500D03*
G01X1244600Y14389100D03*
G04 Pad End*

M02*

