<?xml version="1.0" encoding="UTF-8"?>
<svg id="Layer_1" data-name="Layer 1" xmlns="http://www.w3.org/2000/svg" viewBox="0 0 161.22 72.81">
  <defs>
    <style>
      .cls-1 {
        fill: none;
        stroke: #4d4d4d;
        stroke-linecap: round;
        stroke-miterlimit: 10;
        stroke-width: 2.83px;
      }

      .cls-2 {
        fill: #006837;
      }
    </style>
  </defs>
  <g>
    <path d="M11.4,32.29c-2.26,0-4.41-.32-6.46-.97-2.05-.65-3.7-1.48-4.93-2.5l1.86-4.17c1.16,.91,2.59,1.67,4.29,2.27,1.71,.61,3.45,.91,5.24,.91,1.51,0,2.74-.17,3.67-.5,.93-.33,1.62-.78,2.06-1.34,.44-.56,.66-1.2,.66-1.92,0-.88-.32-1.59-.95-2.13-.63-.54-1.45-.96-2.46-1.28s-2.12-.61-3.34-.87c-1.23-.26-2.45-.58-3.67-.97-1.23-.39-2.35-.87-3.37-1.47-1.02-.59-1.84-1.38-2.46-2.37-.62-.99-.93-2.26-.93-3.8s.42-3.01,1.26-4.31c.84-1.31,2.12-2.35,3.84-3.14,1.72-.78,3.9-1.18,6.54-1.18,1.73,0,3.45,.22,5.16,.66,1.71,.44,3.19,1.07,4.46,1.9l-1.69,4.17c-1.29-.77-2.63-1.34-4-1.71-1.38-.37-2.7-.56-3.96-.56-1.46,0-2.66,.18-3.59,.54-.94,.36-1.62,.83-2.04,1.42-.43,.59-.64,1.25-.64,1.96,0,.88,.31,1.59,.93,2.13,.62,.54,1.43,.96,2.44,1.26,1,.3,2.13,.59,3.37,.87,1.24,.28,2.46,.6,3.67,.97s2.33,.85,3.34,1.45c1.02,.59,1.84,1.38,2.46,2.35,.62,.98,.93,2.22,.93,3.74s-.42,2.97-1.26,4.27c-.84,1.31-2.13,2.35-3.86,3.14-1.73,.78-3.92,1.18-6.56,1.18Z"/>
    <path d="M30.51,6.19c-.96,0-1.75-.3-2.37-.91-.62-.6-.93-1.35-.93-2.23,0-.83,.31-1.54,.93-2.15,.62-.6,1.41-.91,2.37-.91s1.75,.28,2.37,.85c.62,.56,.93,1.29,.93,2.17s-.3,1.63-.91,2.25-1.4,.93-2.39,.93Zm-2.56,25.68V9.83h5.12V31.87h-5.12Z"/>
    <path d="M49.21,30.88c-2.12,0-4.02-.45-5.7-1.34-1.68-.89-3.01-2.14-3.98-3.74-.98-1.6-1.47-3.45-1.47-5.57s.49-4.03,1.47-5.64c.98-1.61,2.3-2.85,3.98-3.74,1.68-.88,3.58-1.32,5.7-1.32,1.87,0,3.56,.38,5.06,1.14,1.5,.76,2.69,1.92,3.57,3.49s1.32,3.59,1.32,6.07-.44,4.42-1.32,5.99-2.07,2.74-3.57,3.51c-1.5,.77-3.19,1.16-5.06,1.16Zm.66,9.29c-2.06,0-4.05-.27-5.97-.8-1.91-.54-3.5-1.33-4.77-2.37l2.31-3.84c.96,.8,2.17,1.45,3.63,1.94,1.46,.5,2.97,.74,4.54,.74,2.39,0,4.16-.56,5.28-1.67s1.69-2.8,1.69-5.06v-3.92l.41-4.95-.17-5v-5.41h4.91V28.53c0,3.99-1.02,6.93-3.05,8.81-2.04,1.89-4.98,2.83-8.83,2.83Zm.12-13.67c1.29,0,2.45-.27,3.47-.81,1.02-.54,1.81-1.28,2.37-2.23,.56-.95,.85-2.03,.85-3.24s-.28-2.37-.85-3.3c-.56-.94-1.36-1.67-2.37-2.19-1.02-.52-2.17-.78-3.47-.78s-2.46,.26-3.49,.78c-1.03,.52-1.83,1.25-2.39,2.19-.56,.94-.85,2.04-.85,3.3s.28,2.29,.85,3.24c.56,.95,1.36,1.69,2.39,2.23s2.19,.81,3.49,.81Z"/>
    <path d="M82.41,32.29c-2.23,0-4.28-.37-6.15-1.09-1.87-.73-3.5-1.77-4.89-3.12-1.39-1.35-2.47-2.92-3.24-4.71-.77-1.79-1.16-3.77-1.16-5.95s.39-4.16,1.16-5.95c.77-1.79,1.86-3.36,3.26-4.71,1.4-1.35,3.04-2.39,4.91-3.12,1.87-.73,3.92-1.09,6.15-1.09,2.37,0,4.53,.41,6.48,1.22,1.95,.81,3.61,2.02,4.95,3.61l-3.47,3.26c-1.07-1.13-2.26-1.97-3.55-2.54-1.29-.56-2.68-.85-4.17-.85s-2.9,.25-4.15,.74c-1.25,.5-2.34,1.2-3.26,2.11s-1.64,1.98-2.17,3.22c-.52,1.24-.79,2.6-.79,4.09s.26,2.85,.79,4.09c.52,1.24,1.25,2.31,2.17,3.22s2.01,1.61,3.26,2.11c1.25,.5,2.64,.74,4.15,.74s2.88-.28,4.17-.85c1.29-.56,2.48-1.42,3.55-2.58l3.47,3.26c-1.35,1.6-3,2.81-4.95,3.63-1.96,.83-4.13,1.24-6.52,1.24Z"/>
    <path d="M107.05,32.16c-2.23,0-4.23-.49-6.01-1.47-1.78-.98-3.17-2.32-4.19-4.03-1.02-1.71-1.53-3.65-1.53-5.82s.51-4.18,1.53-5.86c1.02-1.68,2.41-3.01,4.17-3.98,1.76-.98,3.77-1.47,6.03-1.47s4.31,.49,6.09,1.47c1.78,.98,3.17,2.31,4.17,3.98,1,1.68,1.51,3.63,1.51,5.86s-.5,4.15-1.51,5.84c-1,1.69-2.4,3.03-4.19,4-1.79,.98-3.81,1.47-6.07,1.47Zm0-4.38c1.27,0,2.4-.28,3.39-.85,.99-.56,1.77-1.38,2.33-2.44,.56-1.06,.85-2.28,.85-3.65s-.28-2.62-.85-3.65c-.56-1.03-1.34-1.83-2.33-2.39-.99-.56-2.11-.85-3.34-.85s-2.35,.28-3.34,.85c-.99,.56-1.78,1.36-2.35,2.39-.58,1.03-.87,2.25-.87,3.65s.29,2.59,.87,3.65c.58,1.06,1.36,1.87,2.35,2.44,.99,.56,2.09,.85,3.3,.85Z"/>
    <path d="M123.82,31.87V9.83h4.91v6.07l-.58-1.78c.63-1.49,1.67-2.62,3.1-3.41,1.43-.78,3.18-1.18,5.24-1.18v4.91c-.19-.03-.39-.05-.58-.06-.19-.01-.37-.02-.54-.02-1.98,0-3.55,.56-4.71,1.69-1.16,1.13-1.73,2.85-1.73,5.16v10.65h-5.12Z"/>
    <path d="M150.86,32.16c-2.45,0-4.59-.49-6.42-1.47-1.83-.98-3.25-2.31-4.25-4-1-1.69-1.51-3.64-1.51-5.84s.49-4.15,1.47-5.84c.98-1.69,2.33-3.03,4.05-4,1.72-.98,3.68-1.47,5.88-1.47s4.06,.48,5.74,1.42c1.68,.95,3,2.28,3.96,3.98,.96,1.71,1.45,3.73,1.45,6.07,0,.19,0,.43-.02,.72-.01,.29-.04,.54-.06,.76h-18.37v-3.43h15.65l-2.06,1.07c.03-1.24-.23-2.35-.76-3.32-.54-.98-1.27-1.73-2.21-2.27-.94-.54-2.04-.81-3.3-.81s-2.35,.27-3.32,.81c-.98,.54-1.73,1.3-2.25,2.29-.52,.99-.78,2.13-.78,3.43v.83c0,1.32,.29,2.49,.89,3.51,.59,1.02,1.44,1.81,2.54,2.37,1.1,.56,2.38,.85,3.84,.85,1.24,0,2.35-.21,3.34-.62,.99-.41,1.87-1.02,2.64-1.82l2.81,3.22c-1.02,1.16-2.28,2.04-3.78,2.64s-3.21,.91-5.14,.91Z"/>
  </g>
  <path class="cls-1" d="M1.88,55.47c1.35,0,15.23,.31,17.31-.06,10.46-1.87,9.6-15.87,14.76-15.88,4.56,0,5.85,31.76,11.62,31.76,6.31,0,8.84-26.13,13.13-26.04,3.49,.08,4.64,8.88,7.81,10.27,1.48,.65,2.4,.4,3.39,.36,6.23-.23,74.61-.38,89.61-.19"/>
  <g>
    <path class="cls-2" d="M86.98,72.81c-4.79,0-8.53-1.33-11.22-4-2.7-2.67-4.05-6.49-4.05-11.46v-18.83h7.85v18.64c0,3.18,.66,5.48,1.98,6.91,1.32,1.43,3.15,2.14,5.49,2.14s4.22-.71,5.54-2.14c1.32-1.43,1.97-3.73,1.97-6.91v-18.64h7.66v18.83c0,4.98-1.35,8.8-4.05,11.46-2.7,2.67-6.42,4-11.17,4Z"/>
    <path class="cls-2" d="M126.09,72.81c-2.6,0-5.02-.43-7.25-1.28-2.23-.85-4.17-2.06-5.8-3.64-1.64-1.57-2.91-3.42-3.83-5.54-.92-2.12-1.37-4.45-1.37-6.98s.46-4.87,1.37-6.98c.92-2.12,2.2-3.97,3.85-5.54,1.65-1.57,3.6-2.79,5.83-3.64,2.23-.85,4.65-1.28,7.25-1.28,2.92,0,5.57,.51,7.95,1.52,2.38,1.01,4.37,2.5,5.97,4.46l-5.06,4.62c-1.12-1.32-2.4-2.31-3.83-2.99-1.43-.67-2.98-1.01-4.65-1.01-1.57,0-3.02,.27-4.33,.79s-2.46,1.28-3.42,2.24c-.96,.96-1.71,2.1-2.24,3.42-.53,1.32-.79,2.78-.79,4.38s.26,3.07,.79,4.38c.53,1.32,1.28,2.46,2.24,3.42,.96,.96,2.1,1.71,3.42,2.24,1.32,.53,2.76,.79,4.33,.79,1.67,0,3.22-.34,4.65-1.04,1.43-.69,2.71-1.69,3.83-3.01l5.06,4.62c-1.61,1.96-3.6,3.45-5.97,4.48-2.38,1.03-5.04,1.54-8,1.54Z"/>
  </g>
</svg>