<?xml version="1.0" encoding="UTF-8"?>
<svg id="Layer_1" data-name="Layer 1" xmlns="http://www.w3.org/2000/svg" xmlns:xlink="http://www.w3.org/1999/xlink" viewBox="0 0 585.53 392.85">
  <defs>
    <style>
      .cls-1 {
        fill: none;
      }

      .cls-1, .cls-2, .cls-3, .cls-4 {
        stroke: #000;
        stroke-miterlimit: 10;
      }

      .cls-2 {
        fill: #ece6dd;
      }

      .cls-3 {
        fill: #fff;
      }

      .cls-4 {
        fill: #f9f3eb;
      }
    </style>
  </defs>
  <rect class="cls-2" x="23.48" y="20.16" width="538.58" height="340.16"/>
  <rect class="cls-4" x="58.92" y=".5" width="467.72" height="103.5" rx="14.17" ry="14.17"/>
  <g>
    <path d="M81.5,97.01v-12.88h5.48c1.38,0,2.38,.12,3,.35s1.12,.64,1.5,1.23,.56,1.27,.56,2.03c0,.97-.28,1.77-.85,2.4s-1.42,1.03-2.55,1.19c.56,.33,1.03,.69,1.39,1.08s.86,1.09,1.48,2.09l1.57,2.51h-3.11l-1.88-2.8c-.67-1-1.12-1.63-1.37-1.89s-.51-.44-.78-.54-.71-.15-1.31-.15h-.53v5.38h-2.6Zm2.6-7.44h1.92c1.25,0,2.03-.05,2.34-.16s.55-.29,.73-.54,.26-.58,.26-.97c0-.43-.12-.78-.35-1.05s-.56-.44-.98-.51c-.21-.03-.84-.04-1.9-.04h-2.03v3.27Z"/>
    <path d="M99.88,94.04l2.46,.41c-.32,.9-.82,1.59-1.5,2.06s-1.54,.71-2.56,.71c-1.62,0-2.82-.53-3.6-1.59-.62-.85-.92-1.92-.92-3.22,0-1.55,.4-2.76,1.21-3.63s1.83-1.31,3.07-1.31c1.39,0,2.48,.46,3.29,1.38s1.19,2.32,1.15,4.21h-6.19c.02,.73,.22,1.3,.6,1.71s.86,.61,1.42,.61c.39,0,.71-.11,.98-.32s.46-.55,.6-1.02Zm.14-2.5c-.02-.71-.2-1.26-.55-1.63s-.78-.56-1.28-.56c-.54,0-.98,.2-1.34,.59s-.52,.93-.52,1.6h3.69Z"/>
    <path d="M104.49,97.01v-12.88h2.47v12.88h-2.47Z"/>
    <path d="M111.33,90.53l-2.24-.4c.25-.9,.69-1.57,1.3-2s1.53-.65,2.74-.65c1.1,0,1.92,.13,2.46,.39s.92,.59,1.14,.99,.33,1.14,.33,2.21l-.03,2.88c0,.82,.04,1.43,.12,1.81s.23,.81,.44,1.25h-2.44c-.06-.16-.14-.41-.24-.73-.04-.15-.07-.24-.09-.29-.42,.41-.87,.72-1.35,.92s-.99,.31-1.54,.31c-.96,0-1.72-.26-2.27-.78s-.83-1.18-.83-1.98c0-.53,.13-1,.38-1.41s.6-.73,1.06-.95,1.11-.41,1.96-.58c1.15-.22,1.95-.42,2.4-.61v-.25c0-.47-.12-.81-.35-1.02s-.68-.3-1.33-.3c-.44,0-.78,.09-1.03,.26s-.45,.48-.6,.91Zm3.3,2c-.32,.11-.82,.23-1.5,.38s-1.13,.29-1.34,.43c-.32,.23-.48,.52-.48,.87s.13,.64,.39,.9,.59,.38,.98,.38c.45,0,.87-.15,1.27-.44,.3-.22,.5-.5,.59-.82,.06-.21,.1-.61,.1-1.2v-.49Z"/>
    <path d="M118.33,87.68h2.63l2.23,6.63,2.18-6.63h2.56l-3.3,8.98-.59,1.63c-.22,.54-.42,.96-.62,1.25s-.42,.52-.68,.7-.57,.32-.94,.42-.79,.15-1.26,.15-.94-.05-1.4-.15l-.22-1.93c.39,.08,.74,.11,1.05,.11,.57,0,1-.17,1.27-.51s.49-.77,.63-1.29l-3.55-9.36Z"/>
    <path d="M134,90.65c0-1.31,.2-2.41,.59-3.3,.29-.66,.69-1.25,1.2-1.77s1.06-.91,1.67-1.16c.8-.34,1.73-.51,2.78-.51,1.9,0,3.42,.59,4.56,1.77s1.71,2.82,1.71,4.91-.57,3.71-1.7,4.88-2.64,1.76-4.54,1.76-3.44-.58-4.57-1.75-1.7-2.78-1.7-4.83Zm2.68-.09c0,1.46,.34,2.56,1.01,3.32s1.53,1.13,2.57,1.13,1.89-.37,2.55-1.12,1-1.87,1-3.36-.32-2.58-.97-3.3-1.51-1.09-2.58-1.09-1.94,.37-2.59,1.1-.98,1.84-.98,3.33Z"/>
    <path d="M154.66,97.01v-1.4c-.34,.5-.79,.89-1.34,1.18s-1.14,.43-1.75,.43-1.19-.14-1.69-.41-.86-.66-1.08-1.16-.33-1.19-.33-2.07v-5.91h2.47v4.29c0,1.31,.05,2.12,.14,2.41s.26,.53,.5,.7,.54,.26,.91,.26c.42,0,.8-.12,1.13-.35s.56-.52,.69-.86,.18-1.18,.18-2.52v-3.94h2.47v9.33h-2.29Z"/>
    <path d="M163.79,87.68v1.97h-1.69v3.76c0,.76,.02,1.21,.05,1.33s.11,.23,.22,.31,.25,.12,.42,.12c.23,0,.56-.08,.99-.24l.21,1.92c-.57,.25-1.22,.37-1.95,.37-.45,0-.85-.07-1.2-.22s-.62-.34-.79-.58-.28-.56-.35-.96c-.05-.29-.08-.87-.08-1.74v-4.07h-1.13v-1.97h1.13v-1.85l2.48-1.44v3.3h1.69Z"/>
    <path d="M165.43,87.68h2.3v1.37c.3-.47,.7-.85,1.21-1.14s1.08-.44,1.7-.44c1.08,0,2,.42,2.76,1.27s1.13,2.03,1.13,3.55-.38,2.77-1.14,3.63-1.68,1.3-2.77,1.3c-.52,0-.98-.1-1.4-.31s-.86-.56-1.32-1.05v4.7h-2.47v-12.88Zm2.44,4.51c0,1.05,.21,1.82,.62,2.32s.92,.75,1.52,.75,1.05-.23,1.43-.69,.57-1.21,.57-2.26c0-.98-.2-1.71-.59-2.18s-.88-.71-1.46-.71-1.1,.23-1.5,.7-.6,1.16-.6,2.07Z"/>
    <path d="M182.64,97.01v-1.4c-.34,.5-.79,.89-1.34,1.18s-1.14,.43-1.75,.43-1.19-.14-1.69-.41-.86-.66-1.08-1.16-.33-1.19-.33-2.07v-5.91h2.47v4.29c0,1.31,.05,2.12,.14,2.41s.26,.53,.5,.7,.54,.26,.91,.26c.42,0,.8-.12,1.13-.35s.56-.52,.69-.86,.18-1.18,.18-2.52v-3.94h2.47v9.33h-2.29Z"/>
    <path d="M191.77,87.68v1.97h-1.69v3.76c0,.76,.02,1.21,.05,1.33s.11,.23,.22,.31,.25,.12,.42,.12c.23,0,.56-.08,.99-.24l.21,1.92c-.57,.25-1.22,.37-1.95,.37-.45,0-.85-.07-1.2-.22s-.62-.34-.79-.58-.28-.56-.35-.96c-.05-.29-.08-.87-.08-1.74v-4.07h-1.13v-1.97h1.13v-1.85l2.48-1.44v3.3h1.69Z"/>
    <path d="M192.62,94.35l2.48-.38c.11,.48,.32,.85,.64,1.09s.77,.37,1.35,.37c.64,0,1.12-.12,1.44-.35,.22-.16,.33-.38,.33-.66,0-.19-.06-.34-.18-.47-.12-.12-.4-.23-.83-.33-1.99-.44-3.25-.84-3.79-1.2-.74-.5-1.11-1.2-1.11-2.1,0-.81,.32-1.49,.96-2.04s1.63-.83,2.97-.83,2.23,.21,2.85,.62,1.05,1.03,1.28,1.85l-2.33,.43c-.1-.36-.29-.64-.57-.83s-.68-.29-1.19-.29c-.65,0-1.12,.09-1.4,.27-.19,.13-.28,.3-.28,.5,0,.18,.08,.33,.25,.45,.22,.16,.99,.4,2.31,.69s2.23,.67,2.76,1.1c.52,.44,.77,1.05,.77,1.84,0,.86-.36,1.59-1.07,2.21s-1.77,.92-3.17,.92c-1.27,0-2.28-.26-3.02-.77s-1.23-1.22-1.45-2.1Z"/>
  </g>
  <g>
    <path d="M77.58,55.82h-7.16v-1.41l4.78-2.93h-4.78v-1.34h7.16v1.45l-4.67,2.89h4.67v1.34Z"/>
    <path d="M77.7,46.57l-7.4-1.77v-1.03l7.4,1.79v1.01Z"/>
    <path d="M74.95,35.69l.44-1.4c.78,.21,1.36,.57,1.74,1.07,.38,.5,.57,1.13,.57,1.9,0,.95-.33,1.73-.97,2.34-.65,.61-1.54,.92-2.66,.92-1.19,0-2.12-.31-2.78-.92-.66-.62-.99-1.42-.99-2.43,0-.88,.26-1.59,.78-2.13,.31-.33,.75-.57,1.32-.73l.34,1.43c-.37,.08-.66,.26-.88,.53s-.32,.59-.32,.98c0,.53,.19,.96,.57,1.29s1,.5,1.85,.5c.91,0,1.55-.16,1.93-.49s.58-.75,.58-1.27c0-.38-.12-.71-.37-.99s-.63-.48-1.15-.6Z"/>
    <path d="M90.95,51.8l.44-1.4c.78,.21,1.36,.57,1.74,1.07,.38,.5,.57,1.13,.57,1.9,0,.95-.33,1.73-.97,2.34-.65,.61-1.54,.92-2.66,.92-1.19,0-2.12-.31-2.78-.92-.66-.62-.99-1.42-.99-2.43,0-.88,.26-1.59,.78-2.13,.31-.33,.75-.57,1.32-.73l.34,1.43c-.37,.08-.66,.26-.88,.53s-.32,.59-.32,.98c0,.53,.19,.96,.57,1.29s1,.5,1.85,.5c.91,0,1.55-.16,1.93-.49s.58-.75,.58-1.27c0-.38-.12-.71-.37-.99s-.63-.48-1.15-.6Z"/>
    <path d="M90.05,49.45c-.73,0-1.34-.11-1.84-.33-.36-.16-.69-.38-.98-.67s-.5-.59-.64-.93c-.19-.45-.28-.96-.28-1.54,0-1.05,.33-1.9,.98-2.53s1.56-.95,2.73-.95,2.06,.31,2.71,.94c.65,.63,.98,1.47,.98,2.52s-.33,1.91-.97,2.54c-.65,.63-1.54,.94-2.68,.94Zm-.05-1.49c.81,0,1.42-.19,1.84-.56,.42-.37,.63-.85,.63-1.43s-.21-1.05-.62-1.42c-.41-.37-1.04-.55-1.87-.55s-1.43,.18-1.84,.54-.61,.84-.61,1.43,.2,1.08,.61,1.44c.41,.36,1.02,.55,1.85,.55Z"/>
    <path d="M93.58,41.4h-7.16v-2.16l4.88-1.3-4.88-1.28v-2.17h7.16v1.34h-5.63l5.63,1.42v1.39l-5.63,1.42h5.63v1.34Z"/>
    <path d="M109.58,56.37h-7.16v-1.41l4.78-2.93h-4.78v-1.34h7.16v1.45l-4.67,2.89h4.67v1.34Z"/>
    <path d="M109.7,47.13l-7.4-1.77v-1.03l7.4,1.79v1.01Z"/>
    <path d="M106.05,41.12c-.73,0-1.34-.11-1.84-.33-.36-.16-.69-.38-.98-.67s-.5-.59-.64-.93c-.19-.45-.28-.96-.28-1.54,0-1.05,.33-1.9,.98-2.53s1.56-.95,2.73-.95,2.06,.31,2.71,.94c.65,.63,.98,1.47,.98,2.52s-.33,1.91-.97,2.54c-.65,.63-1.54,.94-2.68,.94Zm-.05-1.49c.81,0,1.42-.19,1.84-.56,.42-.37,.63-.85,.63-1.43s-.21-1.05-.62-1.42c-.41-.37-1.04-.55-1.87-.55s-1.43,.18-1.84,.54-.61,.84-.61,1.43,.2,1.08,.61,1.44c.41,.36,1.02,.55,1.85,.55Z"/>
  </g>
  <g>
    <path d="M82.71,72.6v-10.02h4.26c1.07,0,1.85,.09,2.33,.27s.87,.5,1.17,.96,.44,.99,.44,1.58c0,.75-.22,1.37-.66,1.86s-1.1,.8-1.98,.93c.44,.26,.8,.54,1.08,.84s.67,.85,1.15,1.63l1.22,1.96h-2.42l-1.46-2.18c-.52-.78-.88-1.27-1.07-1.47s-.39-.34-.61-.42-.55-.11-1.02-.11h-.41v4.18h-2.02Zm2.02-5.78h1.5c.97,0,1.58-.04,1.82-.12s.43-.22,.57-.42,.21-.45,.21-.75c0-.34-.09-.61-.27-.82s-.43-.34-.76-.39c-.16-.02-.66-.03-1.48-.03h-1.58v2.54Z"/>
    <path d="M97.31,72.6h-1.92v-7.24c-.7,.66-1.53,1.14-2.48,1.46v-1.74c.5-.16,1.05-.48,1.63-.93s.99-.99,1.21-1.6h1.56v10.06Z"/>
  </g>
  <g>
    <path d="M135.18,55.82h-7.16v-1.41l4.78-2.93h-4.78v-1.34h7.16v1.45l-4.67,2.89h4.67v1.34Z"/>
    <path d="M135.3,46.57l-7.4-1.77v-1.03l7.4,1.79v1.01Z"/>
    <path d="M132.55,35.69l.44-1.4c.78,.21,1.36,.57,1.74,1.07,.38,.5,.57,1.13,.57,1.9,0,.95-.33,1.73-.97,2.34-.65,.61-1.54,.92-2.66,.92-1.19,0-2.12-.31-2.78-.92-.66-.62-.99-1.42-.99-2.43,0-.88,.26-1.59,.78-2.13,.31-.33,.75-.57,1.32-.73l.34,1.43c-.37,.08-.66,.26-.88,.53s-.32,.59-.32,.98c0,.53,.19,.96,.57,1.29s1,.5,1.85,.5c.91,0,1.55-.16,1.93-.49s.58-.75,.58-1.27c0-.38-.12-.71-.37-.99s-.63-.48-1.15-.6Z"/>
    <path d="M148.55,51.8l.44-1.4c.78,.21,1.36,.57,1.74,1.07,.38,.5,.57,1.13,.57,1.9,0,.95-.33,1.73-.97,2.34-.65,.61-1.54,.92-2.66,.92-1.19,0-2.12-.31-2.78-.92-.66-.62-.99-1.42-.99-2.43,0-.88,.26-1.59,.78-2.13,.31-.33,.75-.57,1.32-.73l.34,1.43c-.37,.08-.66,.26-.88,.53s-.32,.59-.32,.98c0,.53,.19,.96,.57,1.29s1,.5,1.85,.5c.91,0,1.55-.16,1.93-.49s.58-.75,.58-1.27c0-.38-.12-.71-.37-.99s-.63-.48-1.15-.6Z"/>
    <path d="M147.65,49.45c-.73,0-1.34-.11-1.84-.33-.36-.16-.69-.38-.98-.67s-.5-.59-.64-.93c-.19-.45-.28-.96-.28-1.54,0-1.05,.33-1.9,.98-2.53s1.56-.95,2.73-.95,2.06,.31,2.71,.94c.65,.63,.98,1.47,.98,2.52s-.33,1.91-.97,2.54c-.65,.63-1.54,.94-2.68,.94Zm-.05-1.49c.81,0,1.42-.19,1.84-.56,.42-.37,.63-.85,.63-1.43s-.21-1.05-.62-1.42c-.41-.37-1.04-.55-1.87-.55s-1.43,.18-1.84,.54-.61,.84-.61,1.43,.2,1.08,.61,1.44c.41,.36,1.02,.55,1.85,.55Z"/>
    <path d="M151.18,41.4h-7.16v-2.16l4.88-1.3-4.88-1.28v-2.17h7.16v1.34h-5.63l5.63,1.42v1.39l-5.63,1.42h5.63v1.34Z"/>
    <path d="M167.18,56.37h-7.16v-1.41l4.78-2.93h-4.78v-1.34h7.16v1.45l-4.67,2.89h4.67v1.34Z"/>
    <path d="M167.3,47.13l-7.4-1.77v-1.03l7.4,1.79v1.01Z"/>
    <path d="M163.65,41.12c-.73,0-1.34-.11-1.84-.33-.36-.16-.69-.38-.98-.67s-.5-.59-.64-.93c-.19-.45-.28-.96-.28-1.54,0-1.05,.33-1.9,.98-2.53s1.56-.95,2.73-.95,2.06,.31,2.71,.94c.65,.63,.98,1.47,.98,2.52s-.33,1.91-.97,2.54c-.65,.63-1.54,.94-2.68,.94Zm-.05-1.49c.81,0,1.42-.19,1.84-.56,.42-.37,.63-.85,.63-1.43s-.21-1.05-.62-1.42c-.41-.37-1.04-.55-1.87-.55s-1.43,.18-1.84,.54-.61,.84-.61,1.43,.2,1.08,.61,1.44c.41,.36,1.02,.55,1.85,.55Z"/>
  </g>
  <g>
    <path d="M140.31,72.6v-10.02h4.26c1.07,0,1.85,.09,2.33,.27s.87,.5,1.17,.96,.44,.99,.44,1.58c0,.75-.22,1.37-.66,1.86s-1.1,.8-1.98,.93c.44,.26,.8,.54,1.08,.84s.67,.85,1.15,1.63l1.22,1.96h-2.42l-1.46-2.18c-.52-.78-.88-1.27-1.07-1.47s-.39-.34-.61-.42-.55-.11-1.02-.11h-.41v4.18h-2.02Zm2.02-5.78h1.5c.97,0,1.58-.04,1.82-.12s.43-.22,.57-.42,.21-.45,.21-.75c0-.34-.09-.61-.27-.82s-.43-.34-.76-.39c-.16-.02-.66-.03-1.48-.03h-1.58v2.54Z"/>
    <path d="M156.48,70.82v1.78h-6.73c.07-.67,.29-1.31,.66-1.92s1.08-1.4,2.16-2.4c.87-.81,1.4-1.35,1.59-1.64,.26-.4,.4-.79,.4-1.18,0-.43-.12-.76-.35-.99s-.55-.35-.95-.35-.72,.12-.96,.36-.37,.64-.41,1.2l-1.91-.19c.11-1.06,.47-1.82,1.07-2.28s1.35-.69,2.26-.69c.99,0,1.77,.27,2.33,.8s.85,1.2,.85,1.99c0,.45-.08,.88-.24,1.29s-.42,.83-.77,1.28c-.23,.3-.65,.72-1.26,1.28s-.99,.93-1.15,1.11-.29,.36-.39,.53h3.81Z"/>
  </g>
  <g>
    <path d="M192.78,55.82h-7.16v-1.41l4.78-2.93h-4.78v-1.34h7.16v1.45l-4.67,2.89h4.67v1.34Z"/>
    <path d="M192.9,46.57l-7.4-1.77v-1.03l7.4,1.79v1.01Z"/>
    <path d="M190.15,35.69l.44-1.4c.78,.21,1.36,.57,1.74,1.07,.38,.5,.57,1.13,.57,1.9,0,.95-.33,1.73-.97,2.34-.65,.61-1.54,.92-2.66,.92-1.19,0-2.12-.31-2.78-.92-.66-.62-.99-1.42-.99-2.43,0-.88,.26-1.59,.78-2.13,.31-.33,.75-.57,1.32-.73l.34,1.43c-.37,.08-.66,.26-.88,.53s-.32,.59-.32,.98c0,.53,.19,.96,.57,1.29s1,.5,1.85,.5c.91,0,1.55-.16,1.93-.49s.58-.75,.58-1.27c0-.38-.12-.71-.37-.99s-.63-.48-1.15-.6Z"/>
    <path d="M206.15,51.8l.44-1.4c.78,.21,1.36,.57,1.74,1.07,.38,.5,.57,1.13,.57,1.9,0,.95-.33,1.73-.97,2.34-.65,.61-1.54,.92-2.66,.92-1.19,0-2.12-.31-2.78-.92-.66-.62-.99-1.42-.99-2.43,0-.88,.26-1.59,.78-2.13,.31-.33,.75-.57,1.32-.73l.34,1.43c-.37,.08-.66,.26-.88,.53s-.32,.59-.32,.98c0,.53,.19,.96,.57,1.29s1,.5,1.85,.5c.91,0,1.55-.16,1.93-.49s.58-.75,.58-1.27c0-.38-.12-.71-.37-.99s-.63-.48-1.15-.6Z"/>
    <path d="M205.25,49.45c-.73,0-1.34-.11-1.84-.33-.36-.16-.69-.38-.98-.67s-.5-.59-.64-.93c-.19-.45-.28-.96-.28-1.54,0-1.05,.33-1.9,.98-2.53s1.56-.95,2.73-.95,2.06,.31,2.71,.94c.65,.63,.98,1.47,.98,2.52s-.33,1.91-.97,2.54c-.65,.63-1.54,.94-2.68,.94Zm-.05-1.49c.81,0,1.42-.19,1.84-.56,.42-.37,.63-.85,.63-1.43s-.21-1.05-.62-1.42c-.41-.37-1.04-.55-1.87-.55s-1.43,.18-1.84,.54-.61,.84-.61,1.43,.2,1.08,.61,1.44c.41,.36,1.02,.55,1.85,.55Z"/>
    <path d="M208.78,41.4h-7.16v-2.16l4.88-1.3-4.88-1.28v-2.17h7.16v1.34h-5.63l5.63,1.42v1.39l-5.63,1.42h5.63v1.34Z"/>
    <path d="M224.78,56.37h-7.16v-1.41l4.78-2.93h-4.78v-1.34h7.16v1.45l-4.67,2.89h4.67v1.34Z"/>
    <path d="M224.9,47.13l-7.4-1.77v-1.03l7.4,1.79v1.01Z"/>
    <path d="M221.25,41.12c-.73,0-1.34-.11-1.84-.33-.36-.16-.69-.38-.98-.67s-.5-.59-.64-.93c-.19-.45-.28-.96-.28-1.54,0-1.05,.33-1.9,.98-2.53s1.56-.95,2.73-.95,2.06,.31,2.71,.94c.65,.63,.98,1.47,.98,2.52s-.33,1.91-.97,2.54c-.65,.63-1.54,.94-2.68,.94Zm-.05-1.49c.81,0,1.42-.19,1.84-.56,.42-.37,.63-.85,.63-1.43s-.21-1.05-.62-1.42c-.41-.37-1.04-.55-1.87-.55s-1.43,.18-1.84,.54-.61,.84-.61,1.43,.2,1.08,.61,1.44c.41,.36,1.02,.55,1.85,.55Z"/>
  </g>
  <g>
    <path d="M197.91,72.6v-10.02h4.26c1.07,0,1.85,.09,2.33,.27s.87,.5,1.17,.96,.44,.99,.44,1.58c0,.75-.22,1.37-.66,1.86s-1.1,.8-1.98,.93c.44,.26,.8,.54,1.08,.84s.67,.85,1.15,1.63l1.22,1.96h-2.42l-1.46-2.18c-.52-.78-.88-1.27-1.07-1.47s-.39-.34-.61-.42-.55-.11-1.02-.11h-.41v4.18h-2.02Zm2.02-5.78h1.5c.97,0,1.58-.04,1.82-.12s.43-.22,.57-.42,.21-.45,.21-.75c0-.34-.09-.61-.27-.82s-.43-.34-.76-.39c-.16-.02-.66-.03-1.48-.03h-1.58v2.54Z"/>
    <path d="M207.52,69.94l1.86-.23c.06,.47,.22,.84,.48,1.09s.57,.38,.94,.38c.4,0,.73-.15,1-.45s.41-.71,.41-1.22c0-.48-.13-.87-.39-1.15s-.58-.42-.95-.42c-.25,0-.54,.05-.88,.14l.21-1.57c.52,.01,.92-.1,1.19-.34s.41-.56,.41-.95c0-.34-.1-.61-.3-.81s-.47-.3-.8-.3-.61,.11-.84,.34-.37,.56-.42,1l-1.77-.3c.12-.61,.31-1.09,.56-1.45s.59-.65,1.04-.85,.94-.31,1.49-.31c.94,0,1.7,.3,2.27,.9,.47,.49,.7,1.05,.7,1.67,0,.88-.48,1.58-1.44,2.11,.57,.12,1.03,.4,1.38,.83s.52,.95,.52,1.55c0,.88-.32,1.63-.96,2.25s-1.44,.93-2.4,.93c-.91,0-1.66-.26-2.26-.78s-.94-1.2-1.04-2.05Z"/>
  </g>
  <g>
    <path d="M250.38,55.82h-7.16v-1.41l4.78-2.93h-4.78v-1.34h7.16v1.45l-4.67,2.89h4.67v1.34Z"/>
    <path d="M250.5,46.57l-7.4-1.77v-1.03l7.4,1.79v1.01Z"/>
    <path d="M247.75,35.69l.44-1.4c.78,.21,1.36,.57,1.74,1.07,.38,.5,.57,1.13,.57,1.9,0,.95-.33,1.73-.97,2.34-.65,.61-1.54,.92-2.66,.92-1.19,0-2.12-.31-2.78-.92-.66-.62-.99-1.42-.99-2.43,0-.88,.26-1.59,.78-2.13,.31-.33,.75-.57,1.32-.73l.34,1.43c-.37,.08-.66,.26-.88,.53s-.32,.59-.32,.98c0,.53,.19,.96,.57,1.29s1,.5,1.85,.5c.91,0,1.55-.16,1.93-.49s.58-.75,.58-1.27c0-.38-.12-.71-.37-.99s-.63-.48-1.15-.6Z"/>
    <path d="M263.75,51.8l.44-1.4c.78,.21,1.36,.57,1.74,1.07,.38,.5,.57,1.13,.57,1.9,0,.95-.33,1.73-.97,2.34-.65,.61-1.54,.92-2.66,.92-1.19,0-2.12-.31-2.78-.92-.66-.62-.99-1.42-.99-2.43,0-.88,.26-1.59,.78-2.13,.31-.33,.75-.57,1.32-.73l.34,1.43c-.37,.08-.66,.26-.88,.53s-.32,.59-.32,.98c0,.53,.19,.96,.57,1.29s1,.5,1.85,.5c.91,0,1.55-.16,1.93-.49s.58-.75,.58-1.27c0-.38-.12-.71-.37-.99s-.63-.48-1.15-.6Z"/>
    <path d="M262.85,49.45c-.73,0-1.34-.11-1.84-.33-.36-.16-.69-.38-.98-.67s-.5-.59-.64-.93c-.19-.45-.28-.96-.28-1.54,0-1.05,.33-1.9,.98-2.53s1.56-.95,2.73-.95,2.06,.31,2.71,.94c.65,.63,.98,1.47,.98,2.52s-.33,1.91-.97,2.54c-.65,.63-1.54,.94-2.68,.94Zm-.05-1.49c.81,0,1.42-.19,1.84-.56,.42-.37,.63-.85,.63-1.43s-.21-1.05-.62-1.42c-.41-.37-1.04-.55-1.87-.55s-1.43,.18-1.84,.54-.61,.84-.61,1.43,.2,1.08,.61,1.44c.41,.36,1.02,.55,1.85,.55Z"/>
    <path d="M266.38,41.4h-7.16v-2.16l4.88-1.3-4.88-1.28v-2.17h7.16v1.34h-5.63l5.63,1.42v1.39l-5.63,1.42h5.63v1.34Z"/>
    <path d="M282.38,56.37h-7.16v-1.41l4.78-2.93h-4.78v-1.34h7.16v1.45l-4.67,2.89h4.67v1.34Z"/>
    <path d="M282.5,47.13l-7.4-1.77v-1.03l7.4,1.79v1.01Z"/>
    <path d="M278.85,41.12c-.73,0-1.34-.11-1.84-.33-.36-.16-.69-.38-.98-.67s-.5-.59-.64-.93c-.19-.45-.28-.96-.28-1.54,0-1.05,.33-1.9,.98-2.53s1.56-.95,2.73-.95,2.06,.31,2.71,.94c.65,.63,.98,1.47,.98,2.52s-.33,1.91-.97,2.54c-.65,.63-1.54,.94-2.68,.94Zm-.05-1.49c.81,0,1.42-.19,1.84-.56,.42-.37,.63-.85,.63-1.43s-.21-1.05-.62-1.42c-.41-.37-1.04-.55-1.87-.55s-1.43,.18-1.84,.54-.61,.84-.61,1.43,.2,1.08,.61,1.44c.41,.36,1.02,.55,1.85,.55Z"/>
  </g>
  <g>
    <path d="M255.51,72.6v-10.02h4.26c1.07,0,1.85,.09,2.33,.27s.87,.5,1.17,.96,.44,.99,.44,1.58c0,.75-.22,1.37-.66,1.86s-1.1,.8-1.98,.93c.44,.26,.8,.54,1.08,.84s.67,.85,1.15,1.63l1.22,1.96h-2.42l-1.46-2.18c-.52-.78-.88-1.27-1.07-1.47s-.39-.34-.61-.42-.55-.11-1.02-.11h-.41v4.18h-2.02Zm2.02-5.78h1.5c.97,0,1.58-.04,1.82-.12s.43-.22,.57-.42,.21-.45,.21-.75c0-.34-.09-.61-.27-.82s-.43-.34-.76-.39c-.16-.02-.66-.03-1.48-.03h-1.58v2.54Z"/>
    <path d="M268.96,72.6v-2.02h-4.1v-1.68l4.35-6.36h1.61v6.36h1.24v1.69h-1.24v2.02h-1.86Zm0-3.71v-3.42l-2.3,3.42h2.3Z"/>
  </g>
  <g>
    <path d="M307.98,55.82h-7.16v-1.41l4.78-2.93h-4.78v-1.34h7.16v1.45l-4.67,2.89h4.67v1.34Z"/>
    <path d="M308.1,46.57l-7.4-1.77v-1.03l7.4,1.79v1.01Z"/>
    <path d="M305.35,35.69l.44-1.4c.78,.21,1.36,.57,1.74,1.07,.38,.5,.57,1.13,.57,1.9,0,.95-.33,1.73-.97,2.34-.65,.61-1.54,.92-2.66,.92-1.19,0-2.12-.31-2.78-.92-.66-.62-.99-1.42-.99-2.43,0-.88,.26-1.59,.78-2.13,.31-.33,.75-.57,1.32-.73l.34,1.43c-.37,.08-.66,.26-.88,.53s-.32,.59-.32,.98c0,.53,.19,.96,.57,1.29s1,.5,1.85,.5c.91,0,1.55-.16,1.93-.49s.58-.75,.58-1.27c0-.38-.12-.71-.37-.99s-.63-.48-1.15-.6Z"/>
    <path d="M321.35,51.8l.44-1.4c.78,.21,1.36,.57,1.74,1.07,.38,.5,.57,1.13,.57,1.9,0,.95-.33,1.73-.97,2.34-.65,.61-1.54,.92-2.66,.92-1.19,0-2.12-.31-2.78-.92-.66-.62-.99-1.42-.99-2.43,0-.88,.26-1.59,.78-2.13,.31-.33,.75-.57,1.32-.73l.34,1.43c-.37,.08-.66,.26-.88,.53s-.32,.59-.32,.98c0,.53,.19,.96,.57,1.29s1,.5,1.85,.5c.91,0,1.55-.16,1.93-.49s.58-.75,.58-1.27c0-.38-.12-.71-.37-.99s-.63-.48-1.15-.6Z"/>
    <path d="M320.45,49.45c-.73,0-1.34-.11-1.84-.33-.36-.16-.69-.38-.98-.67s-.5-.59-.64-.93c-.19-.45-.28-.96-.28-1.54,0-1.05,.33-1.9,.98-2.53s1.56-.95,2.73-.95,2.06,.31,2.71,.94c.65,.63,.98,1.47,.98,2.52s-.33,1.91-.97,2.54c-.65,.63-1.54,.94-2.68,.94Zm-.05-1.49c.81,0,1.42-.19,1.84-.56,.42-.37,.63-.85,.63-1.43s-.21-1.05-.62-1.42c-.41-.37-1.04-.55-1.87-.55s-1.43,.18-1.84,.54-.61,.84-.61,1.43,.2,1.08,.61,1.44c.41,.36,1.02,.55,1.85,.55Z"/>
    <path d="M323.98,41.4h-7.16v-2.16l4.88-1.3-4.88-1.28v-2.17h7.16v1.34h-5.63l5.63,1.42v1.39l-5.63,1.42h5.63v1.34Z"/>
    <path d="M339.98,56.37h-7.16v-1.41l4.78-2.93h-4.78v-1.34h7.16v1.45l-4.67,2.89h4.67v1.34Z"/>
    <path d="M340.1,47.13l-7.4-1.77v-1.03l7.4,1.79v1.01Z"/>
    <path d="M336.45,41.12c-.73,0-1.34-.11-1.84-.33-.36-.16-.69-.38-.98-.67s-.5-.59-.64-.93c-.19-.45-.28-.96-.28-1.54,0-1.05,.33-1.9,.98-2.53s1.56-.95,2.73-.95,2.06,.31,2.71,.94c.65,.63,.98,1.47,.98,2.52s-.33,1.91-.97,2.54c-.65,.63-1.54,.94-2.68,.94Zm-.05-1.49c.81,0,1.42-.19,1.84-.56,.42-.37,.63-.85,.63-1.43s-.21-1.05-.62-1.42c-.41-.37-1.04-.55-1.87-.55s-1.43,.18-1.84,.54-.61,.84-.61,1.43,.2,1.08,.61,1.44c.41,.36,1.02,.55,1.85,.55Z"/>
  </g>
  <g>
    <path d="M313.11,72.6v-10.02h4.26c1.07,0,1.85,.09,2.33,.27s.87,.5,1.17,.96c.29,.46,.44,.99,.44,1.58,0,.75-.22,1.37-.66,1.86-.44,.49-1.1,.8-1.98,.93,.44,.26,.8,.54,1.08,.84,.29,.31,.67,.85,1.15,1.63l1.22,1.96h-2.42l-1.46-2.18c-.52-.78-.88-1.27-1.07-1.47s-.39-.34-.61-.42c-.21-.08-.55-.11-1.02-.11h-.41v4.18h-2.02Zm2.02-5.78h1.5c.97,0,1.58-.04,1.82-.12,.24-.08,.43-.22,.57-.42s.21-.45,.21-.75c0-.34-.09-.61-.27-.82-.18-.21-.43-.34-.76-.39-.16-.02-.66-.03-1.48-.03h-1.58v2.54Z"/>
    <path d="M322.82,70.02l1.91-.2c.05,.43,.22,.78,.49,1.03,.27,.25,.58,.38,.93,.38,.4,0,.74-.16,1.02-.49,.28-.33,.42-.82,.42-1.47,0-.62-.14-1.08-.41-1.38-.28-.31-.63-.46-1.08-.46-.55,0-1.05,.24-1.48,.73l-1.56-.23,.98-5.22h5.08v1.8h-3.62l-.3,1.7c.43-.21,.87-.32,1.31-.32,.85,0,1.57,.31,2.17,.93,.59,.62,.89,1.42,.89,2.41,0,.82-.24,1.56-.72,2.21-.65,.88-1.56,1.33-2.71,1.33-.93,0-1.68-.25-2.26-.75-.58-.5-.93-1.16-1.05-2Z"/>
  </g>
  <g>
    <path d="M365.58,55.82h-7.16v-1.41l4.78-2.93h-4.78v-1.34h7.16v1.45l-4.67,2.89h4.67v1.34Z"/>
    <path d="M365.7,46.57l-7.4-1.77v-1.03l7.4,1.79v1.01Z"/>
    <path d="M362.95,35.69l.44-1.4c.78,.21,1.36,.57,1.74,1.07,.38,.5,.57,1.13,.57,1.9,0,.95-.33,1.73-.97,2.34-.65,.61-1.54,.92-2.66,.92-1.19,0-2.12-.31-2.78-.92-.66-.62-.99-1.42-.99-2.43,0-.88,.26-1.59,.78-2.13,.31-.33,.75-.57,1.32-.73l.34,1.43c-.37,.08-.66,.26-.88,.53s-.32,.59-.32,.98c0,.53,.19,.96,.57,1.29s1,.5,1.85,.5c.91,0,1.55-.16,1.93-.49s.58-.75,.58-1.27c0-.38-.12-.71-.37-.99s-.63-.48-1.15-.6Z"/>
    <path d="M378.95,51.8l.44-1.4c.78,.21,1.36,.57,1.74,1.07,.38,.5,.57,1.13,.57,1.9,0,.95-.33,1.73-.97,2.34-.65,.61-1.54,.92-2.66,.92-1.19,0-2.12-.31-2.78-.92-.66-.62-.99-1.42-.99-2.43,0-.88,.26-1.59,.78-2.13,.31-.33,.75-.57,1.32-.73l.34,1.43c-.37,.08-.66,.26-.88,.53s-.32,.59-.32,.98c0,.53,.19,.96,.57,1.29s1,.5,1.85,.5c.91,0,1.55-.16,1.93-.49s.58-.75,.58-1.27c0-.38-.12-.71-.37-.99s-.63-.48-1.15-.6Z"/>
    <path d="M378.05,49.45c-.73,0-1.34-.11-1.84-.33-.36-.16-.69-.38-.98-.67s-.5-.59-.64-.93c-.19-.45-.28-.96-.28-1.54,0-1.05,.33-1.9,.98-2.53s1.56-.95,2.73-.95,2.06,.31,2.71,.94c.65,.63,.98,1.47,.98,2.52s-.33,1.91-.97,2.54c-.65,.63-1.54,.94-2.68,.94Zm-.05-1.49c.81,0,1.42-.19,1.84-.56,.42-.37,.63-.85,.63-1.43s-.21-1.05-.62-1.42c-.41-.37-1.04-.55-1.87-.55s-1.43,.18-1.84,.54-.61,.84-.61,1.43,.2,1.08,.61,1.44c.41,.36,1.02,.55,1.85,.55Z"/>
    <path d="M381.58,41.4h-7.16v-2.16l4.88-1.3-4.88-1.28v-2.17h7.16v1.34h-5.63l5.63,1.42v1.39l-5.63,1.42h5.63v1.34Z"/>
    <path d="M397.58,56.37h-7.16v-1.41l4.78-2.93h-4.78v-1.34h7.16v1.45l-4.67,2.89h4.67v1.34Z"/>
    <path d="M397.7,47.13l-7.4-1.77v-1.03l7.4,1.79v1.01Z"/>
    <path d="M394.05,41.12c-.73,0-1.34-.11-1.84-.33-.36-.16-.69-.38-.98-.67s-.5-.59-.64-.93c-.19-.45-.28-.96-.28-1.54,0-1.05,.33-1.9,.98-2.53s1.56-.95,2.73-.95,2.06,.31,2.71,.94c.65,.63,.98,1.47,.98,2.52s-.33,1.91-.97,2.54c-.65,.63-1.54,.94-2.68,.94Zm-.05-1.49c.81,0,1.42-.19,1.84-.56,.42-.37,.63-.85,.63-1.43s-.21-1.05-.62-1.42c-.41-.37-1.04-.55-1.87-.55s-1.43,.18-1.84,.54-.61,.84-.61,1.43,.2,1.08,.61,1.44c.41,.36,1.02,.55,1.85,.55Z"/>
  </g>
  <g>
    <path d="M370.71,72.6v-10.02h4.26c1.07,0,1.85,.09,2.33,.27s.87,.5,1.17,.96c.29,.46,.44,.99,.44,1.58,0,.75-.22,1.37-.66,1.86-.44,.49-1.1,.8-1.98,.93,.44,.26,.8,.54,1.08,.84,.28,.31,.67,.85,1.15,1.63l1.22,1.96h-2.42l-1.46-2.18c-.52-.78-.88-1.27-1.07-1.47s-.39-.34-.61-.42c-.21-.08-.55-.11-1.02-.11h-.41v4.18h-2.02Zm2.02-5.78h1.5c.97,0,1.58-.04,1.82-.12,.24-.08,.43-.22,.57-.42s.21-.45,.21-.75c0-.34-.09-.61-.27-.82-.18-.21-.43-.34-.76-.39-.16-.02-.66-.03-1.48-.03h-1.58v2.54Z"/>
    <path d="M386.9,65.03l-1.86,.21c-.04-.38-.16-.67-.36-.85s-.44-.27-.75-.27c-.41,0-.75,.18-1.03,.55s-.46,1.12-.53,2.28c.48-.56,1.07-.85,1.78-.85,.8,0,1.49,.31,2.06,.92,.57,.61,.86,1.4,.86,2.37,0,1.03-.3,1.85-.9,2.47s-1.37,.93-2.32,.93c-1.01,0-1.84-.39-2.5-1.18-.65-.79-.98-2.07-.98-3.87s.34-3.16,1.02-3.97c.68-.81,1.56-1.22,2.65-1.22,.76,0,1.39,.21,1.89,.64s.82,1.04,.95,1.86Zm-4.35,4.19c0,.62,.14,1.11,.43,1.45s.62,.51,.98,.51,.65-.14,.89-.42c.24-.28,.36-.73,.36-1.37s-.13-1.13-.38-1.43c-.25-.3-.57-.45-.96-.45s-.68,.14-.94,.43c-.25,.29-.38,.72-.38,1.28Z"/>
  </g>
  <g>
    <path d="M423.18,55.82h-7.16v-1.41l4.78-2.93h-4.78v-1.34h7.16v1.45l-4.67,2.89h4.67v1.34Z"/>
    <path d="M423.3,46.57l-7.4-1.77v-1.03l7.4,1.79v1.01Z"/>
    <path d="M420.55,35.69l.44-1.4c.78,.21,1.36,.57,1.74,1.07,.38,.5,.57,1.13,.57,1.9,0,.95-.33,1.73-.97,2.34-.65,.61-1.54,.92-2.66,.92-1.19,0-2.12-.31-2.78-.92-.66-.62-.99-1.42-.99-2.43,0-.88,.26-1.59,.78-2.13,.31-.33,.75-.57,1.32-.73l.34,1.43c-.37,.08-.66,.26-.88,.53s-.32,.59-.32,.98c0,.53,.19,.96,.57,1.29s1,.5,1.85,.5c.91,0,1.55-.16,1.93-.49s.58-.75,.58-1.27c0-.38-.12-.71-.37-.99s-.63-.48-1.15-.6Z"/>
    <path d="M436.55,51.8l.44-1.4c.78,.21,1.36,.57,1.74,1.07,.38,.5,.57,1.13,.57,1.9,0,.95-.33,1.73-.97,2.34-.65,.61-1.54,.92-2.66,.92-1.19,0-2.12-.31-2.78-.92-.66-.62-.99-1.42-.99-2.43,0-.88,.26-1.59,.78-2.13,.31-.33,.75-.57,1.32-.73l.34,1.43c-.37,.08-.66,.26-.88,.53s-.32,.59-.32,.98c0,.53,.19,.96,.57,1.29s1,.5,1.85,.5c.91,0,1.55-.16,1.93-.49s.58-.75,.58-1.27c0-.38-.12-.71-.37-.99s-.63-.48-1.15-.6Z"/>
    <path d="M435.65,49.45c-.73,0-1.34-.11-1.84-.33-.36-.16-.69-.38-.98-.67s-.5-.59-.64-.93c-.19-.45-.28-.96-.28-1.54,0-1.05,.33-1.9,.98-2.53s1.56-.95,2.73-.95,2.06,.31,2.71,.94c.65,.63,.98,1.47,.98,2.52s-.33,1.91-.97,2.54c-.65,.63-1.54,.94-2.68,.94Zm-.05-1.49c.81,0,1.42-.19,1.84-.56,.42-.37,.63-.85,.63-1.43s-.21-1.05-.62-1.42c-.41-.37-1.04-.55-1.87-.55s-1.43,.18-1.84,.54-.61,.84-.61,1.43,.2,1.08,.61,1.44c.41,.36,1.02,.55,1.85,.55Z"/>
    <path d="M439.18,41.4h-7.16v-2.16l4.88-1.3-4.88-1.28v-2.17h7.16v1.34h-5.63l5.63,1.42v1.39l-5.63,1.42h5.63v1.34Z"/>
    <path d="M455.18,56.37h-7.16v-1.41l4.78-2.93h-4.78v-1.34h7.16v1.45l-4.67,2.89h4.67v1.34Z"/>
    <path d="M455.3,47.13l-7.4-1.77v-1.03l7.4,1.79v1.01Z"/>
    <path d="M451.65,41.12c-.73,0-1.34-.11-1.84-.33-.36-.16-.69-.38-.98-.67s-.5-.59-.64-.93c-.19-.45-.28-.96-.28-1.54,0-1.05,.33-1.9,.98-2.53s1.56-.95,2.73-.95,2.06,.31,2.71,.94c.65,.63,.98,1.47,.98,2.52s-.33,1.91-.97,2.54c-.65,.63-1.54,.94-2.68,.94Zm-.05-1.49c.81,0,1.42-.19,1.84-.56,.42-.37,.63-.85,.63-1.43s-.21-1.05-.62-1.42c-.41-.37-1.04-.55-1.87-.55s-1.43,.18-1.84,.54-.61,.84-.61,1.43,.2,1.08,.61,1.44c.41,.36,1.02,.55,1.85,.55Z"/>
  </g>
  <g>
    <path d="M428.31,72.6v-10.02h4.26c1.07,0,1.85,.09,2.33,.27s.87,.5,1.17,.96c.29,.46,.44,.99,.44,1.58,0,.75-.22,1.37-.66,1.86-.44,.49-1.1,.8-1.98,.93,.44,.26,.8,.54,1.08,.84,.29,.31,.67,.85,1.15,1.63l1.22,1.96h-2.42l-1.46-2.18c-.52-.78-.88-1.27-1.07-1.47s-.39-.34-.61-.42c-.21-.08-.55-.11-1.02-.11h-.41v4.18h-2.02Zm2.02-5.78h1.5c.97,0,1.58-.04,1.82-.12,.24-.08,.43-.22,.57-.42s.21-.45,.21-.75c0-.34-.09-.61-.27-.82-.18-.21-.43-.34-.76-.39-.16-.02-.66-.03-1.48-.03h-1.58v2.54Z"/>
    <path d="M437.99,64.5v-1.78h6.57v1.39c-.54,.53-1.09,1.3-1.65,2.3s-.99,2.06-1.28,3.18-.44,2.13-.43,3.01h-1.85c.03-1.39,.32-2.8,.86-4.24s1.26-2.73,2.16-3.86h-4.37Z"/>
  </g>
  <g>
    <path d="M480.78,55.82h-7.16v-1.41l4.78-2.93h-4.78v-1.34h7.16v1.45l-4.67,2.89h4.67v1.34Z"/>
    <path d="M480.9,46.57l-7.4-1.77v-1.03l7.4,1.79v1.01Z"/>
    <path d="M478.15,35.69l.44-1.4c.78,.21,1.36,.57,1.74,1.07,.38,.5,.57,1.13,.57,1.9,0,.95-.33,1.73-.97,2.34-.65,.61-1.54,.92-2.66,.92-1.19,0-2.12-.31-2.78-.92-.66-.62-.99-1.42-.99-2.43,0-.88,.26-1.59,.78-2.13,.31-.33,.75-.57,1.32-.73l.34,1.43c-.37,.08-.66,.26-.88,.53s-.32,.59-.32,.98c0,.53,.19,.96,.57,1.29s1,.5,1.85,.5c.91,0,1.55-.16,1.93-.49s.58-.75,.58-1.27c0-.38-.12-.71-.37-.99s-.63-.48-1.15-.6Z"/>
    <path d="M494.15,51.8l.44-1.4c.78,.21,1.36,.57,1.74,1.07,.38,.5,.57,1.13,.57,1.9,0,.95-.33,1.73-.97,2.34-.65,.61-1.54,.92-2.66,.92-1.19,0-2.12-.31-2.78-.92-.66-.62-.99-1.42-.99-2.43,0-.88,.26-1.59,.78-2.13,.31-.33,.75-.57,1.32-.73l.34,1.43c-.37,.08-.66,.26-.88,.53s-.32,.59-.32,.98c0,.53,.19,.96,.57,1.29s1,.5,1.85,.5c.91,0,1.55-.16,1.93-.49s.58-.75,.58-1.27c0-.38-.12-.71-.37-.99s-.63-.48-1.15-.6Z"/>
    <path d="M493.25,49.45c-.73,0-1.34-.11-1.84-.33-.36-.16-.69-.38-.98-.67s-.5-.59-.64-.93c-.19-.45-.28-.96-.28-1.54,0-1.05,.33-1.9,.98-2.53s1.56-.95,2.73-.95,2.06,.31,2.71,.94c.65,.63,.98,1.47,.98,2.52s-.33,1.91-.97,2.54c-.65,.63-1.54,.94-2.68,.94Zm-.05-1.49c.81,0,1.42-.19,1.84-.56,.42-.37,.63-.85,.63-1.43s-.21-1.05-.62-1.42c-.41-.37-1.04-.55-1.87-.55s-1.43,.18-1.84,.54-.61,.84-.61,1.43,.2,1.08,.61,1.44c.41,.36,1.02,.55,1.85,.55Z"/>
    <path d="M496.78,41.4h-7.16v-2.16l4.88-1.3-4.88-1.28v-2.17h7.16v1.34h-5.63l5.63,1.42v1.39l-5.63,1.42h5.63v1.34Z"/>
    <path d="M512.78,56.37h-7.16v-1.41l4.78-2.93h-4.78v-1.34h7.16v1.45l-4.67,2.89h4.67v1.34Z"/>
    <path d="M512.9,47.13l-7.4-1.77v-1.03l7.4,1.79v1.01Z"/>
    <path d="M509.25,41.12c-.73,0-1.34-.11-1.84-.33-.36-.16-.69-.38-.98-.67s-.5-.59-.64-.93c-.19-.45-.28-.96-.28-1.54,0-1.05,.33-1.9,.98-2.53s1.56-.95,2.73-.95,2.06,.31,2.71,.94c.65,.63,.98,1.47,.98,2.52s-.33,1.91-.97,2.54c-.65,.63-1.54,.94-2.68,.94Zm-.05-1.49c.81,0,1.42-.19,1.84-.56,.42-.37,.63-.85,.63-1.43s-.21-1.05-.62-1.42c-.41-.37-1.04-.55-1.87-.55s-1.43,.18-1.84,.54-.61,.84-.61,1.43,.2,1.08,.61,1.44c.41,.36,1.02,.55,1.85,.55Z"/>
  </g>
  <g>
    <path d="M485.91,72.6v-10.02h4.26c1.07,0,1.85,.09,2.33,.27s.87,.5,1.17,.96c.29,.46,.44,.99,.44,1.58,0,.75-.22,1.37-.66,1.86-.44,.49-1.1,.8-1.98,.93,.44,.26,.8,.54,1.08,.84,.28,.31,.67,.85,1.15,1.63l1.22,1.96h-2.42l-1.46-2.18c-.52-.78-.88-1.27-1.07-1.47s-.39-.34-.61-.42c-.21-.08-.55-.11-1.02-.11h-.41v4.18h-2.02Zm2.02-5.78h1.5c.97,0,1.58-.04,1.82-.12,.24-.08,.43-.22,.57-.42s.21-.45,.21-.75c0-.34-.09-.61-.27-.82-.18-.21-.43-.34-.76-.39-.16-.02-.66-.03-1.48-.03h-1.58v2.54Z"/>
    <path d="M497.24,67.19c-.5-.21-.86-.5-1.08-.86s-.34-.77-.34-1.21c0-.75,.26-1.36,.78-1.85,.52-.49,1.26-.73,2.22-.73s1.69,.24,2.22,.73,.79,1.1,.79,1.85c0,.46-.12,.88-.36,1.24-.24,.36-.58,.64-1.02,.83,.56,.22,.98,.55,1.27,.98,.29,.43,.43,.92,.43,1.48,0,.93-.29,1.68-.88,2.26-.59,.58-1.38,.87-2.36,.87-.91,0-1.67-.24-2.28-.72-.71-.56-1.07-1.34-1.07-2.32,0-.54,.13-1.04,.4-1.49,.27-.45,.69-.8,1.27-1.05Zm.22,2.36c0,.53,.14,.94,.41,1.24,.27,.3,.61,.44,1.01,.44s.72-.14,.98-.43,.39-.7,.39-1.23c0-.47-.13-.85-.4-1.13-.26-.28-.6-.43-1-.43-.47,0-.82,.16-1.05,.49-.23,.32-.35,.67-.35,1.05Zm.18-4.29c0,.38,.11,.68,.33,.9,.22,.21,.5,.32,.86,.32s.66-.11,.88-.32,.33-.52,.33-.9c0-.36-.11-.65-.32-.86-.22-.22-.5-.32-.86-.32s-.66,.11-.88,.33-.33,.51-.33,.87Z"/>
  </g>
  <line class="cls-1" x1="118.88" y1=".5" x2="118.88" y2="71.6"/>
  <line class="cls-1" x1="176.48" y1=".5" x2="176.48" y2="71.6"/>
  <line class="cls-1" x1="234.08" y1=".5" x2="234.08" y2="71.6"/>
  <line class="cls-1" x1="291.68" y1=".5" x2="291.68" y2="71.6"/>
  <line class="cls-1" x1="349.28" y1=".5" x2="349.28" y2="71.6"/>
  <line class="cls-1" x1="406.88" y1=".5" x2="406.88" y2="71.6"/>
  <line class="cls-1" x1="464.48" y1=".5" x2="464.48" y2="71.6"/>
  <rect class="cls-4" x="160.58" y="277.94" width="115.94" height="114.41" rx="14.17" ry="14.17"/>
  <g>
    <path d="M181.85,287.04h4.75c1.07,0,1.89,.08,2.45,.25,.76,.22,1.4,.62,1.94,1.19s.95,1.26,1.23,2.09c.28,.82,.42,1.84,.42,3.05,0,1.06-.13,1.97-.4,2.74-.32,.94-.78,1.7-1.38,2.28-.45,.44-1.06,.78-1.83,1.03-.57,.18-1.34,.27-2.3,.27h-4.9v-12.88Zm2.6,2.18v8.53h1.94c.73,0,1.25-.04,1.57-.12,.42-.11,.77-.28,1.05-.54s.51-.67,.68-1.24c.18-.58,.26-1.36,.26-2.36s-.09-1.76-.26-2.29-.42-.95-.74-1.25-.72-.5-1.2-.61c-.36-.08-1.08-.12-2.14-.12h-1.17Z"/>
    <path d="M194.84,289.33v-2.29h2.47v2.29h-2.47Zm0,10.6v-9.33h2.47v9.33h-2.47Z"/>
    <path d="M199.62,300.54l2.82,.34c.05,.33,.16,.55,.33,.68,.23,.18,.6,.26,1.11,.26,.64,0,1.13-.1,1.45-.29,.22-.13,.38-.34,.49-.62,.08-.21,.11-.58,.11-1.13v-1.36c-.74,1.01-1.67,1.51-2.79,1.51-1.25,0-2.25-.53-2.98-1.59-.57-.84-.86-1.88-.86-3.13,0-1.56,.38-2.76,1.13-3.59s1.69-1.24,2.81-1.24,2.11,.51,2.86,1.52v-1.31h2.31v8.38c0,1.1-.09,1.92-.27,2.47s-.44,.97-.76,1.28-.77,.55-1.31,.73-1.24,.26-2.08,.26c-1.58,0-2.7-.27-3.37-.81s-.99-1.23-.99-2.06c0-.08,0-.18,0-.3Zm2.21-5.48c0,.99,.19,1.72,.58,2.17,.38,.46,.86,.69,1.42,.69,.6,0,1.11-.24,1.53-.71,.42-.47,.62-1.17,.62-2.1s-.2-1.68-.6-2.15-.9-.7-1.51-.7-1.08,.23-1.46,.69-.58,1.16-.58,2.1Z"/>
    <path d="M210.84,289.33v-2.29h2.47v2.29h-2.47Zm0,10.6v-9.33h2.47v9.33h-2.47Z"/>
    <path d="M220.12,290.59v1.97h-1.69v3.76c0,.76,.02,1.21,.05,1.33s.11,.23,.22,.31,.25,.12,.42,.12c.23,0,.56-.08,.99-.24l.21,1.92c-.57,.25-1.22,.37-1.95,.37-.45,0-.85-.07-1.2-.22-.36-.15-.62-.34-.79-.58-.17-.24-.28-.56-.35-.96-.05-.29-.08-.87-.08-1.74v-4.07h-1.13v-1.97h1.13v-1.85l2.48-1.44v3.3h1.69Z"/>
    <path d="M223.68,293.44l-2.24-.4c.25-.9,.69-1.57,1.3-2s1.53-.65,2.74-.65c1.1,0,1.92,.13,2.46,.39,.54,.26,.92,.59,1.14,.99s.33,1.14,.33,2.21l-.03,2.88c0,.82,.04,1.43,.12,1.82s.23,.81,.44,1.25h-2.44c-.06-.16-.14-.41-.24-.73-.04-.15-.07-.24-.09-.29-.42,.41-.87,.72-1.35,.92s-.99,.31-1.54,.31c-.96,0-1.72-.26-2.27-.78-.55-.52-.83-1.18-.83-1.98,0-.53,.13-1,.38-1.41,.25-.41,.6-.73,1.06-.95,.45-.22,1.11-.41,1.96-.58,1.15-.22,1.95-.42,2.4-.61v-.25c0-.47-.12-.81-.35-1.01-.23-.2-.68-.3-1.33-.3-.44,0-.78,.09-1.03,.26-.25,.17-.45,.48-.6,.91Zm3.3,2c-.32,.11-.82,.23-1.5,.38s-1.13,.29-1.34,.43c-.32,.23-.48,.52-.48,.87s.13,.64,.39,.9,.59,.38,.98,.38c.45,0,.87-.15,1.27-.44,.3-.22,.5-.5,.59-.82,.06-.21,.1-.61,.1-1.2v-.49Z"/>
    <path d="M231.85,299.92v-12.88h2.47v12.88h-2.47Z"/>
    <path d="M241.79,299.92v-12.88h2.6v12.88h-2.6Z"/>
    <path d="M255.34,299.92h-2.47v-4.76c0-1.01-.05-1.66-.16-1.96s-.28-.53-.51-.69-.52-.25-.86-.25c-.43,0-.81,.12-1.15,.35s-.57,.54-.7,.93-.19,1.1-.19,2.14v4.23h-2.47v-9.33h2.29v1.37c.81-1.05,1.84-1.58,3.08-1.58,.54,0,1.04,.1,1.49,.29s.79,.45,1.02,.75,.39,.65,.48,1.04,.14,.94,.14,1.66v5.8Z"/>
  </g>
  <g>
    <path d="M164.54,344.51v-2.64c0-.6,.05-1.05,.14-1.36,.12-.42,.34-.78,.66-1.08,.32-.3,.7-.53,1.16-.68,.46-.16,1.02-.23,1.69-.23,.59,0,1.1,.07,1.52,.22,.52,.18,.94,.43,1.26,.77,.24,.25,.43,.59,.57,1.02,.1,.32,.15,.75,.15,1.28v2.72h-7.16Zm1.21-1.45h4.74v-1.08c0-.4-.02-.69-.07-.87-.06-.23-.16-.43-.3-.58s-.37-.28-.69-.38c-.32-.1-.76-.15-1.31-.15s-.98,.05-1.27,.15-.53,.23-.69,.41-.28,.4-.34,.67c-.05,.2-.07,.6-.07,1.19v.65Z"/>
    <path d="M165.81,337.3h-1.27v-1.37h1.27v1.37Zm5.89,0h-5.19v-1.37h5.19v1.37Z"/>
    <path d="M171.7,329.8v1.37h-2.65c-.56,0-.92,.03-1.09,.09-.17,.06-.29,.15-.38,.29-.09,.13-.14,.29-.14,.48,0,.24,.07,.45,.2,.64,.13,.19,.3,.32,.52,.39s.61,.11,1.19,.11h2.35v1.37h-5.19v-1.27h.76c-.59-.45-.88-1.02-.88-1.71,0-.3,.05-.58,.16-.83,.11-.25,.25-.44,.42-.57s.36-.22,.58-.27,.52-.08,.92-.08h3.22Z"/>
    <path d="M171.7,325.19v1.37h-5.17c.47,.5,.82,1.09,1.04,1.77h-1.25c-.12-.36-.34-.75-.67-1.17-.33-.42-.71-.71-1.14-.87v-1.11h7.19Z"/>
  </g>
  <g>
    <path d="M178.94,344.51v-2.64c0-.6,.05-1.05,.14-1.36,.12-.42,.34-.78,.66-1.08,.32-.3,.7-.53,1.16-.68,.46-.16,1.02-.23,1.69-.23,.59,0,1.1,.07,1.52,.22,.52,.18,.94,.43,1.26,.77,.24,.25,.43,.59,.57,1.02,.1,.32,.15,.75,.15,1.28v2.72h-7.16Zm1.21-1.45h4.74v-1.08c0-.4-.02-.69-.07-.87-.06-.23-.16-.43-.3-.58s-.37-.28-.69-.38c-.32-.1-.76-.15-1.31-.15s-.98,.05-1.27,.15-.53,.23-.69,.41-.28,.4-.34,.67c-.05,.2-.07,.6-.07,1.19v.65Z"/>
    <path d="M180.21,337.3h-1.27v-1.37h1.27v1.37Zm5.89,0h-5.19v-1.37h5.19v1.37Z"/>
    <path d="M186.1,329.8v1.37h-2.65c-.56,0-.92,.03-1.09,.09-.17,.06-.29,.15-.38,.29s-.14,.29-.14,.48c0,.24,.07,.45,.2,.64,.13,.19,.3,.32,.52,.39s.61,.11,1.19,.11h2.35v1.37h-5.19v-1.27h.76c-.59-.45-.88-1.02-.88-1.71,0-.3,.05-.58,.16-.83,.11-.25,.25-.44,.42-.57s.36-.22,.58-.27,.52-.08,.92-.08h3.22Z"/>
    <path d="M184.83,324.07h1.27v4.81c-.48-.05-.94-.21-1.37-.47-.43-.26-1-.78-1.72-1.54-.58-.62-.97-1-1.17-1.14-.28-.19-.56-.28-.84-.28-.31,0-.54,.08-.71,.25-.17,.17-.25,.39-.25,.68s.09,.51,.26,.68c.17,.17,.46,.27,.86,.29l-.14,1.37c-.75-.08-1.3-.34-1.63-.77s-.49-.97-.49-1.61c0-.71,.19-1.26,.57-1.67,.38-.4,.85-.61,1.42-.61,.32,0,.63,.06,.92,.17,.29,.12,.6,.3,.92,.55,.21,.17,.52,.47,.91,.9,.4,.43,.66,.71,.79,.82s.26,.21,.38,.28v-2.72Z"/>
  </g>
  <g>
    <path d="M193.34,344.51v-2.64c0-.6,.05-1.05,.14-1.36,.12-.42,.34-.78,.66-1.08,.32-.3,.7-.53,1.16-.68,.46-.16,1.02-.23,1.69-.23,.59,0,1.1,.07,1.52,.22,.52,.18,.94,.43,1.26,.77,.24,.25,.43,.59,.57,1.02,.1,.32,.15,.75,.15,1.28v2.72h-7.16Zm1.21-1.45h4.74v-1.08c0-.4-.02-.69-.07-.87-.06-.23-.16-.43-.3-.58s-.37-.28-.69-.38c-.32-.1-.76-.15-1.31-.15s-.98,.05-1.27,.15-.53,.23-.69,.41-.28,.4-.34,.67c-.05,.2-.07,.6-.07,1.19v.65Z"/>
    <path d="M194.61,337.3h-1.27v-1.37h1.27v1.37Zm5.89,0h-5.19v-1.37h5.19v1.37Z"/>
    <path d="M200.5,329.8v1.37h-2.65c-.56,0-.92,.03-1.09,.09-.17,.06-.29,.15-.38,.29s-.14,.29-.14,.48c0,.24,.07,.45,.2,.64,.13,.19,.3,.32,.52,.39s.61,.11,1.19,.11h2.35v1.37h-5.19v-1.27h.76c-.59-.45-.88-1.02-.88-1.71,0-.3,.05-.58,.16-.83,.11-.25,.25-.44,.42-.57s.36-.22,.58-.27,.52-.08,.92-.08h3.22Z"/>
    <path d="M198.6,328.75l-.16-1.33c.34-.04,.6-.16,.78-.34s.27-.41,.27-.67c0-.28-.11-.52-.32-.72s-.5-.29-.87-.29c-.34,0-.62,.09-.82,.28s-.3,.41-.3,.68c0,.18,.03,.38,.1,.63l-1.12-.15c0-.37-.07-.65-.24-.85-.17-.2-.4-.29-.68-.29-.24,0-.43,.07-.58,.21-.14,.14-.21,.33-.21,.57s.08,.44,.24,.6,.4,.27,.71,.3l-.21,1.26c-.43-.09-.78-.22-1.04-.4-.26-.18-.46-.42-.61-.74-.15-.32-.22-.67-.22-1.07,0-.67,.21-1.21,.64-1.62,.35-.33,.75-.5,1.19-.5,.63,0,1.13,.34,1.5,1.03,.09-.41,.29-.74,.59-.98s.68-.37,1.11-.37c.63,0,1.16,.23,1.61,.69s.66,1.03,.66,1.71c0,.65-.19,1.18-.56,1.61-.37,.43-.86,.67-1.46,.74Z"/>
  </g>
  <g>
    <path d="M207.74,344.51v-2.64c0-.6,.05-1.05,.14-1.36,.12-.42,.34-.78,.66-1.08,.32-.3,.7-.53,1.16-.68,.46-.16,1.02-.23,1.69-.23,.59,0,1.1,.07,1.52,.22,.52,.18,.94,.43,1.26,.77,.24,.25,.43,.59,.57,1.02,.1,.32,.15,.75,.15,1.28v2.72h-7.16Zm1.21-1.45h4.74v-1.08c0-.4-.02-.69-.07-.87-.06-.23-.16-.43-.3-.58s-.37-.28-.69-.38c-.32-.1-.76-.15-1.31-.15s-.98,.05-1.27,.15-.53,.23-.69,.41-.28,.4-.34,.67c-.05,.2-.07,.6-.07,1.19v.65Z"/>
    <path d="M209.01,337.3h-1.27v-1.37h1.27v1.37Zm5.89,0h-5.19v-1.37h5.19v1.37Z"/>
    <path d="M214.9,329.8v1.37h-2.65c-.56,0-.92,.03-1.09,.09-.17,.06-.29,.15-.38,.29s-.14,.29-.14,.48c0,.24,.07,.45,.2,.64,.13,.19,.3,.32,.52,.39s.61,.11,1.19,.11h2.35v1.37h-5.19v-1.27h.76c-.59-.45-.88-1.02-.88-1.71,0-.3,.05-.58,.16-.83,.11-.25,.25-.44,.42-.57s.36-.22,.58-.27,.52-.08,.92-.08h3.22Z"/>
    <path d="M214.9,326.01h-1.44v2.93h-1.2l-4.55-3.11v-1.15h4.54v-.89h1.21v.89h1.44v1.33Zm-2.65,0h-2.45l2.45,1.65v-1.65Z"/>
  </g>
  <g>
    <path d="M222.14,344.51v-2.64c0-.6,.05-1.05,.14-1.36,.12-.42,.34-.78,.66-1.08,.32-.3,.7-.53,1.16-.68,.46-.16,1.02-.23,1.69-.23,.59,0,1.1,.07,1.52,.22,.52,.18,.94,.43,1.26,.77,.24,.25,.43,.59,.57,1.02,.1,.32,.15,.75,.15,1.28v2.72h-7.16Zm1.21-1.45h4.74v-1.08c0-.4-.02-.69-.07-.87-.06-.23-.16-.43-.3-.58s-.37-.28-.69-.38c-.32-.1-.76-.15-1.31-.15s-.98,.05-1.27,.15-.53,.23-.69,.41-.28,.4-.34,.67c-.05,.2-.07,.6-.07,1.19v.65Z"/>
    <path d="M223.41,337.3h-1.27v-1.37h1.27v1.37Zm5.89,0h-5.19v-1.37h5.19v1.37Z"/>
    <path d="M229.3,329.8v1.37h-2.65c-.56,0-.92,.03-1.09,.09-.17,.06-.29,.15-.38,.29s-.14,.29-.14,.48c0,.24,.07,.45,.2,.64,.13,.19,.3,.32,.52,.39s.61,.11,1.19,.11h2.35v1.37h-5.19v-1.27h.76c-.59-.45-.88-1.02-.88-1.71,0-.3,.05-.58,.16-.83,.11-.25,.25-.44,.42-.57s.36-.22,.58-.27,.52-.08,.92-.08h3.22Z"/>
    <path d="M227.46,328.68l-.14-1.37c.31-.04,.55-.16,.73-.35,.18-.19,.27-.41,.27-.66,0-.29-.12-.53-.35-.73-.23-.2-.58-.3-1.05-.3-.44,0-.77,.1-.99,.3-.22,.2-.33,.45-.33,.77,0,.39,.17,.75,.52,1.06l-.16,1.11-3.73-.7v-3.63h1.28v2.59l1.22,.21c-.15-.31-.23-.62-.23-.94,0-.61,.22-1.12,.66-1.55,.44-.42,1.02-.63,1.72-.63,.59,0,1.12,.17,1.58,.51,.63,.47,.95,1.11,.95,1.94,0,.66-.18,1.2-.53,1.62-.35,.42-.83,.67-1.43,.75Z"/>
  </g>
  <g>
    <path d="M236.54,344.51v-2.64c0-.6,.05-1.05,.14-1.36,.12-.42,.34-.78,.66-1.08,.32-.3,.7-.53,1.16-.68,.46-.16,1.02-.23,1.69-.23,.59,0,1.1,.07,1.52,.22,.52,.18,.94,.43,1.26,.77,.24,.25,.43,.59,.57,1.02,.1,.32,.15,.75,.15,1.28v2.72h-7.16Zm1.21-1.45h4.74v-1.08c0-.4-.02-.69-.07-.87-.06-.23-.16-.43-.3-.58s-.37-.28-.69-.38c-.32-.1-.76-.15-1.31-.15s-.98,.05-1.27,.15-.53,.23-.69,.41-.28,.4-.34,.67c-.05,.2-.07,.6-.07,1.19v.65Z"/>
    <path d="M237.81,337.3h-1.27v-1.37h1.27v1.37Zm5.89,0h-5.19v-1.37h5.19v1.37Z"/>
    <path d="M243.7,329.8v1.37h-2.65c-.56,0-.92,.03-1.09,.09-.17,.06-.29,.15-.38,.29-.09,.13-.14,.29-.14,.48,0,.24,.07,.45,.2,.64,.13,.19,.3,.32,.52,.39s.61,.11,1.19,.11h2.35v1.37h-5.19v-1.27h.76c-.59-.45-.88-1.02-.88-1.71,0-.3,.05-.58,.16-.83,.11-.25,.25-.44,.42-.57s.36-.22,.58-.27,.52-.08,.92-.08h3.22Z"/>
    <path d="M238.3,324.05l.15,1.33c-.27,.03-.48,.12-.61,.25s-.2,.31-.2,.53c0,.29,.13,.54,.39,.74s.8,.33,1.63,.38c-.4-.34-.61-.77-.61-1.27,0-.57,.22-1.06,.65-1.47s1-.61,1.69-.61c.73,0,1.32,.21,1.76,.64s.66,.98,.66,1.66c0,.72-.28,1.32-.84,1.78-.56,.47-1.48,.7-2.76,.7s-2.26-.24-2.84-.73c-.58-.48-.87-1.11-.87-1.89,0-.54,.15-.99,.46-1.35,.3-.36,.75-.58,1.33-.68Zm2.99,3.11c.45,0,.79-.1,1.03-.31,.24-.21,.36-.44,.36-.7s-.1-.47-.3-.63c-.2-.17-.52-.25-.98-.25s-.81,.09-1.02,.27c-.22,.18-.33,.41-.33,.68s.1,.49,.31,.67c.21,.18,.51,.27,.92,.27Z"/>
  </g>
  <g>
    <path d="M250.94,344.51v-2.64c0-.6,.05-1.05,.14-1.36,.12-.42,.34-.78,.66-1.08,.32-.3,.7-.53,1.16-.68,.46-.16,1.02-.23,1.69-.23,.59,0,1.1,.07,1.52,.22,.52,.18,.94,.43,1.26,.77,.24,.25,.43,.59,.57,1.02,.1,.32,.15,.75,.15,1.28v2.72h-7.16Zm1.21-1.45h4.74v-1.08c0-.4-.02-.69-.07-.87-.06-.23-.16-.43-.3-.58s-.37-.28-.69-.38c-.32-.1-.76-.15-1.31-.15s-.98,.05-1.27,.15-.53,.23-.69,.41-.28,.4-.34,.67c-.05,.2-.07,.6-.07,1.19v.65Z"/>
    <path d="M252.21,337.3h-1.27v-1.37h1.27v1.37Zm5.89,0h-5.19v-1.37h5.19v1.37Z"/>
    <path d="M258.1,329.8v1.37h-2.65c-.56,0-.92,.03-1.09,.09-.17,.06-.29,.15-.38,.29s-.14,.29-.14,.48c0,.24,.07,.45,.2,.64,.13,.19,.3,.32,.52,.39s.61,.11,1.19,.11h2.35v1.37h-5.19v-1.27h.76c-.59-.45-.88-1.02-.88-1.71,0-.3,.05-.58,.16-.83,.11-.25,.25-.44,.42-.57s.36-.22,.58-.27,.52-.08,.92-.08h3.22Z"/>
    <path d="M252.32,328.7h-1.27v-4.69h1c.38,.39,.93,.78,1.64,1.18s1.47,.71,2.27,.92c.8,.21,1.52,.31,2.15,.31v1.32c-.99-.02-2-.23-3.03-.61s-1.95-.9-2.76-1.55v3.12Z"/>
  </g>
  <g>
    <path d="M265.34,344.51v-2.64c0-.6,.05-1.05,.14-1.36,.12-.42,.34-.78,.66-1.08,.32-.3,.7-.53,1.16-.68,.46-.16,1.02-.23,1.69-.23,.59,0,1.1,.07,1.52,.22,.52,.18,.94,.43,1.26,.77,.24,.25,.43,.59,.57,1.02,.1,.32,.15,.75,.15,1.28v2.72h-7.16Zm1.21-1.45h4.74v-1.08c0-.4-.02-.69-.07-.87-.06-.23-.16-.43-.3-.58s-.37-.28-.69-.38c-.32-.1-.76-.15-1.31-.15s-.98,.05-1.27,.15-.53,.23-.69,.41-.28,.4-.34,.67c-.05,.2-.07,.6-.07,1.19v.65Z"/>
    <path d="M266.61,337.3h-1.27v-1.37h1.27v1.37Zm5.89,0h-5.19v-1.37h5.19v1.37Z"/>
    <path d="M272.5,329.8v1.37h-2.65c-.56,0-.92,.03-1.09,.09-.17,.06-.29,.15-.38,.29s-.14,.29-.14,.48c0,.24,.07,.45,.2,.64,.13,.19,.3,.32,.52,.39s.61,.11,1.19,.11h2.35v1.37h-5.19v-1.27h.76c-.59-.45-.88-1.02-.88-1.71,0-.3,.05-.58,.16-.83,.11-.25,.25-.44,.42-.57s.36-.22,.58-.27,.52-.08,.92-.08h3.22Z"/>
    <path d="M268.64,327.53c-.15,.36-.36,.61-.62,.77-.26,.16-.55,.24-.86,.24-.53,0-.97-.19-1.32-.56s-.52-.9-.52-1.59,.17-1.21,.52-1.58,.79-.56,1.32-.56c.33,0,.63,.09,.89,.26,.26,.17,.46,.41,.59,.73,.16-.4,.39-.7,.7-.91s.66-.31,1.06-.31c.66,0,1.2,.21,1.61,.63s.62,.98,.62,1.68c0,.65-.17,1.19-.51,1.62-.4,.51-.96,.77-1.66,.77-.39,0-.74-.1-1.07-.29-.32-.19-.57-.49-.75-.91Zm-1.38-.28c.27,0,.49-.08,.64-.23s.23-.36,.23-.62-.08-.47-.23-.62c-.15-.16-.37-.23-.64-.23-.26,0-.46,.08-.62,.23-.15,.15-.23,.36-.23,.61s.08,.47,.23,.63,.36,.23,.62,.23Zm3.07,.13c.38,0,.67-.1,.88-.29s.32-.44,.32-.73-.1-.52-.3-.7c-.2-.19-.5-.28-.88-.28-.33,0-.6,.09-.81,.28-.2,.19-.31,.43-.31,.72,0,.34,.12,.59,.35,.75s.48,.25,.75,.25Z"/>
  </g>
  <rect class="cls-4" x="291.02" y="277.94" width="57.6" height="114.41" rx="14.17" ry="14.17"/>
  <g>
    <path d="M306.15,296.92h-2.2l-.88-2.28h-4.01l-.83,2.28h-2.15l3.9-10.02h2.14l4.01,10.02Zm-3.73-3.96l-1.38-3.72-1.35,3.72h2.73Z"/>
    <path d="M313.81,296.92h-1.92v-3.71c0-.78-.04-1.29-.12-1.52-.08-.23-.21-.41-.4-.54s-.41-.19-.67-.19c-.33,0-.63,.09-.9,.27-.26,.18-.45,.42-.54,.72-.1,.3-.15,.86-.15,1.67v3.29h-1.92v-7.26h1.78v1.07c.63-.82,1.43-1.23,2.39-1.23,.42,0,.81,.08,1.16,.23,.35,.15,.62,.35,.8,.58,.18,.24,.3,.51,.38,.81,.07,.3,.11,.73,.11,1.29v4.51Z"/>
    <path d="M317.2,291.88l-1.74-.31c.2-.7,.53-1.22,1.01-1.56s1.19-.51,2.13-.51c.86,0,1.5,.1,1.91,.3,.42,.2,.71,.46,.89,.77,.17,.31,.26,.89,.26,1.72l-.02,2.24c0,.64,.03,1.11,.09,1.41,.06,.3,.18,.63,.34,.97h-1.9c-.05-.13-.11-.32-.18-.57-.03-.11-.05-.19-.07-.23-.33,.32-.68,.56-1.05,.72-.37,.16-.77,.24-1.2,.24-.75,0-1.34-.2-1.77-.61s-.65-.92-.65-1.54c0-.41,.1-.78,.29-1.1,.2-.32,.47-.57,.82-.74,.35-.17,.86-.32,1.53-.45,.9-.17,1.52-.33,1.87-.47v-.19c0-.37-.09-.63-.27-.79-.18-.16-.53-.24-1.03-.24-.34,0-.61,.07-.8,.2-.19,.13-.35,.37-.46,.71Zm2.57,1.56c-.25,.08-.64,.18-1.17,.29s-.88,.23-1.05,.33c-.25,.18-.38,.4-.38,.68s.1,.5,.3,.7c.2,.2,.46,.29,.77,.29,.35,0,.68-.11,.99-.34,.23-.17,.39-.38,.46-.64,.05-.16,.08-.48,.08-.94v-.38Z"/>
    <path d="M323.55,296.92v-10.02h1.92v10.02h-1.92Z"/>
    <path d="M326.99,293.19c0-.64,.16-1.26,.47-1.85s.76-1.05,1.34-1.37c.58-.31,1.22-.47,1.93-.47,1.1,0,2,.36,2.7,1.07,.7,.71,1.05,1.61,1.05,2.7s-.35,2.01-1.06,2.73c-.71,.72-1.6,1.08-2.68,1.08-.67,0-1.3-.15-1.9-.45-.6-.3-1.06-.74-1.38-1.32-.31-.58-.47-1.29-.47-2.12Zm1.97,.1c0,.72,.17,1.27,.51,1.65s.76,.57,1.26,.57,.92-.19,1.26-.57c.34-.38,.51-.94,.51-1.67s-.17-1.26-.51-1.64c-.34-.38-.76-.57-1.26-.57s-.92,.19-1.26,.57-.51,.93-.51,1.65Z"/>
    <path d="M335.81,297.4l2.19,.27c.04,.25,.12,.43,.25,.53,.18,.14,.47,.21,.86,.21,.5,0,.88-.08,1.13-.23,.17-.1,.3-.26,.38-.49,.06-.16,.09-.45,.09-.88v-1.06c-.57,.78-1.3,1.18-2.17,1.18-.98,0-1.75-.41-2.32-1.24-.45-.65-.67-1.46-.67-2.43,0-1.22,.29-2.15,.88-2.79,.58-.64,1.31-.96,2.18-.96s1.64,.39,2.22,1.18v-1.02h1.8v6.51c0,.86-.07,1.5-.21,1.92s-.34,.76-.59,1-.6,.43-1.02,.57c-.43,.14-.97,.21-1.62,.21-1.23,0-2.1-.21-2.62-.63-.51-.42-.77-.96-.77-1.6,0-.06,0-.14,0-.23Zm1.72-4.26c0,.77,.15,1.33,.45,1.69,.3,.36,.67,.54,1.1,.54,.47,0,.87-.18,1.19-.55,.32-.37,.49-.91,.49-1.63s-.16-1.31-.46-1.67-.7-.55-1.18-.55-.84,.18-1.14,.54c-.3,.36-.45,.9-.45,1.64Z"/>
    <path d="M303.67,308.92v-10.02h2.02v10.02h-2.02Z"/>
    <path d="M314.21,308.92h-1.92v-3.71c0-.78-.04-1.29-.12-1.52-.08-.23-.21-.41-.4-.54s-.41-.19-.67-.19c-.33,0-.63,.09-.9,.27-.26,.18-.45,.42-.54,.72-.1,.3-.15,.86-.15,1.67v3.29h-1.92v-7.26h1.78v1.07c.63-.82,1.43-1.23,2.39-1.23,.42,0,.81,.08,1.16,.23,.35,.15,.62,.35,.8,.58,.18,.24,.3,.51,.38,.81,.07,.3,.11,.73,.11,1.29v4.51Z"/>
    <path d="M316.1,301.66h1.79v1.07c.23-.36,.55-.66,.94-.89s.84-.34,1.32-.34c.84,0,1.56,.33,2.15,.99s.88,1.58,.88,2.76-.3,2.15-.89,2.83c-.59,.67-1.31,1.01-2.15,1.01-.4,0-.76-.08-1.09-.24-.33-.16-.67-.43-1.03-.82v3.66h-1.92v-10.02Zm1.9,3.51c0,.82,.16,1.42,.49,1.81,.32,.39,.72,.58,1.18,.58s.82-.18,1.11-.54c.3-.36,.44-.95,.44-1.76,0-.76-.15-1.33-.46-1.7-.3-.37-.68-.55-1.13-.55s-.86,.18-1.17,.54c-.31,.36-.46,.9-.46,1.61Z"/>
    <path d="M329.49,308.92v-1.09c-.26,.39-.61,.69-1.04,.92-.43,.22-.88,.33-1.36,.33s-.92-.11-1.31-.32-.67-.51-.84-.9-.26-.92-.26-1.61v-4.59h1.92v3.34c0,1.02,.04,1.65,.11,1.88,.07,.23,.2,.41,.39,.55,.19,.13,.42,.2,.71,.2,.33,0,.62-.09,.88-.27,.26-.18,.44-.4,.53-.67,.1-.27,.14-.92,.14-1.96v-3.06h1.92v7.26h-1.78Z"/>
    <path d="M336.59,301.66v1.53h-1.31v2.93c0,.59,.01,.94,.04,1.04,.03,.1,.08,.18,.17,.24,.09,.06,.2,.1,.32,.1,.18,0,.44-.06,.77-.18l.16,1.49c-.45,.19-.95,.29-1.52,.29-.35,0-.66-.06-.94-.17-.28-.12-.48-.27-.61-.45-.13-.19-.22-.43-.27-.75-.04-.22-.06-.67-.06-1.35v-3.17h-.88v-1.53h.88v-1.44l1.93-1.12v2.56h1.31Z"/>
  </g>
  <g>
    <g>
      <path d="M300.62,338.05v1.57l-1.63,.62v2.86l1.63,.59v1.53l-7.16-2.79v-1.53l7.16-2.87Zm-2.83,2.66l-2.66,.99,2.66,.97v-1.95Z"/>
      <path d="M294.73,337.3h-1.27v-1.37h1.27v1.37Zm5.89,0h-5.19v-1.37h5.19v1.37Z"/>
      <path d="M300.62,329.8v1.37h-2.65c-.56,0-.92,.03-1.09,.09-.17,.06-.29,.15-.38,.29-.09,.13-.14,.29-.14,.48,0,.24,.07,.45,.2,.64,.13,.19,.3,.32,.52,.39,.21,.07,.61,.11,1.19,.11h2.35v1.37h-5.19v-1.27h.76c-.59-.45-.88-1.02-.88-1.71,0-.3,.05-.58,.16-.83,.11-.25,.25-.44,.42-.57,.17-.13,.36-.22,.58-.27,.21-.05,.52-.08,.92-.08h3.22Z"/>
      <path d="M300.62,325.19v1.37h-5.17c.47,.5,.82,1.09,1.04,1.77h-1.25c-.12-.36-.34-.75-.67-1.17s-.71-.71-1.15-.86v-1.11h7.19Z"/>
    </g>
    <g>
      <path d="M315.02,338.05v1.57l-1.63,.62v2.86l1.63,.59v1.53l-7.16-2.79v-1.53l7.16-2.87Zm-2.83,2.66l-2.66,.99,2.66,.97v-1.95Z"/>
      <path d="M309.14,337.3h-1.27v-1.37h1.27v1.37Zm5.89,0h-5.19v-1.37h5.19v1.37Z"/>
      <path d="M315.02,329.8v1.37h-2.65c-.56,0-.92,.03-1.09,.09-.16,.06-.29,.15-.38,.29-.09,.13-.14,.29-.14,.48,0,.24,.06,.45,.2,.64,.13,.19,.3,.32,.52,.39,.21,.07,.61,.11,1.19,.11h2.35v1.37h-5.19v-1.27h.76c-.59-.45-.88-1.02-.88-1.71,0-.3,.05-.58,.16-.83,.11-.25,.25-.44,.42-.57,.17-.13,.36-.22,.58-.27,.21-.05,.52-.08,.92-.08h3.22Z"/>
      <path d="M313.75,324.07h1.27v4.81c-.48-.05-.94-.21-1.37-.47-.43-.26-1-.77-1.72-1.54-.58-.62-.97-1-1.17-1.14-.28-.19-.56-.28-.84-.28-.31,0-.54,.08-.71,.25-.16,.17-.25,.39-.25,.68s.09,.51,.26,.68c.17,.17,.46,.27,.86,.29l-.14,1.37c-.76-.08-1.3-.34-1.63-.77-.33-.43-.49-.97-.49-1.61,0-.71,.19-1.26,.57-1.67s.85-.61,1.42-.61c.32,0,.63,.06,.92,.17,.29,.12,.6,.3,.92,.55,.21,.17,.52,.47,.91,.9,.4,.43,.66,.71,.79,.82,.13,.12,.26,.21,.38,.28v-2.72Z"/>
    </g>
    <g>
      <path d="M329.42,338.05v1.57l-1.63,.62v2.86l1.63,.59v1.53l-7.16-2.79v-1.53l7.16-2.87Zm-2.83,2.66l-2.66,.99,2.66,.97v-1.95Z"/>
      <path d="M323.54,337.3h-1.27v-1.37h1.27v1.37Zm5.89,0h-5.19v-1.37h5.19v1.37Z"/>
      <path d="M329.42,329.8v1.37h-2.65c-.56,0-.92,.03-1.09,.09-.16,.06-.29,.15-.38,.29-.09,.13-.14,.29-.14,.48,0,.24,.06,.45,.2,.64,.13,.19,.3,.32,.52,.39,.21,.07,.61,.11,1.19,.11h2.35v1.37h-5.19v-1.27h.76c-.59-.45-.88-1.02-.88-1.71,0-.3,.05-.58,.16-.83,.11-.25,.25-.44,.42-.57,.17-.13,.36-.22,.58-.27,.21-.05,.52-.08,.92-.08h3.22Z"/>
      <path d="M327.52,328.75l-.16-1.33c.34-.04,.6-.16,.78-.34,.18-.19,.27-.41,.27-.67,0-.28-.11-.52-.32-.72-.21-.19-.5-.29-.87-.29s-.62,.09-.82,.28c-.2,.19-.3,.41-.3,.68,0,.18,.03,.39,.1,.63l-1.12-.15c0-.37-.07-.65-.24-.85-.17-.2-.4-.29-.68-.29-.24,0-.43,.07-.58,.21-.14,.14-.21,.33-.21,.57s.08,.43,.24,.6c.16,.17,.4,.27,.71,.3l-.21,1.26c-.43-.09-.78-.22-1.04-.4-.26-.18-.46-.42-.61-.74-.15-.32-.22-.67-.22-1.07,0-.67,.21-1.21,.64-1.62,.35-.33,.75-.5,1.19-.5,.63,0,1.13,.34,1.5,1.03,.09-.41,.28-.74,.59-.98,.31-.25,.67-.37,1.11-.37,.63,0,1.16,.23,1.61,.69,.44,.46,.66,1.03,.66,1.71,0,.65-.19,1.18-.56,1.61-.37,.43-.86,.67-1.46,.74Z"/>
    </g>
    <g>
      <path d="M343.82,338.05v1.57l-1.63,.62v2.86l1.63,.59v1.53l-7.16-2.79v-1.53l7.16-2.87Zm-2.83,2.66l-2.66,.99,2.66,.97v-1.95Z"/>
      <path d="M337.94,337.3h-1.27v-1.37h1.27v1.37Zm5.89,0h-5.19v-1.37h5.19v1.37Z"/>
      <path d="M343.82,329.8v1.37h-2.65c-.56,0-.92,.03-1.09,.09-.17,.06-.29,.15-.38,.29-.09,.13-.14,.29-.14,.48,0,.24,.07,.45,.2,.64,.13,.19,.3,.32,.52,.39,.21,.07,.61,.11,1.19,.11h2.35v1.37h-5.19v-1.27h.76c-.59-.45-.88-1.02-.88-1.71,0-.3,.05-.58,.16-.83,.11-.25,.25-.44,.42-.57,.17-.13,.36-.22,.58-.27,.21-.05,.52-.08,.92-.08h3.22Z"/>
      <path d="M343.82,326.01h-1.44v2.93h-1.2l-4.55-3.11v-1.15h4.54v-.89h1.21v.89h1.44v1.33Zm-2.65,0h-2.45l2.45,1.65v-1.65Z"/>
    </g>
  </g>
  <rect class="cls-4" x="363.02" y="277.94" width="57.6" height="114.41" rx="14.17" ry="14.17"/>
  <g>
    <path d="M378.15,296.92h-2.2l-.88-2.28h-4.01l-.83,2.28h-2.15l3.9-10.02h2.14l4.01,10.02Zm-3.73-3.96l-1.38-3.72-1.35,3.72h2.73Z"/>
    <path d="M385.81,296.92h-1.92v-3.71c0-.78-.04-1.29-.12-1.52-.08-.23-.22-.41-.4-.54s-.41-.19-.67-.19c-.33,0-.63,.09-.9,.27-.26,.18-.45,.42-.54,.72-.1,.3-.15,.86-.15,1.67v3.29h-1.92v-7.26h1.78v1.07c.63-.82,1.43-1.23,2.39-1.23,.42,0,.81,.08,1.16,.23,.35,.15,.62,.35,.8,.58,.18,.24,.31,.51,.38,.81,.07,.3,.11,.73,.11,1.29v4.51Z"/>
    <path d="M389.2,291.88l-1.74-.31c.2-.7,.53-1.22,1.01-1.56s1.19-.51,2.13-.51c.86,0,1.49,.1,1.91,.3,.42,.2,.71,.46,.88,.77,.17,.31,.26,.89,.26,1.72l-.02,2.24c0,.64,.03,1.11,.09,1.41,.06,.3,.18,.63,.35,.97h-1.9c-.05-.13-.11-.32-.18-.57-.03-.11-.05-.19-.07-.23-.33,.32-.68,.56-1.05,.72-.37,.16-.77,.24-1.2,.24-.75,0-1.34-.2-1.77-.61s-.65-.92-.65-1.54c0-.41,.1-.78,.29-1.1,.2-.32,.47-.57,.82-.74,.35-.17,.86-.32,1.53-.45,.9-.17,1.52-.33,1.87-.47v-.19c0-.37-.09-.63-.27-.79-.18-.16-.53-.24-1.03-.24-.34,0-.61,.07-.8,.2-.19,.13-.35,.37-.46,.71Zm2.57,1.56c-.25,.08-.64,.18-1.17,.29s-.88,.23-1.05,.33c-.25,.18-.38,.4-.38,.68s.1,.5,.3,.7c.2,.2,.46,.29,.77,.29,.35,0,.68-.11,.99-.34,.23-.17,.38-.38,.46-.64,.05-.16,.08-.48,.08-.94v-.38Z"/>
    <path d="M395.55,296.92v-10.02h1.92v10.02h-1.92Z"/>
    <path d="M398.99,293.19c0-.64,.16-1.26,.47-1.85s.76-1.05,1.34-1.37c.58-.31,1.22-.47,1.93-.47,1.1,0,2,.36,2.7,1.07,.7,.71,1.05,1.61,1.05,2.7s-.35,2.01-1.06,2.73c-.71,.72-1.6,1.08-2.68,1.08-.67,0-1.3-.15-1.9-.45-.6-.3-1.06-.74-1.38-1.32-.31-.58-.47-1.29-.47-2.12Zm1.97,.1c0,.72,.17,1.27,.51,1.65s.76,.57,1.26,.57,.92-.19,1.26-.57c.34-.38,.51-.94,.51-1.67s-.17-1.26-.51-1.64c-.34-.38-.76-.57-1.26-.57s-.92,.19-1.26,.57-.51,.93-.51,1.65Z"/>
    <path d="M407.81,297.4l2.19,.27c.04,.25,.12,.43,.25,.53,.18,.14,.47,.21,.86,.21,.5,0,.88-.08,1.13-.23,.17-.1,.3-.26,.38-.49,.06-.16,.09-.45,.09-.88v-1.06c-.57,.78-1.3,1.18-2.17,1.18-.98,0-1.75-.41-2.32-1.24-.45-.65-.67-1.46-.67-2.43,0-1.22,.29-2.15,.88-2.79,.58-.64,1.31-.96,2.18-.96s1.64,.39,2.22,1.18v-1.02h1.8v6.51c0,.86-.07,1.5-.21,1.92s-.34,.76-.59,1-.6,.43-1.02,.57c-.43,.14-.97,.21-1.62,.21-1.23,0-2.1-.21-2.62-.63-.51-.42-.77-.96-.77-1.6,0-.06,0-.14,0-.23Zm1.72-4.26c0,.77,.15,1.33,.45,1.69,.3,.36,.67,.54,1.1,.54,.47,0,.87-.18,1.19-.55,.32-.37,.49-.91,.49-1.63s-.16-1.31-.46-1.67-.7-.55-1.18-.55-.84,.18-1.14,.54c-.3,.36-.45,.9-.45,1.64Z"/>
    <path d="M369.49,303.98c0-1.02,.15-1.88,.46-2.57,.23-.51,.54-.97,.93-1.37,.39-.41,.83-.71,1.3-.9,.62-.26,1.34-.4,2.16-.4,1.48,0,2.66,.46,3.54,1.37,.89,.92,1.33,2.19,1.33,3.82s-.44,2.88-1.32,3.8c-.88,.91-2.06,1.37-3.53,1.37s-2.68-.45-3.55-1.36c-.88-.91-1.32-2.16-1.32-3.76Zm2.08-.07c0,1.13,.26,2,.79,2.58,.52,.59,1.19,.88,2,.88s1.47-.29,1.99-.87c.52-.58,.78-1.45,.78-2.62s-.25-2-.76-2.57c-.5-.57-1.17-.85-2.01-.85s-1.51,.29-2.02,.86c-.51,.57-.77,1.43-.77,2.59Z"/>
    <path d="M385.56,308.92v-1.09c-.26,.39-.61,.69-1.04,.92s-.88,.33-1.36,.33-.93-.11-1.31-.32c-.39-.21-.67-.51-.84-.9-.17-.39-.26-.92-.26-1.61v-4.59h1.92v3.34c0,1.02,.04,1.65,.11,1.88,.07,.23,.2,.41,.39,.55,.19,.13,.42,.2,.71,.2,.33,0,.62-.09,.88-.27,.26-.18,.44-.4,.53-.67,.1-.27,.14-.92,.14-1.96v-3.06h1.92v7.26h-1.78Z"/>
    <path d="M392.66,301.66v1.53h-1.31v2.93c0,.59,.01,.94,.04,1.04,.03,.1,.08,.18,.17,.24s.2,.1,.33,.1c.18,0,.43-.06,.77-.18l.16,1.49c-.45,.19-.95,.29-1.52,.29-.35,0-.66-.06-.94-.17-.28-.12-.48-.27-.61-.45-.13-.19-.22-.43-.27-.75-.04-.22-.06-.67-.06-1.35v-3.17h-.88v-1.53h.88v-1.44l1.93-1.12v2.56h1.31Z"/>
    <path d="M393.94,301.66h1.79v1.07c.23-.36,.55-.66,.94-.89s.84-.34,1.32-.34c.84,0,1.56,.33,2.15,.99s.88,1.58,.88,2.76-.3,2.15-.89,2.83c-.59,.67-1.31,1.01-2.15,1.01-.4,0-.76-.08-1.09-.24-.33-.16-.67-.43-1.03-.82v3.66h-1.92v-10.02Zm1.9,3.51c0,.82,.16,1.42,.49,1.81,.32,.39,.72,.58,1.18,.58s.82-.18,1.11-.54c.3-.36,.44-.95,.44-1.76,0-.76-.15-1.33-.46-1.7s-.68-.55-1.13-.55-.86,.18-1.17,.54c-.31,.36-.46,.9-.46,1.61Z"/>
    <path d="M407.32,308.92v-1.09c-.26,.39-.61,.69-1.04,.92-.43,.22-.88,.33-1.36,.33s-.92-.11-1.31-.32-.67-.51-.84-.9-.26-.92-.26-1.61v-4.59h1.92v3.34c0,1.02,.04,1.65,.11,1.88,.07,.23,.2,.41,.39,.55,.19,.13,.42,.2,.71,.2,.33,0,.62-.09,.88-.27,.26-.18,.44-.4,.53-.67,.1-.27,.14-.92,.14-1.96v-3.06h1.92v7.26h-1.78Z"/>
    <path d="M414.42,301.66v1.53h-1.31v2.93c0,.59,.01,.94,.04,1.04,.03,.1,.08,.18,.17,.24,.09,.06,.2,.1,.32,.1,.18,0,.44-.06,.77-.18l.16,1.49c-.45,.19-.95,.29-1.52,.29-.35,0-.66-.06-.94-.17-.28-.12-.48-.27-.61-.45-.13-.19-.22-.43-.27-.75-.04-.22-.06-.67-.06-1.35v-3.17h-.88v-1.53h.88v-1.44l1.93-1.12v2.56h1.31Z"/>
  </g>
  <g>
    <g>
      <path d="M372.62,338.05v1.57l-1.63,.62v2.86l1.63,.59v1.53l-7.16-2.79v-1.53l7.16-2.87Zm-2.83,2.66l-2.66,.99,2.66,.97v-1.95Z"/>
      <path d="M369.96,337.61c-.46,0-.9-.11-1.32-.34-.43-.22-.75-.54-.98-.96-.22-.41-.34-.87-.34-1.38,0-.79,.25-1.43,.76-1.93,.51-.5,1.15-.75,1.93-.75s1.43,.25,1.95,.76c.52,.51,.77,1.14,.77,1.91,0,.47-.11,.93-.32,1.36-.21,.43-.53,.76-.94,.98s-.92,.34-1.52,.34Zm.07-1.41c.51,0,.91-.12,1.18-.37s.41-.54,.41-.9-.14-.66-.41-.9c-.27-.24-.67-.36-1.19-.36s-.9,.12-1.17,.36c-.27,.24-.41,.54-.41,.9s.14,.66,.41,.9,.67,.37,1.18,.37Z"/>
      <path d="M372.62,327.78h-.78c.28,.19,.5,.44,.65,.74,.16,.31,.24,.63,.24,.97s-.08,.66-.23,.94c-.15,.28-.37,.48-.64,.6-.28,.12-.66,.19-1.15,.19h-3.28v-1.37h2.38c.73,0,1.18-.03,1.34-.08,.16-.05,.29-.14,.39-.28,.1-.13,.14-.3,.14-.51,0-.23-.06-.44-.19-.63-.13-.19-.29-.31-.48-.38s-.66-.1-1.4-.1h-2.19v-1.37h5.19v1.27Z"/>
      <path d="M367.44,322.7h1.09v.94h2.09c.42,0,.67,0,.74-.03,.07-.02,.13-.06,.17-.12,.05-.06,.07-.14,.07-.23,0-.13-.04-.31-.13-.55l1.06-.12c.14,.32,.21,.68,.21,1.08,0,.25-.04,.47-.12,.67s-.19,.34-.32,.44c-.13,.09-.31,.16-.54,.19-.16,.03-.48,.04-.97,.04h-2.26v.63h-1.09v-.63h-1.03l-.8-1.38h1.83v-.94Z"/>
      <path d="M372.62,318.53v1.37h-5.17c.47,.5,.82,1.09,1.04,1.77h-1.25c-.12-.36-.34-.75-.67-1.17s-.71-.71-1.15-.86v-1.11h7.19Z"/>
    </g>
    <g>
      <path d="M387.02,338.05v1.57l-1.63,.62v2.86l1.63,.59v1.53l-7.16-2.79v-1.53l7.16-2.87Zm-2.83,2.66l-2.66,.99,2.66,.97v-1.95Z"/>
      <path d="M384.36,337.61c-.46,0-.9-.11-1.32-.34-.43-.22-.75-.54-.98-.96-.22-.41-.34-.87-.34-1.38,0-.79,.25-1.43,.76-1.93,.51-.5,1.15-.75,1.93-.75s1.43,.25,1.95,.76c.52,.51,.77,1.14,.77,1.91,0,.47-.11,.93-.32,1.36-.21,.43-.53,.76-.95,.98-.41,.22-.92,.34-1.52,.34Zm.07-1.41c.51,0,.91-.12,1.18-.37s.41-.54,.41-.9-.14-.66-.41-.9c-.27-.24-.67-.36-1.19-.36s-.9,.12-1.17,.36c-.27,.24-.41,.54-.41,.9s.14,.66,.41,.9,.67,.37,1.18,.37Z"/>
      <path d="M387.02,327.78h-.78c.28,.19,.5,.44,.65,.74,.16,.31,.24,.63,.24,.97s-.08,.66-.23,.94-.37,.48-.64,.6-.66,.19-1.15,.19h-3.28v-1.37h2.38c.73,0,1.18-.03,1.34-.08,.17-.05,.29-.14,.39-.28,.1-.13,.14-.3,.14-.51,0-.23-.06-.44-.19-.63-.13-.19-.29-.31-.48-.38-.19-.07-.66-.1-1.4-.1h-2.19v-1.37h5.19v1.27Z"/>
      <path d="M381.84,322.7h1.09v.94h2.09c.42,0,.67,0,.74-.03,.07-.02,.13-.06,.17-.12,.05-.06,.07-.14,.07-.23,0-.13-.04-.31-.13-.55l1.06-.12c.14,.32,.21,.68,.21,1.08,0,.25-.04,.47-.12,.67-.08,.2-.19,.34-.32,.44-.13,.09-.31,.16-.53,.19-.16,.03-.48,.04-.97,.04h-2.26v.63h-1.09v-.63h-1.03l-.8-1.38h1.83v-.94Z"/>
      <path d="M385.75,317.41h1.27v4.81c-.48-.05-.94-.21-1.37-.47-.43-.26-1-.77-1.72-1.54-.58-.62-.97-1-1.17-1.14-.28-.19-.56-.28-.84-.28-.31,0-.54,.08-.71,.25s-.25,.39-.25,.68,.09,.51,.26,.68,.46,.27,.86,.29l-.14,1.37c-.76-.08-1.3-.34-1.63-.77s-.49-.97-.49-1.61c0-.71,.19-1.26,.57-1.67s.85-.61,1.42-.61c.32,0,.63,.06,.92,.17,.29,.12,.6,.3,.92,.55,.21,.17,.52,.47,.91,.9s.66,.71,.79,.82c.13,.12,.26,.21,.38,.28v-2.72Z"/>
    </g>
    <g>
      <path d="M401.42,338.05v1.57l-1.63,.62v2.86l1.63,.59v1.53l-7.16-2.79v-1.53l7.16-2.87Zm-2.83,2.66l-2.66,.99,2.66,.97v-1.95Z"/>
      <path d="M398.76,337.61c-.46,0-.9-.11-1.32-.34-.43-.22-.75-.54-.98-.96-.22-.41-.34-.87-.34-1.38,0-.79,.25-1.43,.76-1.93,.51-.5,1.15-.75,1.93-.75s1.43,.25,1.95,.76c.52,.51,.77,1.14,.77,1.91,0,.47-.11,.93-.32,1.36-.21,.43-.53,.76-.95,.98s-.92,.34-1.52,.34Zm.07-1.41c.51,0,.91-.12,1.18-.37s.41-.54,.41-.9-.14-.66-.41-.9c-.27-.24-.67-.36-1.19-.36s-.9,.12-1.17,.36c-.27,.24-.41,.54-.41,.9s.14,.66,.41,.9,.67,.37,1.18,.37Z"/>
      <path d="M401.42,327.78h-.78c.28,.19,.49,.44,.65,.74,.16,.31,.24,.63,.24,.97s-.08,.66-.23,.94c-.15,.28-.37,.48-.64,.6-.28,.12-.66,.19-1.15,.19h-3.28v-1.37h2.38c.73,0,1.18-.03,1.34-.08,.17-.05,.29-.14,.39-.28,.1-.13,.14-.3,.14-.51,0-.23-.06-.44-.19-.63-.13-.19-.29-.31-.48-.38s-.66-.1-1.4-.1h-2.19v-1.37h5.19v1.27Z"/>
      <path d="M396.24,322.7h1.09v.94h2.09c.42,0,.67,0,.74-.03,.07-.02,.13-.06,.17-.12,.04-.06,.07-.14,.07-.23,0-.13-.04-.31-.13-.55l1.06-.12c.14,.32,.21,.68,.21,1.08,0,.25-.04,.47-.12,.67s-.19,.34-.32,.44c-.13,.09-.31,.16-.53,.19-.16,.03-.48,.04-.97,.04h-2.26v.63h-1.09v-.63h-1.03l-.8-1.38h1.83v-.94Z"/>
      <path d="M399.52,322.09l-.16-1.33c.34-.04,.6-.16,.78-.34,.18-.19,.27-.41,.27-.67,0-.28-.11-.52-.32-.72-.21-.19-.5-.29-.87-.29s-.62,.09-.82,.28c-.2,.19-.3,.41-.3,.68,0,.18,.03,.39,.1,.63l-1.12-.15c0-.37-.07-.65-.24-.85-.17-.2-.4-.29-.68-.29-.24,0-.43,.07-.58,.21-.14,.14-.21,.33-.21,.57s.08,.43,.24,.6c.16,.17,.4,.27,.71,.3l-.21,1.26c-.43-.09-.78-.22-1.04-.4-.26-.18-.46-.42-.61-.74-.15-.32-.22-.67-.22-1.07,0-.67,.21-1.21,.64-1.62,.35-.33,.75-.5,1.19-.5,.63,0,1.13,.34,1.5,1.03,.09-.41,.28-.74,.59-.98,.31-.25,.67-.37,1.11-.37,.63,0,1.16,.23,1.61,.69,.44,.46,.66,1.03,.66,1.71,0,.65-.19,1.18-.56,1.61-.37,.43-.86,.67-1.46,.74Z"/>
    </g>
    <g>
      <path d="M415.82,338.05v1.57l-1.63,.62v2.86l1.63,.59v1.53l-7.16-2.79v-1.53l7.16-2.87Zm-2.83,2.66l-2.66,.99,2.66,.97v-1.95Z"/>
      <path d="M413.16,337.61c-.46,0-.9-.11-1.32-.34-.43-.22-.75-.54-.98-.96-.22-.41-.34-.87-.34-1.38,0-.79,.25-1.43,.76-1.93,.51-.5,1.15-.75,1.93-.75s1.43,.25,1.95,.76c.52,.51,.77,1.14,.77,1.91,0,.47-.11,.93-.32,1.36-.21,.43-.53,.76-.94,.98s-.92,.34-1.52,.34Zm.07-1.41c.51,0,.91-.12,1.18-.37s.41-.54,.41-.9-.14-.66-.41-.9c-.27-.24-.67-.36-1.19-.36s-.9,.12-1.17,.36c-.27,.24-.41,.54-.41,.9s.14,.66,.41,.9,.67,.37,1.18,.37Z"/>
      <path d="M415.82,327.78h-.78c.28,.19,.5,.44,.65,.74,.16,.31,.24,.63,.24,.97s-.08,.66-.23,.94c-.15,.28-.37,.48-.64,.6-.28,.12-.66,.19-1.15,.19h-3.28v-1.37h2.38c.73,0,1.18-.03,1.34-.08,.16-.05,.29-.14,.39-.28,.1-.13,.14-.3,.14-.51,0-.23-.06-.44-.19-.63-.13-.19-.29-.31-.48-.38s-.66-.1-1.4-.1h-2.19v-1.37h5.19v1.27Z"/>
      <path d="M410.64,322.7h1.09v.94h2.09c.42,0,.67,0,.74-.03,.07-.02,.13-.06,.17-.12,.05-.06,.07-.14,.07-.23,0-.13-.04-.31-.13-.55l1.06-.12c.14,.32,.21,.68,.21,1.08,0,.25-.04,.47-.12,.67s-.19,.34-.32,.44c-.13,.09-.31,.16-.54,.19-.16,.03-.48,.04-.97,.04h-2.26v.63h-1.09v-.63h-1.03l-.8-1.38h1.83v-.94Z"/>
      <path d="M415.82,319.35h-1.44v2.93h-1.2l-4.55-3.11v-1.15h4.54v-.89h1.21v.89h1.44v1.33Zm-2.65,0h-2.45l2.45,1.65v-1.65Z"/>
    </g>
  </g>
  <rect class="cls-4" x="-26" y="158.74" width="115.94" height="62.93" rx="14.17" ry="14.17" transform="translate(-158.24 222.17) rotate(-90)"/>
  <rect class="cls-4" x="495.59" y="158.74" width="115.94" height="62.93" rx="11.68" ry="11.68" transform="translate(363.36 743.77) rotate(-90)"/>
  <g>
    <path d="M42.72,145.55h2.17v5.61h-5.13c-.53-.54-.99-1.33-1.39-2.37s-.6-2.08-.6-3.14c0-1.35,.28-2.52,.85-3.52s1.37-1.75,2.43-2.26,2.2-.76,3.43-.76c1.34,0,2.53,.28,3.58,.84s1.84,1.39,2.4,2.47c.43,.83,.64,1.85,.64,3.08,0,1.6-.34,2.85-1.01,3.75s-1.6,1.48-2.78,1.74l-.48-2.58c.63-.18,1.13-.52,1.5-1.02s.55-1.13,.55-1.88c0-1.14-.36-2.04-1.08-2.71s-1.79-1.01-3.21-1.01c-1.53,0-2.68,.34-3.44,1.02s-1.15,1.57-1.15,2.67c0,.54,.11,1.09,.32,1.64s.47,1.02,.78,1.41h1.63v-2.98Z"/>
    <path d="M37.99,155.9v-2.47h9.33v2.29h-1.33c.63,.39,1.04,.75,1.24,1.06s.3,.67,.3,1.07c0,.56-.16,1.1-.47,1.63l-2.15-.76c.27-.42,.4-.8,.4-1.16s-.1-.64-.29-.88-.53-.43-1.03-.57-1.54-.21-3.13-.21h-2.88Z"/>
    <path d="M42.79,159.97c.82,0,1.61,.2,2.38,.61s1.35,.98,1.76,1.72,.61,1.57,.61,2.48c0,1.41-.46,2.57-1.38,3.47s-2.08,1.35-3.48,1.35-2.58-.46-3.51-1.37-1.39-2.06-1.39-3.44c0-.86,.19-1.67,.58-2.45s.95-1.37,1.7-1.77,1.66-.61,2.73-.61Zm-.13,2.53c-.93,0-1.63,.22-2.13,.66s-.74,.98-.74,1.63,.25,1.19,.74,1.62c.49,.44,1.21,.66,2.14,.66s1.62-.22,2.11-.66c.49-.44,.74-.98,.74-1.62s-.25-1.19-.74-1.63-1.2-.66-2.13-.66Z"/>
    <path d="M37.99,177.68h1.4c-.5-.34-.89-.79-1.18-1.34-.29-.55-.43-1.14-.43-1.75s.14-1.19,.41-1.69,.66-.86,1.16-1.08,1.19-.33,2.07-.33h5.91v2.47h-4.29c-1.31,0-2.12,.04-2.41,.14-.3,.09-.53,.26-.7,.5s-.26,.54-.26,.91c0,.42,.12,.8,.35,1.13s.52,.56,.86,.69,1.18,.18,2.52,.18h3.94v2.47h-9.33v-2.29Z"/>
    <path d="M37.99,191.02v-2.47h4.76c1.01,0,1.66-.05,1.96-.16s.53-.28,.69-.51c.16-.24,.25-.52,.25-.86,0-.43-.12-.81-.35-1.15s-.54-.57-.93-.7c-.39-.13-1.1-.19-2.14-.19h-4.23v-2.47h9.33v2.29h-1.37c1.05,.81,1.58,1.84,1.58,3.08,0,.54-.1,1.04-.29,1.49s-.45,.79-.75,1.02-.65,.39-1.04,.48c-.39,.09-.94,.14-1.66,.14h-5.8Z"/>
    <path d="M37.99,202.09v-2.29h1.37c-.53-.38-.93-.83-1.19-1.35-.26-.52-.39-1.04-.39-1.57,0-1.07,.43-1.99,1.3-2.76,.86-.76,2.07-1.15,3.62-1.15s2.78,.37,3.61,1.12,1.23,1.68,1.23,2.82c0,1.04-.43,1.95-1.3,2.71h4.64v2.47h-12.88Zm4.87-6.59c-1,0-1.72,.14-2.16,.41-.64,.4-.97,.96-.97,1.67,0,.57,.24,1.05,.73,1.45s1.21,.6,2.17,.6c1.07,0,1.84-.19,2.32-.58s.71-.88,.71-1.49-.23-1.08-.7-1.47c-.47-.39-1.16-.59-2.09-.59Z"/>
    <path d="M50.87,209.55v5.15c0,1.02-.04,1.78-.13,2.28-.08,.5-.26,.95-.53,1.34-.27,.4-.63,.73-1.08,.99s-.95,.4-1.51,.4c-.6,0-1.16-.16-1.66-.49-.5-.32-.88-.77-1.13-1.32-.23,.79-.62,1.39-1.17,1.81s-1.2,.63-1.94,.63c-.59,0-1.16-.14-1.71-.41-.55-.27-1-.65-1.33-1.12s-.53-1.05-.61-1.74c-.05-.43-.08-1.48-.09-3.14v-4.39h12.88Zm-7.27,2.6h-3.45v2.41c0,.94,.03,1.53,.08,1.78,.07,.39,.24,.7,.51,.94s.64,.37,1.09,.37c.39,0,.71-.09,.98-.28s.47-.46,.59-.81c.12-.36,.18-1.12,.18-2.31v-2.1Zm5.12,0h-2.98v1.71c0,1.01,.01,1.64,.04,1.89,.05,.45,.21,.8,.46,1.05,.25,.26,.59,.38,1.01,.38s.72-.11,.97-.33c.25-.22,.4-.55,.45-.98,.03-.26,.04-1,.04-2.22v-1.49Z"/>
    <path d="M37.99,228.66h1.4c-.5-.34-.89-.79-1.18-1.34-.29-.55-.43-1.14-.43-1.75s.14-1.19,.41-1.69,.66-.86,1.16-1.08,1.19-.33,2.07-.33h5.91v2.47h-4.29c-1.31,0-2.12,.04-2.41,.14-.3,.09-.53,.26-.7,.5s-.26,.54-.26,.91c0,.42,.12,.8,.35,1.13s.52,.56,.86,.69,1.18,.18,2.52,.18h3.94v2.47h-9.33v-2.29Z"/>
    <path d="M40.65,232.65l.38,2.48c-.48,.11-.85,.32-1.09,.64s-.37,.77-.37,1.35c0,.64,.12,1.12,.35,1.44,.16,.22,.38,.33,.66,.33,.19,0,.34-.06,.47-.18,.12-.12,.23-.4,.33-.83,.44-1.99,.84-3.25,1.2-3.79,.5-.74,1.2-1.11,2.1-1.11,.81,0,1.49,.32,2.04,.96s.83,1.63,.83,2.97-.21,2.23-.62,2.85-1.03,1.05-1.85,1.28l-.43-2.33c.36-.1,.64-.29,.83-.57s.29-.67,.29-1.19c0-.65-.09-1.12-.27-1.4-.13-.19-.3-.28-.5-.28-.18,0-.33,.08-.45,.25-.16,.22-.4,.99-.69,2.31s-.67,2.23-1.1,2.76c-.44,.52-1.05,.77-1.84,.77-.86,0-1.59-.36-2.21-1.07s-.92-1.77-.92-3.17c0-1.27,.26-2.28,.77-3.02,.52-.74,1.22-1.23,2.1-1.46Z"/>
  </g>
  <g>
    <path d="M544.25,232.95l-.25-2.46c.56-.07,1-.28,1.32-.62s.49-.74,.49-1.2c0-.52-.21-.95-.63-1.31s-1.05-.54-1.89-.54c-.79,0-1.38,.18-1.78,.53-.4,.36-.59,.82-.59,1.38,0,.71,.31,1.34,.94,1.91l-.29,2-6.71-1.27v-6.53h2.31v4.66l2.19,.39c-.28-.55-.41-1.11-.41-1.69,0-1.1,.4-2.02,1.2-2.79s1.83-1.14,3.1-1.14c1.06,0,2.01,.31,2.84,.92,1.14,.84,1.71,2,1.71,3.49,0,1.19-.32,2.16-.96,2.91-.64,.75-1.5,1.2-2.58,1.34Z"/>
    <path d="M547.56,219.14l-12.88,4.61v-2.82l9.54-3.26-9.54-3.16v-2.76l12.88,4.61v2.78Z"/>
    <path d="M534.68,210.43v-4.75c0-1.07,.08-1.89,.25-2.45,.22-.76,.62-1.4,1.19-1.94s1.26-.95,2.09-1.23,1.84-.42,3.05-.42c1.06,0,1.97,.13,2.74,.4,.94,.32,1.7,.78,2.28,1.38,.44,.45,.78,1.06,1.03,1.83,.18,.57,.27,1.34,.27,2.3v4.9h-12.88Zm2.18-2.6h8.53v-1.94c0-.73-.04-1.25-.12-1.57-.11-.42-.28-.77-.54-1.05-.25-.28-.67-.5-1.24-.68s-1.36-.26-2.36-.26-1.76,.09-2.29,.26-.95,.42-1.25,.74-.5,.72-.61,1.2c-.08,.36-.12,1.08-.12,2.14v1.17Z"/>
    <path d="M542.82,189.18l.8-2.52c1.41,.39,2.45,1.03,3.13,1.93s1.02,2.04,1.02,3.42c0,1.71-.58,3.12-1.75,4.22s-2.77,1.65-4.79,1.65c-2.14,0-3.81-.55-5-1.66s-1.78-2.56-1.78-4.37c0-1.58,.47-2.86,1.4-3.84,.55-.59,1.34-1.03,2.37-1.32l.62,2.58c-.67,.15-1.2,.47-1.58,.95-.39,.48-.58,1.07-.58,1.76,0,.96,.34,1.73,1.03,2.32,.69,.6,1.8,.89,3.33,.89,1.63,0,2.79-.29,3.48-.88,.69-.59,1.04-1.35,1.04-2.29,0-.69-.22-1.29-.66-1.78s-1.13-.86-2.07-1.07Z"/>
    <path d="M534.68,179.41v-5.15c0-1.02,.04-1.78,.13-2.28,.08-.5,.26-.95,.53-1.34,.27-.4,.63-.73,1.08-.99s.95-.4,1.51-.4c.6,0,1.16,.16,1.66,.49,.5,.32,.88,.77,1.13,1.32,.23-.79,.62-1.39,1.17-1.81s1.2-.63,1.94-.63c.59,0,1.16,.14,1.71,.41,.55,.27,1,.65,1.33,1.12s.54,1.05,.61,1.74c.05,.43,.08,1.48,.09,3.14v4.39h-12.88Zm2.14-2.6h2.98v-1.71c0-1.01-.01-1.64-.04-1.89-.05-.45-.21-.8-.46-1.05-.25-.26-.59-.38-1.01-.38s-.72,.11-.97,.33c-.25,.22-.4,.55-.45,.98-.03,.26-.04,1-.04,2.22v1.49Zm5.12,0h3.45v-2.41c0-.94-.03-1.53-.08-1.78-.07-.39-.24-.7-.51-.94s-.64-.37-1.09-.37c-.39,0-.71,.09-.98,.28s-.47,.46-.59,.81c-.12,.36-.18,1.12-.18,2.31v2.1Z"/>
    <path d="M547.56,160.3h-1.4c.5,.34,.89,.79,1.18,1.34,.29,.55,.43,1.14,.43,1.75s-.14,1.19-.41,1.69-.66,.86-1.16,1.08-1.19,.33-2.07,.33h-5.91v-2.47h4.29c1.31,0,2.12-.04,2.41-.14,.3-.09,.53-.26,.7-.5s.26-.54,.26-.91c0-.42-.12-.8-.35-1.13s-.52-.56-.86-.69-1.18-.18-2.52-.18h-3.94v-2.47h9.33v2.29Z"/>
    <path d="M544.9,156.32l-.38-2.48c.48-.11,.84-.32,1.09-.64s.37-.77,.37-1.35c0-.64-.12-1.12-.35-1.44-.16-.22-.38-.33-.66-.33-.19,0-.34,.06-.47,.18-.12,.12-.23,.4-.33,.83-.44,1.99-.84,3.25-1.2,3.79-.5,.74-1.2,1.11-2.1,1.11-.81,0-1.49-.32-2.04-.96s-.83-1.63-.83-2.97,.21-2.23,.62-2.85,1.03-1.05,1.85-1.28l.43,2.33c-.36,.1-.64,.29-.83,.57s-.29,.67-.29,1.19c0,.65,.09,1.12,.27,1.4,.13,.19,.3,.28,.5,.28,.18,0,.33-.08,.45-.25,.16-.22,.4-.99,.69-2.31s.67-2.23,1.1-2.76c.44-.52,1.05-.77,1.84-.77,.86,0,1.59,.36,2.21,1.07s.92,1.77,.92,3.17c0,1.27-.26,2.28-.77,3.02-.52,.74-1.22,1.23-2.1,1.46Z"/>
  </g>
  <g>
    <image width="673" height="304" transform="translate(212.01 121.37) scale(.24)" xlink:href="../../software/Web/Website/Website/root/images/sigcore-uc-logo.png"/>
    <g>
      <path d="M212.6,205.16h1.73v4.65c0,.74,.02,1.22,.06,1.44,.07,.35,.25,.63,.53,.85s.66,.32,1.15,.32,.86-.1,1.11-.3,.4-.45,.45-.74,.08-.78,.08-1.46v-4.75h1.73v4.51c0,1.03-.05,1.76-.14,2.19s-.27,.79-.52,1.08-.59,.53-1.01,.7-.97,.26-1.65,.26c-.82,0-1.44-.09-1.87-.28s-.76-.44-1-.74-.41-.62-.49-.95c-.11-.49-.17-1.22-.17-2.18v-4.58Z"/>
      <path d="M223.16,213.75v-8.59h1.69l3.52,5.74v-5.74h1.61v8.59h-1.74l-3.46-5.6v5.6h-1.61Z"/>
      <path d="M233.62,213.75v-8.59h1.73v8.59h-1.73Z"/>
      <path d="M241.05,213.75l-3.07-8.59h1.88l2.17,6.36,2.1-6.36h1.84l-3.08,8.59h-1.85Z"/>
      <path d="M248.73,213.75v-8.59h6.37v1.45h-4.63v1.9h4.31v1.45h-4.31v2.34h4.8v1.45h-6.53Z"/>
      <path d="M258.6,213.75v-8.59h3.65c.92,0,1.58,.08,2,.23s.75,.43,1,.82,.38,.85,.38,1.35c0,.64-.19,1.18-.57,1.6s-.95,.68-1.7,.79c.38,.22,.68,.46,.93,.72s.57,.73,.99,1.39l1.05,1.68h-2.07l-1.25-1.87c-.45-.67-.75-1.09-.91-1.26s-.34-.29-.52-.36-.47-.1-.87-.1h-.35v3.59h-1.73Zm1.73-4.96h1.28c.83,0,1.35-.04,1.56-.11s.37-.19,.49-.36,.18-.39,.18-.64c0-.29-.08-.52-.23-.7s-.37-.29-.65-.34c-.14-.02-.56-.03-1.27-.03h-1.35v2.18Z"/>
      <path d="M268.68,210.95l1.69-.16c.1,.57,.31,.98,.62,1.25s.73,.4,1.26,.4c.56,0,.98-.12,1.26-.35s.42-.51,.42-.83c0-.2-.06-.38-.18-.52s-.33-.27-.62-.37c-.2-.07-.67-.2-1.39-.38-.93-.23-1.58-.51-1.96-.85-.53-.47-.79-1.05-.79-1.73,0-.44,.12-.85,.37-1.23s.61-.67,1.07-.87,1.03-.3,1.69-.3c1.08,0,1.89,.24,2.43,.71s.83,1.1,.86,1.89l-1.73,.08c-.07-.44-.23-.76-.48-.95s-.61-.29-1.1-.29-.9,.1-1.18,.31c-.18,.13-.28,.31-.28,.53,0,.2,.09,.38,.26,.52,.22,.18,.75,.38,1.59,.57s1.47,.41,1.87,.62,.72,.5,.95,.87,.34,.83,.34,1.37c0,.49-.14,.95-.41,1.38s-.66,.75-1.16,.96-1.12,.31-1.87,.31c-1.09,0-1.92-.25-2.5-.75s-.93-1.23-1.04-2.19Z"/>
      <path d="M286.73,213.75h-1.89l-.75-1.95h-3.43l-.71,1.95h-1.84l3.35-8.59h1.83l3.44,8.59Zm-3.19-3.4l-1.18-3.19-1.16,3.19h2.34Z"/>
      <path d="M289.55,213.75v-8.52h1.73v7.07h4.31v1.45h-6.05Z"/>
      <path d="M309.17,210.59l1.68,.53c-.26,.94-.69,1.63-1.29,2.09s-1.36,.68-2.28,.68c-1.14,0-2.08-.39-2.81-1.17s-1.1-1.84-1.1-3.2c0-1.43,.37-2.54,1.11-3.33s1.71-1.19,2.91-1.19c1.05,0,1.9,.31,2.56,.93,.39,.37,.68,.89,.88,1.58l-1.72,.41c-.1-.45-.31-.8-.64-1.05s-.71-.39-1.17-.39c-.64,0-1.15,.23-1.55,.69s-.59,1.2-.59,2.22c0,1.09,.2,1.86,.59,2.32s.9,.69,1.52,.69c.46,0,.86-.15,1.19-.44s.57-.75,.71-1.38Z"/>
      <path d="M313.85,209.51c0-.88,.13-1.61,.39-2.2,.2-.44,.46-.83,.8-1.18s.71-.61,1.11-.77c.54-.23,1.15-.34,1.85-.34,1.27,0,2.28,.39,3.04,1.18s1.14,1.88,1.14,3.28-.38,2.47-1.13,3.25-1.76,1.17-3.02,1.17-2.29-.39-3.05-1.17-1.13-1.85-1.13-3.22Zm1.79-.06c0,.97,.22,1.71,.67,2.21s1.02,.75,1.71,.75,1.26-.25,1.7-.75,.67-1.25,.67-2.24-.22-1.72-.65-2.2-1-.73-1.72-.73-1.29,.25-1.73,.74-.66,1.23-.66,2.22Z"/>
      <path d="M325.41,213.75v-8.59h1.69l3.52,5.74v-5.74h1.61v8.59h-1.74l-3.46-5.6v5.6h-1.61Z"/>
      <path d="M337.85,213.75v-7.14h-2.55v-1.45h6.83v1.45h-2.54v7.14h-1.73Z"/>
      <path d="M345.12,213.75v-8.59h3.65c.92,0,1.58,.08,2,.23s.75,.43,1,.82,.38,.85,.38,1.35c0,.64-.19,1.18-.57,1.6s-.95,.68-1.7,.79c.38,.22,.68,.46,.93,.72s.57,.73,.99,1.39l1.05,1.68h-2.07l-1.25-1.87c-.45-.67-.75-1.09-.91-1.26s-.34-.29-.52-.36-.47-.1-.87-.1h-.35v3.59h-1.73Zm1.73-4.96h1.28c.83,0,1.35-.04,1.56-.11s.37-.19,.49-.36,.18-.39,.18-.64c0-.29-.08-.52-.23-.7s-.37-.29-.65-.34c-.14-.02-.56-.03-1.27-.03h-1.35v2.18Z"/>
      <path d="M355.28,209.51c0-.88,.13-1.61,.39-2.2,.2-.44,.46-.83,.8-1.18s.71-.61,1.11-.77c.54-.23,1.15-.34,1.85-.34,1.27,0,2.28,.39,3.04,1.18s1.14,1.88,1.14,3.28-.38,2.47-1.13,3.25-1.76,1.17-3.02,1.17-2.29-.39-3.05-1.17-1.13-1.85-1.13-3.22Zm1.79-.06c0,.97,.22,1.71,.67,2.21s1.02,.75,1.71,.75,1.26-.25,1.7-.75,.67-1.25,.67-2.24-.22-1.72-.65-2.2-1-.73-1.72-.73-1.29,.25-1.73,.74-.66,1.23-.66,2.22Z"/>
      <path d="M366.88,213.75v-8.52h1.73v7.07h4.31v1.45h-6.05Z"/>
    </g>
    <line class="cls-3" x1="212.01" y1="199.36" x2="373.53" y2="199.36"/>
  </g>
</svg>